<svg width="100" height="100" viewBox="0 0 100 100" fill="none" xmlns="http://www.w3.org/2000/svg">
<rect width="100" height="100" fill="#262626"/>
<g clip-path="url(#clip0_1019_500)">
<rect width="1440" height="1024" transform="translate(-670 -358)" fill="white"/>
<rect width="1440" height="1024" transform="translate(-670 -358)" fill="#0B5351"/>
<rect width="1440" height="1024" transform="translate(-670 -358)" fill="white"/>
<circle cx="50.5" cy="49.5" r="115.5" fill="#F8F8F8"/>
<g clip-path="url(#clip1_1019_500)">
<mask id="mask0_1019_500" style="mask-type:luminance" maskUnits="userSpaceOnUse" x="0" y="0" width="100" height="100">
<path d="M100 0H0V100H100V0Z" fill="white"/>
</mask>
<g mask="url(#mask0_1019_500)">
<path d="M50.1853 7.21875C45.5557 7.21875 42.5824 9.92801 42.5824 9.92801L8.43533 36.2351C6.56607 37.7005 5.47412 39.9439 5.47412 42.3191V88.1899C5.47412 90.413 6.44634 92.4093 7.98801 93.775C9.3056 94.9445 11.0389 95.6538 12.938 95.6538H87.0621C88.9612 95.6538 90.6945 94.9445 92.0121 93.775C93.5538 92.4093 94.526 90.413 94.526 88.1899V42.3483C94.526 39.9565 93.4189 37.6995 91.5277 36.2353L58.2227 10.3238C58.2227 10.3238 54.815 7.21875 50.1853 7.21875Z" stroke="#4FA87B" stroke-width="3.7037" stroke-linecap="round" stroke-linejoin="round"/>
<path d="M92.0124 93.7726C90.6948 94.9421 88.9614 95.6513 87.0624 95.6513H12.9383C11.0392 95.6513 9.30587 94.9421 7.98828 93.7726L46.117 65.2837C46.1531 65.2569 46.1892 65.23 46.2253 65.2041L50.0003 62.3828L53.7753 65.2041C53.8114 65.23 53.8475 65.2569 53.8837 65.2837L92.0124 93.7726Z" fill="#068645"/>
<mask id="mask1_1019_500" style="mask-type:alpha" maskUnits="userSpaceOnUse" x="-12" y="-34" width="127" height="102">
<path d="M-9.62839 30.5499C-9.62839 30.5499 -12.4062 -30.0056 -11.6654 -26.4871C-10.9247 -22.9686 114.075 -33.8945 114.075 -33.8945L99.6309 34.624L55.3716 67.2166L49.8161 64.0684L44.2605 66.661L7.77902 39.4388L-9.62839 30.5499Z" fill="white"/>
</mask>
<g mask="url(#mask1_1019_500)">
<path d="M16.6271 46.1728C19.6381 48.0074 22.3808 50.2626 25.0482 52.5668C26.4118 53.7448 27.7574 54.9439 29.1123 56.1319C29.775 56.713 30.44 57.2916 31.1109 57.8629C31.7564 58.4127 32.4441 58.9255 33.0665 59.5009C34.2919 60.6338 35.41 61.8792 36.6108 63.0379C37.7729 64.1594 39.0231 65.2584 40.5057 65.9216C41.644 66.4309 42.9247 66.9006 44.008 66.0476C44.4145 65.7275 44.7685 65.3415 45.1491 64.9916C45.6854 64.4985 46.2647 64.0426 46.8942 63.6769C47.7895 63.1568 49.0634 62.533 50.1075 62.9526C50.532 63.1231 50.8933 63.424 51.2433 63.7136C51.8453 64.2118 52.4349 64.7283 53.0782 65.1729C54.1165 65.8904 55.5887 66.6345 56.8654 66.193C57.4553 65.9891 57.9846 65.6176 58.4944 65.2636C59.2267 64.7551 59.9565 64.2423 60.6866 63.7305C63.8439 61.5173 66.7724 58.9973 69.7764 56.5816C72.6667 54.2574 75.737 52.183 78.6318 49.8661C80.4993 48.3714 82.2929 46.7957 84.025 45.1554V10.252C84.025 7.15294 81.5404 4.64062 78.4757 4.64062H21.5253C18.4606 4.64062 15.9761 7.15294 15.9761 10.252V45.7876C16.1943 45.9138 16.4117 46.0416 16.6271 46.1728Z" fill="#068645"/>
<path d="M53.7562 19.9074H28.4723C27.0718 19.9074 25.9365 18.7721 25.9365 17.3717C25.9365 15.9712 27.0718 14.8359 28.4723 14.8359H53.7562C55.1566 14.8359 56.2919 15.9712 56.2919 17.3717C56.2919 18.7721 55.1566 19.9074 53.7562 19.9074Z" fill="white"/>
<path d="M71.5284 33.7277H28.4723C27.0718 33.7277 25.9365 32.5925 25.9365 31.192C25.9365 29.7915 27.0718 28.6562 28.4723 28.6562H71.5284C72.9288 28.6562 74.0641 29.7915 74.0641 31.192C74.0641 32.5925 72.9288 33.7277 71.5284 33.7277Z" fill="white"/>
<path d="M71.5284 44.9699H28.4723C27.0718 44.9699 25.9365 43.8346 25.9365 42.4342C25.9365 41.0337 27.0718 39.8984 28.4723 39.8984H71.5284C72.9288 39.8984 74.0641 41.0337 74.0641 42.4342C74.0641 43.8346 72.9288 44.9699 71.5284 44.9699Z" fill="white"/>
</g>
<path d="M92.963 39.9141L56 66.6907" stroke="#4FA87B" stroke-width="3.7037" stroke-linecap="round" stroke-linejoin="round"/>
<path d="M43.3331 66.1926L7.5 39.9141" stroke="#4FA87B" stroke-width="3.7037" stroke-linecap="round" stroke-linejoin="round"/>
<path d="M92.0124 93.7789C90.6948 94.9484 88.9614 95.6576 87.0624 95.6576H12.9383C11.0392 95.6576 9.30587 94.9484 7.98828 93.7789L46.117 65.29C46.1531 65.2632 46.1892 65.2363 46.2253 65.2104C48.4818 63.5965 51.5188 63.5965 53.7753 65.2104C53.8114 65.2363 53.8475 65.2632 53.8837 65.29L92.0124 93.7789Z" stroke="#4FA87B" stroke-width="3.7037" stroke-linecap="round" stroke-linejoin="round"/>
</g>
</g>
</g>
<defs>
<clipPath id="clip0_1019_500">
<rect width="1440" height="1024" fill="white" transform="translate(-670 -358)"/>
</clipPath>
<clipPath id="clip1_1019_500">
<rect width="100" height="100" fill="white"/>
</clipPath>
</defs>
</svg>
