<svg width="16" height="16" viewBox="0 0 16 16" fill="none" xmlns="http://www.w3.org/2000/svg">
<g id="bell">
<path id="Icon" d="M9.15333 14C9.03613 14.2021 8.8679 14.3698 8.66548 14.4864C8.46307 14.603 8.23359 14.6643 8 14.6643C7.76641 14.6643 7.53693 14.603 7.33452 14.4864C7.13211 14.3698 6.96387 14.2021 6.84667 14M12 5.33334C12 4.27248 11.5786 3.25506 10.8284 2.50492C10.0783 1.75477 9.06087 1.33334 8 1.33334C6.93913 1.33334 5.92172 1.75477 5.17157 2.50492C4.42143 3.25506 4 4.27248 4 5.33334C4 10 2 11.3333 2 11.3333H14C14 11.3333 12 10 12 5.33334Z" stroke="#393E46" stroke-width="1.66667" stroke-linecap="round" stroke-linejoin="round"/>
</g>
</svg>
