<svg width="76" height="19" viewBox="0 0 76 19" fill="none" xmlns="http://www.w3.org/2000/svg">
<path d="M7.034 8.958C6.16733 8.958 5.43067 9.27 4.824 9.894C4.21733 10.5007 3.914 11.2373 3.914 12.104C3.914 12.9707 4.21733 13.7073 4.824 14.314C5.43067 14.9207 6.16733 15.224 7.034 15.224C7.554 15.224 7.97867 15.3887 8.308 15.718C8.63733 16.0473 8.802 16.472 8.802 16.992C8.802 17.512 8.63733 17.9367 8.308 18.266C7.97867 18.578 7.554 18.734 7.034 18.734C5.17933 18.734 3.61067 18.0927 2.328 16.81C1.04533 15.5273 0.404 13.9587 0.404 12.104C0.404 10.232 1.03667 8.65467 2.302 7.372C3.58467 6.08933 5.162 5.448 7.034 5.448C7.554 5.448 7.97867 5.61267 8.308 5.942C8.63733 6.27133 8.802 6.696 8.802 7.216C8.802 7.736 8.63733 8.16067 8.308 8.49C7.97867 8.802 7.554 8.958 7.034 8.958ZM13.7148 11.09V16.992C13.7148 17.512 13.5501 17.9367 13.2208 18.266C12.8914 18.578 12.4668 18.734 11.9468 18.734C11.4268 18.734 11.0021 18.578 10.6728 18.266C10.3608 17.9367 10.2048 17.512 10.2048 16.992V11.09C10.2048 9.51267 10.7421 8.18667 11.8168 7.112C12.9088 6.03733 14.2434 5.5 15.8208 5.5C16.3234 5.5 16.7394 5.66467 17.0688 5.994C17.3981 6.32333 17.5628 6.73933 17.5628 7.242C17.5628 8.31667 16.9648 8.906 15.7688 9.01C15.1794 9.062 14.6854 9.27867 14.2868 9.66C13.9054 10.024 13.7148 10.5007 13.7148 11.09ZM25.5945 5.5C27.4665 5.5 29.0439 6.14133 30.3265 7.424C31.6092 8.68933 32.2505 10.258 32.2505 12.13C32.2505 14.002 31.6092 15.5793 30.3265 16.862C29.0439 18.1447 27.4665 18.786 25.5945 18.786C23.7225 18.786 22.1452 18.1447 20.8625 16.862C19.5972 15.5793 18.9645 14.002 18.9645 12.13C18.9645 10.258 19.5972 8.68933 20.8625 7.424C22.1452 6.14133 23.7225 5.5 25.5945 5.5ZM25.5945 9.01C24.7279 9.01 23.9912 9.31333 23.3845 9.92C22.7779 10.5267 22.4745 11.2633 22.4745 12.13C22.4745 12.9967 22.7779 13.742 23.3845 14.366C23.9912 14.9727 24.7279 15.276 25.5945 15.276C26.4612 15.276 27.1979 14.9727 27.8045 14.366C28.4285 13.742 28.7405 12.9967 28.7405 12.13C28.7405 11.2633 28.4285 10.5267 27.8045 9.92C27.1979 9.31333 26.4612 9.01 25.5945 9.01ZM44.9231 14.366C45.3391 14.9033 45.8938 15.172 46.5871 15.172C47.1764 15.172 47.6704 14.9727 48.0691 14.574C48.4678 14.158 48.6671 13.6553 48.6671 13.066V7.19C48.6671 6.67 48.8318 6.254 49.1611 5.942C49.4904 5.61267 49.9151 5.448 50.4351 5.448C50.9551 5.448 51.3711 5.61267 51.6831 5.942C52.0124 6.254 52.1771 6.67 52.1771 7.19V13.066C52.1771 14.6433 51.6398 15.978 50.5651 17.07C49.4904 18.1447 48.1644 18.682 46.5871 18.682C45.2004 18.682 43.9871 18.24 42.9471 17.356C41.8898 18.24 40.6764 18.682 39.3071 18.682C37.7124 18.682 36.3778 18.1447 35.3031 17.07C34.2284 15.9953 33.6911 14.6607 33.6911 13.066V7.19C33.6911 6.02867 34.2804 5.448 35.4591 5.448C35.9791 5.448 36.3951 5.61267 36.7071 5.942C37.0364 6.254 37.2011 6.67 37.2011 7.19V13.066C37.2011 13.6553 37.4004 14.158 37.7991 14.574C38.2151 14.9727 38.7178 15.172 39.3071 15.172C39.8964 15.172 40.3904 14.9727 40.7891 14.574C41.2051 14.158 41.4131 13.6553 41.4131 13.066V7.19C41.4131 6.67 41.5691 6.254 41.8811 5.942C42.2104 5.61267 42.6351 5.448 43.1551 5.448C44.3338 5.448 44.9231 6.02867 44.9231 7.19V14.366ZM60.2274 8.958C59.3607 8.958 58.624 9.27 58.0174 9.894C57.4107 10.5007 57.1074 11.2373 57.1074 12.104C57.1074 12.9707 57.4107 13.7073 58.0174 14.314C58.624 14.9207 59.3607 15.224 60.2274 15.224C61.094 15.224 61.8307 14.9207 62.4374 14.314C63.0614 13.7073 63.3734 12.9707 63.3734 12.104V1.912C63.3734 1.40933 63.538 0.993332 63.8674 0.663999C64.1967 0.334665 64.6127 0.169999 65.1154 0.169999C65.6354 0.169999 66.06 0.334665 66.3894 0.663999C66.7187 0.975999 66.8834 1.392 66.8834 1.912V12.104C66.8834 13.9587 66.2334 15.5273 64.9334 16.81C63.6507 18.0927 62.082 18.734 60.2274 18.734C58.3727 18.734 56.804 18.0927 55.5214 16.81C54.2387 15.5273 53.5974 13.9587 53.5974 12.104C53.5974 10.232 54.23 8.65467 55.4954 7.372C56.778 6.08933 58.3554 5.448 60.2274 5.448C60.7474 5.448 61.172 5.61267 61.5014 5.942C61.8307 6.27133 61.9954 6.696 61.9954 7.216C61.9954 7.736 61.8307 8.16067 61.5014 8.49C61.172 8.802 60.7474 8.958 60.2274 8.958ZM71.8085 11.09V16.992C71.8085 17.512 71.6439 17.9367 71.3145 18.266C70.9852 18.578 70.5605 18.734 70.0405 18.734C69.5205 18.734 69.0959 18.578 68.7665 18.266C68.4545 17.9367 68.2985 17.512 68.2985 16.992V11.09C68.2985 9.51267 68.8359 8.18667 69.9105 7.112C71.0025 6.03733 72.3372 5.5 73.9145 5.5C74.4172 5.5 74.8332 5.66467 75.1625 5.994C75.4919 6.32333 75.6565 6.73933 75.6565 7.242C75.6565 8.31667 75.0585 8.906 73.8625 9.01C73.2732 9.062 72.7792 9.27867 72.3805 9.66C71.9992 10.024 71.8085 10.5007 71.8085 11.09Z" fill="#008347"/>
</svg>
