<svg width="16" height="16" viewBox="0 0 16 16" fill="none" xmlns="http://www.w3.org/2000/svg">
<g clip-path="url(#clip0_6903_1152)">
<path d="M9.28767 2.66667C9.82997 2.6672 10.3499 2.88286 10.7334 3.26632C11.1168 3.64978 11.3325 4.16971 11.333 4.712C11.333 4.88881 11.4032 5.05838 11.5283 5.1834C11.6533 5.30843 11.8229 5.37867 11.9997 5.37867C12.1765 5.37867 12.3461 5.30843 12.4711 5.1834C12.5961 5.05838 12.6663 4.88881 12.6663 4.712V4.66667C12.6663 4.654 12.6663 4.64267 12.6663 4.63C12.6441 3.74849 12.2784 2.91052 11.6473 2.2947C11.0162 1.67889 10.1695 1.33392 9.28767 1.33333H8.66634V0.666667C8.66634 0.489856 8.5961 0.320286 8.47108 0.195262C8.34605 0.0702379 8.17649 0 7.99967 0C7.82286 0 7.65329 0.0702379 7.52827 0.195262C7.40325 0.320286 7.33301 0.489856 7.33301 0.666667V1.33333H6.71167C5.90989 1.33419 5.13453 1.62016 4.5242 2.14012C3.91387 2.66008 3.50835 3.38015 3.38011 4.17162C3.25187 4.96308 3.40928 5.77436 3.8242 6.46044C4.23912 7.14652 4.88451 7.66268 5.64501 7.91667L7.33301 8.48V13.3333H6.71167C6.16938 13.3328 5.64945 13.1171 5.26599 12.7337C4.88253 12.3502 4.66687 11.8303 4.66634 11.288C4.66634 11.1112 4.5961 10.9416 4.47108 10.8166C4.34605 10.6916 4.17649 10.6213 3.99967 10.6213C3.82286 10.6213 3.65329 10.6916 3.52827 10.8166C3.40325 10.9416 3.33301 11.1112 3.33301 11.288V11.3333C3.33301 11.346 3.33301 11.3573 3.33301 11.37C3.35526 12.2515 3.72092 13.0895 4.35205 13.7053C4.98319 14.3211 5.82988 14.6661 6.71167 14.6667H7.33301V15.3333C7.33301 15.5101 7.40325 15.6797 7.52827 15.8047C7.65329 15.9298 7.82286 16 7.99967 16C8.17649 16 8.34605 15.9298 8.47108 15.8047C8.5961 15.6797 8.66634 15.5101 8.66634 15.3333V14.6667H9.28767C10.0895 14.6658 10.8648 14.3798 11.4751 13.8599C12.0855 13.3399 12.491 12.6199 12.6192 11.8284C12.7475 11.0369 12.5901 10.2256 12.1751 9.53956C11.7602 8.85348 11.1148 8.33732 10.3543 8.08333L8.66634 7.52V2.66667H9.28767ZM9.93434 9.34733C10.3953 9.50075 10.7866 9.81323 11.0382 10.2288C11.2897 10.6444 11.3852 11.136 11.3074 11.6155C11.2296 12.0951 10.9836 12.5313 10.6136 12.846C10.2435 13.1608 9.77348 13.3335 9.28767 13.3333H8.66634V8.92467L9.93434 9.34733ZM7.33301 7.07533L6.06634 6.65267C5.6055 6.49929 5.21428 6.18691 4.9627 5.77146C4.71111 5.356 4.61559 4.86457 4.69321 4.38512C4.77083 3.90566 5.01654 3.46948 5.38636 3.15463C5.75618 2.83978 6.22598 2.6668 6.71167 2.66667H7.33301V7.07533Z" fill="#393E46"/>
</g>
<defs>
<clipPath id="clip0_6903_1152">
<rect width="16" height="16" fill="white"/>
</clipPath>
</defs>
</svg>
