<svg width="372" height="110" viewBox="0 0 372 110" fill="none" xmlns="http://www.w3.org/2000/svg">
<rect x="2" width="368" height="56.8178" rx="5.95951" fill="#F9F9F9"/>
<path d="M14.2527 20.2479C14.2527 18.1725 15.5563 16.4934 17.8612 16.4934C19.9261 16.4934 20.8752 17.6302 21.0942 18.913H20.0096C19.7488 17.8909 19.0188 17.4112 17.8612 17.4112C16.3072 17.4112 15.3373 18.6731 15.3373 20.2479C15.3373 21.8227 16.1612 23.0846 17.7986 23.0846C19.0918 23.0846 19.8323 22.0938 19.9991 20.9988H17.9237V20.081H21.0942V23.9189H20.0096V23.1472C20.0096 22.9386 20.0409 22.7509 20.1139 22.5423C20.1451 22.4589 20.166 22.3963 20.1034 22.365C20.0513 22.3337 20.0096 22.3859 19.9887 22.438C19.7801 22.949 19.0918 24.0024 17.6109 24.0024C15.4833 24.0024 14.2527 22.3233 14.2527 20.2479ZM24.5999 18.4958C26.2164 18.4958 27.1863 19.7369 27.1863 21.2491C27.1863 22.7613 26.2164 24.0024 24.5999 24.0024C22.9833 24.0024 22.0134 22.7613 22.0134 21.2491C22.0134 19.7369 22.9833 18.4958 24.5999 18.4958ZM24.5999 23.0846C25.6011 23.0846 26.1851 22.2607 26.1851 21.2491C26.1851 20.2375 25.6011 19.4136 24.5999 19.4136C23.5987 19.4136 23.0146 20.2375 23.0146 21.2491C23.0146 22.2607 23.5987 23.0846 24.5999 23.0846ZM27.8493 22.4276C27.8493 21.2074 28.7462 20.8319 29.7682 20.7589C30.7277 20.6859 31.6976 20.8006 31.6872 20.2479C31.6768 19.8099 31.4265 19.3718 30.3314 19.3718C29.3928 19.3718 29.0695 19.7264 28.9965 20.2479H28.0161C28.2039 19.0277 29.1425 18.4958 30.3731 18.4958C31.5725 18.4958 32.6884 18.913 32.6884 20.8736V23.9189H31.6872V23.4079C31.6872 23.2098 31.7081 23.0533 31.8019 22.7822C31.8228 22.6883 31.8645 22.6049 31.7915 22.5736C31.7081 22.5423 31.6872 22.6257 31.6663 22.6779C31.3639 23.4705 30.6547 24.0024 29.6848 24.0024C28.6732 24.0024 27.8493 23.3349 27.8493 22.4276ZM31.6872 21.0405C31.3639 21.4368 30.6443 21.4472 29.8308 21.562C29.1842 21.6558 28.8505 21.8853 28.8505 22.3754C28.8505 22.803 29.2051 23.1993 30.0707 23.0846C30.8842 22.9803 31.6768 22.3859 31.6872 21.0405ZM33.9374 16.41H34.9386V23.9189H33.9374V16.41Z" fill="#292A2E"/>
<path d="M39.4434 23.9189V23.0012C40.5176 22.365 40.3612 21.6662 40.163 20.7485H39.4434V20.081H39.9753C39.9023 19.8411 39.7771 19.205 39.7771 18.7669C39.7771 17.4112 40.7783 16.4934 42.1237 16.4934C43.6359 16.4934 44.4494 17.4946 44.4494 18.913H43.5108C43.5108 18.0995 43.1353 17.4112 42.1237 17.4112C41.1433 17.4112 40.7992 18.1621 40.7783 18.8087C40.7679 19.1007 40.9243 19.7577 41.0182 20.081H43.3648V20.7485H41.1642C41.3936 21.781 41.2476 22.6674 40.5802 23.0429C40.5385 23.0638 40.4759 23.1055 40.5176 23.168C40.5489 23.2202 40.601 23.1993 40.6532 23.1785C40.8096 23.1159 40.966 23.0429 41.1642 23.0429H44.439V23.9189H39.4434ZM45.6192 20.8632C45.6192 18.2872 46.3076 16.4934 48.4247 16.4934C49.8848 16.4934 50.7191 17.3486 50.7921 18.4124H49.8326C49.7596 17.9848 49.4259 17.4112 48.4351 17.4112C47.2045 17.4112 46.829 18.3915 46.7143 19.2571C46.7039 19.3093 46.6622 19.4553 46.5892 19.6013C46.5474 19.6951 46.4431 19.7994 46.537 19.8411C46.5892 19.862 46.6413 19.789 46.6622 19.7681C47.0063 19.3718 47.6008 19.0277 48.529 19.0277C50.0099 19.0277 50.959 19.9663 50.959 21.3742C50.959 22.876 49.8952 24.0024 48.3308 24.0024C46.7143 24.0024 45.6192 23.0325 45.6192 20.8632ZM46.6204 21.4681C46.6204 22.365 47.2253 23.0846 48.2891 23.0846C49.3424 23.0846 49.9578 22.365 49.9578 21.4681C49.9578 20.4773 49.3424 19.9142 48.2891 19.9142C47.2253 19.9142 46.6204 20.5608 46.6204 21.4681ZM52.1234 25.087L52.6031 24.211C52.6448 24.138 52.7178 24.0754 52.7804 24.0441C52.9056 23.9815 52.9577 23.9502 52.9368 23.8877C52.916 23.8251 52.843 23.8459 52.7595 23.8772C52.7074 23.8981 52.6135 23.9189 52.4884 23.9189H52.1234V22.584H53.4583V23.7938C53.4583 24.1588 53.3436 24.284 52.8847 25.087H52.1234ZM59.6285 17.4112C57.428 19.5387 57.209 21.8123 57.1255 23.9189H55.9575C56.1348 21.6454 56.6249 19.278 58.4605 17.4842C58.5022 17.4529 58.5752 17.3903 58.523 17.3277C58.4605 17.2547 58.3979 17.3277 58.3457 17.359C58.1997 17.4529 58.0433 17.4529 57.8139 17.4529H54.4557V16.5768H59.6285V17.4112ZM63.4643 16.4934C65.3207 16.4934 66.3011 18.0995 66.3011 20.2479C66.3011 22.3963 65.3207 24.0024 63.4643 24.0024C61.6079 24.0024 60.6276 22.3963 60.6276 20.2479C60.6276 18.0995 61.6079 16.4934 63.4643 16.4934ZM63.4643 23.0846C64.6845 23.0846 65.2999 21.9165 65.2999 20.2479C65.2999 18.5792 64.6845 17.4112 63.4643 17.4112C62.2441 17.4112 61.6288 18.5792 61.6288 20.2479C61.6288 21.9165 62.2441 23.0846 63.4643 23.0846ZM70.1353 16.4934C71.9917 16.4934 72.972 18.0995 72.972 20.2479C72.972 22.3963 71.9917 24.0024 70.1353 24.0024C68.2789 24.0024 67.2986 22.3963 67.2986 20.2479C67.2986 18.0995 68.2789 16.4934 70.1353 16.4934ZM70.1353 23.0846C71.3555 23.0846 71.9709 21.9165 71.9709 20.2479C71.9709 18.5792 71.3555 17.4112 70.1353 17.4112C68.9151 17.4112 68.2998 18.5792 68.2998 20.2479C68.2998 21.9165 68.9151 23.0846 70.1353 23.0846ZM74.3867 24.7533H73.6358L77.14 15.7425H77.8909L74.3867 24.7533ZM78.5629 23.9189V23.0012C79.6371 22.365 79.4807 21.6662 79.2825 20.7485H78.5629V20.081H79.0948C79.0218 19.8411 78.8966 19.205 78.8966 18.7669C78.8966 17.4112 79.8978 16.4934 81.2432 16.4934C82.7554 16.4934 83.5689 17.4946 83.5689 18.913H82.6303C82.6303 18.0995 82.2548 17.4112 81.2432 17.4112C80.2628 17.4112 79.9187 18.1621 79.8978 18.8087C79.8874 19.1007 80.0438 19.7577 80.1377 20.081H82.4842V20.7485H80.2837C80.5131 21.781 80.3671 22.6674 79.6997 23.0429C79.6579 23.0638 79.5954 23.1055 79.6371 23.168C79.6684 23.2202 79.7205 23.1993 79.7727 23.1785C79.9291 23.1159 80.0855 23.0429 80.2837 23.0429H83.5584V23.9189H78.5629ZM84.7387 20.8632C84.7387 18.2872 85.4271 16.4934 87.5442 16.4934C89.0043 16.4934 89.8386 17.3486 89.9116 18.4124H88.9521C88.8791 17.9848 88.5454 17.4112 87.5546 17.4112C86.324 17.4112 85.9485 18.3915 85.8338 19.2571C85.8234 19.3093 85.7817 19.4553 85.7087 19.6013C85.6669 19.6951 85.5626 19.7994 85.6565 19.8411C85.7087 19.862 85.7608 19.789 85.7817 19.7681C86.1258 19.3718 86.7203 19.0277 87.6485 19.0277C89.1294 19.0277 90.0785 19.9663 90.0785 21.3742C90.0785 22.876 89.0147 24.0024 87.4503 24.0024C85.8338 24.0024 84.7387 23.0325 84.7387 20.8632ZM85.7399 21.4681C85.7399 22.365 86.3448 23.0846 87.4086 23.0846C88.4619 23.0846 89.0773 22.365 89.0773 21.4681C89.0773 20.4773 88.4619 19.9142 87.4086 19.9142C86.3448 19.9142 85.7399 20.5608 85.7399 21.4681ZM91.2429 25.087L91.7226 24.211C91.7643 24.138 91.8373 24.0754 91.8999 24.0441C92.025 23.9815 92.0772 23.9502 92.0563 23.8877C92.0355 23.8251 91.9625 23.8459 91.879 23.8772C91.8269 23.8981 91.733 23.9189 91.6079 23.9189H91.2429V22.584H92.5778V23.7938C92.5778 24.1588 92.4631 24.284 92.0042 25.087H91.2429ZM98.748 17.4112C96.5475 19.5387 96.3285 21.8123 96.245 23.9189H95.077C95.2543 21.6454 95.7444 19.278 97.58 17.4842C97.6217 17.4529 97.6947 17.3903 97.6425 17.3277C97.58 17.2547 97.5174 17.3277 97.4652 17.359C97.3192 17.4529 97.1628 17.4529 96.9333 17.4529H93.5752V16.5768H98.748V17.4112ZM102.584 16.4934C104.44 16.4934 105.421 18.0995 105.421 20.2479C105.421 22.3963 104.44 24.0024 102.584 24.0024C100.727 24.0024 99.7471 22.3963 99.7471 20.2479C99.7471 18.0995 100.727 16.4934 102.584 16.4934ZM102.584 23.0846C103.804 23.0846 104.419 21.9165 104.419 20.2479C104.419 18.5792 103.804 17.4112 102.584 17.4112C101.364 17.4112 100.748 18.5792 100.748 20.2479C100.748 21.9165 101.364 23.0846 102.584 23.0846ZM109.255 16.4934C111.111 16.4934 112.092 18.0995 112.092 20.2479C112.092 22.3963 111.111 24.0024 109.255 24.0024C107.398 24.0024 106.418 22.3963 106.418 20.2479C106.418 18.0995 107.398 16.4934 109.255 16.4934ZM109.255 23.0846C110.475 23.0846 111.09 21.9165 111.09 20.2479C111.09 18.5792 110.475 17.4112 109.255 17.4112C108.035 17.4112 107.419 18.5792 107.419 20.2479C107.419 21.9165 108.035 23.0846 109.255 23.0846Z" fill="#667085"/>
<rect x="13.9189" y="34.4189" width="308.879" height="5.95951" rx="2.97976" fill="#F9F5FF"/>
<rect x="13.9189" y="34.4189" width="309.223" height="5.95951" rx="2.97976" fill="#00B964"/>
<path d="M334.083 34.5568H334.918V41.8989H333.917V36.6844H332.248V35.9335C333.844 35.9335 333.906 35.704 334.083 34.5568ZM339.421 34.4734C341.277 34.4734 342.258 36.0795 342.258 38.2279C342.258 40.3763 341.277 41.9824 339.421 41.9824C337.565 41.9824 336.584 40.3763 336.584 38.2279C336.584 36.0795 337.565 34.4734 339.421 34.4734ZM339.421 41.0646C340.641 41.0646 341.257 39.8965 341.257 38.2279C341.257 36.5592 340.641 35.3911 339.421 35.3911C338.201 35.3911 337.585 36.5592 337.585 38.2279C337.585 39.8965 338.201 41.0646 339.421 41.0646ZM346.092 34.4734C347.948 34.4734 348.929 36.0795 348.929 38.2279C348.929 40.3763 347.948 41.9824 346.092 41.9824C344.236 41.9824 343.255 40.3763 343.255 38.2279C343.255 36.0795 344.236 34.4734 346.092 34.4734ZM346.092 41.0646C347.312 41.0646 347.927 39.8965 347.927 38.2279C347.927 36.5592 347.312 35.3911 346.092 35.3911C344.872 35.3911 344.256 36.5592 344.256 38.2279C344.256 39.8965 344.872 41.0646 346.092 41.0646ZM351.522 37.8107C350.594 37.8107 349.926 37.0807 349.926 36.142C349.926 35.2138 350.594 34.4734 351.522 34.4734C352.44 34.4734 353.097 35.2138 353.097 36.142C353.097 37.0807 352.44 37.8107 351.522 37.8107ZM351.595 41.8989H350.761L355.433 34.5568H356.267L351.595 41.8989ZM351.511 37.1432C352.002 37.1432 352.346 36.6739 352.346 36.142C352.346 35.6101 352.002 35.1408 351.511 35.1408C351.021 35.1408 350.677 35.6101 350.677 36.142C350.677 36.6739 351.021 37.1432 351.511 37.1432ZM355.527 41.9824C354.598 41.9824 353.931 41.2523 353.931 40.3137C353.931 39.3855 354.598 38.645 355.527 38.645C356.444 38.645 357.101 39.3855 357.101 40.3137C357.101 41.2523 356.444 41.9824 355.527 41.9824ZM355.516 41.3149C356.006 41.3149 356.351 40.8456 356.351 40.3137C356.351 39.7818 356.006 39.3125 355.516 39.3125C355.026 39.3125 354.682 39.7818 354.682 40.3137C354.682 40.8456 355.026 41.3149 355.516 41.3149Z" fill="#344054"/>
<g filter="url(#filter0_d_8598_9007)">
<rect x="2" y="73.9512" width="368" height="32.8988" rx="5.95951" fill="#00B964"/>
<rect x="2.37247" y="74.3236" width="367.255" height="32.1538" rx="5.58704" stroke="#00B964" stroke-width="0.744939"/>
<path d="M170.111 87.0094C173.246 87.0094 174.319 88.988 174.319 91.2049C174.319 93.4218 173.175 95.4004 170.111 95.4004H167.263V87.0094H170.111ZM170.386 94.3515C172.364 94.3515 173.079 92.802 173.079 91.2049C173.079 89.6077 172.364 88.0583 170.386 88.0583H168.502V94.3515H170.386ZM178.043 89.2025C179.891 89.2025 180.999 90.6209 180.999 92.3491C180.999 94.0774 179.891 95.4957 178.043 95.4957C176.196 95.4957 175.087 94.0774 175.087 92.3491C175.087 90.6209 176.196 89.2025 178.043 89.2025ZM178.043 94.4469C179.188 94.4469 179.855 93.5053 179.855 92.3491C179.855 91.193 179.188 90.2514 178.043 90.2514C176.899 90.2514 176.232 91.193 176.232 92.3491C176.232 93.5053 176.899 94.4469 178.043 94.4469ZM185.218 89.2025C186.624 89.2025 187.483 89.9892 187.483 91.777V95.4004H186.338V92.0154C186.338 90.597 185.73 90.2037 184.932 90.2037C184.05 90.2037 183.096 91.0976 183.096 92.5517V95.4004H181.952V89.2978H183.096V89.7031C183.096 89.9534 183.072 90.2037 182.965 90.5136C182.929 90.6209 182.882 90.7401 182.977 90.7639C183.049 90.7877 183.084 90.7043 183.108 90.6566C183.347 90.0607 184.121 89.2025 185.218 89.2025ZM188.438 93.696C188.438 92.3014 189.463 91.8724 190.631 91.7889C191.728 91.7055 192.836 91.8366 192.824 91.2049C192.812 90.7043 192.526 90.2037 191.275 90.2037C190.202 90.2037 189.833 90.6089 189.749 91.2049H188.629C188.843 89.8104 189.916 89.2025 191.322 89.2025C192.693 89.2025 193.969 89.6793 193.969 91.92V95.4004H192.824V94.8164C192.824 94.5899 192.848 94.4111 192.955 94.1012C192.979 93.9939 193.027 93.8986 192.943 93.8628C192.848 93.8271 192.824 93.9224 192.8 93.982C192.455 94.8879 191.644 95.4957 190.536 95.4957C189.38 95.4957 188.438 94.7329 188.438 93.696ZM192.824 92.1107C192.455 92.5637 191.632 92.5756 190.703 92.7067C189.964 92.814 189.582 93.0762 189.582 93.6364C189.582 94.1251 189.988 94.578 190.977 94.4469C191.907 94.3277 192.812 93.6483 192.824 92.1107ZM198.538 90.299H196.821V93.4933C196.821 94.1846 196.964 94.3992 197.632 94.3992H198.538V95.4004H197.536C196.273 95.4004 195.677 94.9355 195.677 93.6125V90.299H194.533V89.2978H195.677V87.5815H196.821V89.2978H198.538V90.299ZM204.833 92.2657C204.833 92.4326 204.821 92.5517 204.797 92.6829H200.244C200.327 93.6602 200.995 94.4469 202.103 94.4469C202.926 94.4469 203.331 94.0416 203.546 93.3384H204.726C204.475 94.4707 203.641 95.4957 202.08 95.4957C200.161 95.4957 199.112 94.0774 199.112 92.3491C199.112 90.5136 200.304 89.2025 202.056 89.2025C203.414 89.2025 204.833 90.0964 204.833 92.2657ZM200.304 91.7293H203.689C203.617 90.8354 203.045 90.2037 202.115 90.2037C200.971 90.2037 200.47 90.9069 200.304 91.7293Z" fill="white"/>
</g>
<defs>
<filter id="filter0_d_8598_9007" x="0.510121" y="73.2062" width="370.98" height="35.8787" filterUnits="userSpaceOnUse" color-interpolation-filters="sRGB">
<feFlood flood-opacity="0" result="BackgroundImageFix"/>
<feColorMatrix in="SourceAlpha" type="matrix" values="0 0 0 0 0 0 0 0 0 0 0 0 0 0 0 0 0 0 127 0" result="hardAlpha"/>
<feOffset dy="0.744939"/>
<feGaussianBlur stdDeviation="0.744939"/>
<feColorMatrix type="matrix" values="0 0 0 0 0.0627451 0 0 0 0 0.0941176 0 0 0 0 0.156863 0 0 0 0.05 0"/>
<feBlend mode="normal" in2="BackgroundImageFix" result="effect1_dropShadow_8598_9007"/>
<feBlend mode="normal" in="SourceGraphic" in2="effect1_dropShadow_8598_9007" result="shape"/>
</filter>
</defs>
</svg>
