<svg width="21" height="20" viewBox="0 0 21 20" fill="none" xmlns="http://www.w3.org/2000/svg">
<g id="dots-vertical">
<g id="Icon">
<path d="M10.6673 10.8335C11.1276 10.8335 11.5007 10.4604 11.5007 10.0002C11.5007 9.53993 11.1276 9.16683 10.6673 9.16683C10.2071 9.16683 9.83398 9.53993 9.83398 10.0002C9.83398 10.4604 10.2071 10.8335 10.6673 10.8335Z" stroke="#98A2B3" stroke-width="1.66667" stroke-linecap="round" stroke-linejoin="round"/>
<path d="M10.6673 5.00016C11.1276 5.00016 11.5007 4.62707 11.5007 4.16683C11.5007 3.70659 11.1276 3.3335 10.6673 3.3335C10.2071 3.3335 9.83398 3.70659 9.83398 4.16683C9.83398 4.62707 10.2071 5.00016 10.6673 5.00016Z" stroke="#98A2B3" stroke-width="1.66667" stroke-linecap="round" stroke-linejoin="round"/>
<path d="M10.6673 16.6668C11.1276 16.6668 11.5007 16.2937 11.5007 15.8335C11.5007 15.3733 11.1276 15.0002 10.6673 15.0002C10.2071 15.0002 9.83398 15.3733 9.83398 15.8335C9.83398 16.2937 10.2071 16.6668 10.6673 16.6668Z" stroke="#98A2B3" stroke-width="1.66667" stroke-linecap="round" stroke-linejoin="round"/>
</g>
</g>
</svg>
