<svg width="16" height="16" viewBox="0 0 16 16" fill="none" xmlns="http://www.w3.org/2000/svg">
<g clip-path="url(#clip0_6903_1429)">
<path d="M12.6667 0.666565H3.33333C2.4496 0.667624 1.60237 1.01915 0.97748 1.64404C0.352588 2.26894 0.00105857 3.11617 0 3.9999L0 11.9999C0.00105857 12.8836 0.352588 13.7309 0.97748 14.3558C1.60237 14.9806 2.4496 15.3322 3.33333 15.3332H12.6667C13.5504 15.3322 14.3976 14.9806 15.0225 14.3558C15.6474 13.7309 15.9989 12.8836 16 11.9999V3.9999C15.9989 3.11617 15.6474 2.26894 15.0225 1.64404C14.3976 1.01915 13.5504 0.667624 12.6667 0.666565ZM3.33333 1.9999H12.6667C13.0659 2.00068 13.4557 2.12091 13.786 2.3451C14.1163 2.56929 14.3719 2.8872 14.52 3.2579L9.41467 8.3639C9.03895 8.73811 8.53028 8.94821 8 8.94821C7.46972 8.94821 6.96105 8.73811 6.58533 8.3639L1.48 3.2579C1.6281 2.8872 1.88374 2.56929 2.21403 2.3451C2.54432 2.12091 2.93414 2.00068 3.33333 1.9999ZM12.6667 13.9999H3.33333C2.8029 13.9999 2.29419 13.7892 1.91912 13.4141C1.54405 13.039 1.33333 12.5303 1.33333 11.9999V4.9999L5.64267 9.30657C6.26842 9.93074 7.11617 10.2813 8 10.2813C8.88383 10.2813 9.73158 9.93074 10.3573 9.30657L14.6667 4.9999V11.9999C14.6667 12.5303 14.456 13.039 14.0809 13.4141C13.7058 13.7892 13.1971 13.9999 12.6667 13.9999Z" fill="#393E46"/>
</g>
<defs>
<clipPath id="clip0_6903_1429">
<rect width="16" height="16" fill="white"/>
</clipPath>
</defs>
</svg>
