<svg width="48" height="48" viewBox="0 0 48 48" fill="none" xmlns="http://www.w3.org/2000/svg">
<circle cx="24" cy="24" r="24" fill="#4267B2"/>
<g clip-path="url(#clip0_8598_8786)">
<rect width="14.3885" height="16.2254" transform="translate(18.2529 16.2261)" fill="#4267B2"/>
<path d="M31.0998 17.2402H19.7946C19.3857 17.2402 18.9936 17.4005 18.7045 17.6858C18.4154 17.971 18.2529 18.3579 18.2529 18.7614V29.9163C18.2529 30.3197 18.4154 30.7066 18.7045 30.9919C18.9936 31.2772 19.3857 31.4374 19.7946 31.4374H24.2026V26.6107H22.1793V24.3388H24.2026V22.6073C24.2026 20.6377 25.391 19.5498 27.2111 19.5498C28.0827 19.5498 28.9942 19.7032 28.9942 19.7032V21.6363H27.9899C27.0004 21.6363 26.6917 22.2422 26.6917 22.8637V24.3388H28.9008L28.5475 26.6107H26.6917V31.4374H31.0998C31.5087 31.4374 31.9008 31.2772 32.1899 30.9919C32.479 30.7066 32.6414 30.3197 32.6414 29.9163V18.7614C32.6414 18.3579 32.479 17.971 32.1899 17.6858C31.9008 17.4005 31.5087 17.2402 31.0998 17.2402Z" fill="white"/>
</g>
<defs>
<clipPath id="clip0_8598_8786">
<rect width="14.3885" height="16.2254" fill="white" transform="translate(18.2529 16.2261)"/>
</clipPath>
</defs>
</svg>
