<svg width="138" height="87" viewBox="0 0 138 87" fill="none" xmlns="http://www.w3.org/2000/svg">
<path d="M46.7726 85.6853C46.7726 85.6853 26.3726 64.4177 33.9026 62.5115L41.4326 60.6052C41.4326 60.6052 -19.7674 21.0161 6.59257 3.49368C32.9526 -14.0287 60.5726 40.0597 60.5726 40.0597C60.5726 40.0597 54.9226 1.98213 79.7226 3.49368C104.523 5.00522 113.303 49.6681 113.303 49.6681C113.303 49.6681 128.613 32.1938 135.083 43.9878C141.553 55.7817 131.823 85.6853 131.823 85.6853H46.7726Z" fill="#0B8643"/>
<path d="M93.1021 86.0124C92.6721 86.0124 92.2521 85.8391 91.9521 85.4925L84.6221 77.0875C77.2621 68.6344 65.2021 44.4978 64.6921 43.4676C64.3321 42.7455 64.6521 41.8887 65.3921 41.5421C66.1421 41.1955 67.0321 41.5036 67.3921 42.216C67.5121 42.4663 79.7921 67.0555 86.9121 75.2294L94.2421 83.6343C94.7721 84.2409 94.6921 85.1556 94.0521 85.6658C93.7721 85.8969 93.4321 86.0028 93.0921 86.0028L93.1021 86.0124Z" fill="black"/>
<path d="M46.3324 63.3683C46.2024 63.3683 46.0624 63.349 45.9224 63.3105L41.0324 61.9915C40.2324 61.7797 39.7724 60.9807 39.9924 60.2104C40.2124 59.4402 41.0524 58.9973 41.8424 59.2091L46.7324 60.5281C47.5324 60.7399 47.9924 61.5391 47.7724 62.3093C47.5824 62.9447 46.9824 63.3683 46.3324 63.3683Z" fill="black"/>
</svg>
