<svg width="20" height="20" viewBox="0 0 20 20" fill="none" xmlns="http://www.w3.org/2000/svg">
<g id="fi-rr-hand-holding-heart" clip-path="url(#clip0_3231_4870)">
<path id="Vector" d="M7.47083 20H3.33333C2.44928 20 1.60143 19.6488 0.976311 19.0237C0.35119 18.3986 0 17.5507 0 16.6667V12.5C0 11.6159 0.35119 10.7681 0.976311 10.143C1.60143 9.51786 2.44928 9.16667 3.33333 9.16667H10.7142C11.1652 9.16688 11.6085 9.28351 12.0012 9.50527C12.3939 9.72703 12.7227 10.0464 12.9558 10.4325L15.6367 7.48667C15.8584 7.24282 16.126 7.04507 16.4242 6.90472C16.7225 6.76436 17.0454 6.68415 17.3746 6.66867C17.7039 6.65319 18.0329 6.70275 18.343 6.81451C18.653 6.92627 18.938 7.09804 19.1817 7.32C19.6678 7.76661 19.9591 8.38624 19.993 9.04552C20.0268 9.70479 19.8004 10.351 19.3625 10.845L13.6958 17.2092C12.9134 18.0867 11.9544 18.7889 10.8816 19.2699C9.80882 19.7509 8.6465 19.9997 7.47083 20ZM3.33333 10.8333C2.89131 10.8333 2.46738 11.0089 2.15482 11.3215C1.84226 11.634 1.66667 12.058 1.66667 12.5V16.6667C1.66667 17.1087 1.84226 17.5326 2.15482 17.8452C2.46738 18.1577 2.89131 18.3333 3.33333 18.3333H7.47083C8.41077 18.333 9.34001 18.1339 10.1977 17.7494C11.0553 17.3648 11.822 16.8033 12.4475 16.1017L18.1183 9.73667C18.2656 9.57083 18.3418 9.35379 18.3306 9.13231C18.3193 8.91083 18.2216 8.70261 18.0583 8.5525C17.8923 8.40327 17.6747 8.32465 17.4517 8.33333C17.3411 8.33801 17.2326 8.36466 17.1324 8.41174C17.0323 8.45881 16.9425 8.52536 16.8683 8.6075L13.18 12.6667C13.0181 13.1148 12.7375 13.5106 12.3682 13.8117C11.999 14.1129 11.5549 14.3082 11.0833 14.3767L6.7825 14.9917C6.5637 15.0231 6.34139 14.9662 6.16448 14.8337C5.98757 14.7012 5.87055 14.5038 5.83917 14.285C5.80778 14.0662 5.8646 13.8439 5.99713 13.667C6.12965 13.4901 6.32703 13.3731 6.54583 13.3417L10.8475 12.7275C11.0863 12.6941 11.3035 12.5714 11.4552 12.384C11.607 12.1966 11.682 11.9587 11.6651 11.7182C11.6481 11.4777 11.5405 11.2526 11.364 11.0883C11.1875 10.9241 10.9553 10.8329 10.7142 10.8333H3.33333ZM9.16667 7.56167C8.78897 7.56268 8.42228 7.43447 8.1275 7.19833C6.70083 6.05333 5 4.33333 5 2.66667C4.97954 1.98197 5.23107 1.31704 5.69957 0.817303C6.16807 0.317569 6.81541 0.0237102 7.5 0C8.12278 0.00242569 8.72031 0.246515 9.16667 0.680833C9.61302 0.246515 10.2105 0.00242569 10.8333 0C11.5179 0.0237102 12.1653 0.317569 12.6338 0.817303C13.1023 1.31704 13.3538 1.98197 13.3333 2.66667C13.3333 4.33333 11.6325 6.05333 10.205 7.19917C9.91033 7.43483 9.54398 7.56273 9.16667 7.56167ZM7.5 1.66667C7.25779 1.69097 7.03479 1.80935 6.87896 1.99635C6.72312 2.18336 6.64689 2.42405 6.66667 2.66667C6.66667 3.41667 7.62583 4.65833 9.17167 5.89917C10.7075 4.65833 11.6667 3.41667 11.6667 2.66667C11.6864 2.42405 11.6102 2.18336 11.4544 1.99635C11.2985 1.80935 11.0755 1.69097 10.8333 1.66667C10.5911 1.69097 10.3681 1.80935 10.2123 1.99635C10.0565 2.18336 9.98023 2.42405 10 2.66667C10 2.88768 9.9122 3.09964 9.75592 3.25592C9.59964 3.4122 9.38768 3.5 9.16667 3.5C8.94565 3.5 8.73369 3.4122 8.57741 3.25592C8.42113 3.09964 8.33333 2.88768 8.33333 2.66667C8.35311 2.42405 8.27688 2.18336 8.12104 1.99635C7.96521 1.80935 7.74221 1.69097 7.5 1.66667Z" fill="#374957"/>
</g>
<defs>
<clipPath id="clip0_3231_4870">
<rect width="20" height="20" fill="white"/>
</clipPath>
</defs>
</svg>
