<svg width="470" height="338" viewBox="0 0 470 338" fill="none" xmlns="http://www.w3.org/2000/svg">
<path d="M384.125 81.2146C384.125 81.2146 387.044 79.1206 387.594 77.204C388.144 75.2874 387.594 74.3292 387.594 74.3292C387.594 74.3292 381.153 69.6709 380.602 62.9541L380.052 56.2372C380.052 56.2372 366.894 61.5788 367.719 45.8204C368.544 30.0621 378.411 37.8703 378.411 37.8703C378.411 37.8703 378.295 20.0534 401.711 21.2868C419.918 22.2451 419.253 36.637 419.253 36.637C419.253 36.637 425.287 30.6033 428.711 35.4036C432.136 40.2039 434.159 51.5524 428.614 53.4512C424.94 54.7111 421.995 52.9542 421.995 52.9542C421.995 52.9542 422.545 73.9476 411.711 74.0452C411.711 74.0452 410.788 75.6158 411.028 77.8961C411.454 81.9333 413.219 82.2793 413.219 82.2793C413.219 82.2793 396.414 90.5755 384.116 81.2146H384.125Z" fill="#704328"/>
<path d="M420.23 46.3258C419.759 46.3258 419.307 46.0774 419.067 45.6337C418.739 45.0304 418.916 44.2762 419.484 43.8947C419.511 43.8769 422.412 41.8361 422.625 39.2097C422.679 38.4733 423.326 37.9231 424.054 37.9853C424.79 38.0385 425.332 38.6863 425.278 39.4138C425.19 40.5939 424.773 41.6587 424.24 42.5726C425.651 42.404 427.204 42.4395 428.579 42.963C429.262 43.2203 429.617 43.9923 429.351 44.6755C429.094 45.3676 428.322 45.7136 427.639 45.4474C425.403 44.6045 421.924 45.7136 420.771 46.2105C420.602 46.2815 420.416 46.317 420.239 46.317L420.23 46.3258Z" fill="black"/>
<path d="M370.585 52.1816C370.301 52.1816 370.017 52.0929 369.778 51.9066C369.201 51.4629 369.086 50.6289 369.529 50.0522C369.609 49.9457 371.1 48.038 373.531 47.3015C373.008 46.8934 372.431 46.4675 371.907 46.077C371.313 45.6511 371.171 44.8171 371.606 44.2226C372.04 43.6281 372.866 43.495 373.46 43.9209C378.118 47.266 378.136 47.9492 377.763 48.8632C377.568 49.3512 377 49.8747 376.069 49.7239C373.513 49.3246 371.659 51.6493 371.641 51.667C371.375 52.0042 370.984 52.1816 370.585 52.1816Z" fill="black"/>
<path d="M392.528 51.3746C391.961 51.3746 391.313 51.2947 390.585 51.0818C389.157 50.6736 388.757 49.7153 388.642 49.1829C388.101 46.6453 391.987 43.0518 393.682 41.6232C394.241 41.153 395.084 41.224 395.554 41.7829C396.024 42.3419 395.953 43.1849 395.394 43.6551C393.309 45.4208 391.428 47.6391 391.26 48.5086C391.277 48.5086 391.295 48.5175 391.322 48.5264C392.892 48.97 393.593 48.5441 394.338 48.0916C394.968 47.7101 396.131 47.0002 397.373 47.9674C397.852 48.3489 398.482 48.5441 398.979 48.482C399.334 48.4376 399.494 48.2602 399.582 48.1448C400.612 46.734 402.173 47.3907 403.105 47.7811C404.347 48.3046 405.013 48.482 405.767 47.8875C405.873 47.2132 403.85 45.0482 401.144 43.2647C400.532 42.8566 400.363 42.0314 400.763 41.4191C401.162 40.8069 401.987 40.6294 402.608 41.0376C403.948 41.916 408.34 45.0038 408.464 47.7455C408.5 48.6151 408.136 49.4048 407.426 49.9726C405.359 51.6141 403.3 50.7535 402.076 50.2388C401.889 50.159 401.668 50.0703 401.49 50.0082C400.931 50.6204 400.195 51.0108 399.334 51.1261C398.207 51.277 396.956 50.9487 395.944 50.2388C395.873 50.2832 395.785 50.3276 395.723 50.3719C395.057 50.7801 394.063 51.3835 392.528 51.3835V51.3746Z" fill="black"/>
<path d="M399.874 57.7542C399.874 57.7542 396.015 55.048 392.261 56.4411C388.508 57.8341 387.887 65.7044 393.663 67.1063C399.44 68.5082 406.396 67.4435 408.268 66.1569C410.424 64.6751 411.489 56.9557 406.769 56.0418C402.048 55.1278 399.874 57.7542 399.874 57.7542Z" fill="#9B7461"/>
<path d="M399.876 64.6755C394.144 64.6755 389.272 63.4066 389.068 63.3445C388.359 63.1582 387.933 62.4306 388.119 61.7208C388.305 61.0109 389.033 60.5851 389.743 60.7714C389.787 60.7803 394.499 62.0136 399.876 62.0136C405.253 62.0136 409.414 59.6889 409.458 59.6623C410.106 59.3162 410.914 59.5469 411.26 60.1946C411.614 60.8424 411.375 61.6498 410.727 61.9958C410.532 62.1023 405.767 64.6666 399.876 64.6666V64.6755Z" fill="black"/>
<path d="M401.171 36.3346C400.771 36.3346 400.372 36.1571 400.106 35.8111C399.662 35.2255 399.778 34.3914 400.363 33.9477L402.83 32.0756C403.415 31.6319 404.25 31.7473 404.693 32.3329C405.137 32.9185 405.021 33.7526 404.436 34.1962L401.969 36.0684C401.73 36.2547 401.446 36.3346 401.162 36.3346H401.171Z" fill="black"/>
<path d="M405.429 35.0582C405.039 35.0582 404.648 34.8896 404.391 34.5613C403.93 33.9846 404.027 33.1506 404.604 32.6892L406.308 31.3228C406.884 30.8614 407.718 30.959 408.18 31.5357C408.641 32.1124 408.544 32.9465 407.967 33.4079L406.263 34.7743C406.015 34.9695 405.722 35.0671 405.429 35.0671V35.0582Z" fill="black"/>
<path d="M470.717 171.558C466.076 172.161 453.504 137.513 448.996 124.656L483.361 109.119C493.973 134.123 491.861 168.816 470.717 171.558Z" fill="#704328"/>
<path d="M468.099 169.589C468.099 169.589 478.391 184.167 487.309 177.592C496.226 171.017 490.787 150.831 493.883 148.294C496.98 145.756 495.764 136.759 495.764 136.759L470.716 138.152C470.716 138.152 474.984 163.094 468.099 169.589Z" fill="#704328"/>
<path d="M408.234 35.0577C407.896 35.0577 407.559 34.9335 407.293 34.6761C406.77 34.1615 406.77 33.3186 407.293 32.7951L409.147 30.9229C409.662 30.3994 410.505 30.3994 411.029 30.9229C411.552 31.4375 411.552 32.2805 411.029 32.804L409.174 34.6761C408.917 34.9335 408.571 35.0665 408.225 35.0665L408.234 35.0577Z" fill="black"/>
<path d="M410.877 35.0573C410.469 35.0573 410.061 34.871 409.804 34.5072C409.369 33.9127 409.502 33.0787 410.097 32.6439L411.969 31.2775C412.563 30.8427 413.397 30.9758 413.832 31.5703C414.267 32.1648 414.134 32.9988 413.539 33.4336L411.667 34.8C411.428 34.9686 411.152 35.0573 410.886 35.0573H410.877Z" fill="black"/>
<path d="M396.06 36.7614C395.784 36.7614 395.509 36.6816 395.279 36.5041L392.129 34.2061C391.534 33.7713 391.401 32.9372 391.836 32.3427C392.271 31.7483 393.105 31.6151 393.699 32.0499L396.849 34.348C397.444 34.7828 397.577 35.6168 397.142 36.2113C396.885 36.5662 396.477 36.7614 396.068 36.7614H396.06Z" fill="black"/>
<path d="M324.89 79.8838C324.89 79.8838 251.315 79.8838 188.025 95.1718C149.88 104.382 29.1638 131.746 10.2821 139.998C-8.59946 148.25 4.30179 181.284 4.30179 181.284C4.30179 181.284 153.411 139.599 201.787 132.527C250.162 125.455 330.373 112.474 330.373 112.474L324.89 79.8838Z" fill="#704328"/>
<path d="M392.049 36.3348C391.818 36.3348 391.579 36.2727 391.366 36.1485L389.228 34.8708C388.598 34.4981 388.393 33.6729 388.766 33.043C389.139 32.413 389.955 32.2089 390.594 32.5815L392.732 33.8592C393.362 34.2319 393.566 35.0571 393.194 35.6871C392.945 36.1041 392.502 36.3348 392.049 36.3348Z" fill="black"/>
<path d="M353.399 190.973C353.399 190.973 318.333 260.306 317.925 314.315C317.516 368.325 324.89 395.733 324.89 395.733L361.056 392.912L399.884 235.71C399.884 235.71 399.751 284.485 403.38 303.02C407.009 321.556 429.981 394.917 436.032 395.725C442.084 396.532 470.725 390.081 470.725 390.081C470.725 390.081 474.328 246.988 468.685 222.001C463.041 197.015 457.398 190.964 457.398 190.964H353.407L353.399 190.973Z" fill="#3866B0"/>
<path d="M388.73 37.1878C388.447 37.1878 388.163 37.0991 387.914 36.9128L385.873 35.3334C385.288 34.8808 385.181 34.0468 385.634 33.4701C386.086 32.8844 386.92 32.778 387.497 33.2305L389.538 34.8099C390.123 35.2624 390.23 36.0964 389.777 36.6732C389.52 37.0103 389.121 37.1878 388.722 37.1878H388.73Z" fill="black"/>
<path d="M385.581 37.1866C385.412 37.1866 385.235 37.1511 385.066 37.0802L383.025 36.2283C382.351 35.9444 382.023 35.1636 382.306 34.4892C382.59 33.8149 383.371 33.4955 384.046 33.7705L386.086 34.6223C386.761 34.9063 387.089 35.6871 386.805 36.3615C386.592 36.8761 386.095 37.1778 385.572 37.1778L385.581 37.1866Z" fill="black"/>
<path d="M406.281 40.1867C407.026 40.1867 407.63 39.5828 407.63 38.838C407.63 38.0931 407.026 37.4893 406.281 37.4893C405.536 37.4893 404.933 38.0931 404.933 38.838C404.933 39.5828 405.536 40.1867 406.281 40.1867Z" fill="black"/>
<path d="M390.984 40.1867C391.729 40.1867 392.333 39.5828 392.333 38.838C392.333 38.0931 391.729 37.4893 390.984 37.4893C390.24 37.4893 389.636 38.0931 389.636 38.838C389.636 39.5828 390.24 40.1867 390.984 40.1867Z" fill="black"/>
<path d="M448.526 124.87C452.101 140.282 462.775 186.856 462.5 192.606C462.172 199.518 355.635 196.226 349.708 194.256C343.789 192.278 360.559 117.168 360.559 117.168H326.283L320.791 81.1174C320.711 78.6863 327.445 77.5949 329.823 77.1246C346.105 73.9037 384.596 78.3402 384.596 78.3402C384.596 78.3402 387.56 83.3357 398.527 83.6551C409.493 83.9745 411.348 79.5913 415.376 78.9347C419.413 78.2692 450.77 79.893 463.423 85.6693C471.719 89.458 479.483 97.3638 484.071 107.426C484.372 108.082 484.071 108.863 483.405 109.156L448.996 124.657C448.073 122.004 447.487 120.274 447.381 119.981C447.452 120.291 447.869 122.057 448.526 124.87Z" fill="#050606"/>
<path d="M423.717 313.589C416.92 313.589 407.337 310.953 406.885 310.829C406.175 310.634 405.758 309.897 405.962 309.188C406.166 308.478 406.885 308.061 407.604 308.265C407.728 308.3 419.786 311.628 425.882 310.802C426.609 310.705 427.284 311.219 427.381 311.947C427.479 312.675 426.964 313.349 426.237 313.447C425.465 313.553 424.622 313.597 423.726 313.597L423.717 313.589Z" fill="black"/>
<path d="M295.352 11.4753C295.352 11.4753 300.614 16.3909 299.682 23.294C298.75 30.1972 296.869 33.001 297.57 36.3994C298.271 39.7977 298.591 44.3051 296.363 44.8287C294.136 45.3522 294.074 44.8287 294.074 44.8287C294.074 44.8287 293.95 50.4452 291.723 54.5002C289.735 58.1115 287.278 61.4299 282.309 60.7112C277.34 59.9925 275.574 55.4851 273.879 56.2659C272.185 57.0467 266.754 64.1095 266.754 64.1095L242.833 56.4877C242.833 56.4877 252.496 46.5323 252.691 42.8855C252.886 39.2387 249.239 36.5768 254.368 27.3046C259.496 18.0324 266.497 19.5142 266.985 23.853C267.473 28.1919 277.136 15.2729 277.136 10.3484C277.136 5.42395 283.152 4.92706 287.686 7.09205C292.22 9.25705 295.352 11.4842 295.352 11.4842V11.4753Z" fill="#704328"/>
<path d="M403.663 178.561C403.663 178.561 403.876 177.053 404.178 175.269C404.258 174.799 404.311 174.293 404.408 173.814C404.959 171.046 406.032 168.65 406.742 167.851C408.588 165.766 412.492 167.851 411.977 176.147C411.462 184.444 410.611 199.244 407.851 199.501C405.092 199.758 400.868 198.348 400.868 198.348L403.672 178.561H403.663Z" fill="#704328"/>
<path d="M356.983 170.762L349.441 171.294C349.361 171.436 349.326 171.516 349.326 171.516C349.326 171.516 326.176 176.29 322.388 174.062C322.388 174.062 323.009 178.712 323.115 179.439C323.222 180.176 327.924 183.095 332.21 182.998C336.496 182.891 356.673 179.75 359.805 176.618C362.946 173.486 356.983 170.762 356.983 170.762Z" fill="#F36B23"/>
<path d="M403.335 179.67C402.315 178.064 378.943 168.445 352.839 164.249C358.891 151.179 370.363 123.655 367.488 108.456C363.629 88.0389 344.987 87.4445 331.163 90.7186C317.339 93.9927 204.963 172.793 204.963 172.793C204.963 172.793 211.68 207.966 240.579 202.952C244.749 202.225 246.462 201.604 249.993 201.098C250.934 200.965 250.117 200.148 251.093 199.767C252.779 199.119 282.894 198.507 289.699 198.409C297.188 198.312 398.233 201.275 400.38 200.796C402.528 200.317 404.462 181.435 403.335 179.67ZM320.56 161.09C306.824 160.327 299.655 160.699 299.655 160.699C299.655 160.699 315.085 147.346 318.457 143.495L321.837 139.644C321.837 139.644 320.666 151.321 320.56 161.09ZM359.805 176.617C356.672 179.75 336.495 182.891 332.21 182.997C327.924 183.095 323.221 180.176 323.115 179.439C323.008 178.711 322.387 174.062 322.387 174.062C326.176 176.289 349.326 171.516 349.326 171.516C349.326 171.516 349.361 171.436 349.441 171.294L356.983 170.761C356.983 170.761 362.946 173.485 359.805 176.617Z" fill="#F36B23"/>
<path d="M359.805 176.618C356.673 179.75 336.496 182.891 332.21 182.998C327.924 183.095 323.222 180.176 323.115 179.439C323.009 178.712 322.388 174.062 322.388 174.062C326.176 176.29 349.326 171.516 349.326 171.516C349.326 171.516 349.361 171.436 349.441 171.294L356.983 170.762C356.983 170.762 362.946 173.486 359.805 176.618Z" fill="#704328"/>
<path d="M204.937 172.803C202.319 174.418 199.036 172.138 199.595 169.112C203.047 150.665 218.574 72.8853 237.74 58.8306C263.037 40.2684 274.802 61.244 276.08 80.7911C277.357 100.338 277.916 143.452 277.916 143.452C277.916 143.452 243.747 165.368 240.446 163.008C237.145 160.648 236.249 166.912 232.966 166.646C229.683 166.379 228.734 166.237 228.734 166.237C228.734 166.237 226.001 170.204 221.352 169.52L216.702 168.837C216.702 168.837 211.786 173.3 208.37 173.052L204.954 172.803C204.954 172.803 204.954 172.803 204.937 172.821V172.803Z" fill="#0B8643"/>
<path d="M294.837 21.4217C294.473 21.4217 294.109 21.2709 293.843 20.9781L292.069 18.9994C291.581 18.4493 291.625 17.6064 292.175 17.1184C292.725 16.6304 293.568 16.6747 294.056 17.2249L295.831 19.2035C296.319 19.7536 296.274 20.5966 295.724 21.0846C295.467 21.3153 295.156 21.4217 294.837 21.4217Z" fill="black"/>
<path d="M291.634 21.8471C291.235 21.8471 290.835 21.6608 290.569 21.3236L288.457 18.5375C288.014 17.9519 288.129 17.1179 288.715 16.6742C289.3 16.2306 290.134 16.3459 290.578 16.9315L292.69 19.7176C293.133 20.3032 293.018 21.1373 292.432 21.5809C292.193 21.7672 291.909 21.8471 291.634 21.8471Z" fill="black"/>
<path d="M288.599 21.4214C288.235 21.4214 287.871 21.2706 287.605 20.9778L285.493 18.6176C285.005 18.0675 285.05 17.2246 285.6 16.7366C286.15 16.2485 286.993 16.2929 287.481 16.843L289.593 19.2032C290.081 19.7533 290.036 20.5963 289.486 21.0843C289.229 21.3061 288.918 21.4214 288.599 21.4214Z" fill="black"/>
<path d="M285.609 21.421C285.307 21.421 284.997 21.3146 284.748 21.1016L282.432 19.123C281.873 18.6439 281.811 17.8009 282.281 17.2419C282.761 16.6829 283.595 16.6208 284.163 17.0911L286.478 19.0698C287.037 19.5489 287.099 20.3918 286.629 20.9508C286.363 21.2614 285.99 21.421 285.618 21.421H285.609Z" fill="black"/>
<path d="M282.947 22.0968C282.663 22.0968 282.371 22.0081 282.122 21.8129L279.762 19.9585C279.185 19.5059 279.088 18.663 279.54 18.0862C279.993 17.5095 280.836 17.4119 281.412 17.8644L283.773 19.7189C284.349 20.1714 284.447 21.0143 283.994 21.591C283.728 21.9282 283.338 22.0968 282.947 22.0968Z" fill="black"/>
<path d="M288.644 28.9976C290.031 28.9976 291.155 27.8735 291.155 26.4866C291.155 25.0998 290.031 23.9756 288.644 23.9756C287.257 23.9756 286.133 25.0998 286.133 26.4866C286.133 27.8735 287.257 28.9976 288.644 28.9976Z" fill="black"/>
<path d="M295.193 46.3016C292.903 46.3016 291.83 45.1393 291.164 44.4206C290.792 44.0213 290.685 43.9148 290.588 43.9237C290.348 43.9326 290.091 43.977 289.842 44.0213C287.713 44.3585 285.344 44.2964 284.075 39.2122C283.897 38.5023 284.332 37.7747 285.042 37.5973C285.752 37.4198 286.479 37.8546 286.657 38.5645C287.438 41.7055 288.147 41.599 289.416 41.3949C289.753 41.3417 290.1 41.2884 290.472 41.2707C291.83 41.2086 292.566 42.0249 293.107 42.6194C293.72 43.276 294.163 43.7463 295.592 43.622C296.639 43.5333 296.674 42.3177 296.674 42.1758C296.674 41.4393 297.269 40.8448 298.005 40.8448C298.742 40.8448 299.336 41.4393 299.336 42.1758C299.336 43.4889 298.6 46.0266 295.831 46.2662C295.61 46.2839 295.388 46.2928 295.184 46.2928L295.193 46.3016Z" fill="black"/>
<path d="M290.108 47.5519C290.108 47.5519 288.893 45.6265 285.716 45.591C282.54 45.5555 281.422 50.5776 284.092 52.5918C286.763 54.6059 291.022 55.3158 293.347 53.9316C295.166 52.8402 296.736 47.4189 290.108 47.5608V47.5519Z" fill="#FEB1D3"/>
<path d="M290.081 52.7867C289.637 52.7867 289.176 52.7689 288.706 52.7246C285.103 52.3874 282.663 49.0511 282.557 48.9091C282.131 48.3147 282.264 47.4806 282.858 47.0547C283.453 46.6288 284.287 46.7619 284.713 47.3564C284.748 47.4096 286.576 49.8586 288.945 50.0804C291.19 50.2845 293.204 49.7876 293.222 49.7787C293.932 49.5924 294.659 50.0271 294.837 50.737C295.023 51.4468 294.597 52.1744 293.879 52.3518C293.799 52.3696 292.166 52.7867 290.063 52.7867H290.081Z" fill="black"/>
<path d="M257.18 42.9096C256.196 42.9096 255.157 42.6789 254.093 42.1377C251.741 40.9487 251.12 37.8077 252.362 33.3002C253.8 28.0741 257.935 20.9935 262.034 21.2685C267.952 21.6678 267.997 31.4901 267.979 32.6081C267.97 33.3357 267.375 33.9213 266.648 33.9213H266.63C265.894 33.9213 265.308 33.3091 265.317 32.5726C265.344 30.3899 264.767 24.1167 261.856 23.9215C261.839 23.9215 261.812 23.9215 261.794 23.9215C259.993 23.9215 256.382 28.7395 254.936 34.01C254.119 36.9825 254.261 39.2362 255.308 39.7686C259.079 41.6762 262.096 37.2132 262.22 37.0269C262.628 36.4146 263.454 36.246 264.066 36.6453C264.678 37.0535 264.847 37.8697 264.447 38.482C263.276 40.2654 260.552 42.9096 257.198 42.9096H257.18Z" fill="black"/>
<path d="M262.425 35.4395C262.177 35.4395 261.928 35.3686 261.707 35.2266C260.58 34.5079 259.071 34.4014 257.856 34.9693C257.19 35.2799 256.401 34.987 256.09 34.3215C255.779 33.6561 256.072 32.8664 256.738 32.5558C257.936 31.9968 259.266 31.8283 260.544 32.0146C260.526 31.1717 260.677 30.3288 261.014 29.548C261.298 28.8736 262.088 28.5541 262.762 28.8381C263.437 29.122 263.756 29.9029 263.472 30.5861C263.091 31.5 263.135 32.6091 263.605 33.4787C263.889 34.011 263.783 34.6765 263.339 35.0847C263.082 35.3154 262.762 35.4395 262.434 35.4395H262.425Z" fill="black"/>
<path d="M296.949 11.5277C296.949 11.5277 298.075 14.2961 293.062 14.0654C288.049 13.8347 282.832 11.5277 282.832 11.5277C282.832 11.5277 276.736 23.5417 271.306 27.1175C265.876 30.6933 265.876 28.9897 265.876 28.9897C265.876 28.9897 264.926 22.2285 261.936 22.5923C258.946 22.9561 252.921 31.1547 253.063 34.9612C253.205 38.7677 254.687 40.9415 254.687 40.9415C254.687 40.9415 255.024 42.8137 254.722 43.071C254.421 43.3284 247.517 53.2572 247.517 53.2572C247.517 53.2572 240.81 56.7886 232.833 70.3198C224.856 83.851 211.555 116.645 211.555 116.645C211.555 116.645 205.921 109.041 209.621 98.7931C211.937 92.3868 214.315 92.1029 214.315 92.1029C214.315 92.1029 211.041 85.2707 216.169 76.4421C218.947 71.6596 221.014 72.0323 221.014 72.0323C221.014 72.0323 218.308 61.2073 222.576 54.5171C226.844 47.8269 232.682 45.5732 232.682 45.5732C232.682 45.5732 233.702 37.8626 238.387 34.3046C243.072 30.7465 250.623 30.3206 250.623 30.3206C250.623 30.3206 248.769 18.7769 254.891 11.5277C261.013 4.27855 268.786 -2.42052 282.051 0.853594C295.316 4.12771 296.94 11.5277 296.94 11.5277H296.949Z" fill="#050606"/>
<path d="M257.233 77.6665C257.233 77.6665 292.246 63.1237 301.687 59.2995C307.312 57.0192 313.994 56.54 313.994 56.54C313.994 56.54 330.524 113.957 328.873 116.663C327.223 119.369 279.176 149.032 275.938 147.541C273.338 146.334 257.233 77.6754 257.233 77.6754V77.6665Z" fill="#5F94CB"/>
<path d="M290.81 94.951C290.81 94.951 284.883 90.8872 280.145 94.2944C275.406 97.7016 283.383 109.787 294.874 109.414C306.364 109.041 307.642 85.4836 301.165 83.9752C294.687 82.4668 290.801 94.9421 290.801 94.9421L290.81 94.951Z" fill="#88B9E5"/>
<path d="M237.367 144.825C237.11 144.825 236.844 144.745 236.613 144.585C236.01 144.168 235.859 143.334 236.276 142.731C236.87 141.87 250.907 121.631 254.785 118.366C258.387 115.331 258.849 115.375 259.381 115.438C259.745 115.473 260.082 115.659 260.304 115.943C260.756 116.52 260.659 117.354 260.073 117.815C259.904 117.949 259.718 118.028 259.523 118.073C259.283 118.206 258.511 118.703 256.488 120.406C253.498 122.926 242.451 138.472 238.459 144.248C238.201 144.621 237.784 144.825 237.367 144.825ZM258.21 117.594C258.396 117.824 258.627 117.966 258.857 118.037C258.609 117.957 258.387 117.807 258.21 117.594Z" fill="black"/>
<path d="M279.247 125.013C279.478 125.448 280.472 127.639 279.203 130.94C277.783 134.631 260.401 175.988 244.572 171.117C228.743 166.237 228.388 112.857 228.388 112.857L261.404 98.6338L262.974 104.055C262.974 104.055 268.839 98.0304 271.315 99.7251C273.649 101.313 269.283 106.282 268.751 106.886C269.425 106.309 275.831 100.825 277.925 103.008C279.753 104.916 274.012 109.61 271.989 111.162C273.782 109.867 278.635 106.602 280.126 108.092C281.714 109.681 276.346 114.916 274.846 116.326C276.239 115.111 281.049 111.207 282.539 113.86C284.278 116.983 279.221 124.969 279.247 125.022V125.013Z" fill="#704328"/>
<path d="M274.146 130C273.543 130 272.904 129.893 272.203 129.654C270.898 129.21 269.967 128.296 269.505 127.019C269.088 125.838 269.115 124.49 269.337 123.221C268.52 123.629 267.615 123.904 266.728 123.851C265.628 123.789 264.67 123.256 263.933 122.316C263.01 121.136 262.993 119.61 263.427 118.163C263.073 118.19 262.735 118.163 262.407 118.101C261.44 117.906 260.632 117.303 260.082 116.353C259.745 115.768 259.399 114.827 259.71 113.665C259.302 113.496 258.92 113.23 258.592 112.866C257.261 111.42 257.057 108.856 258.148 107.259C259.506 105.262 263.073 102.139 263.569 101.704C264.288 100.941 268.822 96.3981 272.061 98.6163C272.762 99.0955 273.188 99.7964 273.294 100.648C273.356 101.127 273.294 101.633 273.17 102.157C275.406 101.021 277.518 100.666 278.875 102.077C279.408 102.627 279.647 103.337 279.594 104.135C279.541 104.836 279.221 105.59 278.724 106.371C280.162 106.247 280.756 106.85 281.058 107.143C281.51 107.596 281.75 108.199 281.741 108.891C281.732 109.645 281.395 110.559 280.73 111.624C281.014 111.606 281.28 111.624 281.546 111.668C282.478 111.828 283.214 112.36 283.693 113.203C285.432 116.327 282.708 121.65 280.117 125.572L278.964 124.907L280.073 125.643C278.547 127.959 276.772 130.009 274.146 130.009V130ZM271.945 118.137C272.274 118.137 272.602 118.261 272.851 118.492C273.312 118.926 273.41 119.627 273.072 120.169C272.673 120.905 271.333 124.392 272.034 126.176C272.221 126.655 272.54 126.956 273.055 127.125C274.368 127.569 275.548 127.631 277.846 124.153C277.846 124.153 277.89 124.091 277.89 124.082C281.422 118.74 281.999 115.617 281.369 114.481C281.271 114.313 281.2 114.286 281.093 114.268C280.162 114.1 277.944 115.351 275.708 117.303C275.157 117.782 274.332 117.729 273.844 117.196C273.356 116.655 273.392 115.83 273.915 115.333C277.473 111.988 278.893 109.778 279.053 108.989C279.035 108.989 279.017 108.989 278.999 108.989C278.343 108.989 276.267 109.681 272.744 112.219C272.158 112.644 271.333 112.52 270.898 111.935C270.464 111.349 270.579 110.524 271.156 110.08C275.725 106.575 277.012 104.375 276.923 103.869C276.444 103.39 273.543 104.499 269.594 107.871C269.062 108.323 268.272 108.297 267.775 107.791C267.287 107.294 267.261 106.504 267.722 105.981C269.851 103.567 270.721 101.686 270.632 100.968C270.623 100.87 270.597 100.843 270.535 100.808C269.55 100.134 266.897 102.015 265.442 103.567C265.406 103.603 265.371 103.638 265.335 103.665C264.288 104.57 261.351 107.241 260.322 108.749C259.905 109.361 260.082 110.568 260.535 111.056C260.659 111.189 260.774 111.322 261.2 111.083L261.467 110.932C261.573 110.87 261.679 110.808 261.795 110.746C262.389 110.417 263.126 110.595 263.516 111.145C263.907 111.695 263.827 112.449 263.321 112.902C261.892 114.188 262.247 114.801 262.363 114.996C262.602 115.404 262.824 115.448 262.922 115.475C263.516 115.599 264.599 115.138 265.814 114.233C266.373 113.816 267.163 113.904 267.615 114.437C268.068 114.969 268.041 115.759 267.544 116.247C266.178 117.604 265.388 119.876 266.009 120.666C266.347 121.1 266.639 121.171 266.861 121.18C267.385 121.225 268.591 120.932 270.774 118.722C270.961 118.536 271.094 118.421 271.138 118.385C271.369 118.217 271.644 118.128 271.919 118.128L271.945 118.137Z" fill="black"/>
<path d="M323.567 78.8992C323.176 77.9055 322.2 77.2755 321.136 77.1601C317.702 76.7875 307.533 76.0333 305.555 79.6801C303.168 84.0899 309.228 85.7402 309.228 85.7402C309.228 85.7402 306.655 88.1271 307.755 90.5139C308.856 92.9007 313.629 92.1642 313.629 92.1642C313.629 92.1642 308.856 93.2645 309.778 96.2015C310.701 99.1384 314.738 98.6326 314.738 98.6326C314.738 98.6326 311.979 102.075 316.211 102.625C320.444 103.176 328.749 99.5288 329.015 97.3017C329.254 95.2875 327.054 94.6043 327.054 94.6043C327.054 94.6043 328.154 91.4189 326.193 90.4429C324.232 89.4669 327.409 87.4616 325.581 84.6844C324.765 83.451 322.396 82.8477 322.396 82.8477C322.396 82.8477 324.374 80.9134 323.567 78.8726V78.8992Z" fill="#704328"/>
<path d="M309.221 87.0798C308.608 87.0798 308.058 86.6539 307.925 86.0328C307.765 85.3141 308.227 84.6043 308.946 84.4446L322.113 81.5697C322.832 81.41 323.542 81.8714 323.701 82.5901C323.861 83.3088 323.4 84.0186 322.681 84.1784L309.513 87.0532C309.416 87.071 309.318 87.0798 309.23 87.0798H309.221Z" fill="black"/>
<path d="M313.63 93.5139C313.036 93.5139 312.485 93.1058 312.335 92.5024C312.157 91.7926 312.592 91.065 313.311 90.8964L325.227 87.9683C325.946 87.7909 326.664 88.2257 326.833 88.9444C327.002 89.6631 326.576 90.3818 325.857 90.5504L313.941 93.4785C313.834 93.5051 313.728 93.5139 313.621 93.5139H313.63Z" fill="black"/>
<path d="M314.739 99.9912C314.18 99.9912 313.657 99.6363 313.471 99.0773C313.24 98.3763 313.621 97.631 314.322 97.4003L326.629 93.372C327.321 93.1413 328.075 93.5228 328.306 94.2238C328.537 94.9247 328.155 95.6701 327.454 95.9008L315.148 99.9291C315.014 99.9734 314.873 99.9912 314.731 99.9912H314.739Z" fill="black"/>
<path d="M249.638 201.47C249.195 201.47 248.769 201.248 248.511 200.849C248.121 200.228 248.298 199.403 248.92 199.012C249.115 198.888 268.83 186.36 278.12 178.551C287.437 170.725 298.617 159.847 298.723 159.741C299.256 159.226 300.09 159.235 300.604 159.767C301.119 160.291 301.11 161.134 300.578 161.648C300.462 161.755 289.212 172.695 279.824 180.592C270.401 188.507 250.543 201.133 250.339 201.257C250.117 201.399 249.869 201.461 249.629 201.461L249.638 201.47Z" fill="black"/>
<path d="M321.838 140.976C321.581 140.976 321.314 140.905 321.093 140.745C320.489 140.328 320.33 139.503 320.747 138.899L328.475 127.577C328.892 126.965 329.717 126.814 330.32 127.231C330.924 127.648 331.084 128.474 330.667 129.077L322.938 140.399C322.681 140.78 322.264 140.976 321.838 140.976Z" fill="black"/>
<path d="M323.809 177.479C323.214 177.479 322.664 177.071 322.513 176.468L318.405 159.875C318.227 159.165 318.662 158.438 319.372 158.26C320.091 158.083 320.809 158.518 320.987 159.227L325.095 175.82C325.273 176.53 324.838 177.257 324.128 177.435C324.021 177.461 323.915 177.47 323.809 177.47V177.479Z" fill="black"/>
<path d="M349.327 172.847C349.194 172.847 349.061 172.83 348.928 172.785C348.227 172.563 347.836 171.818 348.058 171.117L350.782 162.457C351.004 161.756 351.741 161.366 352.45 161.588C353.151 161.809 353.542 162.555 353.32 163.256L350.596 171.916C350.419 172.484 349.895 172.847 349.327 172.847Z" fill="black"/>
<path d="M228.388 114.178C228.344 114.178 228.299 114.178 228.246 114.178C227.519 114.098 226.986 113.451 227.057 112.714C227.093 112.333 228.033 103.309 228.495 100.23C228.601 99.5025 229.293 98.9968 230.012 99.1121C230.739 99.2186 231.236 99.9018 231.13 100.629C230.677 103.646 229.71 112.901 229.701 112.989C229.63 113.673 229.054 114.178 228.379 114.178H228.388Z" fill="black"/>
<path d="M322.787 177.052C322.787 177.052 319.681 192.615 322.388 194.807C325.094 196.998 339.255 199.722 360.71 192.092C382.165 184.461 375.199 174.798 374.117 172.855C371.198 167.629 356.974 170.761 356.974 170.761C356.974 170.761 361.047 174.523 357.391 176.147C353.736 177.771 334.402 182.216 327.702 180.903C323.39 180.06 322.778 177.043 322.778 177.043L322.787 177.052Z" fill="#C8C6C3"/>
<path d="M407.496 153.54C405.802 156.494 405.322 159.156 404.817 164.391C404.311 169.626 404.178 175.314 404.178 175.314C404.178 175.314 405.331 167.186 408.268 167.328C412.536 167.541 411.569 183.388 411.187 186.875C410.806 190.362 408.943 198.738 407.833 199.502C406.724 200.265 418.348 204.098 421.666 201.542C424.985 198.987 425.748 190.114 425.366 182.998C424.985 175.882 424.852 155.075 419.874 151.366C414.896 147.657 409.289 150.408 407.487 153.54H407.496Z" fill="#C8C6C3"/>
<path d="M409.317 322.134L417.338 323.802L411.606 303.598L400.878 297.662L397.32 299.011L409.317 322.134Z" fill="#6A432D"/>
<path d="M253.969 240.689C253.969 240.689 233.925 293.953 228.983 326.632C224.04 359.311 228.628 393.907 229.32 394.182C230.012 394.457 257.048 396.329 258.086 395.912C259.124 395.495 261.759 391.476 263.907 385.442C266.054 379.409 283.764 328.673 286.834 315.355C289.904 302.037 299.487 260.751 299.487 260.751C299.487 260.751 308.298 310.377 311.776 320.35C315.254 330.323 325.369 364.387 330.773 370.784C336.177 377.181 347.889 380.243 358.882 375.203C369.876 370.163 381.952 363.215 393.212 349.258C404.472 335.301 410.869 322.586 410.78 322.134C410.692 321.681 400.328 297.36 398.527 296.722C396.726 296.083 380.328 305.009 373.842 309.605C367.356 314.201 358.075 322.666 358.075 322.666C358.075 322.666 359.335 298.567 355.014 271.851C350.693 245.134 348.528 239.908 348.528 239.908L253.969 240.68V240.689Z" fill="#050606"/>
<path d="M430.859 203.394C430.859 203.394 442.057 196.473 447.328 194.202C452.598 191.931 452.314 194.832 453.059 196.473C453.441 197.325 460.566 192.312 463.796 191.886C470.415 191.017 468.09 197.742 468.09 197.742C468.09 197.742 477.966 193.954 479.669 198.851C481.488 204.104 472.154 208.754 472.154 208.754C472.154 208.754 479.093 207.52 479.829 211.735C481.116 219.117 454.612 225.337 453.423 228.203C452.234 231.069 452.35 242.045 447.576 242.524C442.802 243.003 440.54 234.405 438.384 230.714C436.227 227.023 436.236 226.056 433.965 225.106C431.693 224.157 430.859 203.386 430.859 203.386V203.394Z" fill="#6A432D"/>
<path d="M430.86 203.394C436.29 206.562 437.524 223.092 433.965 225.115C427.258 228.913 411.455 231.832 401.535 233.456C391.615 235.079 356.416 238.149 356.416 238.149C356.416 238.149 347.277 242.87 336.949 245.07C326.621 247.271 305.299 251.228 281.777 247.493L258.255 243.757C258.255 243.757 219.4 243.677 207.076 242.568C194.751 241.459 165.914 236.81 162.196 233.784C158.479 230.758 158.94 214.015 162.196 210.759C164.06 208.895 196.384 198.204 239.87 197.272C283.356 196.34 324.287 203.084 353.816 199.827C383.345 196.571 417.054 195.355 430.869 203.403L430.86 203.394Z" fill="#E61D26"/>
<path d="M169.09 162.801L168.762 161.639L169.614 161.399L169.942 162.562L169.09 162.801Z" fill="black"/>
<path d="M162.187 210.742C162.187 210.742 149.17 203.893 145.248 202.934C137.955 201.142 138.07 206.661 138.07 206.661C138.07 206.661 125.293 204.043 122.179 208.427C120.697 210.512 122.179 212.153 122.179 212.153C122.179 212.153 116.056 210.991 115.018 214.904C113.865 219.26 121.087 220.973 121.087 220.973C121.087 220.973 115.302 221.354 115.808 225.605C116.287 229.624 123.856 231.984 130.333 232.179L136.81 232.375C136.81 232.375 130.528 241.895 134.752 245.232C138.975 248.568 142.604 245.524 145.346 242.579C148.088 239.633 149.96 237.343 155.648 235.019C161.335 232.694 162.205 232.366 162.205 232.366V210.742H162.187Z" fill="#6A432D"/>
<path d="M334.801 193.085C336.798 207.849 338.635 209.624 336.177 212.268C333.719 214.912 329.913 213.439 329.913 213.439C329.913 213.439 330.001 227.973 329.158 232.676C328.315 237.378 308.138 240.901 299.798 239.197C291.457 237.494 288.609 234.344 287.331 232.365C286.054 230.386 281.697 216.332 282.354 210.369C283.01 204.406 278.609 193.235 280.313 190.52C282.016 187.805 296.195 169.137 310.552 170.84C318.848 171.825 332.264 174.283 334.801 193.093V193.085Z" fill="#6A432D"/>
<path d="M397.337 296.89C397.337 296.89 396.822 293.394 402.128 290.067C407.434 286.739 418.996 281.948 420.043 282.88C421.09 283.811 430.77 308.079 433.166 321.512C435.561 334.946 433.689 334.219 431.187 334.946C428.685 335.674 423.477 336.925 419.005 332.027C414.533 327.129 414.63 312.968 409.732 306.721C404.834 300.475 398.588 298.301 397.337 296.89Z" fill="#5F94CB"/>
<path d="M328.723 191.409C328.51 191.409 328.288 191.356 328.084 191.249L325.618 189.9C324.97 189.545 324.739 188.738 325.094 188.09C325.449 187.443 326.256 187.212 326.904 187.567L329.371 188.915C330.019 189.27 330.249 190.078 329.894 190.726C329.655 191.169 329.193 191.418 328.723 191.418V191.409Z" fill="black"/>
<path d="M325.174 192.314C324.908 192.314 324.642 192.234 324.411 192.065L321.696 190.149C321.092 189.723 320.95 188.898 321.376 188.294C321.802 187.691 322.636 187.549 323.231 187.975L325.946 189.892C326.549 190.317 326.691 191.143 326.265 191.746C326.008 192.11 325.6 192.305 325.174 192.305V192.314Z" fill="black"/>
<path d="M321.376 192.641C321.216 192.641 321.048 192.615 320.888 192.544L318.652 191.656C317.969 191.39 317.631 190.609 317.906 189.926C318.173 189.243 318.953 188.906 319.637 189.181L321.873 190.068C322.556 190.334 322.893 191.115 322.618 191.798C322.414 192.322 321.908 192.641 321.385 192.641H321.376Z" fill="black"/>
<path d="M317.756 193.839C317.534 193.839 317.304 193.786 317.099 193.662L314.934 192.428C314.296 192.064 314.074 191.248 314.438 190.618C314.801 189.979 315.618 189.757 316.248 190.121L318.413 191.355C319.052 191.718 319.273 192.535 318.91 193.165C318.661 193.599 318.217 193.839 317.756 193.839Z" fill="black"/>
<path d="M314.731 195.082C314.589 195.082 314.447 195.064 314.305 195.011L311.98 194.23C311.28 193.999 310.907 193.245 311.138 192.544C311.368 191.843 312.122 191.47 312.823 191.701L315.148 192.482C315.849 192.712 316.222 193.467 315.991 194.168C315.805 194.727 315.29 195.073 314.731 195.073V195.082Z" fill="black"/>
<path d="M319.043 200.707C319.842 201.23 320.915 201.23 321.776 200.831C322.637 200.432 323.302 199.678 323.737 198.826C324.047 198.205 324.252 197.513 324.216 196.82C324.181 196.128 323.879 195.427 323.338 194.993C322.858 194.611 322.229 194.46 321.616 194.469C320.658 194.487 319.717 194.904 319.061 195.605C317.907 196.82 317.446 199.642 319.061 200.707H319.043Z" fill="#050606"/>
<path d="M297.73 210.946C297.508 210.946 297.287 210.893 297.083 210.778C296.444 210.423 296.204 209.616 296.559 208.968C297.304 207.619 298.52 206.581 299.922 205.987C298.822 204.718 298.156 203.058 298.201 201.373C298.218 200.645 298.813 200.077 299.531 200.077C299.54 200.077 299.558 200.077 299.567 200.077C300.303 200.095 300.88 200.707 300.862 201.444C300.818 203.289 302.238 205.144 304.03 205.569C304.74 205.738 305.184 206.448 305.024 207.158C304.864 207.868 304.163 208.32 303.453 208.169C301.714 207.805 299.744 208.702 298.884 210.263C298.644 210.698 298.183 210.946 297.721 210.946H297.73Z" fill="black"/>
<path d="M332.609 214.876C331.349 214.876 330.045 214.503 328.971 213.811C327.232 214.503 324.907 215.098 322.609 214.21C320.595 213.429 319.211 211.46 318.927 208.94C318.847 208.212 319.371 207.547 320.098 207.467C320.826 207.378 321.491 207.91 321.571 208.638C321.651 209.366 322.015 211.131 323.568 211.735C324.881 212.24 326.433 212.045 328.607 211.078C329.078 210.874 329.619 210.954 330.009 211.282C330.897 212.045 332.307 212.391 333.363 212.125C335.129 211.664 335.59 210.892 335.794 210.359C336.229 209.179 336.043 207.76 335.794 206.296C335.209 202.782 334.437 199.259 333.514 195.826C333.319 195.116 333.745 194.388 334.455 194.193C335.164 193.998 335.892 194.424 336.087 195.133C337.037 198.647 337.826 202.258 338.421 205.852C338.714 207.618 338.944 209.49 338.288 211.273C337.667 212.968 336.229 214.122 334.038 214.698C333.576 214.814 333.097 214.876 332.6 214.876H332.609Z" fill="black"/>
<path d="M321.412 218.168C320.028 217.938 318.564 218.31 317.437 219.136C316.31 219.961 315.396 220.955 315.68 222.454C315.875 223.466 316.567 224.344 317.428 224.921C318.289 225.497 319.291 225.808 320.312 226.012C322.007 226.349 323.755 226.385 325.458 226.136C326.709 225.95 327.951 225.604 328.998 224.903C330.045 224.202 330.88 223.111 331.066 221.868C331.27 220.52 330.658 219.091 329.575 218.266C328.493 217.441 326.984 217.219 325.698 217.663C324.908 217.929 324.18 218.426 323.346 218.479C322.716 218.514 322.095 218.293 321.474 218.186C321.456 218.186 321.43 218.186 321.412 218.177V218.168Z" fill="#FEB1D3"/>
<path d="M322.805 224.636C320.95 224.636 319.052 224.077 315.911 223.003C315.218 222.764 314.846 222.01 315.085 221.309C315.325 220.617 316.079 220.244 316.78 220.484C322.849 222.56 323.204 222.551 329.575 220.004C330.258 219.738 331.03 220.067 331.305 220.75C331.58 221.433 331.243 222.205 330.56 222.48C326.913 223.935 324.881 224.636 322.805 224.636Z" fill="black"/>
<path d="M318.785 238.515C315.511 238.515 312.37 237.477 309.176 236.323L308.821 236.199C305.999 235.178 303.089 234.123 300.17 233.998C297.676 233.901 294.402 234.637 292.654 237.033C292.22 237.627 291.385 237.752 290.791 237.326C290.196 236.891 290.063 236.057 290.498 235.462C292.503 232.712 296.159 231.177 300.276 231.337C303.604 231.47 306.709 232.596 309.726 233.688L310.081 233.812C313.248 234.957 316.114 235.933 319.051 235.844C322.308 235.773 326.824 234.131 327.986 232.029C328.341 231.39 329.149 231.15 329.796 231.514C330.435 231.869 330.675 232.676 330.311 233.324C328.394 236.776 322.6 238.435 319.105 238.506C318.998 238.506 318.883 238.506 318.776 238.506L318.785 238.515Z" fill="black"/>
<path d="M255.459 224.947C254.802 224.947 254.172 224.583 253.87 223.962C253.435 223.084 253.799 222.019 254.678 221.584C263.364 217.29 268.795 208.239 273.613 199.331L273.888 198.816C278.839 189.659 283.958 180.201 292.929 174.655C298.883 170.982 306.265 169.473 313.186 170.52C320.107 171.567 326.708 175.188 331.313 180.467C331.961 181.204 331.881 182.33 331.145 182.969C330.408 183.617 329.29 183.537 328.643 182.801C324.588 178.151 318.758 174.957 312.662 174.034C306.567 173.111 300.054 174.442 294.801 177.681C286.638 182.721 281.749 191.762 277.02 200.511L276.745 201.026C271.652 210.44 265.884 220.023 256.266 224.779C256.018 224.903 255.742 224.965 255.485 224.965L255.459 224.947Z" fill="black"/>
<path d="M259.115 226.651C258.725 226.651 258.343 226.526 258.015 226.269C257.243 225.657 257.119 224.548 257.722 223.776C264.829 214.805 271.599 205.391 277.828 195.791L278.449 194.832C281.182 190.618 284.004 186.252 287.801 182.721C292.868 178.009 299.443 175.037 306.319 174.354C313.196 173.67 320.232 175.285 326.123 178.896C326.957 179.411 327.224 180.502 326.709 181.337C326.194 182.171 325.103 182.437 324.269 181.922C319.034 178.71 312.787 177.273 306.674 177.885C300.561 178.497 294.713 181.133 290.224 185.321C286.745 188.559 284.048 192.729 281.43 196.767L280.809 197.725C274.518 207.414 267.686 216.917 260.508 225.976C260.162 226.42 259.639 226.651 259.115 226.651Z" fill="black"/>
<path d="M262.078 224.105C261.705 224.105 261.341 223.99 261.022 223.75C260.232 223.164 260.072 222.055 260.658 221.266L279.22 196.359C282.752 191.621 286.753 186.244 292.255 182.775C302.033 176.59 313.913 177.735 322.156 179.776C323.106 180.015 323.691 180.974 323.452 181.923C323.212 182.872 322.254 183.449 321.305 183.218C310.604 180.565 300.959 181.47 294.153 185.774C289.211 188.897 285.582 193.768 282.068 198.48L263.506 223.386C263.16 223.856 262.619 224.096 262.078 224.096V224.105Z" fill="black"/>
<path d="M262.078 227.006C261.377 227.006 260.783 226.846 260.295 226.625C259.398 226.216 259.008 225.169 259.407 224.273C259.815 223.377 260.862 222.987 261.759 223.386C262.3 223.634 263.356 223.129 264.5 222.073C269.301 217.663 272.903 211.878 276.399 206.288C280.365 199.926 284.473 193.351 290.445 188.453C298.218 182.091 306.878 181.55 318.315 182.739C319.291 182.837 320.001 183.715 319.894 184.691C319.788 185.667 318.909 186.368 317.942 186.27C305.502 184.975 298.661 186.306 292.69 191.204C287.171 195.72 283.4 201.772 279.407 208.169C275.796 213.963 272.06 219.943 266.905 224.681C264.988 226.447 263.356 226.997 262.078 226.997V227.006Z" fill="black"/>
<path d="M263.773 230.564C262.362 230.564 261.049 229.898 260.366 228.78C259.851 227.946 260.118 226.855 260.952 226.34C261.786 225.826 262.877 226.092 263.392 226.917C263.445 226.961 263.676 227.05 263.951 226.997C264.474 226.908 265.042 226.518 265.592 226.11C270.455 222.489 274.03 217.166 277.171 211.957C277.704 211.079 278.227 210.191 278.751 209.304C281.475 204.699 284.296 199.934 288.014 195.853C292.948 190.44 299.185 187.14 305.591 186.545L306.257 186.483C308.706 186.252 311.474 185.986 313.479 186.332C314.447 186.501 315.094 187.415 314.926 188.382C314.757 189.349 313.843 189.997 312.876 189.828C311.332 189.562 308.812 189.801 306.585 190.014L305.911 190.077C300.392 190.591 294.971 193.484 290.632 198.24C287.162 202.046 284.438 206.651 281.803 211.105C281.271 212.002 280.747 212.889 280.215 213.776C276.887 219.295 273.072 224.956 267.713 228.949C266.817 229.614 265.823 230.262 264.572 230.484C264.306 230.528 264.039 230.555 263.773 230.555V230.564Z" fill="black"/>
<path d="M268.094 235.604C267.819 235.604 267.544 235.541 267.287 235.408C266.417 234.965 266.062 233.891 266.515 233.022C267.437 231.22 269.079 228.567 270.525 227.015C271.989 225.435 273.276 224.131 274.722 222.782C277.73 219.97 279.442 216.278 280.729 213.049C282.22 209.295 284.065 204.965 286.488 201.248C291.35 193.794 297.091 190.023 303.098 190.29H303.346C305.174 190.387 305.36 190.405 307.33 190.84C308.288 191.053 308.892 192.002 308.679 192.96C308.466 193.919 307.516 194.522 306.558 194.309C305.411 194.055 304.284 193.901 303.178 193.848H302.92C296.993 193.537 292.335 198.763 289.451 203.191C287.197 206.642 285.441 210.777 284.021 214.362C282.592 217.964 280.658 222.09 277.144 225.382C275.769 226.677 274.527 227.929 273.125 229.437C271.963 230.688 270.507 233.004 269.673 234.645C269.363 235.258 268.733 235.613 268.094 235.613V235.604Z" fill="black"/>
<path d="M272.087 239.517C271.226 239.517 270.472 238.887 270.339 238.018C270.081 236.359 270.729 234.593 272.122 233.191C272.992 232.313 273.985 231.709 274.944 231.124L275.449 230.813C280.596 227.619 284.145 223.023 285.174 218.196C285.529 216.528 285.698 214.824 285.866 213.023C285.973 211.949 286.079 210.849 286.23 209.749C286.842 205.312 289.158 201.479 292.929 198.675C296.665 195.907 300.782 194.425 304.854 194.39H304.872C305.848 194.39 306.638 195.17 306.647 196.146C306.647 197.122 305.866 197.93 304.89 197.939C300.711 197.974 297.232 199.909 295.059 201.523C292.973 203.076 290.356 205.836 289.761 210.228C289.619 211.257 289.522 212.331 289.415 213.36C289.238 215.179 289.06 217.069 288.661 218.941C287.428 224.708 283.302 230.139 277.339 233.839L276.807 234.167C275.999 234.655 275.228 235.125 274.66 235.693C274.083 236.27 273.781 236.953 273.861 237.477C274.012 238.444 273.346 239.349 272.379 239.5C272.291 239.517 272.193 239.517 272.104 239.517H272.087Z" fill="black"/>
<path d="M271.919 237.334C270.979 237.334 270.198 236.597 270.145 235.648C270.038 233.554 271.014 231.371 272.895 229.508C273.712 228.7 274.599 228.026 275.451 227.369C276.063 226.899 276.64 226.464 277.172 225.985C279.781 223.669 284.856 210.528 285.22 206.802C285.317 205.826 286.187 205.107 287.163 205.214C288.139 205.311 288.849 206.181 288.751 207.157C288.343 211.274 283.072 225.506 279.523 228.656C278.893 229.215 278.237 229.712 277.607 230.2C276.808 230.812 276.054 231.389 275.397 232.036C274.732 232.702 273.623 234.024 273.694 235.47C273.747 236.446 272.993 237.28 272.017 237.334C271.981 237.334 271.955 237.334 271.928 237.334H271.919Z" fill="black"/>
<path d="M278.519 239.792C277.898 239.792 277.295 239.464 276.967 238.887C276.487 238.035 276.789 236.953 277.65 236.474C280.658 234.788 285.919 231.105 287.383 225.436C288.005 223.04 287.916 220.467 287.827 217.743C287.712 214.132 287.588 210.396 289.185 206.9C289.593 206.013 290.64 205.614 291.536 206.022C292.423 206.43 292.823 207.477 292.414 208.373C291.163 211.115 291.27 214.282 291.376 217.636C291.465 220.493 291.563 223.448 290.817 226.332C289.486 231.478 285.431 236.181 279.38 239.579C279.105 239.73 278.803 239.81 278.511 239.81L278.519 239.792Z" fill="black"/>
<path d="M296.728 217.104C296.062 217.104 295.388 216.953 294.74 216.607C293.409 215.897 292.522 214.513 292.025 212.392C291.386 209.642 291.351 206.732 291.936 203.972C292.416 201.709 293.241 200.024 294.456 198.808C295.832 197.45 297.731 196.705 299.656 196.767C301.59 196.829 303.427 197.708 304.705 199.154C305.193 199.704 305.139 200.547 304.58 201.035C304.03 201.523 303.187 201.47 302.699 200.911C301.919 200.024 300.738 199.465 299.558 199.429C298.387 199.385 297.163 199.864 296.32 200.698C295.477 201.532 294.891 202.783 294.527 204.522C294.022 206.909 294.048 209.42 294.607 211.789C294.918 213.12 295.37 213.936 295.983 214.265C296.976 214.797 298.449 214.034 299.39 213.093C299.798 212.685 300.179 212.242 300.588 211.763C301.439 210.769 302.318 209.731 303.542 208.994C304.172 208.613 304.989 208.817 305.37 209.456C305.752 210.086 305.539 210.902 304.909 211.283C304.057 211.798 303.356 212.614 302.611 213.493C302.185 213.99 301.75 214.504 301.253 214.992C300.135 216.101 298.44 217.113 296.701 217.113L296.728 217.104Z" fill="black"/>
<path d="M148.23 211.203C148.106 211.203 147.982 211.186 147.857 211.15C145.267 210.405 143.527 209.784 141.513 209.074C140.715 208.79 139.863 208.488 138.905 208.16C138.213 207.92 137.84 207.166 138.08 206.465C138.319 205.773 139.073 205.4 139.774 205.64C140.75 205.977 141.602 206.279 142.41 206.563C144.379 207.264 146.092 207.867 148.594 208.595C149.304 208.799 149.712 209.535 149.508 210.245C149.339 210.831 148.807 211.203 148.23 211.203Z" fill="black"/>
<path d="M139.339 215.32C139.268 215.32 139.197 215.32 139.126 215.303C137.485 215.036 134.299 214.806 131.22 214.584C127.946 214.344 124.85 214.122 123.102 213.839C122.374 213.723 121.877 213.04 122.001 212.312C122.126 211.585 122.809 211.097 123.528 211.212C125.169 211.478 128.346 211.709 131.425 211.931C134.708 212.17 137.804 212.392 139.561 212.676C140.289 212.792 140.785 213.475 140.661 214.202C140.555 214.859 139.987 215.32 139.348 215.32H139.339Z" fill="black"/>
<path d="M133.679 222.028C132.028 222.028 130.405 221.984 128.825 221.939C126.154 221.868 123.635 221.797 120.982 221.922C120.254 221.939 119.624 221.389 119.588 220.653C119.553 219.916 120.121 219.295 120.857 219.26C123.608 219.127 126.296 219.198 128.896 219.278C130.777 219.331 132.712 219.384 134.672 219.357H134.69C135.418 219.357 136.012 219.943 136.021 220.671C136.021 221.407 135.444 222.01 134.708 222.019C134.362 222.019 134.025 222.019 133.679 222.019V222.028Z" fill="black"/>
<path d="M136.588 233.449C136.242 233.449 135.905 233.315 135.639 233.058C135.124 232.535 135.124 231.692 135.639 231.177C137.502 229.332 139.783 227.894 142.249 227.016C142.941 226.767 143.704 227.131 143.953 227.823C144.201 228.515 143.838 229.278 143.145 229.527C141.043 230.272 139.099 231.505 137.511 233.076C137.254 233.333 136.917 233.457 136.571 233.457L136.588 233.449Z" fill="black"/>
<path d="M441.844 205.595C441.418 205.595 441.01 205.391 440.744 205.019C440.327 204.415 440.477 203.581 441.081 203.164C444.515 200.795 447.869 198.213 451.063 195.507C451.622 195.028 452.465 195.099 452.935 195.658C453.414 196.217 453.343 197.06 452.784 197.53C449.528 200.298 446.103 202.933 442.598 205.356C442.367 205.515 442.101 205.595 441.844 205.595Z" fill="black"/>
<path d="M452.802 208.896C452.376 208.896 451.959 208.692 451.702 208.311C451.294 207.698 451.453 206.873 452.057 206.465L466.599 196.625C467.203 196.217 468.037 196.368 468.445 196.98C468.853 197.592 468.693 198.417 468.09 198.825L453.547 208.666C453.317 208.816 453.059 208.896 452.802 208.896Z" fill="black"/>
<path d="M458.73 215.258C458.269 215.258 457.825 215.018 457.577 214.593C457.204 213.954 457.426 213.146 458.056 212.774C461.596 210.706 465.385 209.056 469.307 207.867C470.008 207.654 470.753 208.053 470.966 208.754C471.179 209.455 470.78 210.2 470.079 210.413C466.352 211.549 462.759 213.111 459.396 215.072C459.183 215.196 458.952 215.249 458.73 215.249V215.258Z" fill="black"/>
<path d="M453.006 228.967C452.784 228.967 452.562 228.914 452.358 228.798L447.895 226.287C447.256 225.924 447.026 225.116 447.39 224.477C447.753 223.838 448.561 223.608 449.2 223.972L453.663 226.483C454.302 226.846 454.532 227.654 454.168 228.293C453.92 228.727 453.476 228.976 453.006 228.976V228.967Z" fill="black"/>
<path d="M50.5205 104.054C50.5205 104.054 54.1762 99.9902 52.5524 87.6125C50.9287 75.2347 49.3049 51.8811 54.3802 42.9461C59.4556 34.011 71.9486 32.9108 74.0249 32.76C76.1012 32.6091 84.4684 37.9417 86.6156 43.718C88.7629 49.4943 96.083 49.5209 95.5773 54.3034C95.249 57.3823 94.5391 58.3761 94.5391 58.3761C94.5391 58.3761 100.91 66.5215 101.726 70.6651C102.543 74.8088 77.8846 83.3268 77.8846 84.8796C77.8846 86.4323 83.6609 98.8012 83.6609 98.8012L76.1456 130.566L50.5383 104.036L50.5205 104.054Z" fill="#AA6D4C"/>
<path d="M76.1191 31.5806C76.1191 31.5806 76.6692 36.3897 75.3117 38.3151C74.522 39.4331 73.0047 40.7818 71.8778 41.7135C71.0172 42.4233 70.6445 43.559 70.9107 44.6415L72.2771 50.1251C72.4989 51.0124 72.286 51.9529 71.7004 52.6627C70.0944 54.597 66.98 58.4301 66.98 58.927C66.98 59.6013 68.6658 65.8568 68.6658 65.8568C68.6658 65.8568 74.238 63.5676 78.5503 64.6501L82.8625 65.7325C82.8625 65.7325 87.1038 60.7282 90.8216 59.5481L94.5393 58.368C94.5393 58.368 98.3014 60.0272 98.2926 61.8462C98.2837 63.6651 103.714 72.263 102.631 74.6853C101.549 77.1077 91.4693 83.9309 81.1323 84.9336C70.7953 85.9362 68.6303 85.182 67.5478 81.9345C66.4653 78.687 65.4627 73.1414 65.4627 73.1414C65.4627 73.1414 63.8833 73.7714 63.5461 74.4369C63.209 75.1023 54.6288 89.1038 51.8782 88.1899C49.1276 87.276 49.7132 84.1882 48.542 83.8599C47.3708 83.5316 45.3744 81.2779 44.7089 80.1067C44.0434 78.9355 42.5439 78.7314 40.7959 78.0038C39.048 77.2762 32.7925 66.9393 32.2957 62.6891C31.7988 58.439 32.0472 50.1073 32.2957 48.3593C32.5441 46.6113 39.7933 37.0286 43.378 34.9434C46.9626 32.8583 52.2154 32.8051 53.8746 31.5806C55.5339 30.3561 57.2907 28.4396 62.792 28.4396C68.2932 28.4396 70.121 26.8602 72.4546 28.1024C74.7882 29.3446 76.128 31.5717 76.128 31.5717L76.1191 31.5806Z" fill="#050606"/>
<path d="M62.8273 60.4177C62.916 59.7611 62.57 59.1312 61.9755 58.8295C60.3784 58.022 57.4414 56.8596 56.1815 58.51C54.4069 60.8259 56.4122 71.7307 60.2808 70.4175C64.1494 69.1043 63.9098 68.1727 63.9098 68.1727C63.9098 68.1727 62.4369 63.3369 62.8273 60.4177Z" fill="#AA6D4C"/>
<path d="M83.1544 43.1869C82.9858 43.1869 82.8261 43.1603 82.6575 43.0893L80.3239 42.1577C79.6407 41.8826 79.3124 41.1106 79.5786 40.4274C79.8537 39.7442 80.6256 39.4159 81.3088 39.6821L83.6424 40.6138C84.3256 40.8888 84.6539 41.6608 84.3877 42.344C84.1837 42.8675 83.6779 43.1781 83.1544 43.1781V43.1869Z" fill="black"/>
<path d="M81.7977 44.6248C81.6646 44.6248 81.5316 44.607 81.4073 44.5626L78.3994 43.631C77.6984 43.4092 77.308 42.6727 77.521 41.9629C77.7428 41.2619 78.4793 40.8715 79.1891 41.0845L82.197 42.0161C82.898 42.2379 83.2884 42.9744 83.0754 43.6842C82.898 44.2521 82.3745 44.6248 81.8066 44.6248H81.7977Z" fill="black"/>
<path d="M50.5205 234.753C50.5205 234.753 53.0493 246.67 67.3791 260.192C81.7089 273.714 107.476 295.293 107.476 295.293C107.476 295.293 83.7408 325.568 76.1189 337.804C68.4971 350.039 62.0642 373.553 62.0642 373.553L86.5446 395.451C86.5446 395.451 130.022 347.466 138.398 337.475C146.774 327.484 149.028 318.15 149.028 318.15C149.028 318.15 147.741 353.42 155.47 377.412L163.198 401.405L197.518 401.254C197.518 401.254 202.807 304.787 197.013 277.086C191.219 249.385 168.468 220.193 168.468 220.193L131.317 183.051L50.5205 234.744V234.753Z" fill="#3866B0"/>
<path d="M80.298 45.6C80.298 45.6 80.2093 45.6 80.1649 45.6L76.669 45.2629C75.9414 45.1919 75.4001 44.5441 75.4711 43.8077C75.5421 43.0712 76.2076 42.5389 76.9263 42.6099L80.4222 42.947C81.1587 43.018 81.691 43.6658 81.6201 44.4022C81.5491 45.0943 80.9723 45.6089 80.298 45.6089V45.6Z" fill="black"/>
<path d="M78.5505 47.5872C78.4529 47.5872 78.3553 47.5783 78.2577 47.5517L75.028 46.833C74.3092 46.6733 73.8567 45.9635 74.0164 45.2448C74.1761 44.5261 74.886 44.0735 75.6047 44.2332L78.8344 44.9519C79.5532 45.1117 80.0057 45.8215 79.846 46.5402C79.704 47.1613 79.1539 47.5783 78.5505 47.5783V47.5872Z" fill="black"/>
<path d="M76.9351 48.7319C76.8907 48.7319 76.8375 48.7319 76.7931 48.7319L75.1783 48.5633C74.4507 48.4835 73.9183 47.8268 73.9982 47.0993C74.078 46.3717 74.7346 45.857 75.4622 45.9191L77.0771 46.0877C77.8047 46.1676 78.337 46.8242 78.2572 47.5518C78.1862 48.235 77.6095 48.7407 76.9351 48.7407V48.7319Z" fill="black"/>
<path d="M83.1549 50.8089C84.2771 50.8089 85.1868 49.8992 85.1868 48.7771C85.1868 47.6549 84.2771 46.7451 83.1549 46.7451C82.0328 46.7451 81.123 47.6549 81.123 48.7771C81.123 49.8992 82.0328 50.8089 83.1549 50.8089Z" fill="#050606"/>
<path d="M86.6518 60.259C86.3856 60.259 86.1105 60.1791 85.8798 60.0105C85.2853 59.5846 85.1434 58.7506 85.5693 58.1561C85.8177 57.8189 87.1132 56.0887 88.7546 55.7782C89.2249 55.6894 89.8105 55.7427 90.618 55.8136C91.7448 55.9201 93.8477 56.1153 94.5487 55.5119C94.6552 55.4232 94.7705 55.2813 94.7971 54.9175C94.9125 53.1163 91.0172 49.9575 88.3376 48.387C87.7076 48.0143 87.4947 47.198 87.8674 46.5681C88.24 45.9381 89.0563 45.7251 89.6863 46.0978C91.0261 46.8875 97.7252 51.0311 97.4501 55.1038C97.3791 56.1065 96.9799 56.9494 96.2789 57.5439C94.7261 58.8748 92.2151 58.6352 90.3784 58.4666C89.9702 58.4311 89.4201 58.3779 89.2427 58.3956C88.87 58.4666 88.1424 59.1499 87.7431 59.7089C87.4858 60.0727 87.0777 60.259 86.6606 60.259H86.6518Z" fill="black"/>
<path d="M95.4624 62.3884C95.2317 61.9625 94.7082 61.8028 94.2735 62.0158C92.5344 62.8676 88.861 65.1036 87.2639 66.5498C85.5159 68.1292 85.1787 68.7504 85.1787 68.7504C85.1787 68.7504 91.4874 69.3626 95.4447 69.0254C98.6035 68.7504 96.4562 64.2074 95.4624 62.3973V62.3884Z" fill="#AA6D4C"/>
<path d="M58.0887 67.8793C57.8226 67.8793 57.5564 67.7995 57.3257 67.6398C56.7223 67.2139 56.5803 66.3887 57.0062 65.7853C57.3612 65.2796 57.8137 64.8448 58.3194 64.4899C57.654 63.7711 57.166 62.8839 56.9441 61.9522C56.7755 61.2335 57.2192 60.5237 57.9379 60.3551C58.6566 60.1865 59.3664 60.6301 59.535 61.3489C59.7746 62.3604 60.6974 63.3187 61.6912 63.576C62.3389 63.7446 62.7648 64.3746 62.6761 65.04C62.5873 65.7055 62.0283 66.2024 61.354 66.2024H61.3362C60.5022 66.2024 59.6593 66.6371 59.1801 67.3203C58.9228 67.6841 58.5058 67.8793 58.0887 67.8793Z" fill="black"/>
<path d="M155.683 139.672C155.683 139.672 157.413 125.111 161.574 124.588C165.736 124.064 163.482 136.202 163.482 136.202C163.482 136.202 173.02 124.41 177.004 125.457C180.988 126.504 175.097 134.295 173.189 136.034C171.281 137.773 183.863 121.89 187.67 126.167C190.456 129.299 175.443 141.411 175.443 141.411C175.443 141.411 186.472 130.364 189.134 132.999C192.958 136.779 179.081 145.572 179.081 145.572C179.081 145.572 186.019 140.195 188.096 142.28C190.172 144.366 179.95 153.549 176.135 156.149C172.319 158.749 168.336 162.91 166.25 161.002C164.165 159.095 155.674 139.681 155.674 139.681L155.683 139.672Z" fill="#AA6D4C"/>
<path d="M219.781 151.987L221.139 141.552C221.37 139.813 223.437 138.943 224.786 140.07C226.321 141.348 227.687 143.229 226.906 145.634L225.362 150.398C225.362 150.398 234.75 136.202 238.53 137.062C242.31 137.923 233.907 149.13 233.907 149.13C233.907 149.13 243.995 134.578 247.074 137.018C250.153 139.458 238.53 151.978 238.53 151.978C238.53 151.978 246.373 140.257 249.594 143.007C252.815 145.758 241.751 155.988 241.751 155.988C241.751 155.988 247.687 147.444 250.189 151.082C252.691 154.72 240.349 169.182 238.672 169.582C236.995 169.981 235.637 170.531 235.637 170.531L219.781 154.161V151.969V151.987Z" fill="#AA6D4C"/>
<path d="M84.4591 70.4527C83.8912 70.4527 83.3677 70.089 83.1903 69.5122C82.9685 68.8113 83.3677 68.0659 84.0687 67.8441L97.6088 63.6561C98.3098 63.4343 99.0551 63.8336 99.2769 64.5345C99.4987 65.2355 99.0995 65.9808 98.3985 66.2026L84.8584 70.3906C84.7253 70.435 84.5922 70.4527 84.468 70.4527H84.4591Z" fill="black"/>
<path d="M69.9434 103.69L75.3116 126.902L76.1279 103.034C76.1279 103.034 83.1819 98.624 88.3903 95.7314C91.3183 94.1077 94.4682 92.9542 97.7601 92.342C104.273 91.1264 115.985 89.9729 125.08 94.8087C138.416 101.889 150.732 144.355 156.712 160.007C162.692 175.659 167.812 182.207 167.812 182.207L219.772 151.995L235.628 170.557C235.628 170.557 195.992 214.877 178.735 219.491C170.172 221.78 168.46 220.219 168.46 220.219L135.301 188.205C135.301 188.205 71.1147 237.769 58.0803 240.511C45.046 243.253 18.3384 248.044 9.43888 219.97C0.539324 191.896 -3.58659 135.243 19.7137 115.882C39.1189 99.7598 69.9434 103.699 69.9434 103.699V103.69Z" fill="#FFCD2A"/>
<path d="M147.361 329.454C147.183 329.454 147.006 329.419 146.837 329.348C146.163 329.055 145.844 328.274 146.136 327.6C146.261 327.316 158.212 298.94 154.495 278.861C150.786 258.817 101.355 214.656 100.849 214.212C100.299 213.724 100.254 212.881 100.742 212.331C101.23 211.781 102.073 211.737 102.623 212.225C104.691 214.062 153.235 257.45 157.112 278.381C160.981 299.26 149.091 327.467 148.585 328.656C148.372 329.161 147.875 329.463 147.361 329.463V329.454Z" fill="black"/>
<path d="M170.766 189.527C170.278 189.527 169.808 189.252 169.568 188.782L166.613 182.792C166.285 182.136 166.56 181.337 167.217 181.009C167.873 180.69 168.672 180.956 169 181.612L171.955 187.602C172.283 188.258 172.008 189.057 171.352 189.385C171.165 189.474 170.961 189.518 170.766 189.518V189.527Z" fill="black"/>
<path d="M45.5254 200.973C44.8865 200.973 44.3275 200.512 44.2122 199.864L43.4846 195.552C42.7482 191.169 43.4402 151.329 43.4669 149.634C43.4757 148.907 44.0702 148.33 44.7978 148.33H44.8244C45.5609 148.339 46.1465 148.951 46.1287 149.688C45.9247 161.16 45.5343 191.674 46.111 195.117L46.8386 199.429C46.9628 200.157 46.4748 200.84 45.7472 200.964C45.6762 200.973 45.5964 200.982 45.5254 200.982V200.973Z" fill="black"/>
<path d="M147.431 139.946L155.683 137.062C155.683 137.062 163.482 151.623 164.866 155.261C166.25 158.899 166.25 160.984 166.25 160.984L156.534 169.591L147.422 139.937L147.431 139.946Z" fill="#FFCD2A"/>
<path d="M91.3806 133.114C90.7507 133.114 90.1828 132.662 90.0674 132.014C89.9432 131.286 90.4224 130.603 91.1499 130.47L118.78 125.59C119.508 125.466 120.191 125.945 120.324 126.672C120.448 127.4 119.969 128.083 119.242 128.216L91.6113 133.096C91.5315 133.114 91.4516 133.114 91.3806 133.114Z" fill="black"/>
<path d="M135.31 189.527C134.937 189.527 134.573 189.376 134.307 189.074C133.819 188.524 133.881 187.681 134.431 187.193L158.681 165.951C159.231 165.463 160.074 165.526 160.562 166.076C161.05 166.626 160.988 167.469 160.438 167.957L136.188 189.199C135.94 189.42 135.62 189.527 135.31 189.527Z" fill="black"/>
<path d="M39.1274 206.644C38.7813 206.644 38.4264 206.511 38.1691 206.236C37.6545 205.704 37.6722 204.861 38.2046 204.355C38.4441 204.124 62.685 180.966 101.131 161.525C139.418 142.165 150.527 136.992 150.634 136.947C151.299 136.637 152.089 136.93 152.399 137.595C152.71 138.261 152.417 139.05 151.752 139.361C151.645 139.414 140.563 144.578 102.329 163.903C64.2555 183.149 40.2897 206.05 40.0501 206.272C39.7928 206.52 39.4557 206.644 39.1274 206.644Z" fill="black"/>
<path d="M75.3112 128.233C74.6989 128.233 74.1577 127.807 74.0157 127.203L68.6476 103.992C68.479 103.273 68.9315 102.563 69.6414 102.395C70.3601 102.226 71.0699 102.679 71.2385 103.388L74.3263 116.733L74.7965 102.989C74.8232 102.253 75.4709 101.649 76.1718 101.702C76.9083 101.729 77.485 102.341 77.4584 103.078L76.6421 126.946C76.6155 127.611 76.1097 128.162 75.4443 128.224C75.3999 128.224 75.3555 128.224 75.3112 128.224V128.233Z" fill="black"/>
<path d="M162.231 139.156C161.947 139.156 161.664 139.067 161.424 138.881C160.838 138.428 160.732 137.594 161.176 137.017L162.427 135.394C162.879 134.808 163.713 134.702 164.29 135.145C164.876 135.598 164.982 136.432 164.538 137.009L163.287 138.632C163.021 138.97 162.631 139.156 162.231 139.156Z" fill="black"/>
<path d="M171.494 138.703C171.174 138.703 170.846 138.587 170.589 138.348C170.047 137.851 170.012 137.008 170.509 136.467L175.646 130.885C176.143 130.344 176.986 130.309 177.527 130.806C178.069 131.303 178.104 132.145 177.607 132.687L172.47 138.268C172.204 138.552 171.849 138.694 171.494 138.694V138.703Z" fill="black"/>
<path d="M175.442 142.733C175.07 142.733 174.706 142.582 174.44 142.28C173.952 141.73 174.005 140.887 174.555 140.399L180.81 134.889C181.361 134.401 182.203 134.454 182.691 135.004C183.179 135.554 183.126 136.397 182.576 136.885L176.321 142.395C176.063 142.617 175.753 142.724 175.442 142.724V142.733Z" fill="black"/>
<path d="M179.09 146.894C178.673 146.894 178.256 146.698 177.998 146.326C177.581 145.722 177.723 144.897 178.327 144.471L181.61 142.182C182.213 141.765 183.038 141.907 183.464 142.51C183.881 143.114 183.739 143.939 183.136 144.365L179.853 146.654C179.622 146.814 179.356 146.894 179.09 146.894Z" fill="black"/>
<path d="M224.493 153.69C224.315 153.69 224.129 153.654 223.952 153.575C223.277 153.273 222.976 152.492 223.277 151.818L224.147 149.857C224.448 149.182 225.229 148.881 225.904 149.182C226.578 149.484 226.88 150.265 226.578 150.939L225.708 152.9C225.487 153.397 224.999 153.69 224.493 153.69Z" fill="black"/>
<path d="M232.717 151.729C232.442 151.729 232.158 151.64 231.919 151.463C231.333 151.019 231.218 150.185 231.661 149.599L235.308 144.764C235.752 144.178 236.586 144.063 237.172 144.506C237.757 144.95 237.873 145.784 237.429 146.37L233.782 151.205C233.525 151.551 233.126 151.738 232.717 151.738V151.729Z" fill="black"/>
<path d="M238.538 153.318C238.236 153.318 237.926 153.211 237.677 152.998C237.118 152.519 237.056 151.676 237.527 151.117L241.351 146.645C241.83 146.086 242.673 146.024 243.232 146.494C243.791 146.974 243.853 147.816 243.383 148.375L239.558 152.847C239.292 153.158 238.92 153.318 238.547 153.318H238.538Z" fill="black"/>
<path d="M241.759 157.338C241.431 157.338 241.094 157.214 240.836 156.965C240.304 156.46 240.286 155.617 240.801 155.084L245.237 150.461C245.743 149.929 246.586 149.911 247.118 150.426C247.651 150.932 247.669 151.775 247.154 152.307L242.717 156.93C242.46 157.205 242.105 157.338 241.759 157.338Z" fill="black"/>
</svg>
