<svg width="390" height="254" viewBox="0 0 390 254" fill="none" xmlns="http://www.w3.org/2000/svg">
<path d="M296.621 67.8527C296.621 67.8527 299.058 66.1049 299.517 64.5052C299.976 62.9055 299.517 62.1056 299.517 62.1056C299.517 62.1056 294.14 58.2175 293.681 52.6111L293.222 47.0047C293.222 47.0047 282.239 51.4631 282.928 38.31C283.616 25.1569 291.852 31.6742 291.852 31.6742C291.852 31.6742 291.756 16.8029 311.3 17.8323C326.497 18.6322 325.942 30.6448 325.942 30.6448C325.942 30.6448 330.978 25.6087 333.837 29.6153C336.695 33.622 338.384 43.0943 333.755 44.6792C330.689 45.7309 328.23 44.2645 328.23 44.2645C328.23 44.2645 328.69 61.7872 319.647 61.8686C319.647 61.8686 318.877 63.1795 319.076 65.0829C319.432 68.4526 320.906 68.7415 320.906 68.7415C320.906 68.7415 306.879 75.6661 296.614 67.8527H296.621Z" fill="#704328"/>
<path d="M326.757 38.7323C326.364 38.7323 325.986 38.5249 325.786 38.1546C325.512 37.651 325.66 37.0215 326.134 36.703C326.157 36.6882 328.578 34.9848 328.756 32.7926C328.801 32.1779 329.341 31.7188 329.949 31.7706C330.563 31.815 331.015 32.3557 330.971 32.963C330.896 33.948 330.548 34.8367 330.104 35.5996C331.282 35.4588 332.578 35.4885 333.726 35.9254C334.296 36.1402 334.592 36.7845 334.37 37.3548C334.155 37.9325 333.511 38.2213 332.941 37.9991C331.074 37.2955 328.171 38.2213 327.208 38.636C327.068 38.6953 326.912 38.7249 326.764 38.7249L326.757 38.7323Z" fill="black"/>
<path d="M285.319 43.6195C285.082 43.6195 284.845 43.5454 284.645 43.3899C284.164 43.0196 284.067 42.3235 284.438 41.8421C284.504 41.7532 285.749 40.1609 287.778 39.5462C287.341 39.2055 286.859 38.85 286.423 38.5241C285.926 38.1687 285.808 37.4725 286.171 36.9763C286.534 36.4801 287.222 36.369 287.719 36.7245C291.607 39.5166 291.622 40.0868 291.311 40.8496C291.148 41.257 290.674 41.694 289.896 41.5681C287.763 41.2348 286.215 43.1752 286.2 43.19C285.978 43.4714 285.652 43.6195 285.319 43.6195Z" fill="black"/>
<path d="M303.634 42.9457C303.16 42.9457 302.62 42.879 302.012 42.7012C300.82 42.3606 300.487 41.5607 300.39 41.1163C299.939 38.9982 303.183 35.9988 304.597 34.8064C305.064 34.4139 305.767 34.4731 306.16 34.9397C306.552 35.4063 306.493 36.1099 306.026 36.5024C304.286 37.9762 302.716 39.8277 302.575 40.5535C302.59 40.5535 302.605 40.5609 302.627 40.5683C303.938 40.9386 304.523 40.5831 305.145 40.2054C305.671 39.8869 306.641 39.2945 307.678 40.1017C308.078 40.4202 308.604 40.5831 309.018 40.5313C309.315 40.4942 309.448 40.3461 309.522 40.2498C310.381 39.0723 311.685 39.6203 312.462 39.9462C313.499 40.3832 314.055 40.5313 314.684 40.0351C314.773 39.4722 313.084 37.6651 310.826 36.1765C310.315 35.8358 310.174 35.1471 310.507 34.636C310.84 34.125 311.529 33.9769 312.048 34.3176C313.166 35.0508 316.832 37.6281 316.936 39.9166C316.965 40.6424 316.661 41.3015 316.069 41.7755C314.343 43.1456 312.625 42.4272 311.603 41.9977C311.448 41.931 311.262 41.857 311.114 41.8051C310.648 42.3162 310.033 42.642 309.315 42.7383C308.374 42.8642 307.33 42.5901 306.486 41.9977C306.426 42.0347 306.352 42.0717 306.3 42.1088C305.745 42.4494 304.916 42.9531 303.634 42.9531V42.9457Z" fill="black"/>
<path d="M309.767 48.2712C309.767 48.2712 306.545 46.0124 303.412 47.1751C300.28 48.3379 299.761 54.907 304.583 56.0772C309.404 57.2473 315.21 56.3586 316.773 55.2847C318.573 54.0479 319.461 47.6047 315.521 46.8419C311.581 46.079 309.767 48.2712 309.767 48.2712Z" fill="#9B7461"/>
<path d="M309.768 54.0477C304.983 54.0477 300.917 52.9886 300.747 52.9368C300.154 52.7813 299.799 52.174 299.955 51.5815C300.11 50.989 300.717 50.6335 301.31 50.7891C301.347 50.7965 305.279 51.8259 309.768 51.8259C314.256 51.8259 317.729 49.8855 317.766 49.8633C318.307 49.5745 318.981 49.767 319.269 50.3077C319.566 50.8483 319.366 51.5222 318.825 51.8111C318.662 51.8999 314.685 54.0403 309.768 54.0403V54.0477Z" fill="black"/>
<path d="M310.848 30.3925C310.515 30.3925 310.182 30.2444 309.96 29.9556C309.589 29.4668 309.686 28.7706 310.174 28.4003L312.233 26.8376C312.722 26.4673 313.418 26.5636 313.789 27.0523C314.159 27.5411 314.063 28.2373 313.574 28.6076L311.515 30.1703C311.315 30.3258 311.078 30.3925 310.841 30.3925H310.848Z" fill="black"/>
<path d="M314.403 29.327C314.077 29.327 313.751 29.1863 313.536 28.9123C313.151 28.4309 313.233 27.7348 313.714 27.3496L315.136 26.2091C315.617 25.824 316.314 25.9055 316.699 26.3869C317.084 26.8683 317.002 27.5644 316.521 27.9495L315.099 29.09C314.892 29.253 314.647 29.3345 314.403 29.3345V29.327Z" fill="black"/>
<path d="M368.897 143.261C365.023 143.764 354.529 114.844 350.767 104.113L379.45 91.1445C388.308 112.015 386.545 140.972 368.897 143.261Z" fill="#704328"/>
<path d="M366.712 141.616C366.712 141.616 375.303 153.784 382.746 148.296C390.189 142.809 385.649 125.96 388.234 123.842C390.819 121.724 389.804 114.214 389.804 114.214L368.897 115.377C368.897 115.377 372.459 136.195 366.712 141.616Z" fill="#704328"/>
<path d="M316.744 29.3268C316.462 29.3268 316.181 29.2231 315.959 29.0083C315.522 28.5788 315.522 27.8752 315.959 27.4382L317.506 25.8756C317.936 25.4386 318.64 25.4386 319.077 25.8756C319.513 26.3051 319.513 27.0087 319.077 27.4456L317.529 29.0083C317.314 29.2231 317.025 29.3342 316.736 29.3342L316.744 29.3268Z" fill="black"/>
<path d="M318.951 29.3266C318.61 29.3266 318.269 29.1711 318.054 28.8675C317.692 28.3713 317.803 27.6751 318.299 27.3122L319.862 26.1717C320.358 25.8088 321.054 25.9199 321.417 26.4161C321.78 26.9123 321.669 27.6084 321.172 27.9713L319.61 29.1119C319.41 29.2526 319.18 29.3266 318.958 29.3266H318.951Z" fill="black"/>
<path d="M306.582 30.7488C306.352 30.7488 306.123 30.6822 305.93 30.534L303.301 28.6159C302.805 28.253 302.694 27.5568 303.056 27.0606C303.419 26.5644 304.115 26.4533 304.612 26.8162L307.241 28.7344C307.737 29.0973 307.848 29.7934 307.485 30.2896C307.27 30.5859 306.93 30.7488 306.589 30.7488H306.582Z" fill="black"/>
<path d="M247.178 66.7422C247.178 66.7422 185.767 66.7422 132.94 79.5028C101.102 87.1903 0.342342 110.031 -15.4177 116.918C-31.1778 123.806 -20.4094 151.378 -20.4094 151.378C-20.4094 151.378 104.049 116.585 144.427 110.682C184.805 104.78 251.755 93.9446 251.755 93.9446L247.178 66.7422Z" fill="#704328"/>
<path d="M303.234 30.3925C303.042 30.3925 302.842 30.3407 302.664 30.237L300.879 29.1705C300.353 28.8595 300.183 28.1707 300.494 27.6449C300.805 27.1191 301.487 26.9487 302.02 27.2598L303.805 28.3262C304.33 28.6373 304.501 29.3261 304.19 29.8519C303.982 30.2 303.612 30.3925 303.234 30.3925Z" fill="black"/>
<path d="M270.974 159.465C270.974 159.465 241.705 217.336 241.364 262.417C241.024 307.497 247.178 330.375 247.178 330.375L277.365 328.02L309.774 196.807C309.774 196.807 309.663 237.518 312.692 252.989C315.721 268.46 334.895 329.693 339.946 330.367C344.997 331.041 368.904 325.657 368.904 325.657C368.904 325.657 371.911 206.22 367.2 185.364C362.49 164.509 357.78 159.458 357.78 159.458H270.981L270.974 159.465Z" fill="#3866B0"/>
<path d="M300.465 31.1044C300.228 31.1044 299.991 31.0304 299.784 30.8748L298.08 29.5566C297.592 29.1788 297.503 28.4827 297.88 28.0013C298.258 27.5125 298.954 27.4236 299.436 27.8013L301.139 29.1196C301.628 29.4973 301.717 30.1935 301.339 30.6749C301.124 30.9563 300.791 31.1044 300.458 31.1044H300.465Z" fill="black"/>
<path d="M297.836 31.1036C297.695 31.1036 297.547 31.074 297.406 31.0147L295.703 30.3037C295.14 30.0668 294.866 29.415 295.103 28.8521C295.34 28.2893 295.992 28.0227 296.555 28.2523L298.258 28.9633C298.821 29.2002 299.095 29.852 298.858 30.4149C298.68 30.8444 298.265 31.0962 297.828 31.0962L297.836 31.1036Z" fill="black"/>
<path d="M315.114 33.6079C315.736 33.6079 316.24 33.1039 316.24 32.4822C316.24 31.8605 315.736 31.3564 315.114 31.3564C314.492 31.3564 313.988 31.8605 313.988 32.4822C313.988 33.1039 314.492 33.6079 315.114 33.6079Z" fill="black"/>
<path d="M302.346 33.6079C302.968 33.6079 303.472 33.1039 303.472 32.4822C303.472 31.8605 302.968 31.3564 302.346 31.3564C301.725 31.3564 301.221 31.8605 301.221 32.4822C301.221 33.1039 301.725 33.6079 302.346 33.6079Z" fill="black"/>
<path d="M350.374 104.291C353.358 117.155 362.268 156.029 362.038 160.828C361.764 166.598 272.84 163.85 267.893 162.206C262.953 160.554 276.95 97.8621 276.95 97.8621H248.341L243.756 67.7713C243.69 65.7421 249.311 64.8311 251.296 64.4386C264.886 61.7502 297.013 65.4532 297.013 65.4532C297.013 65.4532 299.487 69.6228 308.641 69.8894C317.795 70.1561 319.342 66.4975 322.705 65.9494C326.075 65.394 352.248 66.7493 362.809 71.5706C369.733 74.733 376.214 81.3318 380.042 89.7302C380.294 90.2783 380.042 90.93 379.487 91.1744L350.766 104.113C349.996 101.898 349.507 100.454 349.418 100.21C349.478 100.469 349.826 101.943 350.374 104.291Z" fill="#050606"/>
<path d="M222.524 9.64352C222.524 9.64352 226.916 13.7464 226.138 19.5083C225.36 25.2703 223.79 27.6106 224.375 30.4471C224.96 33.2836 225.227 37.0459 223.368 37.4828C221.509 37.9198 221.457 37.4828 221.457 37.4828C221.457 37.4828 221.354 42.1709 219.495 45.5554C217.836 48.5697 215.784 51.3396 211.637 50.7397C207.49 50.1398 206.016 46.3775 204.601 47.0292C203.187 47.681 198.654 53.5761 198.654 53.5761L178.688 47.2144C178.688 47.2144 186.753 38.9048 186.916 35.8609C187.079 32.817 184.035 30.5952 188.315 22.8559C192.596 15.1166 198.439 16.3534 198.847 19.9749C199.254 23.5965 207.319 12.8133 207.319 8.70296C207.319 4.5926 212.341 4.17785 216.125 5.98493C219.91 7.792 222.524 9.65093 222.524 9.65093V9.64352Z" fill="#704328"/>
<path d="M312.929 149.106C312.929 149.106 313.106 147.847 313.358 146.359C313.425 145.966 313.469 145.544 313.551 145.144C314.01 142.833 314.906 140.834 315.499 140.167C317.039 138.427 320.298 140.167 319.868 147.092C319.439 154.017 318.728 166.37 316.424 166.585C314.121 166.799 310.596 165.622 310.596 165.622L312.936 149.106H312.929Z" fill="#704328"/>
<path d="M273.966 142.597L267.671 143.041C267.604 143.16 267.575 143.226 267.575 143.226C267.575 143.226 248.252 147.211 245.09 145.352C245.09 145.352 245.608 149.233 245.697 149.84C245.786 150.455 249.711 152.891 253.288 152.81C256.865 152.721 273.707 150.099 276.321 147.485C278.943 144.87 273.966 142.597 273.966 142.597Z" fill="#F36B23"/>
<path d="M312.655 150.032C311.803 148.691 292.296 140.663 270.507 137.16C275.558 126.251 285.134 103.278 282.735 90.591C279.513 73.5497 263.953 73.0535 252.414 75.7864C240.876 78.5192 147.078 144.292 147.078 144.292C147.078 144.292 152.685 173.65 176.806 169.465C180.287 168.858 181.716 168.34 184.664 167.918C185.449 167.806 184.767 167.125 185.582 166.807C186.989 166.266 212.125 165.755 217.806 165.674C224.057 165.592 308.397 168.066 310.189 167.666C311.981 167.266 313.596 151.506 312.655 150.032ZM243.564 134.524C232.099 133.887 226.115 134.198 226.115 134.198C226.115 134.198 238.995 123.052 241.809 119.837L244.631 116.623C244.631 116.623 243.653 126.37 243.564 134.524ZM276.321 147.484C273.707 150.099 256.865 152.72 253.288 152.809C249.711 152.891 245.786 150.454 245.697 149.839C245.608 149.232 245.09 145.351 245.09 145.351C248.252 147.21 267.574 143.226 267.574 143.226C267.574 143.226 267.604 143.159 267.671 143.041L273.966 142.596C273.966 142.596 278.943 144.87 276.321 147.484Z" fill="#F36B23"/>
<path d="M276.321 147.485C273.707 150.099 256.865 152.721 253.288 152.81C249.711 152.891 245.786 150.455 245.697 149.84C245.608 149.233 245.09 145.352 245.09 145.352C248.252 147.211 267.575 143.226 267.575 143.226C267.575 143.226 267.604 143.16 267.671 143.041L273.966 142.597C273.966 142.597 278.943 144.87 276.321 147.485Z" fill="#704328"/>
<path d="M147.056 144.301C144.871 145.649 142.131 143.745 142.597 141.22C145.478 125.823 158.439 60.9014 174.436 49.1703C195.551 33.6768 205.371 51.1847 206.437 67.5002C207.504 83.8157 207.971 119.802 207.971 119.802C207.971 119.802 179.45 138.095 176.695 136.125C173.94 134.155 173.192 139.383 170.452 139.161C167.711 138.939 166.919 138.82 166.919 138.82C166.919 138.82 164.638 142.131 160.757 141.561L156.876 140.99C156.876 140.99 152.773 144.716 149.922 144.508L147.071 144.301C147.071 144.301 147.071 144.301 147.056 144.316V144.301Z" fill="#0B8643"/>
<path d="M222.094 17.9454C221.79 17.9454 221.487 17.8195 221.264 17.5751L219.783 15.9236C219.376 15.4644 219.413 14.7608 219.872 14.3535C220.331 13.9462 221.035 13.9832 221.442 14.4424L222.923 16.0939C223.331 16.5531 223.294 17.2567 222.834 17.664C222.62 17.8565 222.36 17.9454 222.094 17.9454Z" fill="black"/>
<path d="M219.421 18.3008C219.087 18.3008 218.754 18.1453 218.532 17.8639L216.769 15.5383C216.399 15.0495 216.495 14.3534 216.984 13.9831C217.473 13.6128 218.169 13.7091 218.539 14.1979L220.302 16.5234C220.672 17.0122 220.576 17.7083 220.087 18.0786C219.887 18.2341 219.65 18.3008 219.421 18.3008Z" fill="black"/>
<path d="M216.888 17.9455C216.584 17.9455 216.281 17.8196 216.059 17.5752L214.296 15.6052C213.889 15.1461 213.926 14.4425 214.385 14.0351C214.844 13.6278 215.548 13.6648 215.955 14.124L217.717 16.094C218.125 16.5532 218.088 17.2568 217.629 17.6641C217.414 17.8492 217.155 17.9455 216.888 17.9455Z" fill="black"/>
<path d="M214.392 17.9452C214.141 17.9452 213.881 17.8563 213.674 17.6786L211.741 16.027C211.275 15.6271 211.223 14.9235 211.615 14.4569C212.015 13.9903 212.711 13.9385 213.185 14.331L215.118 15.9826C215.585 16.3825 215.637 17.0861 215.244 17.5527C215.022 17.8119 214.711 17.9452 214.4 17.9452H214.392Z" fill="black"/>
<path d="M212.17 18.5093C211.933 18.5093 211.689 18.4352 211.481 18.2723L209.511 16.7244C209.03 16.3467 208.948 15.6431 209.326 15.1617C209.704 14.6803 210.407 14.5989 210.889 14.9766L212.859 16.5245C213.34 16.9022 213.422 17.6057 213.044 18.0871C212.822 18.3686 212.496 18.5093 212.17 18.5093Z" fill="black"/>
<path d="M216.925 24.2689C218.083 24.2689 219.021 23.3306 219.021 22.1731C219.021 21.0155 218.083 20.0771 216.925 20.0771C215.767 20.0771 214.829 21.0155 214.829 22.1731C214.829 23.3306 215.767 24.2689 216.925 24.2689Z" fill="black"/>
<path d="M222.391 38.7125C220.48 38.7125 219.584 37.7423 219.029 37.1424C218.718 36.8092 218.629 36.7203 218.547 36.7277C218.347 36.7351 218.133 36.7722 217.925 36.8092C216.148 37.0906 214.17 37.0387 213.111 32.7951C212.963 32.2026 213.326 31.5953 213.918 31.4472C214.511 31.2991 215.118 31.662 215.266 32.2545C215.918 34.8762 216.511 34.7873 217.57 34.617C217.851 34.5725 218.14 34.5281 218.451 34.5133C219.584 34.4614 220.199 35.1428 220.651 35.639C221.162 36.1871 221.532 36.5796 222.724 36.4759C223.598 36.4018 223.628 35.3872 223.628 35.2687C223.628 34.654 224.124 34.1578 224.739 34.1578C225.353 34.1578 225.85 34.654 225.85 35.2687C225.85 36.3648 225.235 38.4829 222.924 38.6829C222.739 38.6977 222.554 38.7051 222.384 38.7051L222.391 38.7125Z" fill="black"/>
<path d="M218.147 39.756C218.147 39.756 217.133 38.1489 214.481 38.1193C211.83 38.0897 210.897 42.2815 213.126 43.9627C215.355 45.6438 218.91 46.2363 220.85 45.081C222.369 44.1701 223.68 39.645 218.147 39.7635V39.756Z" fill="#FEB1D3"/>
<path d="M218.124 44.125C217.754 44.125 217.369 44.1102 216.976 44.0732C213.969 43.7917 211.932 41.007 211.844 40.8885C211.488 40.3923 211.599 39.6962 212.095 39.3407C212.592 38.9852 213.288 39.0963 213.643 39.5925C213.673 39.6369 215.199 41.681 217.176 41.8661C219.05 42.0365 220.731 41.6218 220.746 41.6144C221.338 41.4588 221.945 41.8217 222.094 42.4142C222.249 43.0067 221.894 43.614 221.294 43.7621C221.227 43.7769 219.864 44.125 218.109 44.125H218.124Z" fill="black"/>
<path d="M190.663 35.8814C189.841 35.8814 188.975 35.6888 188.086 35.237C186.123 34.2446 185.605 31.6229 186.642 27.8606C187.842 23.4984 191.293 17.5884 194.714 17.818C199.654 18.1513 199.691 26.3498 199.676 27.2829C199.669 27.8902 199.173 28.379 198.565 28.379H198.551C197.936 28.379 197.447 27.868 197.455 27.2533C197.477 25.4314 196.995 20.1953 194.566 20.0324C194.551 20.0324 194.529 20.0324 194.514 20.0324C193.011 20.0324 189.997 24.0539 188.79 28.4531C188.108 30.9341 188.227 32.8152 189.101 33.2596C192.248 34.8519 194.766 31.1267 194.87 30.9712C195.211 30.4601 195.899 30.3194 196.41 30.6527C196.921 30.9934 197.062 31.6747 196.729 32.1857C195.751 33.6743 193.478 35.8814 190.678 35.8814H190.663Z" fill="black"/>
<path d="M195.04 29.6455C194.833 29.6455 194.625 29.5862 194.44 29.4677C193.5 28.8679 192.24 28.779 191.226 29.253C190.67 29.5122 190.011 29.2678 189.752 28.7123C189.493 28.1569 189.737 27.4977 190.293 27.2385C191.293 26.7719 192.403 26.6312 193.47 26.7868C193.455 26.0832 193.581 25.3796 193.862 24.7279C194.099 24.165 194.759 23.8984 195.321 24.1354C195.884 24.3724 196.151 25.0241 195.914 25.5944C195.595 26.3572 195.632 27.283 196.025 28.0088C196.262 28.4531 196.173 29.0086 195.803 29.3493C195.588 29.5418 195.321 29.6455 195.047 29.6455H195.04Z" fill="black"/>
<path d="M223.856 9.68738C223.856 9.68738 224.797 11.9981 220.612 11.8055C216.428 11.613 212.073 9.68738 212.073 9.68738C212.073 9.68738 206.985 19.7151 202.453 22.6998C197.92 25.6844 197.92 24.2625 197.92 24.2625C197.92 24.2625 197.128 18.6191 194.632 18.9227C192.136 19.2264 187.107 26.0695 187.226 29.2467C187.344 32.4239 188.581 34.2384 188.581 34.2384C188.581 34.2384 188.862 35.8011 188.611 36.0159C188.359 36.2306 182.597 44.518 182.597 44.518C182.597 44.518 176.998 47.4656 170.34 58.7598C163.682 70.054 152.58 97.4268 152.58 97.4268C152.58 97.4268 147.877 91.0798 150.966 82.5258C152.899 77.1787 154.884 76.9417 154.884 76.9417C154.884 76.9417 152.151 71.239 156.431 63.87C158.75 59.8781 160.475 60.1892 160.475 60.1892C160.475 60.1892 158.216 51.1538 161.779 45.5696C165.341 39.9855 170.214 38.1044 170.214 38.1044C170.214 38.1044 171.066 31.6685 174.976 28.6987C178.887 25.7289 185.189 25.3734 185.189 25.3734C185.189 25.3734 183.641 15.7381 188.751 9.68738C193.862 3.63664 200.349 -1.95492 211.421 0.777906C222.493 3.51074 223.849 9.68738 223.849 9.68738H223.856Z" fill="#050606"/>
<path d="M190.707 64.8916C190.707 64.8916 219.931 52.7531 227.811 49.5611C232.507 47.6577 238.083 47.2578 238.083 47.2578C238.083 47.2578 251.881 95.1823 250.503 97.4412C249.126 99.7 209.022 124.458 206.319 123.214C204.149 122.207 190.707 64.899 190.707 64.899V64.8916Z" fill="#5F94CB"/>
<path d="M218.732 79.3186C218.732 79.3186 213.785 75.9267 209.83 78.7706C205.875 81.6145 212.533 91.7015 222.124 91.3905C231.715 91.0794 232.781 71.4164 227.375 70.1574C221.968 68.8983 218.724 79.3112 218.724 79.3112L218.732 79.3186Z" fill="#88B9E5"/>
<path d="M174.125 120.947C173.911 120.947 173.688 120.88 173.496 120.747C172.992 120.399 172.866 119.703 173.214 119.199C173.711 118.481 185.427 101.588 188.663 98.8622C191.67 96.3293 192.055 96.3664 192.5 96.4182C192.803 96.4478 193.085 96.6034 193.27 96.8404C193.648 97.3217 193.566 98.0179 193.077 98.403C192.937 98.5141 192.781 98.5807 192.618 98.6178C192.418 98.7289 191.774 99.1436 190.085 100.566C187.589 102.669 178.369 115.644 175.036 120.466C174.821 120.777 174.473 120.947 174.125 120.947ZM191.522 98.2179C191.678 98.4104 191.87 98.5289 192.063 98.5882C191.855 98.5215 191.67 98.3956 191.522 98.2179Z" fill="black"/>
<path d="M209.081 104.411C209.274 104.774 210.103 106.603 209.044 109.358C207.859 112.439 193.351 146.958 180.139 142.893C166.926 138.819 166.63 94.2644 166.63 94.2644L194.188 82.3926L195.499 86.9177C195.499 86.9177 200.394 81.889 202.46 83.3035C204.408 84.6292 200.764 88.7766 200.32 89.2802C200.883 88.7988 206.23 84.2219 207.978 86.0438C209.503 87.6361 204.712 91.5539 203.023 92.8499C204.519 91.7686 208.57 89.0432 209.815 90.2874C211.14 91.6131 206.66 95.9827 205.408 97.1602C206.571 96.1456 210.585 92.8869 211.829 95.1013C213.281 97.7083 209.059 104.374 209.081 104.418V104.411Z" fill="#704328"/>
<path d="M204.823 108.573C204.32 108.573 203.787 108.484 203.202 108.284C202.113 107.914 201.335 107.151 200.95 106.084C200.602 105.099 200.624 103.974 200.809 102.915C200.128 103.255 199.373 103.485 198.632 103.44C197.714 103.389 196.914 102.944 196.299 102.159C195.529 101.174 195.514 99.9004 195.877 98.6932C195.581 98.7154 195.299 98.6932 195.025 98.6414C194.218 98.4784 193.544 97.9748 193.085 97.1824C192.803 96.6936 192.515 95.9085 192.774 94.9384C192.433 94.7976 192.115 94.5754 191.841 94.2718C190.73 93.0646 190.559 90.9243 191.47 89.5912C192.603 87.9248 195.581 85.3179 195.995 84.955C196.595 84.3181 200.38 80.5262 203.083 82.3777C203.668 82.7776 204.024 83.3627 204.112 84.0737C204.164 84.4736 204.112 84.8957 204.009 85.3327C205.875 84.3847 207.638 84.0885 208.771 85.2661C209.215 85.7252 209.415 86.3177 209.371 86.9843C209.326 87.5694 209.06 88.1988 208.645 88.8506C209.845 88.7469 210.341 89.2505 210.593 89.4949C210.97 89.8726 211.17 90.3762 211.163 90.9539C211.156 91.5834 210.874 92.3463 210.319 93.235C210.556 93.2202 210.778 93.235 211 93.272C211.778 93.4053 212.392 93.8497 212.792 94.5532C214.244 97.1602 211.97 101.604 209.808 104.877L208.845 104.322L209.771 104.937C208.497 106.869 207.016 108.58 204.823 108.58V108.573ZM202.987 98.671C203.261 98.671 203.535 98.7747 203.742 98.9672C204.127 99.3301 204.209 99.9152 203.927 100.367C203.594 100.982 202.476 103.892 203.061 105.381C203.216 105.781 203.483 106.033 203.912 106.173C205.009 106.544 205.994 106.595 207.912 103.692C207.912 103.692 207.949 103.64 207.949 103.633C210.896 99.1746 211.378 96.5677 210.852 95.6197C210.771 95.479 210.711 95.4568 210.622 95.442C209.845 95.3012 207.993 96.3455 206.127 97.9748C205.668 98.3747 204.979 98.3303 204.572 97.8859C204.164 97.4342 204.194 96.7454 204.631 96.3307C207.601 93.5386 208.786 91.6945 208.919 91.0354C208.904 91.0354 208.889 91.0354 208.875 91.0354C208.326 91.0354 206.593 91.613 203.653 93.7312C203.164 94.0867 202.476 93.983 202.113 93.4942C201.75 93.0054 201.846 92.3166 202.328 91.9463C206.142 89.0209 207.216 87.1842 207.142 86.7621C206.742 86.3621 204.32 87.2879 201.024 90.1022C200.58 90.4799 199.921 90.4577 199.506 90.0356C199.099 89.6208 199.076 88.9617 199.461 88.5247C201.239 86.5103 201.965 84.9402 201.891 84.3403C201.883 84.2588 201.861 84.2366 201.809 84.207C200.987 83.6441 198.773 85.2142 197.558 86.5103C197.528 86.5399 197.499 86.5695 197.469 86.5917C196.595 87.3471 194.144 89.5764 193.285 90.8354C192.937 91.3464 193.085 92.3536 193.463 92.761C193.566 92.8721 193.663 92.9831 194.018 92.7832L194.24 92.6573C194.329 92.6054 194.418 92.5536 194.514 92.5017C195.01 92.2277 195.625 92.3758 195.951 92.835C196.277 93.2942 196.21 93.9237 195.788 94.3014C194.596 95.3753 194.892 95.8863 194.988 96.0493C195.188 96.3899 195.373 96.427 195.455 96.4492C195.951 96.5529 196.855 96.1678 197.869 95.4124C198.336 95.0643 198.995 95.1383 199.373 95.5827C199.75 96.027 199.728 96.6862 199.313 97.0935C198.173 98.2266 197.514 100.123 198.032 100.782C198.314 101.145 198.558 101.204 198.743 101.211C199.18 101.248 200.187 101.004 202.009 99.1598C202.165 99.0043 202.276 98.908 202.313 98.8784C202.505 98.7377 202.735 98.6636 202.965 98.6636L202.987 98.671Z" fill="black"/>
<path d="M246.074 65.9208C245.748 65.0913 244.934 64.5654 244.045 64.4692C241.179 64.1581 232.691 63.5286 231.04 66.5725C229.048 70.2533 234.106 71.6308 234.106 71.6308C234.106 71.6308 231.958 73.623 232.877 75.6153C233.795 77.6075 237.779 76.9928 237.779 76.9928C237.779 76.9928 233.795 77.9112 234.565 80.3626C235.335 82.814 238.705 82.3918 238.705 82.3918C238.705 82.3918 236.402 85.2653 239.935 85.7245C243.467 86.1837 250.399 83.1398 250.621 81.2809C250.821 79.5997 248.985 79.0294 248.985 79.0294C248.985 79.0294 249.903 76.3707 248.266 75.556C246.63 74.7413 249.281 73.0676 247.755 70.7495C247.074 69.72 245.097 69.2164 245.097 69.2164C245.097 69.2164 246.748 67.6019 246.074 65.8985V65.9208Z" fill="#704328"/>
<path d="M234.1 72.7486C233.589 72.7486 233.13 72.3931 233.019 71.8747C232.885 71.2748 233.27 70.6823 233.87 70.549L244.861 68.1494C245.461 68.0161 246.053 68.4013 246.187 69.0012C246.32 69.601 245.935 70.1935 245.335 70.3268L234.344 72.7264C234.263 72.7412 234.181 72.7486 234.107 72.7486H234.1Z" fill="black"/>
<path d="M237.78 78.1189C237.284 78.1189 236.825 77.7782 236.699 77.2746C236.551 76.6821 236.914 76.0748 237.514 75.9341L247.46 73.4901C248.06 73.342 248.66 73.7049 248.801 74.3048C248.941 74.9047 248.586 75.5046 247.986 75.6453L238.04 78.0893C237.951 78.1115 237.862 78.1189 237.773 78.1189H237.78Z" fill="black"/>
<path d="M238.706 83.5254C238.239 83.5254 237.803 83.2292 237.647 82.7626C237.454 82.1775 237.773 81.5554 238.358 81.3628L248.63 78.0005C249.208 77.808 249.837 78.1264 250.03 78.7115C250.222 79.2965 249.904 79.9187 249.319 80.1112L239.047 83.4735C238.936 83.5106 238.817 83.5254 238.699 83.5254H238.706Z" fill="black"/>
<path d="M184.368 168.228C183.998 168.228 183.642 168.043 183.427 167.71C183.102 167.192 183.25 166.503 183.768 166.177C183.931 166.073 200.387 155.616 208.141 149.099C215.918 142.566 225.249 133.487 225.338 133.398C225.783 132.968 226.479 132.976 226.908 133.42C227.338 133.857 227.33 134.56 226.886 134.99C226.79 135.079 217.399 144.211 209.563 150.802C201.698 157.408 185.123 167.947 184.953 168.051C184.768 168.169 184.561 168.221 184.361 168.221L184.368 168.228Z" fill="black"/>
<path d="M244.631 117.735C244.416 117.735 244.194 117.675 244.009 117.542C243.505 117.194 243.372 116.505 243.72 116.002L250.17 106.552C250.519 106.041 251.207 105.915 251.711 106.263C252.215 106.611 252.348 107.3 252 107.803L245.549 117.253C245.334 117.572 244.986 117.735 244.631 117.735Z" fill="black"/>
<path d="M246.276 148.203C245.78 148.203 245.32 147.863 245.195 147.359L241.766 133.51C241.617 132.917 241.98 132.31 242.573 132.162C243.173 132.014 243.773 132.377 243.921 132.969L247.35 146.819C247.498 147.411 247.135 148.018 246.542 148.166C246.454 148.189 246.365 148.196 246.276 148.196V148.203Z" fill="black"/>
<path d="M267.575 144.337C267.464 144.337 267.353 144.322 267.242 144.285C266.657 144.1 266.331 143.478 266.516 142.893L268.789 135.664C268.975 135.079 269.589 134.753 270.182 134.939C270.767 135.124 271.093 135.746 270.908 136.331L268.634 143.559C268.486 144.033 268.049 144.337 267.575 144.337Z" fill="black"/>
<path d="M166.631 95.3675C166.594 95.3675 166.557 95.3675 166.512 95.3675C165.905 95.3008 165.461 94.7602 165.52 94.1455C165.55 93.827 166.335 86.2951 166.72 83.7252C166.809 83.1179 167.386 82.6957 167.986 82.792C168.593 82.8809 169.008 83.4512 168.919 84.0585C168.542 86.5765 167.734 94.301 167.727 94.3751C167.668 94.9453 167.186 95.3675 166.623 95.3675H166.631Z" fill="black"/>
<path d="M245.423 147.846C245.423 147.846 242.83 160.836 245.089 162.666C247.348 164.495 259.168 166.769 277.076 160.4C294.984 154.03 289.17 145.965 288.267 144.343C285.83 139.981 273.958 142.595 273.958 142.595C273.958 142.595 277.357 145.736 274.306 147.091C271.255 148.446 255.117 152.157 249.526 151.06C245.926 150.357 245.415 147.839 245.415 147.839L245.423 147.846Z" fill="#C8C6C3"/>
<path d="M316.128 128.222C314.714 130.688 314.314 132.91 313.892 137.279C313.469 141.649 313.358 146.396 313.358 146.396C313.358 146.396 314.321 139.612 316.773 139.731C320.335 139.908 319.528 153.136 319.209 156.046C318.891 158.957 317.335 165.948 316.41 166.585C315.484 167.222 325.186 170.421 327.956 168.288C330.726 166.155 331.362 158.749 331.044 152.81C330.726 146.87 330.614 129.503 326.46 126.407C322.305 123.311 317.624 125.607 316.121 128.222H316.128Z" fill="#C8C6C3"/>
<path d="M317.647 268.942L324.342 270.335L319.558 253.471L310.604 248.517L307.634 249.642L317.647 268.942Z" fill="#6A432D"/>
<path d="M187.981 200.962C187.981 200.962 171.251 245.421 167.126 272.697C163.001 299.974 166.83 328.85 167.407 329.079C167.985 329.309 190.551 330.872 191.418 330.524C192.284 330.176 194.484 326.821 196.276 321.784C198.068 316.748 212.851 274.401 215.413 263.284C217.976 252.168 225.974 217.707 225.974 217.707C225.974 217.707 233.329 259.129 236.232 267.454C239.135 275.778 247.578 304.21 252.088 309.55C256.598 314.889 266.374 317.445 275.55 313.238C284.727 309.031 294.806 303.232 304.204 291.583C313.603 279.933 318.942 269.32 318.868 268.942C318.794 268.565 310.144 248.265 308.641 247.731C307.137 247.198 293.451 254.649 288.037 258.485C282.623 262.321 274.876 269.387 274.876 269.387C274.876 269.387 275.928 249.272 272.321 226.972C268.715 204.673 266.908 200.311 266.908 200.311L187.981 200.955V200.962Z" fill="#050606"/>
<path d="M335.628 169.834C335.628 169.834 344.974 164.057 349.374 162.161C353.773 160.265 353.536 162.687 354.158 164.057C354.476 164.768 360.423 160.583 363.119 160.228C368.644 159.502 366.704 165.116 366.704 165.116C366.704 165.116 374.947 161.953 376.369 166.042C377.887 170.426 370.096 174.307 370.096 174.307C370.096 174.307 375.887 173.277 376.502 176.795C377.576 182.957 355.454 188.149 354.461 190.541C353.469 192.933 353.565 202.094 349.581 202.494C345.596 202.894 343.708 195.718 341.908 192.637C340.109 189.556 340.116 188.749 338.22 187.956C336.324 187.164 335.628 169.826 335.628 169.826V169.834Z" fill="#6A432D"/>
<path d="M335.628 169.833C340.161 172.477 341.19 186.275 338.22 187.963C332.621 191.133 319.431 193.569 311.151 194.925C302.871 196.28 273.492 198.843 273.492 198.843C273.492 198.843 265.863 202.783 257.243 204.619C248.622 206.456 230.825 209.759 211.192 206.641L191.558 203.523C191.558 203.523 159.127 203.457 148.84 202.531C138.553 201.605 114.484 197.724 111.381 195.199C108.277 192.673 108.663 178.698 111.381 175.98C112.936 174.425 139.916 165.501 176.213 164.723C212.51 163.945 246.674 169.574 271.322 166.856C295.969 164.138 324.104 163.123 335.636 169.841L335.628 169.833Z" fill="#E61D26"/>
<path d="M117.135 135.951L116.861 134.981L117.572 134.781L117.846 135.751L117.135 135.951Z" fill="black"/>
<path d="M111.373 175.967C111.373 175.967 100.508 170.249 97.235 169.449C91.1472 167.953 91.2435 172.56 91.2435 172.56C91.2435 172.56 80.5788 170.375 77.9793 174.034C76.7425 175.774 77.9793 177.144 77.9793 177.144C77.9793 177.144 72.8691 176.174 72.0026 179.44C71.0398 183.076 77.0683 184.506 77.0683 184.506C77.0683 184.506 72.2396 184.824 72.6617 188.372C73.0617 191.727 79.379 193.697 84.7854 193.86L90.1918 194.023C90.1918 194.023 84.9484 201.969 88.4736 204.754C91.9989 207.539 95.028 204.998 97.3165 202.539C99.6049 200.081 101.168 198.17 105.915 196.23C110.662 194.289 111.388 194.015 111.388 194.015V175.967H111.373Z" fill="#6A432D"/>
<path d="M255.451 161.228C257.117 173.551 258.65 175.033 256.599 177.24C254.547 179.447 251.37 178.217 251.37 178.217C251.37 178.217 251.444 190.348 250.74 194.274C250.037 198.199 233.196 201.139 226.234 199.717C219.272 198.295 216.895 195.666 215.828 194.014C214.762 192.363 211.126 180.632 211.674 175.655C212.222 170.678 208.548 161.354 209.97 159.087C211.392 156.821 223.227 141.239 235.21 142.661C242.135 143.483 253.333 145.534 255.451 161.235V161.228Z" fill="#6A432D"/>
<path d="M307.648 247.873C307.648 247.873 307.219 244.955 311.647 242.177C316.076 239.4 325.726 235.401 326.6 236.179C327.474 236.956 335.554 257.212 337.554 268.424C339.553 279.637 337.991 279.03 335.902 279.637C333.814 280.245 329.466 281.289 325.734 277.201C322.001 273.112 322.082 261.292 317.994 256.079C313.906 250.865 308.692 249.05 307.648 247.873Z" fill="#5F94CB"/>
<path d="M250.377 159.829C250.199 159.829 250.014 159.785 249.844 159.696L247.785 158.57C247.244 158.274 247.052 157.6 247.348 157.059C247.644 156.519 248.318 156.326 248.859 156.622L250.918 157.748C251.458 158.044 251.651 158.718 251.354 159.259C251.155 159.629 250.769 159.836 250.377 159.836V159.829Z" fill="black"/>
<path d="M247.415 160.585C247.193 160.585 246.97 160.519 246.778 160.378L244.512 158.778C244.008 158.423 243.889 157.734 244.245 157.23C244.6 156.727 245.297 156.608 245.793 156.964L248.059 158.563C248.563 158.919 248.681 159.608 248.326 160.111C248.111 160.415 247.77 160.578 247.415 160.578V160.585Z" fill="black"/>
<path d="M244.245 160.858C244.112 160.858 243.971 160.836 243.838 160.777L241.972 160.036C241.401 159.814 241.12 159.162 241.35 158.592C241.572 158.022 242.224 157.74 242.794 157.97L244.66 158.71C245.23 158.933 245.512 159.584 245.282 160.155C245.112 160.591 244.69 160.858 244.253 160.858H244.245Z" fill="black"/>
<path d="M241.223 161.858C241.038 161.858 240.846 161.813 240.675 161.709L238.868 160.68C238.335 160.376 238.15 159.695 238.454 159.169C238.757 158.636 239.439 158.451 239.964 158.754L241.772 159.784C242.305 160.087 242.49 160.769 242.186 161.295C241.979 161.658 241.609 161.858 241.223 161.858Z" fill="black"/>
<path d="M238.698 162.895C238.579 162.895 238.461 162.88 238.343 162.836L236.402 162.184C235.817 161.992 235.506 161.362 235.699 160.777C235.891 160.192 236.521 159.881 237.106 160.074L239.046 160.725C239.631 160.918 239.942 161.547 239.75 162.132C239.594 162.599 239.165 162.888 238.698 162.888V162.895Z" fill="black"/>
<path d="M242.297 167.591C242.964 168.027 243.86 168.027 244.578 167.694C245.297 167.361 245.852 166.731 246.215 166.02C246.474 165.502 246.644 164.924 246.615 164.347C246.585 163.769 246.333 163.184 245.882 162.821C245.482 162.503 244.956 162.377 244.445 162.384C243.645 162.399 242.86 162.747 242.312 163.332C241.349 164.347 240.964 166.702 242.312 167.591H242.297Z" fill="#050606"/>
<path d="M224.507 176.137C224.322 176.137 224.137 176.092 223.967 175.996C223.434 175.7 223.234 175.026 223.53 174.485C224.152 173.36 225.167 172.493 226.337 171.997C225.418 170.938 224.863 169.553 224.9 168.146C224.915 167.538 225.411 167.064 226.011 167.064C226.018 167.064 226.033 167.064 226.041 167.064C226.655 167.079 227.137 167.59 227.122 168.205C227.085 169.745 228.27 171.293 229.766 171.649C230.358 171.789 230.729 172.382 230.595 172.974C230.462 173.567 229.877 173.945 229.284 173.819C227.833 173.515 226.189 174.263 225.47 175.567C225.27 175.929 224.885 176.137 224.5 176.137H224.507Z" fill="black"/>
<path d="M253.621 179.416C252.57 179.416 251.481 179.105 250.585 178.528C249.133 179.105 247.193 179.601 245.275 178.861C243.593 178.209 242.438 176.565 242.201 174.462C242.134 173.854 242.571 173.299 243.179 173.232C243.786 173.158 244.341 173.603 244.408 174.21C244.475 174.817 244.778 176.291 246.074 176.795C247.171 177.217 248.467 177.054 250.281 176.247C250.674 176.076 251.125 176.143 251.451 176.417C252.192 177.054 253.369 177.343 254.251 177.12C255.724 176.735 256.11 176.091 256.28 175.647C256.643 174.662 256.487 173.477 256.28 172.255C255.791 169.322 255.147 166.382 254.377 163.516C254.214 162.923 254.569 162.316 255.162 162.153C255.754 161.99 256.361 162.345 256.524 162.938C257.317 165.871 257.976 168.885 258.472 171.884C258.717 173.358 258.909 174.921 258.361 176.409C257.843 177.824 256.643 178.787 254.814 179.268C254.428 179.364 254.029 179.416 253.614 179.416H253.621Z" fill="black"/>
<path d="M244.275 182.165C243.12 181.972 241.898 182.283 240.957 182.972C240.017 183.661 239.254 184.49 239.491 185.742C239.654 186.586 240.231 187.32 240.95 187.801C241.668 188.282 242.505 188.542 243.357 188.712C244.771 188.993 246.23 189.023 247.652 188.816C248.697 188.66 249.733 188.371 250.607 187.786C251.481 187.201 252.177 186.29 252.333 185.253C252.503 184.128 251.992 182.935 251.089 182.246C250.185 181.558 248.926 181.372 247.852 181.743C247.193 181.965 246.586 182.38 245.89 182.424C245.364 182.454 244.845 182.269 244.327 182.18C244.312 182.18 244.29 182.18 244.275 182.172V182.165Z" fill="#FEB1D3"/>
<path d="M245.437 187.563C243.89 187.563 242.305 187.097 239.683 186.2C239.105 186 238.794 185.371 238.994 184.786C239.194 184.208 239.824 183.897 240.409 184.097C245.475 185.83 245.771 185.823 251.088 183.697C251.659 183.475 252.303 183.749 252.532 184.319C252.762 184.89 252.481 185.534 251.91 185.763C248.866 186.978 247.171 187.563 245.437 187.563Z" fill="black"/>
<path d="M242.082 199.147C239.349 199.147 236.727 198.281 234.061 197.318L233.765 197.214C231.41 196.363 228.981 195.481 226.544 195.378C224.463 195.296 221.73 195.911 220.271 197.911C219.908 198.407 219.212 198.511 218.716 198.155C218.22 197.792 218.109 197.096 218.471 196.6C220.145 194.304 223.197 193.023 226.633 193.156C229.41 193.267 232.002 194.208 234.52 195.119L234.817 195.222C237.461 196.178 239.853 196.992 242.304 196.918C245.022 196.859 248.792 195.489 249.762 193.734C250.058 193.2 250.732 193 251.273 193.304C251.806 193.6 252.006 194.274 251.702 194.815C250.103 197.696 245.267 199.081 242.349 199.14C242.26 199.14 242.163 199.14 242.075 199.14L242.082 199.147Z" fill="black"/>
<path d="M189.225 187.823C188.677 187.823 188.151 187.52 187.899 187.001C187.537 186.268 187.84 185.379 188.573 185.016C195.824 181.432 200.356 173.878 204.378 166.442L204.607 166.012C208.74 158.369 213.013 150.474 220.501 145.846C225.47 142.78 231.632 141.521 237.409 142.394C243.186 143.268 248.696 146.29 252.539 150.697C253.08 151.311 253.013 152.252 252.399 152.785C251.784 153.326 250.851 153.259 250.31 152.644C246.926 148.764 242.06 146.097 236.972 145.327C231.884 144.557 226.448 145.668 222.064 148.371C215.25 152.578 211.169 160.125 207.222 167.427L206.992 167.856C202.741 175.714 197.927 183.713 189.899 187.682C189.692 187.786 189.462 187.838 189.247 187.838L189.225 187.823Z" fill="black"/>
<path d="M192.277 189.245C191.951 189.245 191.632 189.141 191.358 188.927C190.714 188.416 190.61 187.49 191.114 186.845C197.046 179.358 202.697 171.5 207.896 163.487L208.415 162.687C210.696 159.169 213.051 155.525 216.221 152.578C220.449 148.645 225.937 146.164 231.677 145.594C237.417 145.024 243.29 146.371 248.207 149.386C248.903 149.815 249.126 150.726 248.696 151.422C248.266 152.119 247.356 152.341 246.659 151.911C242.29 149.23 237.076 148.03 231.973 148.541C226.87 149.052 221.99 151.252 218.242 154.748C215.339 157.451 213.088 160.932 210.903 164.301L210.385 165.101C205.134 173.189 199.431 181.121 193.44 188.682C193.151 189.052 192.714 189.245 192.277 189.245Z" fill="black"/>
<path d="M194.75 187.12C194.439 187.12 194.135 187.024 193.868 186.824C193.209 186.335 193.076 185.409 193.565 184.75L209.058 163.961C212.006 160.006 215.346 155.518 219.938 152.623C228.099 147.461 238.016 148.416 244.896 150.119C245.688 150.319 246.177 151.119 245.977 151.912C245.777 152.704 244.977 153.185 244.185 152.993C235.253 150.778 227.203 151.534 221.522 155.126C217.397 157.733 214.368 161.799 211.435 165.731L195.942 186.52C195.653 186.913 195.201 187.112 194.75 187.112V187.12Z" fill="black"/>
<path d="M194.75 189.542C194.165 189.542 193.669 189.409 193.262 189.223C192.514 188.883 192.188 188.009 192.521 187.261C192.862 186.513 193.736 186.187 194.484 186.52C194.935 186.728 195.817 186.305 196.772 185.424C200.779 181.743 203.786 176.915 206.704 172.249C210.014 166.939 213.443 161.451 218.427 157.363C224.915 152.052 232.143 151.601 241.69 152.593C242.505 152.675 243.097 153.408 243.008 154.222C242.919 155.037 242.186 155.622 241.379 155.541C230.995 154.459 225.285 155.57 220.301 159.658C215.695 163.428 212.547 168.479 209.214 173.819C206.2 178.655 203.082 183.647 198.779 187.601C197.18 189.075 195.817 189.534 194.75 189.534V189.542Z" fill="black"/>
<path d="M196.165 192.511C194.987 192.511 193.891 191.955 193.321 191.022C192.891 190.326 193.113 189.415 193.81 188.986C194.506 188.556 195.417 188.778 195.846 189.467C195.891 189.504 196.083 189.578 196.313 189.534C196.75 189.46 197.224 189.134 197.683 188.793C201.741 185.771 204.726 181.328 207.348 176.98C207.792 176.247 208.229 175.507 208.666 174.766C210.94 170.922 213.295 166.945 216.398 163.539C220.516 159.021 225.722 156.266 231.069 155.77L231.625 155.718C233.669 155.525 235.98 155.303 237.653 155.592C238.461 155.733 239.001 156.495 238.86 157.303C238.72 158.11 237.957 158.65 237.15 158.51C235.861 158.288 233.758 158.488 231.899 158.665L231.336 158.717C226.729 159.147 222.204 161.561 218.583 165.531C215.687 168.708 213.413 172.552 211.214 176.269C210.769 177.018 210.332 177.758 209.888 178.499C207.111 183.105 203.926 187.83 199.453 191.163C198.705 191.718 197.875 192.259 196.831 192.444C196.609 192.481 196.387 192.504 196.165 192.504V192.511Z" fill="black"/>
<path d="M199.771 196.717C199.541 196.717 199.312 196.666 199.097 196.555C198.371 196.184 198.075 195.288 198.453 194.562C199.223 193.059 200.593 190.844 201.8 189.548C203.022 188.23 204.096 187.141 205.303 186.016C207.814 183.668 209.243 180.587 210.317 177.891C211.561 174.759 213.102 171.144 215.124 168.041C219.182 161.82 223.974 158.673 228.988 158.895H229.195C230.721 158.976 230.876 158.991 232.52 159.354C233.32 159.532 233.824 160.324 233.646 161.124C233.468 161.924 232.676 162.427 231.876 162.25C230.918 162.037 229.978 161.909 229.054 161.865H228.84C223.892 161.605 220.004 165.968 217.597 169.663C215.716 172.544 214.25 175.995 213.065 178.987C211.872 181.994 210.258 185.438 207.325 188.186C206.177 189.267 205.14 190.311 203.97 191.57C203 192.614 201.785 194.547 201.089 195.918C200.83 196.429 200.304 196.725 199.771 196.725V196.717Z" fill="black"/>
<path d="M203.104 199.985C202.385 199.985 201.756 199.459 201.645 198.733C201.43 197.348 201.971 195.874 203.133 194.704C203.859 193.971 204.689 193.467 205.489 192.978L205.911 192.719C210.206 190.053 213.169 186.217 214.028 182.188C214.324 180.795 214.465 179.374 214.605 177.87C214.694 176.974 214.783 176.056 214.909 175.137C215.42 171.434 217.353 168.235 220.501 165.895C223.619 163.584 227.055 162.347 230.454 162.317H230.469C231.284 162.317 231.943 162.969 231.95 163.784C231.95 164.598 231.299 165.272 230.484 165.28C226.996 165.309 224.093 166.924 222.278 168.272C220.538 169.568 218.353 171.871 217.857 175.537C217.738 176.396 217.657 177.292 217.568 178.152C217.42 179.67 217.272 181.247 216.938 182.81C215.909 187.624 212.465 192.156 207.488 195.245L207.044 195.519C206.37 195.926 205.726 196.319 205.252 196.793C204.77 197.274 204.518 197.844 204.585 198.281C204.711 199.088 204.155 199.844 203.348 199.97C203.274 199.985 203.193 199.985 203.119 199.985H203.104Z" fill="black"/>
<path d="M202.963 198.161C202.178 198.161 201.527 197.547 201.482 196.754C201.393 195.006 202.208 193.185 203.778 191.629C204.459 190.955 205.2 190.392 205.911 189.844C206.422 189.452 206.903 189.089 207.348 188.689C209.525 186.756 213.761 175.788 214.065 172.677C214.147 171.863 214.872 171.263 215.687 171.352C216.502 171.433 217.094 172.159 217.013 172.973C216.672 176.41 212.273 188.289 209.31 190.918C208.785 191.385 208.236 191.8 207.711 192.207C207.044 192.718 206.415 193.199 205.867 193.74C205.311 194.295 204.385 195.399 204.445 196.606C204.489 197.421 203.86 198.117 203.045 198.161C203.015 198.161 202.993 198.161 202.971 198.161H202.963Z" fill="black"/>
<path d="M208.474 200.214C207.956 200.214 207.452 199.94 207.178 199.458C206.778 198.747 207.03 197.844 207.748 197.444C210.259 196.037 214.651 192.963 215.873 188.231C216.391 186.231 216.317 184.083 216.243 181.81C216.147 178.796 216.043 175.678 217.376 172.76C217.717 172.019 218.591 171.686 219.339 172.026C220.079 172.367 220.413 173.241 220.072 173.989C219.028 176.277 219.117 178.921 219.205 181.721C219.28 184.106 219.361 186.572 218.739 188.979C217.628 193.274 214.243 197.2 209.193 200.036C208.963 200.162 208.711 200.229 208.467 200.229L208.474 200.214Z" fill="black"/>
<path d="M223.671 181.276C223.115 181.276 222.552 181.151 222.012 180.862C220.901 180.269 220.16 179.114 219.746 177.344C219.212 175.048 219.183 172.619 219.671 170.316C220.071 168.427 220.76 167.02 221.775 166.005C222.923 164.872 224.508 164.25 226.115 164.302C227.729 164.354 229.262 165.087 230.329 166.294C230.736 166.753 230.692 167.457 230.225 167.864C229.766 168.271 229.062 168.227 228.655 167.76C228.003 167.02 227.018 166.553 226.033 166.524C225.056 166.487 224.034 166.887 223.33 167.583C222.626 168.279 222.138 169.323 221.834 170.775C221.412 172.767 221.434 174.863 221.901 176.84C222.16 177.951 222.538 178.633 223.049 178.907C223.878 179.351 225.107 178.714 225.893 177.929C226.233 177.588 226.552 177.218 226.892 176.818C227.603 175.989 228.337 175.122 229.359 174.507C229.884 174.189 230.566 174.359 230.884 174.892C231.203 175.418 231.025 176.1 230.499 176.418C229.788 176.848 229.203 177.529 228.581 178.262C228.225 178.677 227.863 179.107 227.448 179.514C226.515 180.44 225.1 181.284 223.648 181.284L223.671 181.276Z" fill="black"/>
<path d="M99.7236 176.352C99.6199 176.352 99.5162 176.337 99.4125 176.307C97.25 175.685 95.7984 175.167 94.1172 174.574C93.4507 174.337 92.7397 174.085 91.9399 173.811C91.3622 173.611 91.0511 172.982 91.2511 172.397C91.451 171.819 92.0806 171.508 92.6656 171.708C93.4803 171.99 94.1913 172.241 94.8652 172.478C96.5094 173.063 97.9387 173.567 100.027 174.174C100.62 174.345 100.96 174.959 100.79 175.552C100.649 176.041 100.205 176.352 99.7236 176.352Z" fill="black"/>
<path d="M92.3027 179.788C92.2435 179.788 92.1842 179.788 92.125 179.773C90.7549 179.551 88.0961 179.358 85.5262 179.173C82.7934 178.973 80.2087 178.788 78.7497 178.551C78.1424 178.455 77.7276 177.884 77.8313 177.277C77.935 176.67 78.5053 176.263 79.1052 176.359C80.4753 176.581 83.1266 176.774 85.6965 176.959C88.4368 177.159 91.0215 177.344 92.4879 177.581C93.0952 177.677 93.5099 178.247 93.4062 178.855C93.3174 179.403 92.8434 179.788 92.3101 179.788H92.3027Z" fill="black"/>
<path d="M87.5775 185.386C86.2 185.386 84.8447 185.349 83.5264 185.312C81.2972 185.253 79.1939 185.194 76.9795 185.297C76.3722 185.312 75.8464 184.853 75.8167 184.238C75.7871 183.624 76.2611 183.105 76.8758 183.076C79.1717 182.965 81.4157 183.024 83.5857 183.09C85.1558 183.135 86.7703 183.179 88.407 183.157H88.4218C89.0291 183.157 89.5253 183.646 89.5327 184.253C89.5327 184.868 89.0514 185.372 88.4366 185.379C88.1478 185.379 87.8664 185.379 87.5775 185.379V185.386Z" fill="black"/>
<path d="M90.0062 194.919C89.7174 194.919 89.4359 194.808 89.2138 194.593C88.7842 194.156 88.7842 193.453 89.2138 193.023C90.769 191.483 92.6724 190.283 94.7313 189.55C95.3089 189.342 95.9459 189.646 96.1532 190.224C96.3606 190.801 96.057 191.438 95.4793 191.646C93.7241 192.268 92.1021 193.297 90.7764 194.608C90.5617 194.823 90.2802 194.926 89.9914 194.926L90.0062 194.919Z" fill="black"/>
<path d="M344.797 171.671C344.441 171.671 344.101 171.5 343.878 171.189C343.53 170.686 343.656 169.99 344.16 169.641C347.026 167.664 349.825 165.509 352.492 163.25C352.958 162.85 353.662 162.909 354.054 163.376C354.454 163.843 354.395 164.546 353.928 164.939C351.21 167.249 348.352 169.449 345.426 171.471C345.234 171.604 345.012 171.671 344.797 171.671Z" fill="black"/>
<path d="M353.943 174.425C353.588 174.425 353.239 174.255 353.025 173.937C352.684 173.426 352.817 172.737 353.321 172.396L365.459 164.183C365.963 163.842 366.659 163.968 367 164.479C367.341 164.99 367.207 165.679 366.704 166.02L354.565 174.233C354.373 174.359 354.158 174.425 353.943 174.425Z" fill="black"/>
<path d="M358.891 179.736C358.505 179.736 358.135 179.536 357.928 179.18C357.617 178.647 357.802 177.973 358.328 177.662C361.283 175.936 364.445 174.559 367.719 173.566C368.304 173.389 368.926 173.722 369.104 174.307C369.281 174.892 368.948 175.514 368.363 175.692C365.252 176.64 362.253 177.943 359.446 179.58C359.268 179.684 359.076 179.728 358.891 179.728V179.736Z" fill="black"/>
<path d="M354.113 191.178C353.928 191.178 353.743 191.134 353.573 191.037L349.848 188.941C349.314 188.638 349.122 187.964 349.425 187.431C349.729 186.897 350.403 186.705 350.936 187.008L354.661 189.104C355.195 189.408 355.387 190.082 355.084 190.615C354.876 190.978 354.506 191.185 354.113 191.185V191.178Z" fill="black"/>
<path d="M18.1689 86.9164C18.1689 86.9164 21.2202 83.5245 19.8649 73.193C18.5096 62.8616 17.1543 43.3689 21.3906 35.911C25.6268 28.4531 36.0545 27.5348 37.7876 27.4089C39.5206 27.283 46.5045 31.734 48.2967 36.5553C50.089 41.3766 56.199 41.3989 55.7768 45.3907C55.5028 47.9606 54.9103 48.7901 54.9103 48.7901C54.9103 48.7901 60.2279 55.5888 60.9092 59.0475C61.5906 62.5061 41.0092 69.6159 41.0092 70.9119C41.0092 72.208 45.8305 82.532 45.8305 82.532L39.5576 109.046L18.1838 86.9016L18.1689 86.9164Z" fill="#AA6D4C"/>
<path d="M39.5347 26.4249C39.5347 26.4249 39.9939 30.4389 38.8607 32.046C38.2016 32.9792 36.9352 34.1049 35.9946 34.8826C35.2762 35.475 34.9652 36.423 35.1873 37.3265L36.3279 41.9035C36.513 42.6441 36.3353 43.4291 35.8465 44.0216C34.506 45.6361 31.9065 48.8356 31.9065 49.2503C31.9065 49.8132 33.3136 55.0344 33.3136 55.0344C33.3136 55.0344 37.9646 53.1237 41.5639 54.0272L45.1633 54.9307C45.1633 54.9307 48.7034 50.7537 51.8065 49.7687L54.9096 48.7837C54.9096 48.7837 58.0498 50.1686 58.0424 51.6869C58.035 53.2051 62.5675 60.3816 61.664 62.4034C60.7604 64.4253 52.3471 70.1205 43.7191 70.9574C35.0911 71.7943 33.284 71.1648 32.3805 68.4542C31.4769 65.7435 30.64 61.1147 30.64 61.1147C30.64 61.1147 29.3218 61.6406 29.0403 62.196C28.7589 62.7515 21.5973 74.4382 19.3014 73.6754C17.0055 72.9126 17.4943 70.3353 16.5167 70.0613C15.5391 69.7872 13.8728 67.9061 13.3173 66.9285C12.7618 65.9509 11.5102 65.7806 10.0512 65.1733C8.59225 64.566 3.37098 55.9379 2.95625 52.3904C2.54151 48.843 2.74888 41.8887 2.95625 40.4297C3.16362 38.9707 9.21435 30.9722 12.2064 29.2317C15.1984 27.4913 19.5828 27.4469 20.9677 26.4249C22.3527 25.4028 23.8191 23.8031 28.4108 23.8031C33.0026 23.8031 34.5282 22.4849 36.476 23.5217C38.4238 24.5586 39.5421 26.4175 39.5421 26.4175L39.5347 26.4249Z" fill="#050606"/>
<path d="M28.4411 50.4942C28.5151 49.9462 28.2263 49.4203 27.7301 49.1685C26.397 48.4946 23.9456 47.5244 22.894 48.9019C21.4127 50.8349 23.0865 59.9369 26.3156 58.8408C29.5446 57.7447 29.3446 56.9671 29.3446 56.9671C29.3446 56.9671 28.1152 52.9308 28.4411 50.4942Z" fill="#AA6D4C"/>
<path d="M45.4083 36.1128C45.2676 36.1128 45.1343 36.0905 44.9936 36.0313L43.0458 35.2536C42.4755 35.0241 42.2015 34.3797 42.4237 33.8095C42.6533 33.2392 43.2976 32.9652 43.8679 33.1874L45.8157 33.965C46.3859 34.1946 46.66 34.8389 46.4378 35.4092C46.2674 35.8461 45.8453 36.1054 45.4083 36.1054V36.1128Z" fill="black"/>
<path d="M44.2754 37.3131C44.1643 37.3131 44.0532 37.2982 43.9496 37.2612L41.4389 36.4836C40.8538 36.2984 40.528 35.6837 40.7057 35.0912C40.8909 34.5062 41.5056 34.1803 42.0981 34.3581L44.6087 35.1357C45.1938 35.3208 45.5196 35.9355 45.3419 36.528C45.1938 37.002 44.7568 37.3131 44.2828 37.3131H44.2754Z" fill="black"/>
<path d="M18.1689 196.008C18.1689 196.008 20.2797 205.955 32.2404 217.242C44.2012 228.528 65.7083 246.54 65.7083 246.54C65.7083 246.54 45.8972 271.809 39.5354 282.022C33.1736 292.235 27.8042 311.861 27.8042 311.861L48.2375 330.139C48.2375 330.139 84.5271 290.087 91.5184 281.748C98.5097 273.409 100.391 265.618 100.391 265.618C100.391 265.618 99.317 295.057 105.768 315.083L112.218 335.109L140.865 334.983C140.865 334.983 145.279 254.464 140.443 231.343C135.607 208.221 116.617 183.855 116.617 183.855L85.6084 152.854L18.1689 196.001V196.008Z" fill="#3866B0"/>
<path d="M43.0234 38.1271C43.0234 38.1271 42.9493 38.1271 42.9123 38.1271L39.9943 37.8457C39.387 37.7864 38.9352 37.2458 38.9945 36.6311C39.0537 36.0164 39.6092 35.572 40.2091 35.6313L43.1271 35.9127C43.7418 35.972 44.1861 36.5126 44.1269 37.1273C44.0676 37.705 43.5862 38.1345 43.0234 38.1345V38.1271Z" fill="black"/>
<path d="M41.5642 39.7852C41.4827 39.7852 41.4012 39.7778 41.3198 39.7556L38.624 39.1557C38.0241 39.0224 37.6464 38.4299 37.7797 37.83C37.913 37.2302 38.5055 36.8524 39.1054 36.9857L41.8012 37.5856C42.4011 37.7189 42.7788 38.3114 42.6455 38.9113C42.527 39.4297 42.0678 39.7778 41.5642 39.7778V39.7852Z" fill="black"/>
<path d="M40.2168 40.7407C40.1798 40.7407 40.1353 40.7407 40.0983 40.7407L38.7504 40.5999C38.1431 40.5333 37.6988 39.9852 37.7654 39.3779C37.8321 38.7706 38.3801 38.3411 38.9874 38.3929L40.3353 38.5336C40.9426 38.6003 41.387 39.1483 41.3203 39.7556C41.2611 40.3259 40.7797 40.748 40.2168 40.748V40.7407Z" fill="black"/>
<path d="M45.4089 42.474C46.3455 42.474 47.1048 41.7147 47.1048 40.778C47.1048 39.8414 46.3455 39.082 45.4089 39.082C44.4722 39.082 43.7129 39.8414 43.7129 40.778C43.7129 41.7147 44.4722 42.474 45.4089 42.474Z" fill="#050606"/>
<path d="M48.3267 50.3621C48.1045 50.3621 47.8749 50.2954 47.6823 50.1547C47.1861 49.7992 47.0676 49.103 47.4231 48.6068C47.6305 48.3254 48.7118 46.8812 50.0819 46.622C50.4744 46.548 50.9632 46.5924 51.6372 46.6516C52.5777 46.7405 54.333 46.9034 54.918 46.3998C55.0069 46.3257 55.1032 46.2073 55.1254 45.9036C55.2217 44.4002 51.9704 41.7636 49.7338 40.4528C49.208 40.1417 49.0302 39.4604 49.3413 38.9345C49.6523 38.4087 50.3337 38.2309 50.8595 38.542C51.9778 39.2011 57.5694 42.6598 57.3398 46.0592C57.2806 46.896 56.9473 47.5996 56.3622 48.0958C55.0662 49.2067 52.9703 49.0067 51.4372 48.866C51.0965 48.8364 50.6373 48.792 50.4892 48.8068C50.1782 48.866 49.5709 49.4363 49.2376 49.9029C49.0228 50.2065 48.6822 50.3621 48.3341 50.3621H48.3267Z" fill="black"/>
<path d="M55.6803 52.1394C55.4877 51.7839 55.0508 51.6506 54.6879 51.8284C53.2363 52.5394 50.1702 54.4057 48.8371 55.6129C47.3781 56.9311 47.0967 57.4496 47.0967 57.4496C47.0967 57.4496 52.3624 57.9606 55.6655 57.6792C58.302 57.4496 56.5098 53.6577 55.6803 52.1468V52.1394Z" fill="#AA6D4C"/>
<path d="M24.4864 56.7223C24.2642 56.7223 24.042 56.6556 23.8495 56.5223C23.3459 56.1668 23.2274 55.4781 23.5828 54.9744C23.8791 54.5523 24.2568 54.1894 24.6789 53.8931C24.1235 53.2933 23.7162 52.5527 23.531 51.775C23.3903 51.1751 23.7606 50.5827 24.3605 50.4419C24.9604 50.3012 25.5529 50.6715 25.6936 51.2714C25.8935 52.1157 26.6638 52.9156 27.4932 53.1303C28.0339 53.2711 28.3894 53.7969 28.3153 54.3524C28.2412 54.9078 27.7747 55.3226 27.2118 55.3226H27.197C26.5008 55.3226 25.7973 55.6854 25.3973 56.2557C25.1826 56.5593 24.8345 56.7223 24.4864 56.7223Z" fill="black"/>
<path d="M105.946 116.646C105.946 116.646 107.39 104.493 110.864 104.056C114.337 103.619 112.456 113.75 112.456 113.75C112.456 113.75 120.417 103.908 123.743 104.782C127.068 105.655 122.15 112.158 120.558 113.609C118.966 115.061 129.467 101.804 132.645 105.374C134.97 107.988 122.439 118.098 122.439 118.098C122.439 118.098 131.645 108.877 133.867 111.077C137.059 114.232 125.476 121.571 125.476 121.571C125.476 121.571 131.267 117.083 133 118.823C134.733 120.564 126.201 128.229 123.017 130.399C119.832 132.569 116.507 136.042 114.766 134.45C113.026 132.858 105.938 116.653 105.938 116.653L105.946 116.646Z" fill="#AA6D4C"/>
<path d="M159.446 126.925L160.579 118.216C160.772 116.764 162.498 116.039 163.623 116.979C164.905 118.046 166.045 119.616 165.393 121.623L164.105 125.6C164.105 125.6 171.94 113.75 175.095 114.468C178.25 115.187 171.237 124.541 171.237 124.541C171.237 124.541 179.657 112.395 182.227 114.431C184.797 116.468 175.095 126.918 175.095 126.918C175.095 126.918 181.642 117.135 184.331 119.43C187.019 121.726 177.784 130.266 177.784 130.266C177.784 130.266 182.738 123.133 184.827 126.17C186.915 129.206 176.613 141.278 175.214 141.612C173.814 141.945 172.681 142.404 172.681 142.404L159.446 128.74V126.911V126.925Z" fill="#AA6D4C"/>
<path d="M46.497 58.8707C46.023 58.8707 45.5861 58.5671 45.4379 58.0857C45.2528 57.5006 45.5861 56.8785 46.1711 56.6933L57.4728 53.1977C58.0578 53.0126 58.68 53.3458 58.8651 53.9309C59.0503 54.516 58.717 55.1381 58.1319 55.3232L46.8303 58.8189C46.7192 58.8559 46.6081 58.8707 46.5044 58.8707H46.497Z" fill="black"/>
<path d="M34.3806 86.6131L38.8613 105.987L39.5426 86.065C39.5426 86.065 45.4304 82.3842 49.7778 79.9699C52.2217 78.6145 54.8509 77.6518 57.5985 77.1407C63.0346 76.1261 72.8106 75.1633 80.4017 79.1996C91.533 85.1097 101.813 120.555 106.804 133.619C111.796 146.683 116.069 152.149 116.069 152.149L159.439 126.932L172.674 142.425C172.674 142.425 139.591 179.418 125.186 183.269C118.039 185.18 116.61 183.877 116.61 183.877L88.9335 157.156C88.9335 157.156 35.3582 198.526 24.4787 200.814C13.5992 203.103 -8.69295 207.102 -16.1212 183.669C-23.5495 160.237 -26.9933 112.949 -7.54501 96.789C8.65201 83.3322 34.3806 86.6205 34.3806 86.6205V86.6131Z" fill="#FFCD2A"/>
<path d="M98.9992 275.054C98.8511 275.054 98.703 275.024 98.5623 274.965C97.9994 274.72 97.7328 274.069 97.9772 273.506C98.0809 273.269 108.057 249.584 104.954 232.824C101.858 216.094 60.5989 179.234 60.1768 178.864C59.7176 178.457 59.6806 177.753 60.0879 177.294C60.4952 176.835 61.1988 176.798 61.658 177.205C63.3836 178.738 103.902 214.954 107.138 232.425C110.368 249.851 100.443 273.395 100.021 274.387C99.8435 274.809 99.4288 275.061 98.9992 275.061V275.054Z" fill="black"/>
<path d="M118.535 158.26C118.128 158.26 117.735 158.03 117.535 157.637L115.069 152.638C114.795 152.09 115.025 151.424 115.573 151.15C116.121 150.883 116.787 151.105 117.061 151.653L119.527 156.652C119.801 157.2 119.572 157.867 119.024 158.141C118.868 158.215 118.698 158.252 118.535 158.252V158.26Z" fill="black"/>
<path d="M13.9993 167.813C13.466 167.813 12.9995 167.428 12.9032 166.887L12.2959 163.288C11.6812 159.629 12.2589 126.376 12.2811 124.962C12.2885 124.354 12.7847 123.873 13.392 123.873H13.4142C14.0289 123.88 14.5177 124.391 14.5029 125.006C14.3326 134.582 14.0067 160.052 14.4881 162.925L15.0954 166.524C15.1991 167.132 14.7917 167.702 14.1844 167.806C14.1252 167.813 14.0585 167.82 13.9993 167.82V167.813Z" fill="black"/>
<path d="M99.0572 116.876L105.945 114.469C105.945 114.469 112.455 126.622 113.61 129.659C114.765 132.695 114.765 134.435 114.765 134.435L106.656 141.619L99.0498 116.868L99.0572 116.876Z" fill="#FFCD2A"/>
<path d="M52.2736 111.173C51.7478 111.173 51.2738 110.795 51.1775 110.254C51.0738 109.647 51.4737 109.077 52.081 108.966L75.1434 104.892C75.7507 104.789 76.321 105.189 76.4321 105.796C76.5358 106.403 76.1359 106.973 75.5286 107.084L52.4661 111.158C52.3995 111.173 52.3328 111.173 52.2736 111.173Z" fill="black"/>
<path d="M88.9407 158.259C88.6297 158.259 88.326 158.133 88.1038 157.882C87.6965 157.422 87.7483 156.719 88.2075 156.311L108.448 138.581C108.907 138.174 109.611 138.226 110.018 138.685C110.426 139.144 110.374 139.848 109.915 140.255L89.6739 157.985C89.4666 158.17 89.1999 158.259 88.9407 158.259Z" fill="black"/>
<path d="M8.65887 172.547C8.37003 172.547 8.07379 172.436 7.85902 172.206C7.42947 171.762 7.44427 171.058 7.88864 170.636C8.0886 170.443 28.3219 151.114 60.4123 134.887C92.3694 118.727 101.642 114.409 101.731 114.372C102.286 114.113 102.945 114.357 103.204 114.913C103.464 115.468 103.219 116.127 102.664 116.387C102.575 116.431 93.3248 120.741 61.4121 136.872C29.6328 152.935 9.62906 172.05 9.4291 172.236C9.21432 172.443 8.93289 172.547 8.65887 172.547Z" fill="black"/>
<path d="M38.8619 107.098C38.3509 107.098 37.8991 106.743 37.7806 106.239L33.3 86.8647C33.1592 86.2648 33.537 85.6723 34.1294 85.5316C34.7293 85.3909 35.3218 85.7686 35.4625 86.3611L38.0398 97.4997L38.4324 86.0278C38.4546 85.4131 38.9952 84.9095 39.5803 84.9539C40.195 84.9761 40.6764 85.4872 40.6542 86.1019L39.9728 106.024C39.9506 106.58 39.5284 107.039 38.973 107.091C38.936 107.091 38.8989 107.091 38.8619 107.091V107.098Z" fill="black"/>
<path d="M111.411 116.215C111.174 116.215 110.937 116.141 110.737 115.986C110.248 115.608 110.159 114.912 110.53 114.43L111.574 113.075C111.952 112.586 112.648 112.497 113.129 112.868C113.618 113.245 113.707 113.942 113.337 114.423L112.292 115.778C112.07 116.06 111.744 116.215 111.411 116.215Z" fill="black"/>
<path d="M119.143 115.837C118.876 115.837 118.602 115.741 118.388 115.541C117.936 115.126 117.906 114.423 118.321 113.971L122.609 109.312C123.024 108.861 123.727 108.831 124.179 109.246C124.631 109.66 124.661 110.364 124.246 110.816L119.958 115.474C119.735 115.711 119.439 115.83 119.143 115.83V115.837Z" fill="black"/>
<path d="M122.439 119.201C122.128 119.201 121.824 119.075 121.602 118.823C121.195 118.364 121.239 117.66 121.698 117.253L126.92 112.654C127.379 112.247 128.082 112.291 128.49 112.75C128.897 113.209 128.853 113.913 128.394 114.32L123.172 118.919C122.957 119.105 122.698 119.193 122.439 119.193V119.201Z" fill="black"/>
<path d="M125.482 122.674C125.134 122.674 124.786 122.511 124.571 122.2C124.223 121.696 124.342 121.007 124.845 120.652L127.586 118.741C128.089 118.393 128.778 118.512 129.133 119.015C129.481 119.519 129.363 120.208 128.859 120.563L126.119 122.474C125.927 122.607 125.704 122.674 125.482 122.674Z" fill="black"/>
<path d="M163.379 128.347C163.231 128.347 163.075 128.318 162.927 128.251C162.364 127.999 162.112 127.347 162.364 126.785L163.09 125.148C163.342 124.585 163.994 124.333 164.556 124.585C165.119 124.837 165.371 125.489 165.119 126.051L164.394 127.688C164.208 128.103 163.801 128.347 163.379 128.347Z" fill="black"/>
<path d="M170.244 126.71C170.015 126.71 169.778 126.636 169.578 126.488C169.089 126.117 168.993 125.421 169.363 124.932L172.407 120.896C172.777 120.407 173.473 120.311 173.962 120.681C174.451 121.052 174.547 121.748 174.177 122.237L171.133 126.273C170.918 126.562 170.585 126.717 170.244 126.717V126.71Z" fill="black"/>
<path d="M175.103 128.036C174.851 128.036 174.592 127.947 174.385 127.769C173.918 127.369 173.866 126.666 174.259 126.199L177.451 122.467C177.851 122 178.554 121.948 179.021 122.341C179.487 122.741 179.539 123.444 179.147 123.911L175.955 127.643C175.733 127.903 175.421 128.036 175.11 128.036H175.103Z" fill="black"/>
<path d="M177.791 131.392C177.517 131.392 177.235 131.288 177.02 131.081C176.576 130.659 176.561 129.955 176.991 129.511L180.694 125.652C181.116 125.208 181.82 125.193 182.264 125.623C182.708 126.045 182.723 126.748 182.294 127.193L178.591 131.051C178.376 131.281 178.08 131.392 177.791 131.392Z" fill="black"/>
</svg>
