<svg width="48" height="48" viewBox="0 0 48 48" fill="none" xmlns="http://www.w3.org/2000/svg">
<circle cx="24" cy="24" r="24" fill="#0A8643"/>
<path d="M26.3027 24C25.947 24 25.5948 24.0714 25.2671 24.2098C24.9394 24.3483 24.6427 24.551 24.3947 24.806L24.0017 25.211L23.6047 24.806C23.3566 24.551 23.06 24.3484 22.7323 24.21C22.4046 24.0716 22.0524 24.0003 21.6967 24.0003C21.341 24.0003 20.9888 24.0716 20.6611 24.21C20.3334 24.3484 20.0368 24.551 19.7887 24.806C19.2828 25.3283 19 26.0269 19 26.754C19 27.4811 19.2828 28.1797 19.7887 28.702L24.0017 33L28.2107 28.702C28.7166 28.1797 28.9994 27.4811 28.9994 26.754C28.9994 26.0269 28.7166 25.3283 28.2107 24.806C27.9627 24.551 27.666 24.3483 27.3383 24.2098C27.0106 24.0714 26.6585 24 26.3027 24Z" fill="#F9F9F9"/>
<path d="M33.3464 17.6536L33.3557 17.6628L33.3654 17.6715C33.4093 17.7111 33.4441 17.7597 33.4674 17.814C33.4906 17.8683 33.5018 17.927 33.5002 17.9861L33.5 17.9861V18L33.5 35.9985C33.5 35.9987 33.5 35.9989 33.5 35.9991C33.4987 36.3967 33.3401 36.7777 33.0589 37.0589C32.7777 37.3401 32.3967 37.4987 31.9991 37.5C31.9989 37.5 31.9987 37.5 31.9985 37.5H16.0015C16.0013 37.5 16.0011 37.5 16.0009 37.5C15.6033 37.4987 15.2223 37.3401 14.9411 37.0589C14.6599 36.7778 14.5014 36.3968 14.5 35.9992V12.0008C14.5014 11.6032 14.6599 11.2223 14.9411 10.9411C15.2223 10.6599 15.6032 10.5014 16.0008 10.5H26V10.5002L26.0139 10.4998C26.073 10.4982 26.1317 10.5094 26.186 10.5326C26.2403 10.5559 26.2889 10.5907 26.3285 10.6346L26.3372 10.6443L26.3464 10.6536L33.3464 17.6536ZM26.3536 12.0464L25.5 11.1929V12.4V18V18.5H26H31.6H32.8071L31.9536 17.6464L26.3536 12.0464ZM32 36.5H32.5V36V20V19.5H32H26.0009C25.6033 19.4987 25.2223 19.3401 24.9411 19.0589C24.6599 18.7777 24.5013 18.3967 24.5 17.9991V12V11.5H24H16H15.5V12V36V36.5H16H32Z" fill="#F9F9F9" stroke="#F9F9F9"/>
</svg>
