<svg width="48" height="48" viewBox="0 0 48 48" fill="none" xmlns="http://www.w3.org/2000/svg">
<circle cx="24" cy="24" r="24" fill="#00B964"/>
<path d="M29.6255 24.5435C29.4884 24.5435 29.3564 24.5239 29.2295 24.4847C29.1018 24.4455 28.989 24.377 28.8911 24.2791C27.2069 22.7515 25.7334 21.278 24.4706 19.8586C23.2071 18.4384 22.5753 17.1114 22.5753 15.8776C22.5753 14.7809 22.9474 13.8605 23.6916 13.1163C24.4357 12.3721 25.3562 12 26.4529 12C27.0796 12 27.6671 12.132 28.2154 12.396C28.7638 12.6608 29.2338 13.0184 29.6255 13.4688C30.0171 13.0184 30.4872 12.6608 31.0355 12.396C31.5838 12.132 32.1714 12 32.798 12C33.8947 12 34.8152 12.3721 35.5594 13.1163C36.3036 13.8605 36.6756 14.7809 36.6756 15.8776C36.6756 17.1114 36.0443 18.4384 34.7815 19.8586C33.5179 21.278 32.0441 22.7515 30.3599 24.2791C30.2619 24.377 30.1491 24.4455 30.0214 24.4847C29.8945 24.5239 29.7625 24.5435 29.6255 24.5435ZM29.6255 21.7528C30.7809 20.6561 31.8533 19.5641 32.8427 18.4768C33.8313 17.3903 34.3256 16.5239 34.3256 15.8776C34.3256 15.4272 34.1838 15.0598 33.9002 14.7754C33.6159 14.4918 33.2485 14.3501 32.798 14.3501C32.5239 14.3501 32.2646 14.4037 32.0202 14.511C31.775 14.6191 31.5643 14.7809 31.388 14.9963L29.6255 17.1114L27.8629 14.9963C27.6867 14.7809 27.4763 14.6191 27.2319 14.511C26.9867 14.4037 26.7271 14.3501 26.4529 14.3501C26.0024 14.3501 25.6354 14.4918 25.3519 14.7754C25.0675 15.0598 24.9253 15.4272 24.9253 15.8776C24.9253 16.5239 25.4196 17.3903 26.4082 18.4768C27.3976 19.5641 28.47 20.6561 29.6255 21.7528ZM27.2166 33.6206L34.2081 31.4468C34.1102 31.2705 33.9684 31.1189 33.7827 30.992C33.5963 30.8643 33.3856 30.8005 33.1506 30.8005H27.2166C26.6879 30.8005 26.2668 30.7809 25.9535 30.7417C25.6401 30.7026 25.317 30.6242 24.9841 30.5067L23.3097 29.9486C22.9963 29.8507 22.7711 29.6548 22.634 29.3611C22.4969 29.0673 22.4774 28.7638 22.5753 28.4504C22.6732 28.1371 22.8643 27.9068 23.1487 27.7595C23.4323 27.613 23.7307 27.5887 24.0441 27.6867L25.2778 28.0979C25.6108 28.1958 25.988 28.2742 26.4094 28.3329C26.8301 28.3917 27.4027 28.4308 28.1273 28.4504H28.4504C28.4504 28.235 28.387 28.0294 28.2601 27.8335C28.1324 27.6377 27.9804 27.5104 27.8042 27.4517L20.9302 24.9253H19.0502V31.388L27.2166 33.6206ZM26.5998 35.9119L19.0502 33.7968C18.8935 34.306 18.5853 34.7173 18.1254 35.0306C17.6648 35.3439 17.1897 35.5006 16.7001 35.5006H14.3501C13.7038 35.5006 13.1507 35.2707 12.6909 34.8109C12.2303 34.3503 12 33.7968 12 33.1506V24.9253C12 24.2791 12.2303 23.7256 12.6909 23.265C13.1507 22.8052 13.7038 22.5753 14.3501 22.5753H20.9302C21.0673 22.5753 21.2044 22.5898 21.3415 22.6188C21.4786 22.6485 21.6059 22.683 21.7234 22.7222L28.6267 25.2778C29.273 25.5129 29.797 25.9241 30.1989 26.5116C30.6 27.0991 30.8005 27.7454 30.8005 28.4504H33.1506C34.1297 28.4504 34.9621 28.7736 35.6475 29.4198C36.3329 30.0661 36.6756 30.918 36.6756 31.9755C36.6756 32.4064 36.5628 32.7444 36.3372 32.9896C36.1124 33.234 35.765 33.4345 35.295 33.5912L27.951 35.8825C27.7356 35.9608 27.5104 36 27.2754 36C27.0404 36 26.8152 35.9706 26.5998 35.9119ZM14.3501 33.1506H16.7001V24.9253H14.3501V33.1506Z" fill="#F9F9F9"/>
</svg>
