<svg width="16" height="16" viewBox="0 0 16 16" fill="none" xmlns="http://www.w3.org/2000/svg">
<g clip-path="url(#clip0_6903_1419)">
<path d="M11.667 1.27769C10.9163 1.28936 10.1819 1.49892 9.53814 1.8852C8.89434 2.27148 8.36387 2.8208 8.0003 3.47769C7.63672 2.8208 7.10625 2.27148 6.46246 1.8852C5.81866 1.49892 5.08433 1.28936 4.33363 1.27769C3.13692 1.32968 2.00944 1.85319 1.19749 2.73384C0.385537 3.61449 -0.0448693 4.7807 0.000297715 5.97769C0.000297715 9.00902 3.19096 12.3197 5.86696 14.5644C6.46444 15.0664 7.21987 15.3417 8.0003 15.3417C8.78073 15.3417 9.53615 15.0664 10.1336 14.5644C12.8096 12.3197 16.0003 9.00902 16.0003 5.97769C16.0455 4.7807 15.6151 3.61449 14.8031 2.73384C13.9912 1.85319 12.8637 1.32968 11.667 1.27769ZM9.27696 13.5444C8.91962 13.8453 8.46747 14.0103 8.0003 14.0103C7.53313 14.0103 7.08098 13.8453 6.72363 13.5444C3.2983 10.6704 1.33363 7.91302 1.33363 5.97769C1.28806 5.13416 1.57788 4.30684 2.13987 3.67615C2.70187 3.04547 3.49045 2.66259 4.33363 2.61102C5.17681 2.66259 5.96539 3.04547 6.52739 3.67615C7.08939 4.30684 7.3792 5.13416 7.33363 5.97769C7.33363 6.1545 7.40387 6.32407 7.52889 6.44909C7.65392 6.57412 7.82349 6.64435 8.0003 6.64435C8.17711 6.64435 8.34668 6.57412 8.4717 6.44909C8.59673 6.32407 8.66696 6.1545 8.66696 5.97769C8.62139 5.13416 8.91121 4.30684 9.47321 3.67615C10.0352 3.04547 10.8238 2.66259 11.667 2.61102C12.5101 2.66259 13.2987 3.04547 13.8607 3.67615C14.4227 4.30684 14.7125 5.13416 14.667 5.97769C14.667 7.91302 12.7023 10.6704 9.27696 13.5417V13.5444Z" fill="#393E46"/>
</g>
<defs>
<clipPath id="clip0_6903_1419">
<rect width="16" height="16" fill="white"/>
</clipPath>
</defs>
</svg>
