<svg width="32" height="32" viewBox="0 0 32 32" fill="none" xmlns="http://www.w3.org/2000/svg">
<rect opacity="0.18" width="32" height="32" rx="16" fill="#4D4D4D"/>
<path d="M19.0727 12.5121C18.9446 12.5121 18.8194 12.5496 18.7129 12.6199C18.6064 12.6903 18.5234 12.7902 18.4744 12.9072C18.4253 13.0241 18.4125 13.1528 18.4375 13.2769C18.4625 13.4011 18.5242 13.5151 18.6147 13.6046C18.7053 13.6941 18.8207 13.7551 18.9463 13.7798C19.072 13.8045 19.2022 13.7918 19.3205 13.7434C19.4388 13.6949 19.54 13.6129 19.6112 13.5076C19.6823 13.4024 19.7203 13.2787 19.7203 13.1521C19.7203 12.9823 19.6521 12.8196 19.5306 12.6995C19.4092 12.5795 19.2444 12.5121 19.0727 12.5121V12.5121ZM21.5552 13.8027C21.5447 13.3602 21.4609 12.9224 21.307 12.5067C21.1697 12.1511 20.9562 11.829 20.6809 11.5627C20.4137 11.2894 20.087 11.0796 19.7257 10.9494C19.3062 10.7927 18.8627 10.7079 18.4143 10.6987C17.8422 10.6667 17.6587 10.6667 16.1908 10.6667C14.7228 10.6667 14.5393 10.6667 13.9673 10.6987C13.5189 10.7079 13.0754 10.7927 12.6559 10.9494C12.2952 11.081 11.9688 11.2905 11.7006 11.5627C11.424 11.8268 11.2118 12.1496 11.08 12.5067C10.9214 12.9213 10.8356 13.3596 10.8263 13.8027C10.7939 14.3681 10.7939 14.5494 10.7939 16.0001C10.7939 17.4507 10.7939 17.6321 10.8263 18.1974C10.8356 18.6405 10.9214 19.0788 11.08 19.4934C11.2118 19.8505 11.424 20.1733 11.7006 20.4374C11.9688 20.7096 12.2952 20.9192 12.6559 21.0507C13.0754 21.2075 13.5189 21.2922 13.9673 21.3014C14.5393 21.3334 14.7228 21.3334 16.1908 21.3334C17.6587 21.3334 17.8422 21.3334 18.4143 21.3014C18.8627 21.2922 19.3062 21.2075 19.7257 21.0507C20.087 20.9205 20.4137 20.7108 20.6809 20.4374C20.9574 20.1721 21.1711 19.8498 21.307 19.4934C21.4609 19.0777 21.5447 18.6399 21.5552 18.1974C21.5552 17.6321 21.5876 17.4507 21.5876 16.0001C21.5876 14.5494 21.5876 14.3681 21.5552 13.8027V13.8027ZM20.5838 18.1334C20.5799 18.472 20.5178 18.8074 20.4003 19.1254C20.3141 19.3575 20.1757 19.5672 19.9955 19.7387C19.8205 19.915 19.6087 20.0515 19.3749 20.1387C19.0531 20.2549 18.7137 20.3162 18.3711 20.3201C17.8314 20.3467 17.6317 20.3521 16.2124 20.3521C14.793 20.3521 14.5933 20.3521 14.0536 20.3201C13.6979 20.3267 13.3437 20.2725 13.0066 20.1601C12.7831 20.0684 12.581 19.9322 12.413 19.7601C12.2339 19.5887 12.0972 19.3788 12.0136 19.1467C11.8819 18.8242 11.8088 18.4811 11.7978 18.1334C11.7978 17.6001 11.7654 17.4027 11.7654 16.0001C11.7654 14.5974 11.7654 14.4001 11.7978 13.8667C11.8002 13.5206 11.8641 13.1777 11.9866 12.8534C12.0817 12.6283 12.2275 12.4276 12.413 12.2667C12.577 12.0834 12.7796 11.9377 13.0066 11.8401C13.3356 11.7228 13.6823 11.6615 14.032 11.6587C14.5717 11.6587 14.7714 11.6267 16.1908 11.6267C17.6101 11.6267 17.8098 11.6267 18.3495 11.6587C18.6921 11.6626 19.0315 11.7239 19.3533 11.8401C19.5986 11.93 19.8187 12.0763 19.9955 12.2667C20.1724 12.4306 20.3106 12.6309 20.4003 12.8534C20.5202 13.1782 20.5823 13.521 20.5838 13.8667C20.6108 14.4001 20.6162 14.5974 20.6162 16.0001C20.6162 17.4027 20.6108 17.6001 20.5838 18.1334ZM16.1908 13.2641C15.6434 13.2651 15.1087 13.4265 14.6541 13.7278C14.1995 14.029 13.8455 14.4567 13.6368 14.9567C13.4281 15.4568 13.374 16.0067 13.4815 16.5371C13.5889 17.0675 13.853 17.5545 14.2404 17.9366C14.6278 18.3187 15.1211 18.5788 15.658 18.6839C16.1949 18.789 16.7513 18.7345 17.2569 18.5273C17.7625 18.3201 18.1945 17.9694 18.4985 17.5196C18.8025 17.0697 18.9647 16.541 18.9647 16.0001C18.9655 15.6401 18.8942 15.2836 18.7549 14.951C18.6157 14.6184 18.4113 14.3162 18.1535 14.062C17.8957 13.8077 17.5896 13.6063 17.2528 13.4694C16.9159 13.3324 16.555 13.2627 16.1908 13.2641V13.2641ZM16.1908 17.7761C15.8353 17.7761 15.4879 17.6719 15.1923 17.4768C14.8968 17.2816 14.6664 17.0042 14.5304 16.6797C14.3944 16.3552 14.3588 15.9981 14.4282 15.6536C14.4975 15.3091 14.6687 14.9926 14.92 14.7443C15.1713 14.4959 15.4916 14.3267 15.8402 14.2582C16.1888 14.1897 16.5501 14.2248 16.8785 14.3593C17.2069 14.4937 17.4876 14.7213 17.685 15.0134C17.8825 15.3055 17.9879 15.6488 17.9879 16.0001C17.9879 16.2333 17.9414 16.4643 17.8511 16.6797C17.7608 16.8952 17.6284 17.091 17.4615 17.2559C17.2947 17.4208 17.0965 17.5516 16.8785 17.6409C16.6605 17.7301 16.4268 17.7761 16.1908 17.7761V17.7761Z" fill="#062B29"/>
</svg>
