<svg width="500" height="500" viewBox="0 0 500 500" fill="none" xmlns="http://www.w3.org/2000/svg">
<path d="M77.14 168.27C74.724 161.782 74.2862 154.724 75.8821 147.987C77.4779 141.251 81.0358 135.139 86.1055 130.425C91.1753 125.71 97.5293 122.605 104.364 121.502C111.198 120.4 118.207 121.348 124.502 124.229C130.797 127.109 136.097 131.792 139.731 137.685C143.364 143.577 145.169 150.415 144.916 157.334C144.663 164.252 142.364 170.94 138.31 176.552C134.256 182.163 128.629 186.447 122.14 188.86C113.442 192.095 103.816 191.743 95.377 187.882C86.9384 184.021 80.3787 176.967 77.14 168.27Z" fill="#EBEBEB"/>
<path d="M128.14 158.36C124.14 169.55 112.38 177.29 112.38 177.29C112.38 177.29 99.1698 172.47 92.6898 162.5C87.2898 154.19 88.9498 144.33 95.5998 141.44C105.13 137.29 109.68 154.21 109.68 154.21C109.68 154.21 110.21 136.7 120.45 138.53C127.59 139.81 131.47 149 128.14 158.36Z" fill="white"/>
<path d="M405.86 302.33C399.263 305.671 391.778 306.837 384.477 305.661C377.177 304.484 370.437 301.026 365.224 295.781C360.011 290.537 356.592 283.777 355.459 276.47C354.326 269.162 355.537 261.684 358.917 255.107C362.297 248.531 367.673 243.193 374.274 239.861C380.876 236.529 388.363 235.373 395.661 236.56C402.96 237.746 409.695 241.214 414.901 246.465C420.108 251.716 423.517 258.481 424.64 265.79C425.807 273.087 424.614 280.565 421.237 287.137C417.859 293.709 412.472 299.032 405.86 302.33Z" fill="#EBEBEB"/>
<path d="M401 268.06C400.82 270.157 400.023 272.153 398.708 273.797C397.394 275.44 395.621 276.657 393.615 277.293C391.609 277.929 389.46 277.956 387.438 277.371C385.417 276.785 383.615 275.613 382.259 274.004C380.904 272.394 380.056 270.418 379.824 268.326C379.591 266.235 379.984 264.121 380.953 262.253C381.922 260.385 383.423 258.846 385.267 257.831C387.11 256.816 389.213 256.37 391.31 256.55C394.121 256.792 396.721 258.14 398.538 260.298C400.356 262.457 401.241 265.249 401 268.06Z" fill="white"/>
<path d="M406.23 298L405.86 302.37C400.066 305.304 393.567 306.563 387.096 306.005C380.624 305.446 374.437 303.093 369.23 299.21L369.6 294.86C370.017 290.003 372.346 285.51 376.075 282.369C379.804 279.229 384.628 277.699 389.485 278.115C394.343 278.531 398.836 280.86 401.976 284.59C405.117 288.319 406.647 293.143 406.23 298Z" fill="white"/>
<path d="M170.81 273.16L97.82 304.25L71.52 242.51L98.14 203.8L144.51 211.42L170.81 273.16Z" fill="#0A8643"/>
<path opacity="0.2" d="M170.81 273.16L97.82 304.25L71.52 242.51L98.14 203.8L144.51 211.42L170.81 273.16Z" fill="black"/>
<path d="M166.44 274.31L101.68 301.89L67.1299 220.78L115.21 200.29L138.63 209.03L166.44 274.31Z" fill="#EBEBEB"/>
<path d="M115.21 200.29L138.63 209.03L121.95 216.13L115.21 200.29Z" fill="#DBDBDB"/>
<path d="M80.3075 234.149L116.308 218.816L115.399 216.682L79.3984 232.015L80.3075 234.149Z" fill="#DBDBDB"/>
<path d="M82.599 239.542L118.6 224.208L117.691 222.074L81.6899 237.407L82.599 239.542Z" fill="#DBDBDB"/>
<path d="M84.9041 244.929L120.905 229.596L119.996 227.462L83.995 242.795L84.9041 244.929Z" fill="#DBDBDB"/>
<path d="M87.1788 250.317L139.933 227.848L139.024 225.713L86.2697 248.182L87.1788 250.317Z" fill="#DBDBDB"/>
<path d="M89.4747 255.708L142.229 233.239L141.32 231.105L88.5656 253.574L89.4747 255.708Z" fill="#DBDBDB"/>
<path d="M91.7754 261.097L144.53 238.628L143.621 236.493L90.8663 258.962L91.7754 261.097Z" fill="#DBDBDB"/>
<path d="M94.0674 266.479L146.822 244.01L145.913 241.875L93.1583 264.344L94.0674 266.479Z" fill="#DBDBDB"/>
<path d="M96.3687 271.867L149.123 249.398L148.214 247.264L95.4596 269.733L96.3687 271.867Z" fill="#DBDBDB"/>
<path d="M98.6544 277.259L151.409 254.79L150.5 252.655L97.7453 275.124L98.6544 277.259Z" fill="#DBDBDB"/>
<path d="M100.955 282.647L153.709 260.178L152.8 258.044L100.046 280.513L100.955 282.647Z" fill="#DBDBDB"/>
<path d="M103.247 288.03L156.001 265.561L155.092 263.426L102.338 285.895L103.247 288.03Z" fill="#DBDBDB"/>
<path d="M105.548 293.408L158.303 270.939L157.394 268.804L104.639 291.273L105.548 293.408Z" fill="#DBDBDB"/>
<path d="M151.09 226.88L170.81 273.16L97.8099 304.25L78.1099 258C81.9999 258.44 85.8699 259 89.7499 259.49C93.6299 259.98 97.5099 260.56 101.38 261.14C105.693 261.76 110.027 262.427 114.38 263.14L114.46 263.02C114.46 263.02 114.46 263.1 114.4 263.14L124.1 264.66C125.97 261.98 127.83 259.28 129.71 256.61C129.71 256.61 129.64 256.61 129.59 256.61H129.73C132.23 253.03 134.747 249.463 137.28 245.91C139.553 242.73 141.84 239.56 144.14 236.4C146.43 233.16 148.71 230 151.09 226.88Z" fill="#0A8643"/>
<g opacity="0.2">
<path d="M151.09 226.88C149.03 230.2 146.87 233.47 144.77 236.77C142.67 240.07 140.47 243.31 138.3 246.57C136.13 249.83 133.74 253.36 131.45 256.73L131.25 257.05L125.12 266L124.81 266.43L124.3 266.35C120.73 265.76 117.18 265.16 113.62 264.55L113.24 264.49C109.24 263.81 105.24 263.12 101.16 262.39C97.3199 261.71 93.4699 260.99 89.6199 260.27C85.7699 259.55 81.9399 258.79 78.1099 257.98C81.9999 258.42 85.8699 258.98 89.7499 259.47C93.6299 259.96 97.5099 260.54 101.38 261.12C105.693 261.74 110.027 262.407 114.38 263.12L124.08 264.64C125.95 261.96 127.81 259.26 129.69 256.59C132.19 253.01 134.707 249.443 137.24 245.89C139.513 242.71 141.8 239.54 144.1 236.38C146.43 233.16 148.71 230 151.09 226.88Z" fill="black"/>
<path d="M114.41 263C114.41 263 114.41 263.08 114.35 263.12C114.11 263.61 113.87 264.12 113.62 264.58C112.45 266.91 111.2 269.19 109.91 271.43C108.34 274.2 106.68 276.91 105.01 279.62C103.34 282.33 101.61 284.97 99.8097 287.62C98.0097 290.27 96.1897 292.85 94.2197 295.36C95.5997 292.48 97.1397 289.69 98.7097 286.93C100.28 284.17 101.94 281.45 103.6 278.75C105.26 276.05 107.01 273.39 108.81 270.75C110.23 268.65 111.7 266.56 113.24 264.53C113.6 264.06 113.96 263.59 114.33 263.13L114.41 263Z" fill="black"/>
<path d="M166.85 264.36C163.67 264.04 160.52 263.56 157.39 263.03C154.26 262.5 151.14 261.88 148.02 261.26C144.9 260.64 141.81 259.9 138.73 259.12C136.22 258.49 133.73 257.82 131.25 257.05L129.66 256.55C129.66 256.55 129.59 256.55 129.54 256.55H129.68C130.28 256.62 130.86 256.68 131.45 256.76C133.98 257.05 136.45 257.44 139 257.86C142.14 258.39 145.25 259.01 148.36 259.65C151.47 260.29 154.57 261.01 157.65 261.79C160.73 262.57 163.81 263.36 166.85 264.36Z" fill="black"/>
</g>
<path d="M329.66 198.78L340.63 194.46L328.11 162.67L314.22 168.14L329.66 198.78Z" fill="#0A8643"/>
<path d="M314.22 168.14L320.11 179.83L329.66 198.78L340.64 194.46L328.11 162.67L314.22 168.14Z" fill="#0A8643"/>
<path opacity="0.1" d="M314.22 168.14L320.11 179.83L332.89 174.79L328.11 162.67L314.22 168.14Z" fill="black"/>
<path d="M314.775 173.38L332.052 166.571L326.878 153.444L309.601 160.253L314.775 173.38Z" fill="#0A8643"/>
<path d="M296.14 159.98L310.1 156.03L301.73 134.79L288.83 141.42L296.14 159.98Z" fill="#0A8643"/>
<path d="M306.98 127.86L319.33 159.21L342.92 153.03L402.88 151.67L373.21 76.3799L328.44 116.29L306.98 127.86Z" fill="#0A8643"/>
<path d="M404.178 151.339C410.894 148.692 409.663 129.611 401.429 108.719C393.195 87.8268 381.076 73.0361 374.361 75.6828C367.645 78.3295 368.876 97.4114 377.11 118.303C385.343 139.195 397.462 153.986 404.178 151.339Z" fill="#0A8643"/>
<path opacity="0.2" d="M402.874 146.203C408.372 144.037 406.903 127.243 399.592 108.694C392.282 90.1453 381.899 76.865 376.401 79.0318C370.903 81.1986 372.372 97.9919 379.683 116.541C386.993 135.09 397.376 148.37 402.874 146.203Z" fill="black"/>
<path d="M381.31 115.93C382.31 118.4 383.31 120.78 384.38 123.03C385.835 123.494 387.392 123.536 388.87 123.15C390.347 122.764 391.685 121.966 392.727 120.849C393.768 119.731 394.471 118.341 394.753 116.84C395.035 115.339 394.885 113.789 394.32 112.37L392.92 108.82C392.366 107.404 391.423 106.174 390.2 105.271C388.977 104.368 387.523 103.83 386.007 103.718C384.491 103.606 382.974 103.925 381.631 104.639C380.289 105.352 379.176 106.431 378.42 107.75C379.24 110.41 380.21 113.15 381.31 115.93Z" fill="#0A8643"/>
<path d="M307.86 165.74L334.84 158.1L318.66 117.02L293.72 129.84L307.86 165.74Z" fill="#0A8643"/>
<path opacity="0.2" d="M307.86 165.74L334.84 158.1L318.66 117.02L293.72 129.84L307.86 165.74Z" fill="black"/>
<path opacity="0.2" d="M371.72 82.9299C370.847 85.8451 370.509 88.8942 370.72 91.9299C370.84 94.9771 371.201 98.0099 371.8 101C372.06 102.51 372.46 104 372.8 105.47C373.14 106.94 373.61 108.41 374.07 109.86C374.53 111.31 374.99 112.77 375.52 114.2C376.05 115.63 376.52 117.07 377.12 118.49C379.339 124.176 382.07 129.649 385.28 134.84C386.911 137.424 388.765 139.86 390.82 142.12C392.837 144.427 395.322 146.279 398.11 147.55C395.413 146.142 393.031 144.199 391.11 141.84C389.138 139.543 387.369 137.081 385.82 134.48C382.717 129.277 380.067 123.817 377.9 118.16C375.596 112.558 373.759 106.775 372.41 100.87C371.728 97.9098 371.28 94.9005 371.07 91.8699C370.768 88.8748 370.988 85.8498 371.72 82.9299Z" fill="black"/>
<path d="M399.32 76.3398C398.18 77.6998 397.1 79.1098 396.04 80.5198C394.98 81.9298 393.95 83.3798 392.93 84.8298C391.91 86.2798 390.93 87.7498 389.93 89.2398L388.5 91.4898C388.05 92.2498 387.58 92.9998 387.15 93.7798C387.73 93.0998 388.26 92.3998 388.82 91.7098L390.43 89.5898C391.51 88.1798 392.53 86.7398 393.54 85.2898C394.55 83.8398 395.54 82.3699 396.54 80.8699C397.54 79.3699 398.45 77.8898 399.32 76.3398Z" fill="#263238"/>
<path d="M400 129.09C402 129.2 404 129.22 406 129.23C408 129.24 410 129.23 412 129.15C414 129.07 416 129.01 418 128.88L421 128.68C422 128.59 423 128.52 424 128.4C423 128.34 422 128.33 421 128.29H418C416 128.29 414 128.29 412 128.37C410 128.45 408 128.51 406 128.64C404 128.77 402 128.87 400 129.09Z" fill="#263238"/>
<path d="M434.64 114.93C431.72 115.29 428.82 115.74 425.92 116.19C423.02 116.64 420.12 117.19 417.23 117.67C414.34 118.15 411.46 118.73 408.58 119.32L404.27 120.21C402.84 120.54 401.4 120.84 399.97 121.21C401.43 121.04 402.88 120.82 404.34 120.62L408.69 119.95C411.59 119.5 414.49 118.95 417.38 118.48C420.27 118.01 423.15 117.41 426.03 116.82C428.91 116.23 431.78 115.62 434.64 114.93Z" fill="#263238"/>
<path d="M415.5 73.6399C413.37 75.7199 411.29 77.8599 409.23 80.0099C407.17 82.1599 405.14 84.3299 403.12 86.5199C401.1 88.7099 399.12 90.9099 397.12 93.1499L394.18 96.5199C393.18 97.6599 392.24 98.7799 391.3 99.9399C392.38 98.9399 393.41 97.8299 394.47 96.7799L397.57 93.5699C399.64 91.4299 401.67 89.2499 403.69 87.0599C405.71 84.8699 407.69 82.6599 409.69 80.4199C411.69 78.1799 413.61 75.9399 415.5 73.6399Z" fill="#263238"/>
<path d="M396.561 110.33C399.811 109.19 403.021 107.97 406.231 106.74C409.441 105.51 412.621 104.21 415.821 102.94C419.021 101.67 422.181 100.33 425.341 98.9398L430.081 96.9398C431.651 96.2398 433.221 95.5498 434.781 94.8198C433.161 95.3798 431.551 95.9898 429.931 96.5798L425.111 98.4198C421.901 99.6498 418.721 100.95 415.521 102.21C412.321 103.47 409.161 104.82 406.001 106.21C402.841 107.6 399.681 108.89 396.561 110.33Z" fill="#263238"/>
<path d="M318.11 157.82C318.114 158.057 318.034 158.287 317.884 158.47C317.733 158.654 317.523 158.777 317.29 158.82C316.16 158.88 314.8 158.92 313.29 158.97C309.96 149.53 306.29 141.97 307.23 144.92C308.64 149.515 309.355 154.294 309.35 159.1L301.42 159.28C298.77 142.73 295.11 130.42 295.25 134.19C295.83 149.41 294.8 154.27 293.6 159.45C274.48 159.81 249.41 160.01 231.29 159.77C229.45 150.61 227.89 140.72 227.56 141.4C224.94 146.47 224.07 153.91 223.85 159.65C218.08 159.53 213.47 159.33 210.67 159.07C210.67 159.07 209.53 151.38 209.41 148.86C209.088 142.385 209.966 135.906 212 129.75C214.1 123.43 217.57 117.89 220.87 112.2C220.895 112.154 220.926 112.11 220.96 112.07C223.134 108.374 224.863 104.433 226.11 100.33C226.117 100.3 226.117 100.27 226.11 100.24C226.962 97.2747 227.548 94.2394 227.86 91.17C229.01 79.95 235.61 70.41 246.25 67.73C266.72 49.49 286.48 57.94 292.11 72.51C292.65 73.93 293.17 75.51 293.67 77.32V77.38C295.54 83.93 297.13 92.38 298.67 98.96C298.67 98.96 298.67 98.96 298.67 99.03C299.233 101.602 299.955 104.137 300.83 106.62C305.55 118.5 316.88 125.47 318.11 157.82Z" fill="#263238"/>
<path d="M241.56 70.66C234.56 74.08 230.14 79.25 228.84 87.42C228.08 92.18 227.63 96.84 225.67 101.3C223.71 105.76 220.54 109.64 217.35 113.37C212.29 119.3 208.7 125.25 207.72 133.27C206.74 141.29 206.85 151.08 209.39 158.78H209.46C207.46 150.99 207.68 140.28 209.28 132.22C211.04 123.36 216.23 117.9 221.57 111.28C225.843 106.122 228.636 99.9007 229.65 93.28C230.28 89.28 230.34 85.03 232.07 81.28C234.15 76.78 238.07 73.98 242.07 71.51C242.126 71.4765 242.175 71.4324 242.213 71.3801C242.252 71.3278 242.28 71.2683 242.296 71.2052C242.312 71.1421 242.315 71.0764 242.305 71.012C242.296 70.9477 242.274 70.8858 242.24 70.83C242.207 70.7742 242.163 70.7255 242.11 70.6868C242.058 70.648 241.999 70.6199 241.935 70.6042C241.872 70.5884 241.807 70.5852 241.742 70.5948C241.678 70.6043 241.616 70.6265 241.56 70.66Z" fill="#263238"/>
<path d="M312.11 119.52C307.4 113.02 302.45 107.45 299.81 99.52C297.4 92.25 296.12 84.6 293.66 77.33C293.66 77.3061 293.65 77.2832 293.634 77.2663C293.617 77.2495 293.594 77.24 293.57 77.24C293.546 77.24 293.523 77.2495 293.506 77.2663C293.489 77.2832 293.48 77.3061 293.48 77.33C297.22 90.22 297.66 103.13 305.61 114.09C309.93 120.09 314.26 125.58 317.02 132.66C319.818 140.075 321.176 147.956 321.02 155.88C321.02 155.933 321.041 155.984 321.079 156.021C321.116 156.059 321.167 156.08 321.22 156.08C321.273 156.08 321.324 156.059 321.361 156.021C321.399 155.984 321.42 155.933 321.42 155.88C322.985 143.021 319.662 130.044 312.11 119.52Z" fill="#263238"/>
<path d="M248.66 65.6401C248.34 68.3401 235.11 74.0201 226.33 66.5401C217.55 59.0601 222.26 45.6101 234.75 47.7501C242.65 49.1001 249.35 59.9401 248.66 65.6401Z" fill="#263238"/>
<path d="M222.45 54.0501C224.042 50.8221 226.683 48.2305 229.94 46.7001C231.446 45.9513 233.122 45.6126 234.801 45.7179C236.479 45.8232 238.1 46.3689 239.5 47.3001C242.383 49.3178 244.662 52.0837 246.09 55.3001C246.867 56.9073 247.5 58.5806 247.98 60.3001C248.537 62.0293 248.767 63.8467 248.66 65.6601C249.162 63.8501 249.261 61.9523 248.95 60.1001C248.695 58.2312 248.222 56.3986 247.54 54.6401C246.215 50.9907 243.786 47.8449 240.59 45.6401C238.894 44.539 236.931 43.9202 234.91 43.8501C232.916 43.8322 230.953 44.3429 229.22 45.3301C227.56 46.2488 226.103 47.4956 224.939 48.9946C223.776 50.4936 222.929 52.2136 222.45 54.0501Z" fill="#263238"/>
<path d="M286.19 158.11C331.36 189.58 392.62 254.64 386.76 272.73C380.23 292.87 316.85 255.32 317.99 252.32C318.99 249.77 290.44 204.42 269.67 171.24C248.9 138.06 275 150.33 286.19 158.11Z" fill="#A9726C"/>
<path d="M341.32 195.64L289.81 216.13C289.81 216.13 268.81 180.95 261.81 160.45C257.93 148.96 264.76 147.07 274.75 151.57C309.75 167.3 341.32 195.64 341.32 195.64Z" fill="#0A8643"/>
<path d="M292.81 160.84C287.259 160.04 281.625 159.99 276.06 160.69C271.56 161.17 267.06 161.88 262.61 162.59C262.49 162.28 262.38 161.97 262.27 161.66C266.81 160.95 271.37 160.25 275.97 159.76C280.857 159.17 285.794 159.13 290.69 159.64L292.81 160.84ZM305.72 168.77C302.07 169.77 298.41 170.77 294.72 171.58C288.99 172.79 283.13 173.87 277.32 173.33C274.415 173.019 271.559 172.348 268.82 171.33C267.72 170.92 266.63 170.45 265.57 169.94L265.93 170.76C266.8 171.18 267.69 171.57 268.6 171.92C271.377 173.004 274.28 173.73 277.24 174.08C280.208 174.337 283.195 174.274 286.15 173.89C289.09 173.535 292.008 173.018 294.89 172.34C298.79 171.44 302.65 170.34 306.48 169.25L305.72 168.77ZM329.59 185.92C325.22 189.63 320.82 193.3 316.21 196.69C311.6 200.08 306.54 203.47 301.01 205.34C298.227 206.226 295.345 206.767 292.43 206.95C289.716 207.095 286.994 206.985 284.3 206.62L284.64 207.2C287.233 207.562 289.854 207.689 292.47 207.58C295.447 207.451 298.395 206.937 301.24 206.05C304.06 205.093 306.766 203.829 309.31 202.28C311.859 200.754 314.32 199.085 316.68 197.28C321.31 193.8 325.73 190.05 330.1 186.28L329.59 185.92ZM328 184.68C325.14 184.68 322.27 184.88 319.41 185.14C316.461 185.44 313.535 185.931 310.65 186.61C304.885 188.071 299.368 190.38 294.28 193.46C289.89 195.99 285.64 198.73 281.41 201.46C281.58 201.75 281.73 202.02 281.88 202.3C286.14 199.55 290.37 196.77 294.75 194.3C299.762 191.264 305.184 188.964 310.85 187.47C313.694 186.769 316.58 186.251 319.49 185.92C322.41 185.62 325.34 185.41 328.28 185.36H328.82L328 184.68Z" fill="#37474F"/>
<path d="M334.42 198.39L289.8 216.12C289.8 216.12 268.8 180.95 261.85 160.46C259.37 153.1 261.28 149.68 265.59 149.35L334.42 198.39Z" fill="#0A8643"/>
<path d="M288.38 207.3C296.05 203.49 317.13 193.76 331.66 189.23C331.75 189.23 331.89 189.53 331.81 189.57C320.29 195.16 296.56 204.65 288.59 207.77C288.44 207.83 288.24 207.37 288.38 207.3Z" fill="#263238"/>
<path d="M321.88 310.1H190.44C190.44 310.1 195.77 207.74 240.31 157C252.31 143.32 271.22 146.65 280.85 156.63C296.76 173.13 315.54 208.95 316.97 216.77C319.33 229.69 311.9 243.65 311.9 243.65L321.88 310.1Z" fill="#0A8643"/>
<path d="M315 264.55C311.59 265.55 308.15 266.55 304.68 267.35C298.937 268.782 293.083 269.719 287.18 270.15C284.223 270.335 281.257 270.335 278.3 270.15C275.339 269.895 272.416 269.318 269.58 268.43C263.942 266.605 258.564 264.057 253.58 260.85C248.58 257.76 243.75 254.32 238.81 251.11C236.09 249.32 233.33 247.58 230.49 245.99L229.36 245.37C227.43 244.32 225.46 243.37 223.44 242.49C220.75 241.333 217.953 240.442 215.09 239.83C212.229 239.249 209.306 239.024 206.39 239.16C204.781 239.271 203.181 239.489 201.6 239.81C201.67 239.53 201.74 239.25 201.82 238.97C203.313 238.683 204.823 238.496 206.34 238.41C209.322 238.295 212.306 238.564 215.22 239.21C218.114 239.87 220.937 240.807 223.65 242.01C225.803 242.958 227.906 244.016 229.95 245.18C230.33 245.38 230.69 245.59 231.06 245.81C233.77 247.38 236.41 249.08 239 250.81C243.89 254.11 248.72 257.5 253.76 260.53C258.748 263.702 264.126 266.212 269.76 268C272.567 268.845 275.457 269.382 278.38 269.6C281.31 269.742 284.246 269.698 287.17 269.47C293.022 268.959 298.824 267.98 304.52 266.54C308.01 265.7 311.52 264.71 314.9 263.65L315 264.55ZM314.45 260.88C312.72 259.88 311.02 258.75 309.34 257.64C304.4 254.43 299.6 250.99 294.57 247.9C289.582 244.7 284.205 242.153 278.57 240.32C275.737 239.433 272.817 238.856 269.86 238.6C266.903 238.415 263.937 238.415 260.98 238.6C255.074 239.032 249.216 239.968 243.47 241.4C238.92 242.49 234.42 243.8 229.96 245.18L229.37 245.37L226.45 246.28C220.82 248.06 215.25 249.96 209.57 251.46C205.906 252.472 202.167 253.194 198.39 253.62C198.32 253.94 198.26 254.25 198.19 254.56C202.116 254.147 206.003 253.415 209.81 252.37C216.81 250.5 223.63 248.16 230.5 245.99L231.07 245.81C235.24 244.5 239.43 243.26 243.68 242.24C249.374 240.792 255.177 239.808 261.03 239.3C263.951 239.077 266.883 239.034 269.81 239.17C272.733 239.387 275.624 239.924 278.43 240.77C284.041 242.542 289.399 245.032 294.37 248.18C299.42 251.18 304.25 254.6 309.14 257.9C310.91 259.09 312.7 260.26 314.52 261.38L314.45 260.88ZM283.29 159.3C280.84 159.3 278.39 159.51 275.97 159.76C268.77 160.53 261.66 161.76 254.54 162.88L253.94 162.97C249.62 163.63 245.29 164.21 240.94 164.57C238.61 164.76 236.27 164.91 233.94 164.98L233.33 165.82C235.9 165.82 238.46 165.63 241.02 165.43C245.69 165.05 250.33 164.43 254.95 163.77L255.57 163.68L258.57 163.22C264.4 162.33 270.2 161.31 276.04 160.69C278.696 160.391 281.367 160.231 284.04 160.21C283.82 159.9 283.56 159.6 283.29 159.3ZM293 171.93C287.81 172.99 282.53 173.82 277.29 173.33C274.384 173.019 271.529 172.347 268.79 171.33C266.05 170.287 263.42 168.974 260.94 167.41C259.08 166.25 257.28 164.99 255.54 163.67L254.54 162.87C251.98 160.87 249.54 158.71 247.11 156.53C246.02 155.53 244.95 154.53 243.87 153.58L243.64 153.77L246.87 156.77C249.17 158.89 251.5 160.98 253.94 162.94C254.27 163.22 254.6 163.48 254.94 163.74C256.787 165.202 258.706 166.57 260.69 167.84C263.186 169.445 265.832 170.805 268.59 171.9C271.366 172.984 274.27 173.71 277.23 174.06C280.198 174.317 283.185 174.253 286.14 173.87C288.633 173.57 291.093 173.153 293.52 172.62L293 171.93ZM310.19 200.79C307.313 202.664 304.225 204.192 300.99 205.34C298.207 206.226 295.325 206.767 292.41 206.95C289.484 207.103 286.549 206.966 283.65 206.54C281.47 206.24 279.32 205.81 277.19 205.3L276 205C272.84 204.19 269.73 203.22 266.64 202.2C261.03 200.39 255.51 198.31 249.85 196.63C244.208 194.826 238.356 193.761 232.44 193.46C229.474 193.337 226.503 193.534 223.58 194.05C221.169 194.528 218.791 195.159 216.46 195.94L216.1 196.78C218.58 195.903 221.116 195.191 223.69 194.65C226.569 194.095 229.5 193.864 232.43 193.96C238.308 194.21 244.13 195.218 249.75 196.96C255.41 198.58 260.95 200.59 266.53 202.51C269.48 203.51 272.47 204.51 275.53 205.3L276.76 205.62C279.041 206.209 281.351 206.683 283.68 207.04C286.612 207.503 289.583 207.678 292.55 207.56C295.527 207.431 298.475 206.917 301.32 206.03C304.14 205.073 306.846 203.809 309.39 202.26L310.65 201.49L310.19 200.79ZM303.66 188.79C300.428 190.12 297.29 191.671 294.27 193.43C288 197.08 282 201.12 276 205L275.49 205.32C271.81 207.66 268.09 209.95 264.25 212.04C259.123 214.911 253.772 217.362 248.25 219.37C245.485 220.345 242.663 221.15 239.8 221.78C236.92 222.325 233.99 222.556 231.06 222.47C225.185 222.217 219.367 221.208 213.75 219.47C211.857 218.93 209.983 218.353 208.13 217.74C208.13 217.83 208.06 217.93 208.03 218.03C209.89 218.65 211.76 219.25 213.64 219.81C219.267 221.611 225.101 222.683 231 223C233.966 223.126 236.938 222.924 239.86 222.4C242.763 221.802 245.626 221.021 248.43 220.06C254.022 218.117 259.435 215.695 264.61 212.82C268.73 210.59 272.72 208.16 276.67 205.67C276.85 205.56 277.03 205.45 277.2 205.33C278.07 204.79 278.93 204.24 279.79 203.69C284.79 200.52 289.65 197.23 294.79 194.31C297.807 192.538 300.944 190.981 304.18 189.65C304 189.36 303.84 189.09 303.68 188.82L303.66 188.79ZM317.81 283.12C313.561 281.991 309.202 281.32 304.81 281.12C301.844 280.996 298.873 281.194 295.95 281.71C293.047 282.311 290.185 283.093 287.38 284.05C281.789 285.996 276.376 288.418 271.2 291.29C267.08 293.52 263.08 295.95 259.13 298.44C258.96 298.56 258.78 298.67 258.6 298.78L256 300.5C251 303.67 246.13 306.95 241 309.88L240.61 310.1H242.48C248.39 306.64 254.05 302.83 259.8 299.17L260.31 298.84C263.99 296.5 267.71 294.21 271.55 292.12C276.675 289.246 282.026 286.794 287.55 284.79C290.308 283.805 293.127 283 295.99 282.38C298.869 281.826 301.8 281.594 304.73 281.69C309.155 281.844 313.551 282.478 317.84 283.58L317.81 283.12ZM321.37 306.78C321.11 306.89 320.85 306.98 320.59 307.07C317.827 308.05 315.004 308.855 312.14 309.48C310.651 309.772 309.144 309.969 307.63 310.07C306.22 310.17 304.82 310.2 303.41 310.17C302.73 310.17 302.05 310.12 301.41 310.07C296.226 309.651 291.103 308.672 286.13 307.15C280.47 305.53 274.93 303.51 269.35 301.59C266.35 300.59 263.41 299.59 260.35 298.81L259.11 298.48C256.832 297.892 254.526 297.418 252.2 297.06C249.266 296.607 246.296 296.433 243.33 296.54C240.351 296.679 237.401 297.193 234.55 298.07C231.731 299.033 229.025 300.301 226.48 301.85C223.935 303.378 221.478 305.048 219.12 306.85C217.7 307.91 216.3 308.997 214.92 310.11H216.11C217.25 309.217 218.407 308.34 219.58 307.48C224.33 304.05 229.25 300.7 234.79 298.83C237.568 297.939 240.447 297.398 243.36 297.22C246.286 297.063 249.22 297.197 252.12 297.62C254.29 297.93 256.44 298.35 258.58 298.86L259.84 299.18C262.99 299.97 266.11 300.94 269.2 301.96C274.8 303.78 280.33 305.86 285.99 307.54C289.626 308.652 293.335 309.511 297.09 310.11C299.176 310.436 301.28 310.636 303.39 310.71C306.356 310.836 309.328 310.634 312.25 310.11C315.154 309.514 318.016 308.732 320.82 307.77L321.47 307.54L321.37 306.78Z" fill="#37474F"/>
<path d="M271.78 234.5C277.788 235.089 283.745 236.122 289.6 237.59C292.5 238.36 295.34 239.26 298.18 240.23C299.6 240.71 301.02 241.14 302.45 241.56C303.94 242.052 305.485 242.358 307.05 242.47C307.073 242.477 307.092 242.491 307.106 242.51C307.12 242.529 307.127 242.552 307.127 242.575C307.127 242.598 307.12 242.621 307.106 242.64C307.092 242.659 307.073 242.673 307.05 242.68C305.573 242.74 304.092 242.7 302.62 242.56C301.2 242.379 299.793 242.102 298.41 241.73C295.46 240.98 292.55 240.09 289.61 239.3C283.67 237.72 277.74 236.14 271.71 235C271.656 234.978 271.611 234.939 271.582 234.889C271.553 234.839 271.541 234.78 271.549 234.723C271.557 234.665 271.585 234.612 271.626 234.571C271.668 234.531 271.722 234.506 271.78 234.5Z" fill="#263238"/>
<path d="M256.87 239.7C261.829 239.223 266.81 239.026 271.79 239.11C274.28 239.11 276.79 239.36 279.23 239.62C280.41 239.74 281.59 239.89 282.77 240.05C283.95 240.21 285.34 240.58 286.64 240.74C286.78 240.74 286.77 240.96 286.64 240.95C285.41 240.84 284.15 240.95 282.92 240.89L279.2 240.76C276.72 240.68 274.2 240.62 271.75 240.52C266.75 240.3 261.83 240.14 256.86 240.1C256.59 240.1 256.62 239.72 256.87 239.7Z" fill="#263238"/>
<path d="M386.72 272.32C381.59 286.61 359.36 295.12 305.4 321.82C297.93 325.51 257.69 279.82 265.46 275.47C275.25 269.98 314.46 250.82 317.46 249.78C343.12 241 390.19 262.62 386.72 272.32Z" fill="#A9726C"/>
<path d="M211.07 336.05C216.46 340.76 226.94 326.49 226.94 326.49C226.541 329.549 227.224 332.651 228.87 335.26C231.99 339.72 240.35 336.79 240.35 336.79C240.598 340.05 241.817 343.16 243.85 345.72C247.27 349.72 256.12 347.93 256.12 347.93C258.037 350.753 260.859 352.837 264.12 353.84C278.86 357.72 304.84 327.93 310.45 317.84L277.61 269.54C277.61 269.54 239.79 280.54 228.8 292.25C222.73 298.77 202.83 328.85 211.07 336.05Z" fill="#A9726C"/>
<path d="M226.89 326.24C230.95 317.39 237.13 309.53 243.17 302C243.3 301.84 243.56 302.05 243.43 302.22C237.33 309.63 233.07 318.85 227.28 326.49C227.12 326.7 226.78 326.48 226.89 326.24Z" fill="#263238"/>
<path d="M240 336.12C241.118 334.197 242.483 332.429 244.06 330.86C245.62 329.1 247.22 327.37 248.84 325.67C252.08 322.25 255.414 318.917 258.84 315.67C258.99 315.53 259.25 315.67 259.1 315.88C255.87 319.29 252.7 322.75 249.62 326.3C248.07 328.07 246.55 329.86 245.03 331.66C243.713 333.446 242.2 335.08 240.52 336.53C240.466 336.599 240.386 336.644 240.299 336.654C240.212 336.664 240.124 336.639 240.055 336.585C239.986 336.531 239.942 336.451 239.931 336.364C239.921 336.277 239.946 336.189 240 336.12Z" fill="#263238"/>
<path d="M256.26 347.78C257.04 346.03 258.83 344.59 260.16 343.24C261.68 341.72 263.16 340.18 264.67 338.64C267.67 335.56 270.67 332.47 273.52 329.28C273.66 329.12 273.92 329.33 273.78 329.49C270.87 332.75 268.01 336.04 265.07 339.27C263.63 340.85 262.18 342.427 260.72 344C259.48 345.33 258.08 347.14 256.41 347.94C256.388 347.948 256.364 347.949 256.342 347.943C256.319 347.938 256.299 347.926 256.283 347.909C256.267 347.892 256.256 347.871 256.252 347.848C256.248 347.825 256.251 347.801 256.26 347.78Z" fill="#263238"/>
<path d="M344.43 248.87C339.95 247.57 327.6 245.05 317.52 249.67C317.499 249.68 317.482 249.697 317.473 249.718C317.463 249.739 317.461 249.763 317.467 249.786C317.473 249.808 317.486 249.828 317.505 249.842C317.524 249.855 317.547 249.862 317.57 249.86C326.25 247.29 339.94 248.15 344.39 249.05C344.414 249.055 344.439 249.051 344.46 249.038C344.48 249.025 344.495 249.004 344.5 248.98C344.506 248.956 344.501 248.931 344.488 248.911C344.475 248.89 344.454 248.875 344.43 248.87Z" fill="#263238"/>
<path d="M248 167.69C246.14 188.92 217.56 284.97 172.78 299.61C157.58 304.61 135.08 244.81 140.59 174.78C140.75 172.71 187.88 162.08 191.78 172.91C192.2 174.07 195.78 205.24 194.45 204.91C192.76 204.51 207.08 188.76 230.57 162.83C241.7 150.58 249.14 155 248 167.69Z" fill="#A9726C"/>
<path d="M193.67 202.46C195.52 218.41 197.05 234.46 198.14 250.46C198.44 254.93 198.79 259.39 199.14 263.86C199.14 264.02 199.41 263.99 199.41 263.86C199.703 255.826 199.577 247.781 199.03 239.76C198.5 231.82 197.8 223.76 196.49 215.94C195.74 211.42 194.92 206.94 194 202.44C193.93 202.2 193.65 202.27 193.67 202.46Z" fill="#263238"/>
<path d="M140.51 188.62C136.71 183.62 121.3 159.15 118.51 151.38C115.72 143.61 109.41 120.68 115.15 117.96C120.89 115.24 123.27 121.8 123.27 121.8C123.27 121.8 122.13 111.7 128.15 109.48C134.17 107.26 137.56 117.61 137.56 117.61C137.56 117.61 137.14 107.14 143.3 105.37C149.46 103.6 151.13 114.55 151.13 114.55C151.13 114.55 150.3 105 156 105.67C162.85 106.48 162.38 124.26 166.08 132.61C166.91 134.5 185.82 169.81 185.82 169.81L140.51 188.62Z" fill="#A9726C"/>
<path d="M151 113.61C150.69 126.69 152.81 132.46 159.42 143.51C159.55 143.72 159.26 143.97 159.1 143.75C151.65 133.52 147.94 126.67 150.37 113.57C150.48 112.92 151 113 151 113.61Z" fill="#263238"/>
<path d="M137.63 116.57C138.49 130.18 140.74 136.46 146.81 148.57C146.9 148.74 146.62 148.9 146.52 148.74C139.52 137.39 136.02 130.46 136.95 116.74C137 116.1 137.59 116 137.63 116.57Z" fill="#263238"/>
<path d="M123.63 122.41C125.41 135.52 127.63 142.52 134.98 153.49C135.012 153.541 135.024 153.601 135.013 153.66C135.002 153.719 134.97 153.772 134.922 153.808C134.875 153.845 134.815 153.862 134.756 153.857C134.696 153.851 134.64 153.824 134.6 153.78C125.96 143.33 123.19 134.62 123.24 122.51C123.24 121.68 123.52 121.58 123.63 122.41Z" fill="#263238"/>
<path d="M169 80.4102H132.93C131.953 80.4207 131.02 80.8183 130.336 81.5156C129.652 82.213 129.272 83.1532 129.28 84.1301V158.35C129.272 159.327 129.652 160.267 130.336 160.965C131.02 161.662 131.953 162.06 132.93 162.07H169C169.977 162.06 170.91 161.662 171.594 160.965C172.278 160.267 172.658 159.327 172.65 158.35V84.1301C172.658 83.1532 172.278 82.213 171.594 81.5156C170.91 80.8183 169.977 80.4207 169 80.4102ZM170.37 156.06C170.387 156.507 170.317 156.952 170.162 157.372C170.007 157.791 169.77 158.175 169.467 158.503C169.163 158.831 168.798 159.096 168.392 159.282C167.985 159.469 167.547 159.573 167.1 159.59H134.83C133.929 159.554 133.079 159.162 132.466 158.5C131.853 157.839 131.527 156.961 131.56 156.06V86.9402C131.56 82.9402 133.03 82.7701 134.83 82.7701H141.3C141.67 82.7701 141.98 83.2001 141.98 83.7701V84.0002C141.98 85.2402 142.66 85.2502 143.49 85.2502H158.43C159.27 85.2502 159.95 85.2502 159.95 84.0002V83.7701C159.95 83.2501 160.25 82.7701 160.63 82.7701H167.09C168.9 82.7701 170.36 83.3002 170.36 86.9402L170.37 156.06Z" fill="#37474F"/>
<path d="M170.36 87V156.12C170.378 156.567 170.307 157.012 170.152 157.431C169.997 157.851 169.761 158.235 169.457 158.563C169.153 158.891 168.788 159.156 168.382 159.342C167.976 159.529 167.537 159.633 167.09 159.65H134.84C133.937 159.616 133.085 159.225 132.47 158.564C131.855 157.902 131.528 157.023 131.56 156.12V87C131.56 83 133.03 82.83 134.84 82.83H141.3C141.67 82.83 141.98 83.26 141.98 83.83V84C141.98 85.24 142.66 85.25 143.49 85.25H158.43C159.27 85.25 159.95 85.25 159.95 84V83.77C159.95 83.25 160.25 82.77 160.63 82.77H167.09C168.9 82.83 170.36 83.36 170.36 87Z" fill="#0A8643"/>
<path opacity="0.2" d="M170.36 95.8201V156.12C170.377 156.567 170.307 157.012 170.152 157.431C169.997 157.851 169.761 158.235 169.457 158.563C169.153 158.891 168.788 159.156 168.382 159.342C167.975 159.529 167.537 159.633 167.09 159.65H134.84C134.393 159.633 133.954 159.529 133.548 159.342C133.142 159.156 132.777 158.891 132.473 158.563C132.169 158.235 131.933 157.851 131.778 157.431C131.623 157.012 131.553 156.567 131.57 156.12V110.88C140.06 109.79 148.57 122.19 156.49 118.54C163.72 115.19 163.39 104.6 166.08 99.7701C167.042 98.0251 168.544 96.6391 170.36 95.8201Z" fill="white"/>
<path opacity="0.2" d="M170.36 135.52V156.12C170.377 156.567 170.307 157.012 170.152 157.431C169.997 157.851 169.761 158.235 169.457 158.563C169.153 158.891 168.788 159.155 168.382 159.342C167.975 159.529 167.537 159.633 167.09 159.65H134.84C134.393 159.633 133.954 159.529 133.548 159.342C133.142 159.155 132.777 158.891 132.473 158.563C132.169 158.235 131.933 157.851 131.778 157.431C131.623 157.012 131.553 156.567 131.57 156.12V129.19C136.17 137.24 141.33 139.56 146.02 138.37C151.38 137.01 159.02 130.07 166.26 132.49C167.908 133.05 169.341 134.109 170.36 135.52Z" fill="white"/>
<path d="M153 83.6501H148.92C148.854 83.6501 148.79 83.6238 148.743 83.5769C148.696 83.53 148.67 83.4664 148.67 83.4001C148.67 83.3329 148.696 83.2682 148.743 83.2197C148.789 83.1713 148.853 83.1427 148.92 83.1401H153C153.067 83.1427 153.131 83.1713 153.177 83.2197C153.224 83.2682 153.25 83.3329 153.25 83.4001C153.25 83.4664 153.224 83.53 153.177 83.5769C153.13 83.6238 153.066 83.6501 153 83.6501Z" fill="#263238"/>
<path d="M140.18 84.3201L140.12 84.3801C140.042 84.2998 139.949 84.2361 139.846 84.1931C139.743 84.1502 139.632 84.1287 139.52 84.1301C139.295 84.1318 139.08 84.2215 138.92 84.3801L138.85 84.3201C138.872 84.2917 138.899 84.2679 138.93 84.2501C138.982 84.199 139.043 84.1583 139.11 84.1301C139.185 84.0901 139.266 84.063 139.35 84.0501H139.47H139.66C139.733 84.035 139.808 84.035 139.88 84.0501L140.03 84.1201C140.081 84.1477 140.128 84.1813 140.17 84.2201L140.24 84.2801L140.18 84.3201Z" fill="#263238"/>
<path d="M139.08 84.6101L138.98 84.5201C139.086 84.4096 139.228 84.339 139.38 84.3201C139.489 84.2996 139.601 84.3072 139.706 84.3422C139.811 84.3772 139.905 84.4384 139.98 84.5201L139.88 84.6101C139.772 84.5074 139.629 84.4501 139.48 84.4501C139.331 84.4501 139.188 84.5074 139.08 84.6101Z" fill="#263238"/>
<path d="M139.79 84.71L139.69 84.81C139.632 84.7594 139.557 84.7315 139.48 84.7315C139.403 84.7315 139.328 84.7594 139.27 84.81L139.18 84.71C139.262 84.6312 139.371 84.5872 139.485 84.5872C139.599 84.5872 139.708 84.6312 139.79 84.71Z" fill="#263238"/>
<path d="M139.57 84.9001C139.57 84.9179 139.565 84.9353 139.555 84.9501C139.545 84.9649 139.531 84.9764 139.515 84.9832C139.498 84.99 139.48 84.9918 139.463 84.9883C139.445 84.9849 139.429 84.9763 139.417 84.9637C139.404 84.9511 139.395 84.9351 139.392 84.9176C139.388 84.9002 139.39 84.8821 139.397 84.8656C139.404 84.8492 139.415 84.8351 139.43 84.8252C139.445 84.8153 139.462 84.8101 139.48 84.8101C139.504 84.8101 139.527 84.8195 139.544 84.8364C139.561 84.8533 139.57 84.8762 139.57 84.9001Z" fill="#263238"/>
<path d="M134.09 84.51C134.09 84.4586 134.105 84.4083 134.134 84.3656C134.162 84.3228 134.203 84.2895 134.25 84.2698C134.298 84.2501 134.35 84.245 134.401 84.255C134.451 84.265 134.497 84.2898 134.534 84.3261C134.57 84.3625 134.595 84.4088 134.605 84.4593C134.615 84.5097 134.61 84.562 134.59 84.6095C134.57 84.657 134.537 84.6976 134.494 84.7262C134.452 84.7547 134.401 84.77 134.35 84.77C134.281 84.77 134.215 84.7426 134.166 84.6938C134.117 84.6451 134.09 84.579 134.09 84.51Z" fill="#263238"/>
<path d="M134.9 84.51C134.9 84.4586 134.915 84.4083 134.944 84.3656C134.972 84.3228 135.013 84.2895 135.06 84.2698C135.108 84.2501 135.16 84.245 135.211 84.255C135.261 84.265 135.307 84.2898 135.344 84.3261C135.38 84.3625 135.405 84.4088 135.415 84.4593C135.425 84.5097 135.42 84.562 135.4 84.6095C135.38 84.657 135.347 84.6976 135.304 84.7262C135.262 84.7547 135.211 84.77 135.16 84.77C135.091 84.77 135.025 84.7426 134.976 84.6938C134.927 84.6451 134.9 84.579 134.9 84.51Z" fill="#263238"/>
<path d="M135.97 84.77C136.114 84.77 136.23 84.6536 136.23 84.51C136.23 84.3664 136.114 84.25 135.97 84.25C135.826 84.25 135.71 84.3664 135.71 84.51C135.71 84.6536 135.826 84.77 135.97 84.77Z" fill="#263238"/>
<path d="M136.78 84.77C136.924 84.77 137.04 84.6536 137.04 84.51C137.04 84.3664 136.924 84.25 136.78 84.25C136.636 84.25 136.52 84.3664 136.52 84.51C136.52 84.6536 136.636 84.77 136.78 84.77Z" fill="#263238"/>
<path d="M137.59 84.77C137.734 84.77 137.85 84.6536 137.85 84.51C137.85 84.3664 137.734 84.25 137.59 84.25C137.446 84.25 137.33 84.3664 137.33 84.51C137.33 84.6536 137.446 84.77 137.59 84.77Z" fill="#263238"/>
<path d="M167.45 85.0701H165.36V84.0701H167.45V85.0701ZM165.45 84.9601H167.33V84.2101H165.45V84.9601Z" fill="#263238"/>
<path d="M166.88 84.27H165.53V84.91H166.88V84.27Z" fill="#263238"/>
<path d="M167.64 84.3301H167.45V84.8501H167.64V84.3301Z" fill="#263238"/>
<path d="M152.25 119.08C152.252 119.337 152.177 119.589 152.034 119.804C151.892 120.018 151.689 120.185 151.451 120.282C151.213 120.38 150.951 120.405 150.699 120.353C150.447 120.301 150.217 120.175 150.037 119.991C149.857 119.807 149.737 119.573 149.691 119.32C149.645 119.067 149.675 118.806 149.779 118.57C149.882 118.335 150.054 118.136 150.272 117.999C150.489 117.861 150.743 117.792 151 117.8C151.334 117.808 151.652 117.946 151.886 118.186C152.119 118.425 152.25 118.746 152.25 119.08Z" fill="white"/>
<path d="M156.57 118.65H145.35L145.5 117.86C145.598 117.371 145.854 116.928 146.23 116.6L146.82 116.07L148.3 110.35C148.444 109.784 148.778 109.285 149.245 108.935C149.713 108.586 150.287 108.408 150.87 108.43H151.06C151.642 108.408 152.214 108.587 152.68 108.936C153.147 109.286 153.478 109.785 153.62 110.35L155.11 116.07L155.7 116.6C156.076 116.926 156.33 117.371 156.42 117.86L156.57 118.65Z" fill="white"/>
<path d="M150.87 109.65C150.628 109.652 150.392 109.582 150.19 109.449C149.988 109.317 149.83 109.127 149.736 108.904C149.642 108.681 149.616 108.436 149.662 108.198C149.708 107.961 149.824 107.743 149.994 107.571C150.164 107.399 150.382 107.282 150.618 107.234C150.855 107.186 151.101 107.21 151.325 107.302C151.548 107.394 151.739 107.551 151.874 107.751C152.008 107.952 152.08 108.188 152.08 108.43C152.08 108.752 151.953 109.061 151.726 109.289C151.5 109.518 151.192 109.648 150.87 109.65ZM150.87 107.95C150.772 107.948 150.676 107.975 150.594 108.029C150.512 108.082 150.448 108.158 150.409 108.248C150.371 108.338 150.361 108.437 150.379 108.533C150.398 108.629 150.445 108.717 150.514 108.787C150.583 108.856 150.671 108.903 150.767 108.921C150.863 108.94 150.962 108.929 151.052 108.891C151.142 108.853 151.219 108.788 151.272 108.706C151.325 108.624 151.352 108.528 151.35 108.43C151.336 108.313 151.279 108.204 151.191 108.125C151.103 108.046 150.989 108.002 150.87 108V107.95Z" fill="white"/>
<path d="M151 126.59C148.469 126.59 145.994 125.839 143.889 124.433C141.784 123.026 140.143 121.027 139.175 118.688C138.206 116.349 137.952 113.776 138.446 111.293C138.94 108.81 140.159 106.529 141.949 104.739C143.739 102.949 146.02 101.73 148.503 101.236C150.986 100.742 153.56 100.996 155.899 101.964C158.237 102.933 160.237 104.574 161.643 106.679C163.049 108.784 163.8 111.258 163.8 113.79C163.798 117.184 162.448 120.438 160.048 122.838C157.648 125.238 154.394 126.587 151 126.59ZM151 101.99C148.666 101.99 146.385 102.682 144.444 103.979C142.504 105.275 140.992 107.118 140.098 109.274C139.205 111.431 138.972 113.803 139.427 116.092C139.882 118.381 141.006 120.484 142.656 122.134C144.307 123.784 146.409 124.908 148.698 125.363C150.987 125.819 153.36 125.585 155.516 124.692C157.672 123.799 159.515 122.286 160.812 120.346C162.108 118.405 162.8 116.124 162.8 113.79C162.795 110.663 161.55 107.666 159.338 105.456C157.126 103.245 154.127 102.003 151 102V101.99Z" fill="white"/>
<path d="M192.14 173.35C192.14 173.35 192.51 156.97 191.14 149.73C189.77 142.49 174.5 117.49 168.91 120.48C161.69 124.32 167.64 140.48 171.58 148.03C171.58 148.03 154.89 156.92 156.64 169.44C158.39 181.96 192.14 173.35 192.14 173.35Z" fill="#A9726C"/>
<path d="M167.22 122.18C163.22 130.44 168.99 140 172.28 147.6C172.332 147.71 172.357 147.831 172.352 147.952C172.348 148.074 172.314 148.192 172.255 148.298C172.195 148.404 172.111 148.494 172.009 148.56C171.907 148.627 171.791 148.668 171.67 148.68C164.92 152.88 156.67 160.75 156.18 169.13C156.18 169.181 156.16 169.229 156.125 169.264C156.089 169.3 156.041 169.32 155.99 169.32C155.94 169.32 155.892 169.3 155.856 169.264C155.82 169.229 155.8 169.181 155.8 169.13C155.05 160.13 162.57 151.68 170.26 147.56C166.77 139.82 161.36 129.98 167.15 122.13C167.18 122.1 167.25 122.13 167.22 122.18Z" fill="#263238"/>
<path d="M194 202.4L239 220.82C239 220.82 251.63 181.82 253.78 160.3C254.98 148.24 247.9 147.92 239.17 154.54C208.65 177.71 194 202.4 194 202.4Z" fill="#0A8643"/>
<path d="M253.48 163C253.48 163.32 253.4 163.64 253.35 164C249.26 164.59 245.15 165.09 241.01 165.43C235.929 165.878 230.823 165.962 225.73 165.68L226.5 164.99C231.317 165.14 236.139 165 240.94 164.57C245.14 164.22 249.31 163.67 253.48 163ZM247.11 156.5C245.56 155.11 244.03 153.7 242.5 152.28L242.23 152.44C243.78 153.87 245.32 155.32 246.87 156.76C249.04 158.76 251.24 160.76 253.53 162.61C253.53 162.43 253.58 162.26 253.6 162.09C251.38 160.35 249.23 158.46 247.11 156.54V156.5ZM232.4 193.46C229.434 193.337 226.463 193.534 223.54 194.05C220.638 194.654 217.776 195.435 214.97 196.39C209.381 198.339 203.968 200.761 198.79 203.63C198.53 203.77 198.27 203.91 198.02 204.06L199.02 204.48L199.17 204.39C204.297 201.519 209.648 199.068 215.17 197.06C217.932 196.076 220.754 195.271 223.62 194.65C226.499 194.095 229.43 193.864 232.36 193.96C237.065 194.129 241.735 194.834 246.28 196.06C246.28 195.93 246.34 195.81 246.38 195.68C241.819 194.413 237.129 193.668 232.4 193.46Z" fill="#37474F"/>
<path d="M240.29 210.44C233.11 207 213.34 198.28 199.7 194.44C199.62 194.44 199.48 194.74 199.56 194.77C210.36 199.77 232.61 208.17 240.08 210.93C240.22 211 240.42 210.5 240.29 210.44Z" fill="#263238"/>
<path d="M251.32 180.8C250.41 183.1 249.54 185.42 248.68 187.74C248.74 187.46 248.82 187.17 248.88 186.88C249.62 183.58 250.34 180.28 250.98 176.95C250.98 176.87 250.86 176.84 250.84 176.95C247.84 188.45 239.69 217.44 239.04 220.65C238.79 220.58 234.4 218.82 233.81 218.72C233.69 218.72 233.58 218.94 233.7 218.97C234 219.04 239.7 221.45 239.7 221.37C242.02 215.86 247.06 194.63 248.16 189.92C249.38 186.953 250.45 183.93 251.37 180.85C251.37 180.85 251.34 180.75 251.32 180.8Z" fill="#263238"/>
<path d="M252.24 153.41C253.04 155.63 265.66 169.13 276.02 167.41C279.4 166.84 277.13 148.29 277.13 148.29L277.28 146.88L279.28 127.18L255 115.38L251.52 113.85C251.52 113.85 251.32 119.28 251.14 126.04C251.14 126.36 251.14 126.67 251.14 127.04C251.14 127.41 251.14 127.79 251.14 128.15C251.14 129.15 251.06 130.15 251.05 131.21C251.05 132 251.05 132.76 251.05 133.58C251.05 134.4 251.05 135.2 251.05 136.03C251.11 144.12 251.91 152.47 252.24 153.41Z" fill="#A9726C"/>
<path d="M251.18 126C253.755 131.163 257.424 135.702 261.931 139.303C266.438 142.904 271.676 145.479 277.28 146.85L279.28 127.15L255 115.38L251.52 113.85C251.52 113.85 251.36 119.28 251.18 126Z" fill="#263238"/>
<path d="M301.64 94.7C310.13 128.41 290.9 137.31 283.64 139.13C277.04 140.79 254.35 145.58 242.42 112.93C230.49 80.28 243.48 65.67 258.42 61.09C273.36 56.51 293.14 61 301.64 94.7Z" fill="#A9726C"/>
<path d="M290.87 88.3902C290.071 88.4302 289.27 88.4302 288.47 88.3902C287.621 88.4896 286.762 88.3144 286.02 87.8902C285.816 87.7097 285.677 87.4669 285.624 87.1993C285.572 86.9318 285.609 86.6544 285.73 86.4102C286.044 85.9626 286.472 85.6071 286.97 85.3803C287.467 85.1535 288.016 85.0637 288.56 85.1202C289.676 85.0578 290.774 85.4145 291.64 86.1202C291.827 86.2919 291.96 86.5144 292.023 86.7604C292.086 87.0065 292.076 87.2656 291.995 87.5061C291.913 87.7467 291.763 87.9583 291.564 88.1152C291.364 88.2722 291.123 88.3677 290.87 88.3902Z" fill="#263238"/>
<path d="M269.08 93.33C269.833 93.0561 270.571 92.7424 271.29 92.39C272.116 92.1651 272.844 91.6727 273.36 90.99C273.482 90.745 273.518 90.4665 273.464 90.1985C273.41 89.9305 273.268 89.6882 273.06 89.51C272.6 89.218 272.07 89.054 271.525 89.0346C270.98 89.0153 270.44 89.1414 269.96 89.4C268.907 89.7779 268.028 90.5285 267.49 91.51C267.381 91.742 267.342 92.0006 267.378 92.2543C267.414 92.5081 267.523 92.7459 267.691 92.9389C267.86 93.1318 268.081 93.2716 268.327 93.341C268.574 93.4105 268.836 93.4066 269.08 93.33Z" fill="#263238"/>
<path d="M275.33 101C275.33 100.92 275.17 101.15 275.2 101.25C275.79 103.54 276.07 106.25 274.15 107.5C274.09 107.5 274.15 107.65 274.2 107.62C276.67 106.73 276.26 103.11 275.33 101Z" fill="#263238"/>
<path d="M272.73 99.0801C268.95 99.6201 270.32 107.14 273.82 106.64C277.32 106.14 275.9 98.6201 272.73 99.0801Z" fill="#263238"/>
<path d="M271.33 99.7401C270.75 100.29 270.24 101.16 269.46 101.38C268.68 101.6 267.73 100.98 266.99 100.38C266.92 100.31 266.86 100.38 266.88 100.49C267.12 101.93 267.94 103.31 269.53 103.24C271.12 103.17 271.75 101.72 271.85 100.24C271.86 99.8801 271.56 99.5201 271.33 99.7401Z" fill="#263238"/>
<path d="M288.44 97.1701C288.44 97.0801 288.64 97.2501 288.65 97.3401C288.98 99.6901 289.76 102.34 292 102.72C292.07 102.72 292.09 102.86 292 102.86C289.37 102.94 288.38 99.4401 288.44 97.1701Z" fill="#263238"/>
<path d="M290.1 94.37C293.8 93.43 295.4 100.9 291.97 101.77C288.54 102.64 287 95.16 290.1 94.37Z" fill="#263238"/>
<path d="M291.76 94.53C292.43 94.8 293.17 95.39 293.89 95.29C294.61 95.19 295.15 94.23 295.5 93.29C295.5 93.2 295.61 93.29 295.64 93.35C295.98 94.77 295.83 96.35 294.52 96.92C293.21 97.49 292.14 96.41 291.52 95.06C291.37 94.86 291.49 94.42 291.76 94.53Z" fill="#263238"/>
<path d="M278.86 119.46C279.5 119.93 280.16 120.61 281.02 120.57C281.89 120.436 282.722 120.119 283.46 119.64C283.475 119.624 283.495 119.615 283.517 119.614C283.538 119.613 283.559 119.62 283.575 119.635C283.591 119.65 283.601 119.67 283.602 119.691C283.602 119.713 283.595 119.734 283.58 119.75C283.307 120.257 282.901 120.68 282.406 120.974C281.911 121.268 281.346 121.422 280.77 121.42C280.277 121.36 279.812 121.155 279.435 120.831C279.058 120.507 278.785 120.079 278.65 119.6C278.59 119.47 278.77 119.39 278.86 119.46Z" fill="#263238"/>
<path d="M287.93 108.59C287.93 108.59 289.09 111.98 289.41 113.59C287.939 114.259 286.314 114.518 284.708 114.342C283.101 114.166 281.572 113.561 280.28 112.59C280.12 112.47 280.28 112.25 280.48 112.32C282.85 113.345 285.485 113.584 288 113C288 112.52 285.81 107.25 286.07 107.18C287.37 107.048 288.681 107.089 289.97 107.3C287.76 100.16 284.42 93.4401 282.33 86.3001C282.317 86.2482 282.323 86.1934 282.346 86.145C282.369 86.0967 282.408 86.058 282.457 86.0355C282.505 86.013 282.56 86.0081 282.612 86.0217C282.664 86.0354 282.709 86.0666 282.74 86.1101C286.74 92.9101 289.46 101.11 291.93 108.38C292.27 109.32 288.64 108.74 287.93 108.59Z" fill="#263238"/>
<path d="M287.13 113.89C286.443 115.207 285.427 116.323 284.18 117.13C283.49 117.55 282.686 117.745 281.88 117.69C280.11 117.54 279.8 116 279.88 114.62C279.928 113.89 280.062 113.168 280.28 112.47C282.353 113.663 284.754 114.161 287.13 113.89Z" fill="#263238"/>
<path d="M284.18 117.13C283.49 117.55 282.686 117.746 281.88 117.69C280.11 117.54 279.8 116 279.88 114.62C281.72 114.49 283.72 115.4 284.18 117.13Z" fill="#FF9ABB"/>
<path d="M277.58 65.72C277.58 65.72 279.03 70.88 277.29 74.65C273.74 82.4 264.43 80.53 261.29 83.65C258.37 86.55 259.5 92.44 256.85 95.34C253.18 99.34 248.09 97.9 247.52 100.57C246.95 103.24 245.31 111.74 241.93 112.87C238.55 114 219.93 67.45 266.48 58.98C266.48 58.98 272.53 56.39 282.04 60.98C291.55 65.57 298.11 83.29 298.11 83.29C297.183 82.8451 296.327 82.2655 295.57 81.57C293.4 79.72 292.57 77.99 290.96 76.79C288.47 74.91 287.13 75.66 284.54 73.79C280.6 71 277.58 65.72 277.58 65.72Z" fill="#263238"/>
<path d="M276.87 63.28C277.592 65.4693 278.062 67.734 278.27 70.03C278.595 72.2696 278.301 74.5555 277.42 76.64C276.286 78.5285 274.512 79.9476 272.42 80.64C270.32 81.44 268 81.7 265.75 82.64C264.559 83.1287 263.532 83.9475 262.79 85C262.151 86.0498 261.727 87.2155 261.54 88.43C261.1 90.71 260.66 92.96 259.18 94.61C258.441 95.4428 257.53 96.1049 256.509 96.5504C255.489 96.9959 254.383 97.2141 253.27 97.19C251.04 97.19 248.56 96.64 246.39 97.66C248.63 96.82 250.93 97.59 253.26 97.73C254.468 97.8024 255.678 97.6118 256.805 97.1716C257.932 96.7314 258.951 96.0519 259.79 95.18C261.58 93.4 262.04 90.83 262.51 88.64C262.689 87.5748 263.076 86.5553 263.65 85.64C264.302 84.7966 265.174 84.1495 266.17 83.77C268.17 82.88 270.53 82.57 272.76 81.68C273.886 81.2506 274.942 80.6539 275.89 79.91C276.883 79.1758 277.674 78.2023 278.19 77.08C279.032 74.8469 279.243 72.4251 278.8 70.08C278.425 67.7456 277.778 65.4633 276.87 63.28Z" fill="#263238"/>
<path d="M277.75 65.28C278.218 67.4002 278.975 69.446 280 71.36C280.998 73.3747 282.571 75.0484 284.52 76.17C285.51 76.6542 286.545 77.0394 287.61 77.32C288.535 77.6094 289.363 78.1493 290 78.88C290.58 79.8072 291.25 80.6748 292 81.47C292.814 82.2106 293.785 82.7576 294.84 83.07C293.897 82.5749 293.064 81.8946 292.39 81.07C291.748 80.2258 291.189 79.3216 290.72 78.37C290.043 77.4329 289.093 76.7275 288 76.35C286.968 76.0652 285.964 75.687 285 75.22C283.225 74.1738 281.748 72.6898 280.71 70.91C279.598 69.102 278.609 67.2211 277.75 65.28Z" fill="#263238"/>
<path d="M248.32 113C248.32 113 239.1 103.5 234.67 107C230.24 110.5 238.38 125.07 244.43 126.27C245.196 126.477 245.995 126.528 246.78 126.419C247.565 126.309 248.321 126.043 249 125.635C249.68 125.227 250.271 124.686 250.736 124.044C251.202 123.402 251.533 122.673 251.71 121.9L248.32 113Z" fill="#A9726C"/>
<path d="M237.11 111.1C237.089 111.1 237.069 111.108 237.054 111.124C237.039 111.139 237.03 111.159 237.03 111.18C237.03 111.201 237.039 111.222 237.054 111.237C237.069 111.252 237.089 111.26 237.11 111.26C241.38 112.26 244.11 115.6 246.18 119.21C244.75 117.92 243 117.37 241.24 119.11C241.15 119.2 241.24 119.35 241.39 119.3C242.058 118.964 242.814 118.843 243.554 118.954C244.293 119.065 244.98 119.403 245.52 119.92C246.418 120.788 247.219 121.75 247.91 122.79C248.16 123.12 248.77 122.79 248.57 122.43L248.52 122.34C247.79 117.23 242.67 110.73 237.11 111.1Z" fill="#263238"/>
<path d="M247.53 124.18C247.555 124.46 247.496 124.741 247.361 124.988C247.226 125.235 247.02 125.436 246.771 125.565C246.521 125.695 246.239 125.748 245.959 125.717C245.68 125.686 245.416 125.572 245.2 125.391C244.985 125.21 244.829 124.969 244.751 124.698C244.673 124.428 244.678 124.141 244.763 123.873C244.849 123.605 245.012 123.368 245.232 123.194C245.453 123.019 245.72 122.913 246 122.89C246.186 122.874 246.372 122.894 246.55 122.95C246.727 123.006 246.892 123.097 247.034 123.217C247.176 123.336 247.293 123.483 247.378 123.649C247.464 123.814 247.515 123.995 247.53 124.18Z" fill="white"/>
<path d="M243.87 122.17C243.883 122.366 243.838 122.561 243.74 122.731C243.643 122.902 243.497 123.04 243.322 123.128C243.147 123.216 242.95 123.251 242.755 123.228C242.56 123.205 242.376 123.125 242.226 122.999C242.077 122.872 241.967 122.704 241.912 122.516C241.857 122.327 241.859 122.127 241.917 121.94C241.975 121.752 242.086 121.586 242.238 121.461C242.39 121.337 242.575 121.26 242.77 121.24C242.904 121.226 243.039 121.24 243.167 121.279C243.296 121.319 243.415 121.384 243.518 121.471C243.62 121.558 243.705 121.665 243.765 121.785C243.826 121.905 243.861 122.036 243.87 122.17Z" fill="white"/>
<path d="M234.91 110.91H232.81C232.712 110.91 232.615 110.891 232.524 110.853C232.434 110.815 232.352 110.76 232.283 110.69C232.214 110.62 232.16 110.537 232.123 110.446C232.087 110.355 232.069 110.258 232.07 110.16C232.073 109.963 232.153 109.775 232.293 109.636C232.433 109.498 232.623 109.42 232.82 109.42H234.91C235.108 109.423 235.297 109.503 235.437 109.643C235.577 109.783 235.657 109.972 235.66 110.17C235.657 110.367 235.577 110.556 235.437 110.694C235.296 110.833 235.107 110.91 234.91 110.91Z" fill="#0A8643"/>
<path d="M235.18 113.07L233.12 113.51C233.025 113.531 232.926 113.532 232.831 113.515C232.735 113.497 232.643 113.461 232.562 113.408C232.48 113.355 232.409 113.286 232.354 113.206C232.299 113.126 232.26 113.035 232.24 112.94C232.198 112.747 232.235 112.544 232.342 112.378C232.448 112.211 232.617 112.093 232.81 112.05L234.86 111.61C235.054 111.568 235.256 111.605 235.422 111.712C235.589 111.818 235.707 111.987 235.75 112.18C235.789 112.373 235.751 112.574 235.645 112.74C235.539 112.906 235.372 113.025 235.18 113.07Z" fill="#0A8643"/>
<path d="M237.82 155.6C238.82 154.6 248.09 146.43 261.13 147.22C274.79 148.06 287.33 157.79 287.33 157.79C287.33 157.79 291.4 171.79 279.19 173.03C262.16 174.74 237.82 155.6 237.82 155.6Z" fill="#A9726C"/>
</svg>
