<svg width="146" height="48" viewBox="0 0 146 48" fill="none" xmlns="http://www.w3.org/2000/svg">
<path d="M13.2778 22.3183C14.1 19.25 17.2539 16.0961 20.3222 15.2739L39.4512 10.1475C42.5194 9.32522 44.3402 11.146 43.5179 14.2142L38.3916 33.3432C37.5693 36.4115 34.4154 39.5654 31.3471 40.3877L12.2181 45.514C9.14988 46.3363 7.32913 44.5155 8.15139 41.4473L13.2778 22.3183Z" fill="#D0D5DD"/>
<path d="M5.60882 14.6493C6.43108 11.5811 9.58498 8.42717 12.6533 7.60491L31.7822 2.47854C34.8505 1.65628 36.6713 3.47702 35.849 6.54529L30.7226 25.6743C29.9004 28.7425 26.7465 31.8964 23.6782 32.7187L4.5492 37.8451C1.48093 38.6673 -0.339816 36.8466 0.482448 33.7783L5.60882 14.6493Z" fill="#98A2B3"/>
<path d="M61.2916 31.424H67.8716V34H58.0996V14.54H61.2916V31.424Z" fill="#D0D5DD"/>
<path d="M69.477 26.216C69.477 24.6667 69.7943 23.2947 70.429 22.1C71.0823 20.9054 71.9597 19.9814 73.061 19.328C74.181 18.656 75.413 18.32 76.757 18.32C77.9703 18.32 79.025 18.5627 79.921 19.048C80.8357 19.5147 81.5637 20.1027 82.105 20.812V18.572H85.325V34H82.105V31.704C81.5637 32.432 80.8263 33.0387 79.893 33.524C78.9597 34.0094 77.8957 34.252 76.701 34.252C75.3757 34.252 74.1623 33.916 73.061 33.244C71.9597 32.5534 71.0823 31.6014 70.429 30.388C69.7943 29.156 69.477 27.7654 69.477 26.216ZM82.105 26.272C82.105 25.208 81.881 24.284 81.433 23.5C81.0037 22.716 80.4343 22.1187 79.725 21.708C79.0157 21.2974 78.2503 21.092 77.429 21.092C76.6077 21.092 75.8423 21.2974 75.133 21.708C74.4237 22.1 73.845 22.688 73.397 23.472C72.9677 24.2374 72.753 25.152 72.753 26.216C72.753 27.28 72.9677 28.2134 73.397 29.016C73.845 29.8187 74.4237 30.4347 75.133 30.864C75.861 31.2747 76.6263 31.48 77.429 31.48C78.2503 31.48 79.0157 31.2747 79.725 30.864C80.4343 30.4534 81.0037 29.856 81.433 29.072C81.881 28.2694 82.105 27.336 82.105 26.272Z" fill="#D0D5DD"/>
<path d="M103.406 18.572L93.9416 41.252H90.6376L93.7736 33.748L87.6976 18.572H91.2536L95.5936 30.332L100.102 18.572H103.406Z" fill="#D0D5DD"/>
<path d="M119.954 25.908C119.954 26.4867 119.917 27.0094 119.842 27.476H108.054C108.148 28.708 108.605 29.6974 109.426 30.444C110.248 31.1907 111.256 31.564 112.45 31.564C114.168 31.564 115.381 30.8454 116.09 29.408H119.534C119.068 30.8267 118.218 31.9934 116.986 32.908C115.773 33.804 114.261 34.252 112.45 34.252C110.976 34.252 109.65 33.9254 108.474 33.272C107.317 32.6 106.402 31.6667 105.73 30.472C105.077 29.2587 104.75 27.8587 104.75 26.272C104.75 24.6854 105.068 23.2947 105.702 22.1C106.356 20.8867 107.261 19.9534 108.418 19.3C109.594 18.6467 110.938 18.32 112.45 18.32C113.906 18.32 115.204 18.6374 116.342 19.272C117.481 19.9067 118.368 20.8027 119.002 21.96C119.637 23.0987 119.954 24.4147 119.954 25.908ZM116.622 24.9C116.604 23.724 116.184 22.7814 115.362 22.072C114.541 21.3627 113.524 21.008 112.31 21.008C111.209 21.008 110.266 21.3627 109.482 22.072C108.698 22.7627 108.232 23.7054 108.082 24.9H116.622Z" fill="#D0D5DD"/>
<path d="M126.288 20.812C126.754 20.028 127.37 19.4214 128.136 18.992C128.92 18.544 129.844 18.32 130.908 18.32V21.624H130.096C128.845 21.624 127.893 21.9414 127.24 22.576C126.605 23.2107 126.288 24.312 126.288 25.88V34H123.096V18.572H126.288V20.812Z" fill="#D0D5DD"/>
<path d="M139.442 34.252C138.228 34.252 137.136 34.0374 136.166 33.608C135.214 33.16 134.458 32.5627 133.898 31.816C133.338 31.0507 133.039 30.2014 133.002 29.268H136.306C136.362 29.9214 136.67 30.472 137.23 30.92C137.808 31.3494 138.527 31.564 139.386 31.564C140.282 31.564 140.972 31.396 141.458 31.06C141.962 30.7054 142.214 30.2574 142.214 29.716C142.214 29.1374 141.934 28.708 141.374 28.428C140.832 28.148 139.964 27.84 138.77 27.504C137.612 27.1867 136.67 26.8787 135.942 26.58C135.214 26.2814 134.579 25.824 134.038 25.208C133.515 24.592 133.254 23.78 133.254 22.772C133.254 21.9507 133.496 21.204 133.982 20.532C134.467 19.8414 135.158 19.3 136.054 18.908C136.968 18.516 138.014 18.32 139.19 18.32C140.944 18.32 142.354 18.768 143.418 19.664C144.5 20.5414 145.079 21.7454 145.154 23.276H141.962C141.906 22.5854 141.626 22.0347 141.122 21.624C140.618 21.2134 139.936 21.008 139.078 21.008C138.238 21.008 137.594 21.1667 137.146 21.484C136.698 21.8014 136.474 22.2214 136.474 22.744C136.474 23.1547 136.623 23.5 136.922 23.78C137.22 24.06 137.584 24.284 138.014 24.452C138.443 24.6014 139.078 24.7974 139.918 25.04C141.038 25.3387 141.952 25.6467 142.662 25.964C143.39 26.2627 144.015 26.7107 144.538 27.308C145.06 27.9054 145.331 28.6987 145.35 29.688C145.35 30.5654 145.107 31.3494 144.622 32.04C144.136 32.7307 143.446 33.272 142.55 33.664C141.672 34.056 140.636 34.252 139.442 34.252Z" fill="#D0D5DD"/>
</svg>
