<svg width="48" height="48" viewBox="0 0 48 48" fill="none" xmlns="http://www.w3.org/2000/svg">
<circle cx="24" cy="24" r="24" fill="#0072B1"/>
<g clip-path="url(#clip0_8598_8790)">
<rect width="13.7143" height="13.7143" transform="translate(17.1426 17.1431)" fill="#0072B1"/>
<path d="M29.8773 18H18.1191C17.5803 18 17.1426 18.3884 17.1426 18.8652V29.1348C17.1426 29.6116 17.5803 30 18.1191 30H29.8773C30.416 30 30.8569 29.6116 30.8569 29.1348V18.8652C30.8569 18.3884 30.416 18 29.8773 18ZM21.2875 28.2857H19.2548V22.5589H21.2905V28.2857H21.2875ZM20.2711 21.7768C19.6191 21.7768 19.0926 21.3134 19.0926 20.7455C19.0926 20.1777 19.6191 19.7143 20.2711 19.7143C20.9201 19.7143 21.4497 20.1777 21.4497 20.7455C21.4497 21.3161 20.9232 21.7768 20.2711 21.7768ZM28.9069 28.2857H26.8742V25.5C26.8742 24.8357 26.8589 23.9813 25.8181 23.9813C24.7589 23.9813 24.5967 24.7045 24.5967 25.4518V28.2857H22.564V22.5589H24.514V23.3411H24.5416C24.814 22.8911 25.4783 22.417 26.4671 22.417C28.5242 22.417 28.9069 23.6036 28.9069 25.1464V28.2857Z" fill="white"/>
</g>
<defs>
<clipPath id="clip0_8598_8790">
<rect width="13.7143" height="13.7143" fill="white" transform="translate(17.1426 17.1431)"/>
</clipPath>
</defs>
</svg>
