<svg width="14" height="14" viewBox="0 0 14 14" fill="none" xmlns="http://www.w3.org/2000/svg">
<path id="Icon" d="M9.66667 10.3333L13 7M13 7L9.66667 3.66667M13 7H5M7 10.3333C7 10.9533 7 11.2633 6.93185 11.5176C6.74692 12.2078 6.20782 12.7469 5.51764 12.9319C5.26331 13 4.95332 13 4.33333 13H4C3.06812 13 2.60218 13 2.23463 12.8478C1.74458 12.6448 1.35523 12.2554 1.15224 11.7654C1 11.3978 1 10.9319 1 10V4C1 3.06812 1 2.60218 1.15224 2.23463C1.35523 1.74458 1.74458 1.35523 2.23463 1.15224C2.60218 1 3.06812 1 4 1H4.33333C4.95332 1 5.26331 1 5.51764 1.06815C6.20782 1.25308 6.74692 1.79218 6.93185 2.48236C7 2.7367 7 3.04669 7 3.66667" stroke="#393E46" stroke-width="1.33333" stroke-linecap="round" stroke-linejoin="round"/>
</svg>
