<svg width="48" height="48" viewBox="0 0 48 48" fill="none" xmlns="http://www.w3.org/2000/svg">
<circle cx="24" cy="24" r="24" fill="#D9D9D9" fill-opacity="0.48"/>
<g clip-path="url(#clip0_8598_8794)">
<path d="M17.7532 18.0854C17.0376 18.0854 16.457 18.6325 16.457 19.3069C16.457 19.6911 16.6488 20.0525 16.9755 20.284L22.8517 24.4369C23.1595 24.6532 23.5808 24.6532 23.8886 24.4369L29.7648 20.284C30.0915 20.0525 30.2833 19.6911 30.2833 19.3069C30.2833 18.6325 29.7027 18.0854 28.9871 18.0854H17.7532ZM16.457 20.9354V26.2283C16.457 27.1266 17.2321 27.8569 18.1853 27.8569H28.555C29.5082 27.8569 30.2833 27.1266 30.2833 26.2283V20.9354L24.4071 25.0883C23.7914 25.5234 22.9489 25.5234 22.3332 25.0883L16.457 20.9354Z" fill="#ACABAB"/>
</g>
<defs>
<clipPath id="clip0_8598_8794">
<rect width="13.8262" height="13.0286" fill="white" transform="translate(16.457 16.457)"/>
</clipPath>
</defs>
</svg>
