<svg width="383" height="332" viewBox="0 0 383 332" fill="none" xmlns="http://www.w3.org/2000/svg">
<g filter="url(#filter0_dd_8598_8746)">
<g clip-path="url(#clip0_8598_8746)">
<path d="M20 12C20 5.37259 25.3726 0 32 0H351C357.627 0 363 5.37258 363 12V280C363 286.627 357.627 292 351 292H32C25.3726 292 20 286.627 20 280V12Z" fill="white"/>
<mask id="mask0_8598_8746" style="mask-type:alpha" maskUnits="userSpaceOnUse" x="-108" y="-124" width="336" height="336">
<rect width="336" height="336" transform="translate(-108 -124)" fill="url(#paint0_radial_8598_8746)"/>
</mask>
<g mask="url(#mask0_8598_8746)">
<circle cx="60" cy="44" r="47.5" stroke="#EAECF0"/>
<circle cx="60" cy="44" r="47.5" stroke="#EAECF0"/>
<circle cx="60" cy="44" r="71.5" stroke="#EAECF0"/>
<circle cx="60" cy="44" r="95.5" stroke="#EAECF0"/>
<circle cx="60" cy="44" r="119.5" stroke="#EAECF0"/>
<circle cx="60" cy="44" r="143.5" stroke="#EAECF0"/>
<circle cx="60" cy="44" r="167.5" stroke="#EAECF0"/>
</g>
<path d="M36 44C36 30.7452 46.7452 20 60 20C73.2548 20 84 30.7452 84 44C84 57.2548 73.2548 68 60 68C46.7452 68 36 57.2548 36 44Z" fill="#DCFAE6"/>
<path d="M55.5 44L58.5 47L64.5 41M70 44C70 49.5228 65.5228 54 60 54C54.4772 54 50 49.5228 50 44C50 38.4772 54.4772 34 60 34C65.5228 34 70 38.4772 70 44Z" stroke="#079455" stroke-width="2" stroke-linecap="round" stroke-linejoin="round"/>
<path d="M35.856 89.328H38.448L41.364 94.26C41.49 94.476 41.526 94.728 41.544 95.052C41.544 95.16 41.58 95.304 41.76 95.304C41.94 95.304 41.976 95.16 41.976 95.052C41.994 94.728 42.03 94.476 42.156 94.26L45.072 89.328H47.664L42.984 97.032V102H40.536V97.032L35.856 89.328ZM51.5375 92.352C54.5075 92.352 56.2895 94.548 56.2895 97.248C56.2895 99.948 54.5075 102.144 51.5375 102.144C48.5675 102.144 46.7855 99.948 46.7855 97.248C46.7855 94.548 48.5675 92.352 51.5375 92.352ZM51.5375 100.056C53.1035 100.056 53.9855 98.796 53.9855 97.248C53.9855 95.7 53.1035 94.44 51.5375 94.44C49.9715 94.44 49.0895 95.7 49.0895 97.248C49.0895 98.796 49.9715 100.056 51.5375 100.056ZM60.8646 102.144C58.8126 102.144 57.4446 100.812 57.4446 98.112V92.496H59.7486V97.32C59.7486 99.462 60.3066 100.056 61.5126 100.056C62.8446 100.056 64.0686 98.562 64.0686 96.366V92.496H66.3726V102H64.0686V101.406C64.0686 100.83 64.1946 100.488 64.3566 100.11C64.4286 99.948 64.5366 99.696 64.3026 99.642C64.1586 99.606 64.1046 99.714 64.0326 99.858C63.5646 100.794 62.5206 102.144 60.8646 102.144ZM70.3683 94.53C70.4763 94.548 70.5663 94.404 70.5843 94.35C71.1603 93.036 71.6823 92.352 74.0043 92.352V94.692C71.3223 94.512 70.5483 95.466 70.5483 97.878V102H68.2443V92.496H70.5483V93.018C70.5483 93.432 70.4403 93.792 70.2783 94.116C70.2063 94.278 70.1523 94.494 70.3683 94.53ZM80.3422 95.664C80.3422 92.082 82.6102 89.184 86.6062 89.184C90.5482 89.184 92.2762 91.974 92.4382 94.08H90.0082C89.8462 92.838 88.8022 91.344 86.6422 91.344C84.1942 91.344 82.7902 93.27 82.7902 95.664C82.7902 98.058 84.1942 99.984 86.6422 99.984C88.8022 99.984 89.8462 98.49 90.0082 97.248H92.4382C92.2762 99.354 90.5482 102.144 86.6062 102.144C82.6102 102.144 80.3422 99.246 80.3422 95.664ZM93.2972 99.39C93.2972 97.284 94.8452 96.51 96.7532 96.402C98.4452 96.312 99.9392 96.474 99.9212 95.592C99.9032 94.944 99.6512 94.224 98.0132 94.224C96.3932 94.224 95.9792 94.89 95.8532 95.664H93.5852C93.9092 93.27 95.9612 92.352 98.0852 92.352C100.263 92.352 102.225 93.072 102.225 96.744V102H99.9212V101.334C99.9212 100.902 100.029 100.596 100.191 100.29C100.263 100.128 100.335 99.948 100.173 99.876C99.9932 99.804 99.9212 99.984 99.8852 100.074C99.3452 101.388 98.3012 102.144 96.6092 102.144C94.8272 102.144 93.2972 100.992 93.2972 99.39ZM99.9212 97.104C99.3812 97.698 98.5172 97.788 97.1492 97.932C96.1592 98.04 95.6012 98.418 95.6012 99.264C95.6012 100.056 96.3572 100.56 97.4192 100.416C98.6432 100.254 99.9032 99.462 99.9212 97.104ZM114.367 92.352C116.023 92.352 117.499 93.252 117.499 96.096V102H115.195V96.456C115.195 95.016 114.781 94.44 113.665 94.44C112.657 94.44 111.883 95.52 111.883 97.212V102H109.579V96.672C109.579 95.232 109.381 94.44 108.211 94.44C107.095 94.44 106.267 95.772 106.267 97.608V102H103.963V92.496H106.267V93.036C106.267 93.504 106.141 93.774 105.961 94.17C105.889 94.332 105.835 94.512 106.015 94.566C106.195 94.62 106.267 94.458 106.303 94.368C106.789 93.126 107.671 92.352 108.931 92.352C110.173 92.352 110.965 93.126 111.217 94.224C111.253 94.35 111.343 94.404 111.487 94.404C111.595 94.404 111.685 94.368 111.739 94.242C112.279 93.036 113.233 92.352 114.367 92.352ZM121.384 92.496V92.856C121.384 93.234 121.294 93.522 121.132 93.846C121.06 94.026 120.934 94.242 121.114 94.332C121.294 94.422 121.402 94.188 121.438 94.116C122.014 93.108 122.968 92.352 124.444 92.352C126.91 92.352 128.584 94.512 128.584 97.248C128.584 99.984 126.91 102.144 124.444 102.144C123.004 102.144 122.014 101.406 121.438 100.362C121.402 100.308 121.33 100.128 121.168 100.182C120.97 100.254 121.042 100.434 121.132 100.614C121.294 100.938 121.384 101.226 121.384 101.586V105.456H119.08V92.496H121.384ZM123.904 100.056C125.524 100.056 126.28 98.76 126.28 97.248C126.28 95.736 125.524 94.44 123.904 94.44C122.392 94.44 121.384 95.736 121.384 97.248C121.384 98.76 122.392 100.056 123.904 100.056ZM129.455 99.39C129.455 97.284 131.003 96.51 132.911 96.402C134.603 96.312 136.097 96.474 136.079 95.592C136.061 94.944 135.809 94.224 134.171 94.224C132.551 94.224 132.137 94.89 132.011 95.664H129.743C130.067 93.27 132.119 92.352 134.243 92.352C136.421 92.352 138.383 93.072 138.383 96.744V102H136.079V101.334C136.079 100.902 136.187 100.596 136.349 100.29C136.421 100.128 136.493 99.948 136.331 99.876C136.151 99.804 136.079 99.984 136.043 100.074C135.503 101.388 134.459 102.144 132.767 102.144C130.985 102.144 129.455 100.992 129.455 99.39ZM136.079 97.104C135.539 97.698 134.675 97.788 133.307 97.932C132.317 98.04 131.759 98.418 131.759 99.264C131.759 100.056 132.515 100.56 133.577 100.416C134.801 100.254 136.061 99.462 136.079 97.104ZM140.262 91.344V89.04H142.566V91.344H140.262ZM140.262 102V92.496H142.566V102H140.262ZM143.87 97.032C143.87 94.476 145.544 92.352 148.01 92.352C149.486 92.352 150.404 93.09 151.016 94.08C151.034 94.116 151.142 94.35 151.304 94.278C151.484 94.206 151.358 93.972 151.268 93.792C151.124 93.522 151.07 93.27 151.07 92.928V92.496H153.374V100.992C153.374 104.034 151.592 105.6 148.676 105.6C145.688 105.6 144.32 103.998 144.158 102.216H146.426C146.534 103.08 147.11 103.728 148.64 103.728C150.26 103.728 151.07 102.828 151.07 101.082C151.07 100.758 151.124 100.506 151.268 100.236C151.358 100.056 151.484 99.876 151.304 99.786C151.142 99.714 151.052 99.876 151.016 99.948C150.404 100.992 149.45 101.712 148.01 101.712C145.544 101.712 143.87 99.588 143.87 97.032ZM148.55 99.624C150.062 99.624 151.07 98.436 151.07 97.032C151.07 95.628 150.062 94.44 148.55 94.44C146.93 94.44 146.174 95.628 146.174 97.032C146.174 98.436 146.93 99.624 148.55 99.624ZM160.764 92.352C162.816 92.352 164.184 93.684 164.184 96.384V102H161.88V97.176C161.88 95.034 161.322 94.44 160.116 94.44C158.784 94.44 157.56 95.934 157.56 98.13V102H155.256V92.496H157.56V93.09C157.56 93.666 157.452 94.008 157.272 94.386C157.2 94.548 157.092 94.8 157.326 94.854C157.47 94.89 157.524 94.782 157.596 94.638C158.028 93.684 159.108 92.352 160.764 92.352ZM176.883 92.352C178.935 92.352 180.303 93.684 180.303 96.384V102H177.999V97.176C177.999 95.034 177.441 94.44 176.235 94.44C174.903 94.44 173.679 95.934 173.679 98.13V102H171.375V89.04H173.679V93.09C173.679 93.666 173.571 94.008 173.391 94.386C173.319 94.548 173.211 94.8 173.445 94.854C173.589 94.89 173.643 94.782 173.715 94.638C174.147 93.684 175.227 92.352 176.883 92.352ZM181.452 99.39C181.452 97.284 183 96.51 184.908 96.402C186.6 96.312 188.094 96.474 188.076 95.592C188.058 94.944 187.806 94.224 186.168 94.224C184.548 94.224 184.134 94.89 184.008 95.664H181.74C182.064 93.27 184.116 92.352 186.24 92.352C188.418 92.352 190.38 93.072 190.38 96.744V102H188.076V101.334C188.076 100.902 188.184 100.596 188.346 100.29C188.418 100.128 188.49 99.948 188.328 99.876C188.148 99.804 188.076 99.984 188.04 100.074C187.5 101.388 186.456 102.144 184.764 102.144C182.982 102.144 181.452 100.992 181.452 99.39ZM188.076 97.104C187.536 97.698 186.672 97.788 185.304 97.932C184.314 98.04 183.756 98.418 183.756 99.264C183.756 100.056 184.512 100.56 185.574 100.416C186.798 100.254 188.058 99.462 188.076 97.104ZM191.541 98.796H193.809C193.827 99.498 194.241 100.344 195.915 100.344C197.391 100.344 197.877 99.84 197.877 99.21C197.877 98.508 196.941 98.4 195.123 98.184C192.207 97.824 191.829 96.312 191.829 95.25C191.829 93.702 193.197 92.352 195.897 92.352C198.399 92.352 199.767 93.684 199.893 95.412H197.625C197.571 94.818 197.175 94.152 195.843 94.152C194.529 94.152 194.133 94.584 194.133 95.124C194.133 95.574 194.331 95.952 196.185 96.132C198.507 96.366 200.181 97.122 200.181 99.03C200.181 101.01 198.651 102.144 195.843 102.144C193.089 102.144 191.631 100.83 191.541 98.796ZM209.398 89.04V92.856C209.398 93.234 209.308 93.522 209.146 93.846C209.074 94.026 208.948 94.242 209.128 94.332C209.308 94.422 209.416 94.188 209.452 94.116C210.028 93.108 210.982 92.352 212.458 92.352C214.924 92.352 216.598 94.512 216.598 97.248C216.598 99.984 214.924 102.144 212.458 102.144C211.018 102.144 210.028 101.406 209.452 100.362C209.416 100.308 209.344 100.128 209.182 100.182C208.984 100.254 209.056 100.434 209.146 100.614C209.308 100.938 209.398 101.226 209.398 101.586V102H207.094V89.04H209.398ZM211.918 100.056C213.538 100.056 214.294 98.76 214.294 97.248C214.294 95.736 213.538 94.44 211.918 94.44C210.406 94.44 209.398 95.736 209.398 97.248C209.398 98.76 210.406 100.056 211.918 100.056ZM226.826 97.122C226.826 97.374 226.808 97.554 226.772 97.824H219.86C220.022 99.264 220.958 100.128 222.398 100.128C223.496 100.128 224.054 99.534 224.324 98.688H226.664C226.25 100.65 224.918 102.144 222.38 102.144C219.302 102.144 217.61 100.074 217.61 97.248C217.61 94.278 219.446 92.352 222.344 92.352C224.54 92.352 226.826 93.666 226.826 97.122ZM219.95 96.24H224.522C224.432 95.088 223.748 94.224 222.416 94.224C220.85 94.224 220.184 95.106 219.95 96.24ZM236.968 97.122C236.968 97.374 236.95 97.554 236.914 97.824H230.002C230.164 99.264 231.1 100.128 232.54 100.128C233.638 100.128 234.196 99.534 234.466 98.688H236.806C236.392 100.65 235.06 102.144 232.522 102.144C229.444 102.144 227.752 100.074 227.752 97.248C227.752 94.278 229.588 92.352 232.486 92.352C234.682 92.352 236.968 93.666 236.968 97.122ZM230.092 96.24H234.664C234.574 95.088 233.89 94.224 232.558 94.224C230.992 94.224 230.326 95.106 230.092 96.24ZM243.627 92.352C245.679 92.352 247.047 93.684 247.047 96.384V102H244.743V97.176C244.743 95.034 244.185 94.44 242.979 94.44C241.647 94.44 240.423 95.934 240.423 98.13V102H238.119V92.496H240.423V93.09C240.423 93.666 240.315 94.008 240.135 94.386C240.063 94.548 239.955 94.8 240.189 94.854C240.333 94.89 240.387 94.782 240.459 94.638C240.891 93.684 241.971 92.352 243.627 92.352ZM253.662 97.248C253.662 94.422 255.516 92.352 258.468 92.352C261.132 92.352 262.716 94.152 262.878 96.096H260.61C260.466 95.196 259.764 94.44 258.468 94.44C256.884 94.44 255.966 95.592 255.966 97.248C255.966 98.904 256.884 100.056 258.468 100.056C259.764 100.056 260.466 99.3 260.61 98.4H262.878C262.716 100.344 261.15 102.144 258.468 102.144C255.57 102.144 253.662 100.074 253.662 97.248ZM266.153 94.53C266.261 94.548 266.351 94.404 266.369 94.35C266.945 93.036 267.467 92.352 269.789 92.352V94.692C267.107 94.512 266.333 95.466 266.333 97.878V102H264.029V92.496H266.333V93.018C266.333 93.432 266.225 93.792 266.063 94.116C265.991 94.278 265.937 94.494 266.153 94.53ZM279.296 97.122C279.296 97.374 279.278 97.554 279.242 97.824H272.33C272.492 99.264 273.428 100.128 274.868 100.128C275.966 100.128 276.524 99.534 276.794 98.688H279.134C278.72 100.65 277.388 102.144 274.85 102.144C271.772 102.144 270.08 100.074 270.08 97.248C270.08 94.278 271.916 92.352 274.814 92.352C277.01 92.352 279.296 93.666 279.296 97.122ZM272.42 96.24H276.992C276.902 95.088 276.218 94.224 274.886 94.224C273.32 94.224 272.654 95.106 272.42 96.24ZM280.153 99.39C280.153 97.284 281.701 96.51 283.609 96.402C285.301 96.312 286.795 96.474 286.777 95.592C286.759 94.944 286.507 94.224 284.869 94.224C283.249 94.224 282.835 94.89 282.709 95.664H280.441C280.765 93.27 282.817 92.352 284.941 92.352C287.119 92.352 289.081 93.072 289.081 96.744V102H286.777V101.334C286.777 100.902 286.885 100.596 287.047 100.29C287.119 100.128 287.191 99.948 287.029 99.876C286.849 99.804 286.777 99.984 286.741 100.074C286.201 101.388 285.157 102.144 283.465 102.144C281.683 102.144 280.153 100.992 280.153 99.39ZM286.777 97.104C286.237 97.698 285.373 97.788 284.005 97.932C283.015 98.04 282.457 98.418 282.457 99.264C282.457 100.056 283.213 100.56 284.275 100.416C285.499 100.254 286.759 99.462 286.777 97.104ZM296.42 94.512H293.828V98.85C293.828 99.894 293.846 99.984 294.818 99.984H296.42V102H294.332C292.424 102 291.524 101.37 291.524 99.084V94.512H289.796V92.496H291.524V89.904H293.828V92.496H296.42V94.512ZM306.349 97.122C306.349 97.374 306.331 97.554 306.295 97.824H299.383C299.545 99.264 300.481 100.128 301.921 100.128C303.019 100.128 303.577 99.534 303.847 98.688H306.187C305.773 100.65 304.441 102.144 301.903 102.144C298.825 102.144 297.133 100.074 297.133 97.248C297.133 94.278 298.969 92.352 301.867 92.352C304.063 92.352 306.349 93.666 306.349 97.122ZM299.473 96.24H304.045C303.955 95.088 303.271 94.224 301.939 94.224C300.373 94.224 299.707 95.106 299.473 96.24ZM314.546 89.04H316.85V102H314.546V101.586C314.546 101.226 314.636 100.938 314.798 100.614C314.888 100.434 314.96 100.254 314.762 100.182C314.6 100.128 314.528 100.308 314.492 100.362C313.826 101.352 312.926 102.144 311.486 102.144C309.02 102.144 307.346 99.984 307.346 97.248C307.346 94.512 309.02 92.352 311.486 92.352C312.962 92.352 313.97 93.072 314.492 94.116C314.528 94.188 314.636 94.422 314.816 94.332C314.996 94.242 314.888 94.026 314.798 93.846C314.636 93.522 314.546 93.234 314.546 92.856V89.04ZM312.026 100.056C313.538 100.056 314.546 98.76 314.546 97.248C314.546 95.736 313.538 94.44 312.026 94.44C310.406 94.44 309.65 95.736 309.65 97.248C309.65 98.76 310.406 100.056 312.026 100.056ZM319.017 89.328H321.321C321.321 95.34 321.321 95.538 320.889 98.256H319.449C319.017 95.538 319.017 95.34 319.017 89.328ZM318.873 102V99.408H321.465V102H318.873Z" fill="#101828"/>
<path d="M36.448 118.144H44.064V119.376H40.984V128H39.528V119.376H36.448V118.144ZM49.2496 120.72C50.9016 120.72 51.9096 121.644 51.9096 123.744V128H50.5656V124.024C50.5656 122.358 49.8516 121.896 48.9136 121.896C47.8776 121.896 46.7576 122.946 46.7576 124.654V128H45.4136V117.92H46.7576V121.308C46.7576 121.602 46.7296 121.896 46.6036 122.26C46.5616 122.386 46.5056 122.526 46.6176 122.554C46.7016 122.582 46.7436 122.484 46.7716 122.428C47.0516 121.728 47.9616 120.72 49.2496 120.72ZM53.032 125.998C53.032 124.36 54.236 123.856 55.608 123.758C56.896 123.66 58.198 123.814 58.184 123.072C58.17 122.484 57.834 121.896 56.364 121.896C55.104 121.896 54.67 122.372 54.572 123.072H53.256C53.508 121.434 54.768 120.72 56.42 120.72C58.03 120.72 59.528 121.28 59.528 123.912V128H58.184V127.314C58.184 127.048 58.212 126.838 58.338 126.474C58.366 126.348 58.422 126.236 58.324 126.194C58.212 126.152 58.184 126.264 58.156 126.334C57.75 127.398 56.798 128.112 55.496 128.112C54.138 128.112 53.032 127.216 53.032 125.998ZM58.184 124.136C57.75 124.668 56.784 124.682 55.692 124.836C54.824 124.962 54.376 125.27 54.376 125.928C54.376 126.502 54.852 127.034 56.014 126.88C57.106 126.74 58.17 125.942 58.184 124.136ZM64.9312 120.72C66.5832 120.72 67.5912 121.644 67.5912 123.744V128H66.2472V124.024C66.2472 122.358 65.5332 121.896 64.5952 121.896C63.5592 121.896 62.4392 122.946 62.4392 124.654V128H61.0952V120.832H62.4392V121.308C62.4392 121.602 62.4112 121.896 62.2852 122.26C62.2432 122.386 62.1872 122.526 62.2992 122.554C62.3832 122.582 62.4252 122.484 62.4532 122.428C62.7332 121.728 63.6432 120.72 64.9312 120.72ZM75.3243 128H73.7003L71.1523 124.752L70.3963 125.508V128H69.0523V117.92H70.3963V123.044C70.3963 123.534 70.3123 123.772 70.1023 124.066C70.0603 124.136 69.9763 124.234 70.0603 124.29C70.1443 124.346 70.2003 124.248 70.2563 124.192L73.3923 120.832H75.1003L71.9923 123.926L75.3243 128ZM79.8047 120.832H81.2607L83.1927 126.124C83.2907 126.376 83.3047 126.642 83.3047 126.88C83.3047 126.964 83.3047 127.062 83.4167 127.062C83.5287 127.062 83.5287 126.964 83.5287 126.88C83.5287 126.642 83.5707 126.376 83.6547 126.124L85.5167 120.832H86.9727L83.8647 128.854C83.3607 130.17 82.6607 130.688 81.3727 130.688H80.4487V129.512H81.0927C82.1567 129.512 82.3387 129.274 82.5487 128.756L82.7447 128.28L79.8047 120.832ZM90.67 120.72C92.84 120.72 94.142 122.386 94.142 124.416C94.142 126.446 92.84 128.112 90.67 128.112C88.5 128.112 87.198 126.446 87.198 124.416C87.198 122.386 88.5 120.72 90.67 120.72ZM90.67 126.88C92.014 126.88 92.798 125.774 92.798 124.416C92.798 123.058 92.014 121.952 90.67 121.952C89.326 121.952 88.542 123.058 88.542 124.416C88.542 125.774 89.326 126.88 90.67 126.88ZM97.916 128.112C96.264 128.112 95.256 127.188 95.256 125.088V120.832H96.6V124.808C96.6 126.474 97.314 126.936 98.252 126.936C99.288 126.936 100.408 125.886 100.408 124.178V120.832H101.752V128H100.408V127.524C100.408 127.23 100.436 126.936 100.562 126.572C100.604 126.446 100.66 126.32 100.548 126.278C100.464 126.25 100.422 126.348 100.394 126.404C100.058 127.076 99.204 128.112 97.916 128.112ZM110.775 119.096C109.991 119.096 109.823 119.348 109.823 120.16V120.832H111.839V122.008H109.823V128H108.479V122.008H107.359V120.832H108.479V120.02C108.479 118.466 109.179 117.92 110.663 117.92H111.839V119.096H110.775ZM115.758 120.72C117.928 120.72 119.23 122.386 119.23 124.416C119.23 126.446 117.928 128.112 115.758 128.112C113.588 128.112 112.286 126.446 112.286 124.416C112.286 122.386 113.588 120.72 115.758 120.72ZM115.758 126.88C117.102 126.88 117.886 125.774 117.886 124.416C117.886 123.058 117.102 121.952 115.758 121.952C114.414 121.952 113.63 123.058 113.63 124.416C113.63 125.774 114.414 126.88 115.758 126.88ZM121.581 122.498C121.651 122.512 121.693 122.442 121.721 122.372C122.169 121.224 122.575 120.72 124.381 120.72V122.092C122.295 121.952 121.693 122.694 121.693 124.57V128H120.349V120.832H121.693V121.308C121.693 121.602 121.665 121.826 121.539 122.246C121.511 122.358 121.469 122.47 121.581 122.498ZM129.311 120.832H130.767L132.699 126.124C132.797 126.376 132.811 126.642 132.811 126.88C132.811 126.964 132.811 127.062 132.923 127.062C133.035 127.062 133.035 126.964 133.035 126.88C133.035 126.642 133.077 126.376 133.161 126.124L135.023 120.832H136.479L133.371 128.854C132.867 130.17 132.167 130.688 130.879 130.688H129.955V129.512H130.599C131.663 129.512 131.845 129.274 132.055 128.756L132.251 128.28L129.311 120.832ZM140.176 120.72C142.346 120.72 143.648 122.386 143.648 124.416C143.648 126.446 142.346 128.112 140.176 128.112C138.006 128.112 136.704 126.446 136.704 124.416C136.704 122.386 138.006 120.72 140.176 120.72ZM140.176 126.88C141.52 126.88 142.304 125.774 142.304 124.416C142.304 123.058 141.52 121.952 140.176 121.952C138.832 121.952 138.048 123.058 138.048 124.416C138.048 125.774 138.832 126.88 140.176 126.88ZM147.422 128.112C145.77 128.112 144.762 127.188 144.762 125.088V120.832H146.106V124.808C146.106 126.474 146.82 126.936 147.758 126.936C148.794 126.936 149.914 125.886 149.914 124.178V120.832H151.258V128H149.914V127.524C149.914 127.23 149.942 126.936 150.068 126.572C150.11 126.446 150.166 126.32 150.054 126.278C149.97 126.25 149.928 126.348 149.9 126.404C149.564 127.076 148.71 128.112 147.422 128.112ZM154.175 122.498C154.245 122.512 154.287 122.442 154.315 122.372C154.763 121.224 155.169 120.72 156.975 120.72V122.092C154.889 121.952 154.287 122.694 154.287 124.57V128H152.943V120.832H154.287V121.308C154.287 121.602 154.259 121.826 154.133 122.246C154.105 122.358 154.063 122.47 154.175 122.498ZM167.952 117.92H169.296V128H167.952V127.398C167.952 127.146 167.98 126.95 168.092 126.642C168.134 126.53 168.204 126.404 168.064 126.362C167.98 126.334 167.938 126.446 167.924 126.488C167.588 127.496 166.636 128.112 165.516 128.112C163.654 128.112 162.352 126.544 162.352 124.416C162.352 122.288 163.654 120.72 165.516 120.72C166.664 120.72 167.602 121.35 167.924 122.316C167.938 122.358 167.98 122.498 168.092 122.456C168.218 122.414 168.134 122.274 168.092 122.162C167.98 121.868 167.952 121.658 167.952 121.392V117.92ZM165.796 126.88C167.07 126.88 167.952 125.746 167.952 124.416C167.952 123.086 167.07 121.952 165.796 121.952C164.396 121.952 163.696 123.086 163.696 124.416C163.696 125.746 164.396 126.88 165.796 126.88ZM173.891 120.72C176.061 120.72 177.363 122.386 177.363 124.416C177.363 126.446 176.061 128.112 173.891 128.112C171.721 128.112 170.419 126.446 170.419 124.416C170.419 122.386 171.721 120.72 173.891 120.72ZM173.891 126.88C175.235 126.88 176.019 125.774 176.019 124.416C176.019 123.058 175.235 121.952 173.891 121.952C172.547 121.952 171.763 123.058 171.763 124.416C171.763 125.774 172.547 126.88 173.891 126.88ZM182.318 120.72C183.97 120.72 184.978 121.644 184.978 123.744V128H183.634V124.024C183.634 122.358 182.92 121.896 181.982 121.896C180.946 121.896 179.826 122.946 179.826 124.654V128H178.482V120.832H179.826V121.308C179.826 121.602 179.798 121.896 179.672 122.26C179.63 122.386 179.574 122.526 179.686 122.554C179.77 122.582 179.812 122.484 179.84 122.428C180.12 121.728 181.03 120.72 182.318 120.72ZM186.1 125.998C186.1 124.36 187.304 123.856 188.676 123.758C189.964 123.66 191.266 123.814 191.252 123.072C191.238 122.484 190.902 121.896 189.432 121.896C188.172 121.896 187.738 122.372 187.64 123.072H186.324C186.576 121.434 187.836 120.72 189.488 120.72C191.098 120.72 192.596 121.28 192.596 123.912V128H191.252V127.314C191.252 127.048 191.28 126.838 191.406 126.474C191.434 126.348 191.49 126.236 191.392 126.194C191.28 126.152 191.252 126.264 191.224 126.334C190.818 127.398 189.866 128.112 188.564 128.112C187.206 128.112 186.1 127.216 186.1 125.998ZM191.252 124.136C190.818 124.668 189.852 124.682 188.76 124.836C187.892 124.962 187.444 125.27 187.444 125.928C187.444 126.502 187.92 127.034 189.082 126.88C190.174 126.74 191.238 125.942 191.252 124.136ZM197.963 122.008H195.947V125.76C195.947 126.572 196.115 126.824 196.899 126.824H197.963V128H196.787C195.303 128 194.603 127.454 194.603 125.9V122.008H193.259V120.832H194.603V118.816H195.947V120.832H197.963V122.008ZM199.371 119.488V117.92H200.827V119.488H199.371ZM199.427 128V120.832H200.771V128H199.427ZM205.363 120.72C207.533 120.72 208.835 122.386 208.835 124.416C208.835 126.446 207.533 128.112 205.363 128.112C203.193 128.112 201.891 126.446 201.891 124.416C201.891 122.386 203.193 120.72 205.363 120.72ZM205.363 126.88C206.707 126.88 207.491 125.774 207.491 124.416C207.491 123.058 206.707 121.952 205.363 121.952C204.019 121.952 203.235 123.058 203.235 124.416C203.235 125.774 204.019 126.88 205.363 126.88ZM213.791 120.72C215.443 120.72 216.451 121.644 216.451 123.744V128H215.107V124.024C215.107 122.358 214.393 121.896 213.455 121.896C212.419 121.896 211.299 122.946 211.299 124.654V128H209.955V120.832H211.299V121.308C211.299 121.602 211.271 121.896 211.145 122.26C211.103 122.386 211.047 122.526 211.159 122.554C211.243 122.582 211.285 122.484 211.313 122.428C211.593 121.728 212.503 120.72 213.791 120.72ZM218.245 118.144H219.589C219.589 122.89 219.589 123.044 219.365 125.088H218.469C218.245 123.044 218.245 122.89 218.245 118.144ZM218.021 128V126.208H219.813V128H218.021ZM225.191 118.144H226.871L229.279 122.246C229.363 122.386 229.419 122.582 229.447 122.764C229.461 122.848 229.475 122.904 229.559 122.904C229.643 122.904 229.657 122.848 229.671 122.764C229.699 122.582 229.755 122.386 229.839 122.246L232.247 118.144H233.927L230.287 124.024V128H228.831V124.024L225.191 118.144ZM236.945 120.72C239.115 120.72 240.417 122.386 240.417 124.416C240.417 126.446 239.115 128.112 236.945 128.112C234.775 128.112 233.473 126.446 233.473 124.416C233.473 122.386 234.775 120.72 236.945 120.72ZM236.945 126.88C238.289 126.88 239.073 125.774 239.073 124.416C239.073 123.058 238.289 121.952 236.945 121.952C235.601 121.952 234.817 123.058 234.817 124.416C234.817 125.774 235.601 126.88 236.945 126.88ZM244.191 128.112C242.539 128.112 241.531 127.188 241.531 125.088V120.832H242.875V124.808C242.875 126.474 243.589 126.936 244.527 126.936C245.563 126.936 246.683 125.886 246.683 124.178V120.832H248.027V128H246.683V127.524C246.683 127.23 246.711 126.936 246.837 126.572C246.879 126.446 246.935 126.32 246.823 126.278C246.739 126.25 246.697 126.348 246.669 126.404C246.333 127.076 245.479 128.112 244.191 128.112ZM250.944 122.498C251.014 122.512 251.056 122.442 251.084 122.372C251.532 121.224 251.938 120.72 253.744 120.72V122.092C251.658 121.952 251.056 122.694 251.056 124.57V128H249.712V120.832H251.056V121.308C251.056 121.602 251.028 121.826 250.902 122.246C250.874 122.358 250.832 122.47 250.944 122.498ZM259.122 124.36C259.122 122.218 260.424 120.72 262.286 120.72C263.434 120.72 264.246 121.336 264.694 122.246C264.708 122.288 264.764 122.428 264.848 122.4C264.988 122.358 264.89 122.204 264.848 122.078C264.75 121.826 264.722 121.644 264.722 121.308V120.832H266.066V127.356C266.066 129.68 264.652 130.8 262.636 130.8C260.522 130.8 259.472 129.722 259.346 128.448H260.69C260.774 129.022 261.082 129.736 262.622 129.736C263.98 129.736 264.722 128.938 264.722 127.356C264.722 127.048 264.75 126.852 264.848 126.614C264.904 126.488 264.974 126.362 264.848 126.32C264.75 126.292 264.708 126.404 264.694 126.446C264.232 127.412 263.406 128 262.286 128C260.424 128 259.122 126.502 259.122 124.36ZM262.594 126.768C263.868 126.768 264.722 125.718 264.722 124.36C264.722 123.002 263.868 121.952 262.594 121.952C261.208 121.952 260.466 123.002 260.466 124.36C260.466 125.718 261.208 126.768 262.594 126.768ZM273.908 124.318C273.908 124.514 273.894 124.654 273.866 124.808H268.518C268.616 125.956 269.4 126.88 270.702 126.88C271.668 126.88 272.144 126.404 272.396 125.578H273.782C273.488 126.908 272.508 128.112 270.674 128.112C268.42 128.112 267.188 126.446 267.188 124.416C267.188 122.26 268.588 120.72 270.646 120.72C272.242 120.72 273.908 121.77 273.908 124.318ZM268.588 123.688H272.564C272.48 122.638 271.808 121.896 270.716 121.896C269.372 121.896 268.784 122.722 268.588 123.688ZM278.869 120.72C280.521 120.72 281.529 121.644 281.529 123.744V128H280.185V124.024C280.185 122.358 279.471 121.896 278.533 121.896C277.497 121.896 276.377 122.946 276.377 124.654V128H275.033V120.832H276.377V121.308C276.377 121.602 276.349 121.896 276.223 122.26C276.181 122.386 276.125 122.526 276.237 122.554C276.321 122.582 276.363 122.484 276.391 122.428C276.671 121.728 277.581 120.72 278.869 120.72ZM289.371 124.318C289.371 124.514 289.357 124.654 289.329 124.808H283.981C284.079 125.956 284.863 126.88 286.165 126.88C287.131 126.88 287.607 126.404 287.859 125.578H289.245C288.951 126.908 287.971 128.112 286.137 128.112C283.883 128.112 282.651 126.446 282.651 124.416C282.651 122.26 284.051 120.72 286.109 120.72C287.705 120.72 289.371 121.77 289.371 124.318ZM284.051 123.688H288.027C287.943 122.638 287.271 121.896 286.179 121.896C284.835 121.896 284.247 122.722 284.051 123.688ZM291.728 122.498C291.798 122.512 291.84 122.442 291.868 122.372C292.316 121.224 292.722 120.72 294.528 120.72V122.092C292.442 121.952 291.84 122.694 291.84 124.57V128H290.496V120.832H291.84V121.308C291.84 121.602 291.812 121.826 291.686 122.246C291.658 122.358 291.616 122.47 291.728 122.498ZM298.223 120.72C300.393 120.72 301.695 122.386 301.695 124.416C301.695 126.446 300.393 128.112 298.223 128.112C296.053 128.112 294.751 126.446 294.751 124.416C294.751 122.386 296.053 120.72 298.223 120.72ZM298.223 126.88C299.567 126.88 300.351 125.774 300.351 124.416C300.351 123.058 299.567 121.952 298.223 121.952C296.879 121.952 296.095 123.058 296.095 124.416C296.095 125.774 296.879 126.88 298.223 126.88ZM302.585 125.508H303.901C303.915 126.054 304.363 126.936 305.763 126.936C307.135 126.936 307.513 126.39 307.513 125.928C307.513 125.284 306.911 125.088 305.273 124.92C303.397 124.724 302.809 123.87 302.809 122.932C302.809 121.854 303.789 120.72 305.749 120.72C307.555 120.72 308.535 121.756 308.633 123.1H307.317C307.275 122.638 306.967 121.896 305.707 121.896C304.573 121.896 304.153 122.358 304.153 122.834C304.153 123.296 304.419 123.604 305.973 123.772C307.905 123.982 308.857 124.542 308.857 125.718C308.857 127.174 307.667 128.112 305.707 128.112C303.761 128.112 302.655 127.09 302.585 125.508ZM310.031 119.488V117.92H311.487V119.488H310.031ZM310.087 128V120.832H311.431V128H310.087ZM317.032 122.008H315.016V125.76C315.016 126.572 315.184 126.824 315.968 126.824H317.032V128H315.856C314.372 128 313.672 127.454 313.672 125.9V122.008H312.328V120.832H313.672V118.816H315.016V120.832H317.032V122.008ZM317.709 120.832H319.165L321.097 126.124C321.195 126.376 321.209 126.642 321.209 126.88C321.209 126.964 321.209 127.062 321.321 127.062C321.433 127.062 321.433 126.964 321.433 126.88C321.433 126.642 321.475 126.376 321.559 126.124L323.421 120.832H324.877L321.769 128.854C321.265 130.17 320.565 130.688 319.277 130.688H318.353V129.512H318.997C320.061 129.512 320.243 129.274 320.453 128.756L320.649 128.28L317.709 120.832ZM39.64 139.096C38.856 139.096 38.688 139.348 38.688 140.16V140.832H40.704V142.008H38.688V148H37.344V142.008H36.224V140.832H37.344V140.02C37.344 138.466 38.044 137.92 39.528 137.92H40.704V139.096H39.64ZM44.2675 148.112C42.6155 148.112 41.6075 147.188 41.6075 145.088V140.832H42.9515V144.808C42.9515 146.474 43.6655 146.936 44.6035 146.936C45.6395 146.936 46.7595 145.886 46.7595 144.178V140.832H48.1035V148H46.7595V147.524C46.7595 147.23 46.7875 146.936 46.9135 146.572C46.9555 146.446 47.0115 146.32 46.8995 146.278C46.8155 146.25 46.7735 146.348 46.7455 146.404C46.4095 147.076 45.5555 148.112 44.2675 148.112ZM55.9512 144.318C55.9512 144.514 55.9372 144.654 55.9092 144.808H50.5612C50.6592 145.956 51.4432 146.88 52.7452 146.88C53.7112 146.88 54.1872 146.404 54.4392 145.578H55.8252C55.5312 146.908 54.5512 148.112 52.7172 148.112C50.4632 148.112 49.2312 146.446 49.2312 144.416C49.2312 142.26 50.6312 140.72 52.6892 140.72C54.2852 140.72 55.9512 141.77 55.9512 144.318ZM50.6312 143.688H54.6072C54.5232 142.638 53.8512 141.896 52.7592 141.896C51.4152 141.896 50.8272 142.722 50.6312 143.688ZM57.0757 137.92H58.4197V148H57.0757V137.92ZM59.6492 145.508H60.9652C60.9792 146.054 61.4272 146.936 62.8272 146.936C64.1992 146.936 64.5772 146.39 64.5772 145.928C64.5772 145.284 63.9752 145.088 62.3372 144.92C60.4612 144.724 59.8732 143.87 59.8732 142.932C59.8732 141.854 60.8532 140.72 62.8132 140.72C64.6192 140.72 65.5992 141.756 65.6972 143.1H64.3812C64.3392 142.638 64.0312 141.896 62.7712 141.896C61.6372 141.896 61.2172 142.358 61.2172 142.834C61.2172 143.296 61.4832 143.604 63.0372 143.772C64.9692 143.982 65.9212 144.542 65.9212 145.718C65.9212 147.174 64.7312 148.112 62.7712 148.112C60.8252 148.112 59.7192 147.09 59.6492 145.508ZM74.7696 140.72C76.9396 140.72 78.2416 142.386 78.2416 144.416C78.2416 146.446 76.9396 148.112 74.7696 148.112C72.5996 148.112 71.2976 146.446 71.2976 144.416C71.2976 142.386 72.5996 140.72 74.7696 140.72ZM74.7696 146.88C76.1136 146.88 76.8976 145.774 76.8976 144.416C76.8976 143.058 76.1136 141.952 74.7696 141.952C73.4256 141.952 72.6416 143.058 72.6416 144.416C72.6416 145.774 73.4256 146.88 74.7696 146.88ZM82.0156 148.112C80.3636 148.112 79.3556 147.188 79.3556 145.088V140.832H80.6996V144.808C80.6996 146.474 81.4136 146.936 82.3516 146.936C83.3876 146.936 84.5076 145.886 84.5076 144.178V140.832H85.8516V148H84.5076V147.524C84.5076 147.23 84.5356 146.936 84.6616 146.572C84.7036 146.446 84.7596 146.32 84.6476 146.278C84.5636 146.25 84.5216 146.348 84.4936 146.404C84.1576 147.076 83.3036 148.112 82.0156 148.112ZM88.7686 142.498C88.8386 142.512 88.8806 142.442 88.9086 142.372C89.3566 141.224 89.7626 140.72 91.5686 140.72V142.092C89.4826 141.952 88.8806 142.694 88.8806 144.57V148H87.5366V140.832H88.8806V141.308C88.8806 141.602 88.8526 141.826 88.7266 142.246C88.6986 142.358 88.6566 142.47 88.7686 142.498ZM105.038 140.72C106.382 140.72 107.474 141.42 107.474 143.632V148H106.13V143.464C106.13 142.344 105.584 141.896 104.716 141.896C103.932 141.896 103.106 142.624 103.106 143.94V148H101.762V143.632C101.762 142.512 101.384 141.896 100.474 141.896C99.606 141.896 98.738 142.82 98.738 144.248V148H97.394V140.832H98.738V141.308C98.738 141.574 98.71 141.812 98.584 142.218C98.556 142.33 98.514 142.428 98.612 142.456C98.71 142.484 98.752 142.4 98.766 142.344C99.116 141.364 99.942 140.72 100.922 140.72C101.832 140.72 102.546 141.364 102.756 142.246C102.77 142.316 102.812 142.358 102.896 142.358C102.994 142.358 103.022 142.316 103.05 142.246C103.428 141.266 104.156 140.72 105.038 140.72ZM108.877 139.488V137.92H110.333V139.488H108.877ZM108.933 148V140.832H110.277V148H108.933ZM111.507 145.508H112.823C112.837 146.054 113.285 146.936 114.685 146.936C116.057 146.936 116.435 146.39 116.435 145.928C116.435 145.284 115.833 145.088 114.195 144.92C112.319 144.724 111.731 143.87 111.731 142.932C111.731 141.854 112.711 140.72 114.671 140.72C116.477 140.72 117.457 141.756 117.555 143.1H116.239C116.197 142.638 115.889 141.896 114.629 141.896C113.495 141.896 113.075 142.358 113.075 142.834C113.075 143.296 113.341 143.604 114.895 143.772C116.827 143.982 117.779 144.542 117.779 145.718C117.779 147.174 116.589 148.112 114.629 148.112C112.683 148.112 111.577 147.09 111.507 145.508ZM118.671 145.508H119.987C120.001 146.054 120.449 146.936 121.849 146.936C123.221 146.936 123.599 146.39 123.599 145.928C123.599 145.284 122.997 145.088 121.359 144.92C119.483 144.724 118.895 143.87 118.895 142.932C118.895 141.854 119.875 140.72 121.835 140.72C123.641 140.72 124.621 141.756 124.719 143.1H123.403C123.361 142.638 123.053 141.896 121.793 141.896C120.659 141.896 120.239 142.358 120.239 142.834C120.239 143.296 120.505 143.604 122.059 143.772C123.991 143.982 124.943 144.542 124.943 145.718C124.943 147.174 123.753 148.112 121.793 148.112C119.847 148.112 118.741 147.09 118.671 145.508ZM126.117 139.488V137.92H127.573V139.488H126.117ZM126.173 148V140.832H127.517V148H126.173ZM132.109 140.72C134.279 140.72 135.581 142.386 135.581 144.416C135.581 146.446 134.279 148.112 132.109 148.112C129.939 148.112 128.637 146.446 128.637 144.416C128.637 142.386 129.939 140.72 132.109 140.72ZM132.109 146.88C133.453 146.88 134.237 145.774 134.237 144.416C134.237 143.058 133.453 141.952 132.109 141.952C130.765 141.952 129.981 143.058 129.981 144.416C129.981 145.774 130.765 146.88 132.109 146.88ZM140.537 140.72C142.189 140.72 143.197 141.644 143.197 143.744V148H141.853V144.024C141.853 142.358 141.139 141.896 140.201 141.896C139.165 141.896 138.045 142.946 138.045 144.654V148H136.701V140.832H138.045V141.308C138.045 141.602 138.017 141.896 137.891 142.26C137.849 142.386 137.793 142.526 137.905 142.554C137.989 142.582 138.031 142.484 138.059 142.428C138.339 141.728 139.249 140.72 140.537 140.72ZM148.803 145.998C148.803 144.36 150.007 143.856 151.379 143.758C152.667 143.66 153.969 143.814 153.955 143.072C153.941 142.484 153.605 141.896 152.135 141.896C150.875 141.896 150.441 142.372 150.343 143.072H149.027C149.279 141.434 150.539 140.72 152.191 140.72C153.801 140.72 155.299 141.28 155.299 143.912V148H153.955V147.314C153.955 147.048 153.983 146.838 154.109 146.474C154.137 146.348 154.193 146.236 154.095 146.194C153.983 146.152 153.955 146.264 153.927 146.334C153.521 147.398 152.569 148.112 151.267 148.112C149.909 148.112 148.803 147.216 148.803 145.998ZM153.955 144.136C153.521 144.668 152.555 144.682 151.463 144.836C150.595 144.962 150.147 145.27 150.147 145.928C150.147 146.502 150.623 147.034 151.785 146.88C152.877 146.74 153.941 145.942 153.955 144.136ZM160.703 140.72C162.355 140.72 163.363 141.644 163.363 143.744V148H162.019V144.024C162.019 142.358 161.305 141.896 160.367 141.896C159.331 141.896 158.211 142.946 158.211 144.654V148H156.867V140.832H158.211V141.308C158.211 141.602 158.183 141.896 158.057 142.26C158.015 142.386 157.959 142.526 158.071 142.554C158.155 142.582 158.197 142.484 158.225 142.428C158.505 141.728 159.415 140.72 160.703 140.72ZM170.085 137.92H171.429V148H170.085V147.398C170.085 147.146 170.113 146.95 170.225 146.642C170.267 146.53 170.337 146.404 170.197 146.362C170.113 146.334 170.071 146.446 170.057 146.488C169.721 147.496 168.769 148.112 167.649 148.112C165.787 148.112 164.485 146.544 164.485 144.416C164.485 142.288 165.787 140.72 167.649 140.72C168.797 140.72 169.735 141.35 170.057 142.316C170.071 142.358 170.113 142.498 170.225 142.456C170.351 142.414 170.267 142.274 170.225 142.162C170.113 141.868 170.085 141.658 170.085 141.392V137.92ZM167.929 146.88C169.203 146.88 170.085 145.746 170.085 144.416C170.085 143.086 169.203 141.952 167.929 141.952C166.529 141.952 165.829 143.086 165.829 144.416C165.829 145.746 166.529 146.88 167.929 146.88ZM177.647 139.488V137.92H179.103V139.488H177.647ZM177.703 148V140.832H179.047V148H177.703ZM180.276 145.508H181.592C181.606 146.054 182.054 146.936 183.454 146.936C184.826 146.936 185.204 146.39 185.204 145.928C185.204 145.284 184.602 145.088 182.964 144.92C181.088 144.724 180.5 143.87 180.5 142.932C180.5 141.854 181.48 140.72 183.44 140.72C185.246 140.72 186.226 141.756 186.324 143.1H185.008C184.966 142.638 184.658 141.896 183.398 141.896C182.264 141.896 181.844 142.358 181.844 142.834C181.844 143.296 182.11 143.604 183.664 143.772C185.596 143.982 186.548 144.542 186.548 145.718C186.548 147.174 185.358 148.112 183.398 148.112C181.452 148.112 180.346 147.09 180.276 145.508ZM191.925 144.36C191.925 142.218 193.227 140.72 195.089 140.72C196.237 140.72 197.049 141.336 197.497 142.246C197.511 142.288 197.567 142.428 197.651 142.4C197.791 142.358 197.693 142.204 197.651 142.078C197.553 141.826 197.525 141.644 197.525 141.308V140.832H198.869V147.356C198.869 149.68 197.455 150.8 195.439 150.8C193.325 150.8 192.275 149.722 192.149 148.448H193.493C193.577 149.022 193.885 149.736 195.425 149.736C196.783 149.736 197.525 148.938 197.525 147.356C197.525 147.048 197.553 146.852 197.651 146.614C197.707 146.488 197.777 146.362 197.651 146.32C197.553 146.292 197.511 146.404 197.497 146.446C197.035 147.412 196.209 148 195.089 148C193.227 148 191.925 146.502 191.925 144.36ZM195.397 146.768C196.671 146.768 197.525 145.718 197.525 144.36C197.525 143.002 196.671 141.952 195.397 141.952C194.011 141.952 193.269 143.002 193.269 144.36C193.269 145.718 194.011 146.768 195.397 146.768ZM201.78 142.498C201.85 142.512 201.892 142.442 201.92 142.372C202.368 141.224 202.774 140.72 204.58 140.72V142.092C202.494 141.952 201.892 142.694 201.892 144.57V148H200.548V140.832H201.892V141.308C201.892 141.602 201.864 141.826 201.738 142.246C201.71 142.358 201.668 142.47 201.78 142.498ZM211.523 144.318C211.523 144.514 211.509 144.654 211.481 144.808H206.133C206.231 145.956 207.015 146.88 208.317 146.88C209.283 146.88 209.759 146.404 210.011 145.578H211.397C211.103 146.908 210.123 148.112 208.289 148.112C206.035 148.112 204.803 146.446 204.803 144.416C204.803 142.26 206.203 140.72 208.261 140.72C209.857 140.72 211.523 141.77 211.523 144.318ZM206.203 143.688H210.179C210.095 142.638 209.423 141.896 208.331 141.896C206.987 141.896 206.399 142.722 206.203 143.688ZM212.419 145.998C212.419 144.36 213.623 143.856 214.995 143.758C216.283 143.66 217.585 143.814 217.571 143.072C217.557 142.484 217.221 141.896 215.751 141.896C214.491 141.896 214.057 142.372 213.959 143.072H212.643C212.895 141.434 214.155 140.72 215.807 140.72C217.417 140.72 218.915 141.28 218.915 143.912V148H217.571V147.314C217.571 147.048 217.599 146.838 217.725 146.474C217.753 146.348 217.809 146.236 217.711 146.194C217.599 146.152 217.571 146.264 217.543 146.334C217.137 147.398 216.185 148.112 214.883 148.112C213.525 148.112 212.419 147.216 212.419 145.998ZM217.571 144.136C217.137 144.668 216.171 144.682 215.079 144.836C214.211 144.962 213.763 145.27 213.763 145.928C213.763 146.502 214.239 147.034 215.401 146.88C216.493 146.74 217.557 145.942 217.571 144.136ZM224.282 142.008H222.266V145.76C222.266 146.572 222.434 146.824 223.218 146.824H224.282V148H223.106C221.622 148 220.922 147.454 220.922 145.9V142.008H219.578V140.832H220.922V138.816H222.266V140.832H224.282V142.008ZM225.746 137.92H227.09V148H225.746V137.92ZM227.871 140.832H229.327L231.259 146.124C231.357 146.376 231.371 146.642 231.371 146.88C231.371 146.964 231.371 147.062 231.483 147.062C231.595 147.062 231.595 146.964 231.595 146.88C231.595 146.642 231.637 146.376 231.721 146.124L233.583 140.832H235.039L231.931 148.854C231.427 150.17 230.727 150.688 229.439 150.688H228.515V149.512H229.159C230.223 149.512 230.405 149.274 230.615 148.756L230.811 148.28L227.871 140.832ZM239.968 145.998C239.968 144.36 241.172 143.856 242.544 143.758C243.832 143.66 245.134 143.814 245.12 143.072C245.106 142.484 244.77 141.896 243.3 141.896C242.04 141.896 241.606 142.372 241.508 143.072H240.192C240.444 141.434 241.704 140.72 243.356 140.72C244.966 140.72 246.464 141.28 246.464 143.912V148H245.12V147.314C245.12 147.048 245.148 146.838 245.274 146.474C245.302 146.348 245.358 146.236 245.26 146.194C245.148 146.152 245.12 146.264 245.092 146.334C244.686 147.398 243.734 148.112 242.432 148.112C241.074 148.112 239.968 147.216 239.968 145.998ZM245.12 144.136C244.686 144.668 243.72 144.682 242.628 144.836C241.76 144.962 241.312 145.27 241.312 145.928C241.312 146.502 241.788 147.034 242.95 146.88C244.042 146.74 245.106 145.942 245.12 144.136ZM249.375 140.832V141.392C249.375 141.658 249.333 141.868 249.235 142.162C249.193 142.274 249.109 142.414 249.235 142.456C249.347 142.498 249.389 142.358 249.403 142.316C249.823 141.392 250.663 140.72 251.811 140.72C253.673 140.72 254.975 142.288 254.975 144.416C254.975 146.544 253.673 148.112 251.811 148.112C250.691 148.112 249.837 147.454 249.403 146.488C249.389 146.446 249.347 146.334 249.263 146.362C249.123 146.404 249.193 146.53 249.235 146.642C249.333 146.95 249.375 147.146 249.375 147.398V150.688H248.031V140.832H249.375ZM251.531 146.88C252.931 146.88 253.631 145.746 253.631 144.416C253.631 143.086 252.931 141.952 251.531 141.952C250.257 141.952 249.375 143.086 249.375 144.416C249.375 145.746 250.257 146.88 251.531 146.88ZM257.551 140.832V141.392C257.551 141.658 257.509 141.868 257.411 142.162C257.369 142.274 257.285 142.414 257.411 142.456C257.523 142.498 257.565 142.358 257.579 142.316C257.999 141.392 258.839 140.72 259.987 140.72C261.849 140.72 263.151 142.288 263.151 144.416C263.151 146.544 261.849 148.112 259.987 148.112C258.867 148.112 258.013 147.454 257.579 146.488C257.565 146.446 257.523 146.334 257.439 146.362C257.299 146.404 257.369 146.53 257.411 146.642C257.509 146.95 257.551 147.146 257.551 147.398V150.688H256.207V140.832H257.551ZM259.707 146.88C261.107 146.88 261.807 145.746 261.807 144.416C261.807 143.086 261.107 141.952 259.707 141.952C258.433 141.952 257.551 143.086 257.551 144.416C257.551 145.746 258.433 146.88 259.707 146.88ZM265.614 142.498C265.684 142.512 265.726 142.442 265.754 142.372C266.202 141.224 266.608 140.72 268.414 140.72V142.092C266.328 141.952 265.726 142.694 265.726 144.57V148H264.382V140.832H265.726V141.308C265.726 141.602 265.698 141.826 265.572 142.246C265.544 142.358 265.502 142.47 265.614 142.498ZM275.357 144.318C275.357 144.514 275.343 144.654 275.315 144.808H269.967C270.065 145.956 270.849 146.88 272.151 146.88C273.117 146.88 273.593 146.404 273.845 145.578H275.231C274.937 146.908 273.957 148.112 272.123 148.112C269.869 148.112 268.637 146.446 268.637 144.416C268.637 142.26 270.037 140.72 272.095 140.72C273.691 140.72 275.357 141.77 275.357 144.318ZM270.037 143.688H274.013C273.929 142.638 273.257 141.896 272.165 141.896C270.821 141.896 270.233 142.722 270.037 143.688ZM276.253 144.416C276.253 142.386 277.527 140.72 279.767 140.72C281.727 140.72 282.847 142.05 282.973 143.52H281.657C281.531 142.708 280.915 141.952 279.781 141.952C278.409 141.952 277.597 143.086 277.597 144.416C277.597 145.746 278.409 146.88 279.781 146.88C280.915 146.88 281.531 146.124 281.657 145.312H282.973C282.847 146.782 281.741 148.112 279.767 148.112C277.569 148.112 276.253 146.446 276.253 144.416ZM284.041 139.488V137.92H285.497V139.488H284.041ZM284.097 148V140.832H285.441V148H284.097ZM286.671 145.998C286.671 144.36 287.875 143.856 289.247 143.758C290.535 143.66 291.837 143.814 291.823 143.072C291.809 142.484 291.473 141.896 290.003 141.896C288.743 141.896 288.309 142.372 288.211 143.072H286.895C287.147 141.434 288.407 140.72 290.059 140.72C291.669 140.72 293.167 141.28 293.167 143.912V148H291.823V147.314C291.823 147.048 291.851 146.838 291.977 146.474C292.005 146.348 292.061 146.236 291.963 146.194C291.851 146.152 291.823 146.264 291.795 146.334C291.389 147.398 290.437 148.112 289.135 148.112C287.777 148.112 286.671 147.216 286.671 145.998ZM291.823 144.136C291.389 144.668 290.423 144.682 289.331 144.836C288.463 144.962 288.015 145.27 288.015 145.928C288.015 146.502 288.491 147.034 289.653 146.88C290.745 146.74 291.809 145.942 291.823 144.136ZM298.533 142.008H296.517V145.76C296.517 146.572 296.685 146.824 297.469 146.824H298.533V148H297.357C295.873 148 295.173 147.454 295.173 145.9V142.008H293.829V140.832H295.173V138.816H296.517V140.832H298.533V142.008ZM305.928 144.318C305.928 144.514 305.914 144.654 305.886 144.808H300.538C300.636 145.956 301.42 146.88 302.722 146.88C303.688 146.88 304.164 146.404 304.416 145.578H305.802C305.508 146.908 304.528 148.112 302.694 148.112C300.44 148.112 299.208 146.446 299.208 144.416C299.208 142.26 300.608 140.72 302.666 140.72C304.262 140.72 305.928 141.77 305.928 144.318ZM300.608 143.688H304.584C304.5 142.638 303.828 141.896 302.736 141.896C301.392 141.896 300.804 142.722 300.608 143.688ZM312.478 137.92H313.822V148H312.478V147.398C312.478 147.146 312.506 146.95 312.618 146.642C312.66 146.53 312.73 146.404 312.59 146.362C312.506 146.334 312.464 146.446 312.45 146.488C312.114 147.496 311.162 148.112 310.042 148.112C308.18 148.112 306.878 146.544 306.878 144.416C306.878 142.288 308.18 140.72 310.042 140.72C311.19 140.72 312.128 141.35 312.45 142.316C312.464 142.358 312.506 142.498 312.618 142.456C312.744 142.414 312.66 142.274 312.618 142.162C312.506 141.868 312.478 141.658 312.478 141.392V137.92ZM310.322 146.88C311.596 146.88 312.478 145.746 312.478 144.416C312.478 143.086 311.596 141.952 310.322 141.952C308.922 141.952 308.222 143.086 308.222 144.416C308.222 145.746 308.922 146.88 310.322 146.88ZM315.387 146.208H317.179V148H315.387V146.208Z" fill="#475467"/>
<path d="M335 28L323 40M323 28L335 40" stroke="#98A2B3" stroke-width="2" stroke-linecap="round" stroke-linejoin="round"/>
<g filter="url(#filter1_d_8598_8746)">
<path d="M36 184C36 179.582 39.5817 176 44 176H339C343.418 176 347 179.582 347 184V212C347 216.418 343.418 220 339 220H44C39.5817 220 36 216.418 36 212V184Z" fill="#00B964"/>
<path d="M145.591 204H141.648V192.364H145.67C146.826 192.364 147.818 192.597 148.648 193.062C149.481 193.525 150.121 194.189 150.568 195.057C151.015 195.924 151.239 196.962 151.239 198.17C151.239 199.383 151.013 200.424 150.562 201.295C150.116 202.167 149.47 202.835 148.625 203.301C147.784 203.767 146.773 204 145.591 204ZM143.756 202.176H145.489C146.299 202.176 146.975 202.028 147.517 201.733C148.059 201.434 148.466 200.989 148.739 200.398C149.011 199.803 149.148 199.061 149.148 198.17C149.148 197.28 149.011 196.542 148.739 195.955C148.466 195.364 148.063 194.922 147.528 194.631C146.998 194.335 146.339 194.188 145.551 194.188H143.756V202.176ZM156.957 204.17C156.105 204.17 155.366 203.983 154.741 203.608C154.116 203.233 153.632 202.708 153.287 202.034C152.946 201.36 152.776 200.572 152.776 199.67C152.776 198.769 152.946 197.979 153.287 197.301C153.632 196.623 154.116 196.097 154.741 195.722C155.366 195.347 156.105 195.159 156.957 195.159C157.81 195.159 158.548 195.347 159.173 195.722C159.798 196.097 160.281 196.623 160.622 197.301C160.967 197.979 161.139 198.769 161.139 199.67C161.139 200.572 160.967 201.36 160.622 202.034C160.281 202.708 159.798 203.233 159.173 203.608C158.548 203.983 157.81 204.17 156.957 204.17ZM156.969 202.523C157.431 202.523 157.817 202.396 158.128 202.142C158.438 201.884 158.67 201.54 158.821 201.108C158.976 200.676 159.054 200.195 159.054 199.665C159.054 199.131 158.976 198.648 158.821 198.216C158.67 197.78 158.438 197.434 158.128 197.176C157.817 196.919 157.431 196.79 156.969 196.79C156.495 196.79 156.101 196.919 155.787 197.176C155.476 197.434 155.243 197.78 155.088 198.216C154.937 198.648 154.861 199.131 154.861 199.665C154.861 200.195 154.937 200.676 155.088 201.108C155.243 201.54 155.476 201.884 155.787 202.142C156.101 202.396 156.495 202.523 156.969 202.523ZM164.942 198.886V204H162.885V195.273H164.851V196.756H164.953C165.154 196.267 165.474 195.879 165.913 195.591C166.357 195.303 166.904 195.159 167.555 195.159C168.158 195.159 168.682 195.288 169.129 195.545C169.58 195.803 169.929 196.176 170.175 196.665C170.425 197.153 170.548 197.746 170.544 198.443V204H168.487V198.761C168.487 198.178 168.336 197.722 168.033 197.392C167.733 197.062 167.319 196.898 166.788 196.898C166.429 196.898 166.108 196.977 165.828 197.136C165.552 197.292 165.334 197.517 165.175 197.812C165.019 198.108 164.942 198.466 164.942 198.886ZM175.146 204.176C174.593 204.176 174.095 204.078 173.652 203.881C173.213 203.68 172.864 203.384 172.607 202.994C172.353 202.604 172.226 202.123 172.226 201.551C172.226 201.059 172.317 200.652 172.499 200.33C172.68 200.008 172.929 199.75 173.243 199.557C173.557 199.364 173.911 199.218 174.305 199.119C174.703 199.017 175.114 198.943 175.538 198.898C176.05 198.845 176.464 198.797 176.783 198.756C177.101 198.71 177.332 198.642 177.476 198.551C177.624 198.456 177.697 198.311 177.697 198.114V198.08C177.697 197.652 177.571 197.32 177.317 197.085C177.063 196.85 176.697 196.733 176.22 196.733C175.716 196.733 175.317 196.843 175.021 197.062C174.73 197.282 174.533 197.542 174.43 197.841L172.51 197.568C172.661 197.038 172.911 196.595 173.26 196.239C173.608 195.879 174.035 195.61 174.538 195.432C175.042 195.25 175.599 195.159 176.209 195.159C176.629 195.159 177.048 195.208 177.464 195.307C177.881 195.405 178.262 195.568 178.607 195.795C178.951 196.019 179.228 196.324 179.436 196.71C179.648 197.097 179.754 197.58 179.754 198.159V204H177.777V202.801H177.709C177.584 203.044 177.408 203.271 177.18 203.483C176.957 203.691 176.675 203.86 176.334 203.989C175.997 204.114 175.601 204.176 175.146 204.176ZM175.68 202.665C176.093 202.665 176.451 202.583 176.754 202.42C177.057 202.254 177.29 202.034 177.453 201.761C177.62 201.489 177.703 201.191 177.703 200.869V199.841C177.639 199.894 177.529 199.943 177.374 199.989C177.222 200.034 177.052 200.074 176.862 200.108C176.673 200.142 176.485 200.172 176.3 200.199C176.114 200.225 175.953 200.248 175.817 200.267C175.51 200.309 175.235 200.377 174.993 200.472C174.75 200.566 174.559 200.699 174.419 200.869C174.279 201.036 174.209 201.252 174.209 201.517C174.209 201.896 174.347 202.182 174.624 202.375C174.9 202.568 175.252 202.665 175.68 202.665ZM186.18 195.273V196.864H181.163V195.273H186.18ZM182.402 193.182H184.459V201.375C184.459 201.652 184.5 201.864 184.584 202.011C184.671 202.155 184.785 202.254 184.925 202.307C185.065 202.36 185.22 202.386 185.391 202.386C185.519 202.386 185.637 202.377 185.743 202.358C185.853 202.339 185.936 202.322 185.993 202.307L186.339 203.915C186.23 203.953 186.072 203.994 185.868 204.04C185.667 204.085 185.421 204.112 185.129 204.119C184.614 204.134 184.15 204.057 183.737 203.886C183.324 203.712 182.997 203.443 182.754 203.08C182.516 202.716 182.398 202.261 182.402 201.716V193.182ZM191.67 204.17C190.795 204.17 190.04 203.989 189.403 203.625C188.771 203.258 188.284 202.739 187.943 202.068C187.602 201.394 187.432 200.6 187.432 199.688C187.432 198.79 187.602 198.002 187.943 197.324C188.288 196.642 188.769 196.112 189.386 195.733C190.004 195.35 190.729 195.159 191.562 195.159C192.1 195.159 192.608 195.246 193.085 195.42C193.566 195.591 193.991 195.856 194.358 196.216C194.729 196.576 195.021 197.034 195.233 197.591C195.445 198.144 195.551 198.803 195.551 199.568V200.199H188.398V198.812H193.58C193.576 198.419 193.491 198.068 193.324 197.761C193.157 197.451 192.924 197.206 192.625 197.028C192.33 196.85 191.985 196.761 191.591 196.761C191.17 196.761 190.801 196.864 190.483 197.068C190.165 197.269 189.917 197.534 189.739 197.864C189.564 198.189 189.475 198.547 189.472 198.938V200.148C189.472 200.655 189.564 201.091 189.75 201.455C189.936 201.814 190.195 202.091 190.528 202.284C190.862 202.473 191.252 202.568 191.699 202.568C191.998 202.568 192.269 202.527 192.511 202.443C192.754 202.356 192.964 202.229 193.142 202.062C193.32 201.896 193.455 201.689 193.545 201.443L195.466 201.659C195.345 202.167 195.114 202.61 194.773 202.989C194.436 203.364 194.004 203.655 193.477 203.864C192.951 204.068 192.348 204.17 191.67 204.17ZM203.771 204.176C203.218 204.176 202.72 204.078 202.277 203.881C201.838 203.68 201.489 203.384 201.232 202.994C200.978 202.604 200.851 202.123 200.851 201.551C200.851 201.059 200.942 200.652 201.124 200.33C201.305 200.008 201.554 199.75 201.868 199.557C202.182 199.364 202.536 199.218 202.93 199.119C203.328 199.017 203.739 198.943 204.163 198.898C204.675 198.845 205.089 198.797 205.408 198.756C205.726 198.71 205.957 198.642 206.101 198.551C206.249 198.456 206.322 198.311 206.322 198.114V198.08C206.322 197.652 206.196 197.32 205.942 197.085C205.688 196.85 205.322 196.733 204.845 196.733C204.341 196.733 203.942 196.843 203.646 197.062C203.355 197.282 203.158 197.542 203.055 197.841L201.135 197.568C201.286 197.038 201.536 196.595 201.885 196.239C202.233 195.879 202.66 195.61 203.163 195.432C203.667 195.25 204.224 195.159 204.834 195.159C205.254 195.159 205.673 195.208 206.089 195.307C206.506 195.405 206.887 195.568 207.232 195.795C207.576 196.019 207.853 196.324 208.061 196.71C208.273 197.097 208.379 197.58 208.379 198.159V204H206.402V202.801H206.334C206.209 203.044 206.033 203.271 205.805 203.483C205.582 203.691 205.3 203.86 204.959 203.989C204.622 204.114 204.226 204.176 203.771 204.176ZM204.305 202.665C204.718 202.665 205.076 202.583 205.379 202.42C205.682 202.254 205.915 202.034 206.078 201.761C206.245 201.489 206.328 201.191 206.328 200.869V199.841C206.264 199.894 206.154 199.943 205.999 199.989C205.847 200.034 205.677 200.074 205.487 200.108C205.298 200.142 205.11 200.172 204.925 200.199C204.739 200.225 204.578 200.248 204.442 200.267C204.135 200.309 203.86 200.377 203.618 200.472C203.375 200.566 203.184 200.699 203.044 200.869C202.904 201.036 202.834 201.252 202.834 201.517C202.834 201.896 202.972 202.182 203.249 202.375C203.525 202.568 203.877 202.665 204.305 202.665ZM214.243 207.455C213.504 207.455 212.87 207.354 212.339 207.153C211.809 206.956 211.383 206.691 211.061 206.358C210.739 206.025 210.516 205.655 210.391 205.25L212.243 204.801C212.326 204.972 212.447 205.14 212.607 205.307C212.766 205.477 212.98 205.617 213.249 205.727C213.521 205.841 213.864 205.898 214.277 205.898C214.86 205.898 215.343 205.756 215.726 205.472C216.108 205.191 216.3 204.729 216.3 204.085V202.432H216.197C216.091 202.644 215.936 202.862 215.732 203.085C215.531 203.309 215.264 203.496 214.93 203.648C214.601 203.799 214.186 203.875 213.686 203.875C213.016 203.875 212.408 203.718 211.862 203.403C211.321 203.085 210.889 202.612 210.567 201.983C210.249 201.35 210.089 200.559 210.089 199.608C210.089 198.65 210.249 197.841 210.567 197.182C210.889 196.519 211.322 196.017 211.868 195.676C212.413 195.331 213.021 195.159 213.692 195.159C214.203 195.159 214.624 195.246 214.953 195.42C215.286 195.591 215.552 195.797 215.749 196.04C215.946 196.278 216.095 196.504 216.197 196.716H216.311V195.273H218.339V204.142C218.339 204.888 218.161 205.506 217.805 205.994C217.449 206.483 216.963 206.848 216.345 207.091C215.728 207.333 215.027 207.455 214.243 207.455ZM214.26 202.261C214.696 202.261 215.067 202.155 215.374 201.943C215.68 201.731 215.913 201.426 216.072 201.028C216.232 200.631 216.311 200.153 216.311 199.597C216.311 199.047 216.232 198.566 216.072 198.153C215.917 197.741 215.686 197.42 215.379 197.193C215.076 196.962 214.703 196.847 214.26 196.847C213.802 196.847 213.419 196.966 213.112 197.205C212.805 197.443 212.574 197.771 212.419 198.188C212.264 198.6 212.186 199.07 212.186 199.597C212.186 200.131 212.264 200.598 212.419 201C212.578 201.398 212.811 201.708 213.118 201.932C213.429 202.152 213.809 202.261 214.26 202.261ZM222.959 204.176C222.406 204.176 221.908 204.078 221.464 203.881C221.025 203.68 220.677 203.384 220.419 202.994C220.165 202.604 220.038 202.123 220.038 201.551C220.038 201.059 220.129 200.652 220.311 200.33C220.493 200.008 220.741 199.75 221.055 199.557C221.37 199.364 221.724 199.218 222.118 199.119C222.516 199.017 222.927 198.943 223.351 198.898C223.862 198.845 224.277 198.797 224.595 198.756C224.913 198.71 225.144 198.642 225.288 198.551C225.436 198.456 225.51 198.311 225.51 198.114V198.08C225.51 197.652 225.383 197.32 225.129 197.085C224.875 196.85 224.51 196.733 224.033 196.733C223.529 196.733 223.129 196.843 222.834 197.062C222.542 197.282 222.345 197.542 222.243 197.841L220.322 197.568C220.474 197.038 220.724 196.595 221.072 196.239C221.421 195.879 221.847 195.61 222.351 195.432C222.855 195.25 223.411 195.159 224.021 195.159C224.442 195.159 224.86 195.208 225.277 195.307C225.694 195.405 226.074 195.568 226.419 195.795C226.764 196.019 227.04 196.324 227.249 196.71C227.461 197.097 227.567 197.58 227.567 198.159V204H225.589V202.801H225.521C225.396 203.044 225.22 203.271 224.993 203.483C224.769 203.691 224.487 203.86 224.146 203.989C223.809 204.114 223.413 204.176 222.959 204.176ZM223.493 202.665C223.906 202.665 224.264 202.583 224.567 202.42C224.87 202.254 225.103 202.034 225.266 201.761C225.432 201.489 225.516 201.191 225.516 200.869V199.841C225.451 199.894 225.341 199.943 225.186 199.989C225.035 200.034 224.864 200.074 224.675 200.108C224.485 200.142 224.298 200.172 224.112 200.199C223.927 200.225 223.766 200.248 223.629 200.267C223.322 200.309 223.048 200.377 222.805 200.472C222.563 200.566 222.372 200.699 222.232 200.869C222.091 201.036 222.021 201.252 222.021 201.517C222.021 201.896 222.16 202.182 222.436 202.375C222.713 202.568 223.065 202.665 223.493 202.665ZM229.635 204V195.273H231.692V204H229.635ZM230.669 194.034C230.343 194.034 230.063 193.926 229.828 193.71C229.593 193.491 229.476 193.227 229.476 192.92C229.476 192.61 229.593 192.347 229.828 192.131C230.063 191.911 230.343 191.801 230.669 191.801C230.999 191.801 231.279 191.911 231.51 192.131C231.745 192.347 231.862 192.61 231.862 192.92C231.862 193.227 231.745 193.491 231.51 193.71C231.279 193.926 230.999 194.034 230.669 194.034ZM235.864 198.886V204H233.807V195.273H235.773V196.756H235.875C236.076 196.267 236.396 195.879 236.835 195.591C237.278 195.303 237.826 195.159 238.477 195.159C239.08 195.159 239.604 195.288 240.051 195.545C240.502 195.803 240.85 196.176 241.097 196.665C241.347 197.153 241.47 197.746 241.466 198.443V204H239.409V198.761C239.409 198.178 239.258 197.722 238.955 197.392C238.655 197.062 238.241 196.898 237.71 196.898C237.35 196.898 237.03 196.977 236.75 197.136C236.473 197.292 236.256 197.517 236.097 197.812C235.941 198.108 235.864 198.466 235.864 198.886Z" fill="white"/>
</g>
<g filter="url(#filter2_d_8598_8746)">
<path d="M36 240C36 235.582 39.5817 232 44 232H339C343.418 232 347 235.582 347 240V268C347 272.418 343.418 276 339 276H44C39.5817 276 36 272.418 36 268V240Z" fill="white"/>
<path d="M36.5 240C36.5 235.858 39.8579 232.5 44 232.5H339C343.142 232.5 346.5 235.858 346.5 240V268C346.5 272.142 343.142 275.5 339 275.5H44C39.8579 275.5 36.5 272.142 36.5 268V240Z" stroke="#D0D5DD"/>
<path d="M134.972 251.562C134.919 251.066 134.695 250.68 134.301 250.403C133.911 250.127 133.403 249.989 132.778 249.989C132.339 249.989 131.962 250.055 131.648 250.188C131.333 250.32 131.093 250.5 130.926 250.727C130.759 250.955 130.674 251.214 130.67 251.506C130.67 251.748 130.725 251.958 130.835 252.136C130.949 252.314 131.102 252.466 131.295 252.591C131.489 252.712 131.703 252.814 131.938 252.898C132.172 252.981 132.409 253.051 132.648 253.108L133.739 253.381C134.178 253.483 134.6 253.621 135.006 253.795C135.415 253.97 135.78 254.189 136.102 254.455C136.428 254.72 136.686 255.04 136.875 255.415C137.064 255.79 137.159 256.229 137.159 256.733C137.159 257.415 136.985 258.015 136.636 258.534C136.288 259.049 135.784 259.453 135.125 259.744C134.47 260.032 133.676 260.176 132.744 260.176C131.839 260.176 131.053 260.036 130.386 259.756C129.723 259.475 129.205 259.066 128.83 258.528C128.458 257.991 128.258 257.335 128.227 256.562H130.301C130.331 256.968 130.456 257.305 130.676 257.574C130.896 257.843 131.182 258.044 131.534 258.176C131.89 258.309 132.288 258.375 132.727 258.375C133.186 258.375 133.587 258.307 133.932 258.17C134.28 258.03 134.553 257.837 134.75 257.591C134.947 257.341 135.047 257.049 135.051 256.716C135.047 256.413 134.958 256.163 134.784 255.966C134.61 255.765 134.366 255.598 134.051 255.466C133.741 255.33 133.377 255.208 132.96 255.102L131.636 254.761C130.678 254.515 129.92 254.142 129.364 253.642C128.811 253.138 128.534 252.47 128.534 251.636C128.534 250.951 128.72 250.35 129.091 249.835C129.466 249.32 129.975 248.92 130.619 248.636C131.263 248.348 131.992 248.205 132.807 248.205C133.633 248.205 134.356 248.348 134.977 248.636C135.602 248.92 136.093 249.316 136.449 249.824C136.805 250.328 136.989 250.907 137 251.562H134.972ZM141.004 254.886V260H138.947V248.364H140.959V252.756H141.061C141.266 252.263 141.582 251.875 142.01 251.591C142.442 251.303 142.991 251.159 143.658 251.159C144.264 251.159 144.792 251.286 145.243 251.54C145.694 251.794 146.042 252.165 146.288 252.653C146.538 253.142 146.663 253.739 146.663 254.443V260H144.607V254.761C144.607 254.174 144.455 253.718 144.152 253.392C143.853 253.062 143.432 252.898 142.891 252.898C142.527 252.898 142.201 252.977 141.913 253.136C141.629 253.292 141.406 253.517 141.243 253.812C141.084 254.108 141.004 254.466 141.004 254.886ZM151.271 260.176C150.718 260.176 150.22 260.078 149.777 259.881C149.338 259.68 148.989 259.384 148.732 258.994C148.478 258.604 148.351 258.123 148.351 257.551C148.351 257.059 148.442 256.652 148.624 256.33C148.805 256.008 149.054 255.75 149.368 255.557C149.682 255.364 150.036 255.218 150.43 255.119C150.828 255.017 151.239 254.943 151.663 254.898C152.175 254.845 152.589 254.797 152.908 254.756C153.226 254.71 153.457 254.642 153.601 254.551C153.749 254.456 153.822 254.311 153.822 254.114V254.08C153.822 253.652 153.696 253.32 153.442 253.085C153.188 252.85 152.822 252.733 152.345 252.733C151.841 252.733 151.442 252.843 151.146 253.062C150.855 253.282 150.658 253.542 150.555 253.841L148.635 253.568C148.786 253.038 149.036 252.595 149.385 252.239C149.733 251.879 150.16 251.61 150.663 251.432C151.167 251.25 151.724 251.159 152.334 251.159C152.754 251.159 153.173 251.208 153.589 251.307C154.006 251.405 154.387 251.568 154.732 251.795C155.076 252.019 155.353 252.324 155.561 252.71C155.773 253.097 155.879 253.58 155.879 254.159V260H153.902V258.801H153.834C153.709 259.044 153.533 259.271 153.305 259.483C153.082 259.691 152.8 259.86 152.459 259.989C152.122 260.114 151.726 260.176 151.271 260.176ZM151.805 258.665C152.218 258.665 152.576 258.583 152.879 258.42C153.182 258.254 153.415 258.034 153.578 257.761C153.745 257.489 153.828 257.191 153.828 256.869V255.841C153.764 255.894 153.654 255.943 153.499 255.989C153.347 256.034 153.177 256.074 152.987 256.108C152.798 256.142 152.61 256.172 152.425 256.199C152.239 256.225 152.078 256.248 151.942 256.267C151.635 256.309 151.36 256.377 151.118 256.472C150.875 256.566 150.684 256.699 150.544 256.869C150.404 257.036 150.334 257.252 150.334 257.517C150.334 257.896 150.472 258.182 150.749 258.375C151.025 258.568 151.377 258.665 151.805 258.665ZM157.947 260V251.273H159.942V252.727H160.033C160.192 252.223 160.464 251.835 160.851 251.562C161.241 251.286 161.686 251.148 162.186 251.148C162.3 251.148 162.427 251.153 162.567 251.165C162.711 251.172 162.83 251.186 162.925 251.205V253.097C162.838 253.066 162.699 253.04 162.51 253.017C162.324 252.991 162.144 252.977 161.97 252.977C161.595 252.977 161.258 253.059 160.959 253.222C160.663 253.381 160.43 253.602 160.26 253.886C160.089 254.17 160.004 254.498 160.004 254.869V260H157.947ZM167.795 260.17C166.92 260.17 166.165 259.989 165.528 259.625C164.896 259.258 164.409 258.739 164.068 258.068C163.727 257.394 163.557 256.6 163.557 255.688C163.557 254.79 163.727 254.002 164.068 253.324C164.413 252.642 164.894 252.112 165.511 251.733C166.129 251.35 166.854 251.159 167.688 251.159C168.225 251.159 168.733 251.246 169.21 251.42C169.691 251.591 170.116 251.856 170.483 252.216C170.854 252.576 171.146 253.034 171.358 253.591C171.57 254.144 171.676 254.803 171.676 255.568V256.199H164.523V254.812H169.705C169.701 254.419 169.616 254.068 169.449 253.761C169.282 253.451 169.049 253.206 168.75 253.028C168.455 252.85 168.11 252.761 167.716 252.761C167.295 252.761 166.926 252.864 166.608 253.068C166.29 253.269 166.042 253.534 165.864 253.864C165.689 254.189 165.6 254.547 165.597 254.938V256.148C165.597 256.655 165.689 257.091 165.875 257.455C166.061 257.814 166.32 258.091 166.653 258.284C166.987 258.473 167.377 258.568 167.824 258.568C168.123 258.568 168.394 258.527 168.636 258.443C168.879 258.356 169.089 258.229 169.267 258.062C169.445 257.896 169.58 257.689 169.67 257.443L171.591 257.659C171.47 258.167 171.239 258.61 170.898 258.989C170.561 259.364 170.129 259.655 169.602 259.864C169.076 260.068 168.473 260.17 167.795 260.17ZM181.192 260.17C180.339 260.17 179.601 259.983 178.976 259.608C178.351 259.233 177.866 258.708 177.521 258.034C177.18 257.36 177.01 256.572 177.01 255.67C177.01 254.769 177.18 253.979 177.521 253.301C177.866 252.623 178.351 252.097 178.976 251.722C179.601 251.347 180.339 251.159 181.192 251.159C182.044 251.159 182.783 251.347 183.408 251.722C184.033 252.097 184.516 252.623 184.857 253.301C185.201 253.979 185.374 254.769 185.374 255.67C185.374 256.572 185.201 257.36 184.857 258.034C184.516 258.708 184.033 259.233 183.408 259.608C182.783 259.983 182.044 260.17 181.192 260.17ZM181.203 258.523C181.665 258.523 182.052 258.396 182.362 258.142C182.673 257.884 182.904 257.54 183.055 257.108C183.211 256.676 183.288 256.195 183.288 255.665C183.288 255.131 183.211 254.648 183.055 254.216C182.904 253.78 182.673 253.434 182.362 253.176C182.052 252.919 181.665 252.79 181.203 252.79C180.73 252.79 180.336 252.919 180.021 253.176C179.711 253.434 179.478 253.78 179.322 254.216C179.171 254.648 179.095 255.131 179.095 255.665C179.095 256.195 179.171 256.676 179.322 257.108C179.478 257.54 179.711 257.884 180.021 258.142C180.336 258.396 180.73 258.523 181.203 258.523ZM189.176 254.886V260H187.119V251.273H189.085V252.756H189.188C189.388 252.267 189.708 251.879 190.148 251.591C190.591 251.303 191.138 251.159 191.79 251.159C192.392 251.159 192.917 251.288 193.364 251.545C193.814 251.803 194.163 252.176 194.409 252.665C194.659 253.153 194.782 253.746 194.778 254.443V260H192.722V254.761C192.722 254.178 192.57 253.722 192.267 253.392C191.968 253.062 191.553 252.898 191.023 252.898C190.663 252.898 190.343 252.977 190.062 253.136C189.786 253.292 189.568 253.517 189.409 253.812C189.254 254.108 189.176 254.466 189.176 254.886ZM207.253 251.562C207.2 251.066 206.976 250.68 206.582 250.403C206.192 250.127 205.685 249.989 205.06 249.989C204.62 249.989 204.243 250.055 203.929 250.188C203.615 250.32 203.374 250.5 203.207 250.727C203.041 250.955 202.955 251.214 202.952 251.506C202.952 251.748 203.007 251.958 203.116 252.136C203.23 252.314 203.384 252.466 203.577 252.591C203.77 252.712 203.984 252.814 204.219 252.898C204.454 252.981 204.69 253.051 204.929 253.108L206.02 253.381C206.459 253.483 206.882 253.621 207.287 253.795C207.696 253.97 208.062 254.189 208.384 254.455C208.709 254.72 208.967 255.04 209.156 255.415C209.346 255.79 209.44 256.229 209.44 256.733C209.44 257.415 209.266 258.015 208.918 258.534C208.569 259.049 208.065 259.453 207.406 259.744C206.751 260.032 205.957 260.176 205.026 260.176C204.12 260.176 203.334 260.036 202.668 259.756C202.005 259.475 201.486 259.066 201.111 258.528C200.74 257.991 200.539 257.335 200.509 256.562H202.582C202.613 256.968 202.738 257.305 202.957 257.574C203.177 257.843 203.463 258.044 203.815 258.176C204.171 258.309 204.569 258.375 205.009 258.375C205.467 258.375 205.868 258.307 206.213 258.17C206.562 258.03 206.834 257.837 207.031 257.591C207.228 257.341 207.329 257.049 207.332 256.716C207.329 256.413 207.24 256.163 207.065 255.966C206.891 255.765 206.647 255.598 206.332 255.466C206.022 255.33 205.658 255.208 205.241 255.102L203.918 254.761C202.959 254.515 202.202 254.142 201.645 253.642C201.092 253.138 200.815 252.47 200.815 251.636C200.815 250.951 201.001 250.35 201.372 249.835C201.747 249.32 202.257 248.92 202.901 248.636C203.545 248.348 204.274 248.205 205.088 248.205C205.914 248.205 206.637 248.348 207.259 248.636C207.884 248.92 208.374 249.316 208.73 249.824C209.086 250.328 209.27 250.907 209.281 251.562H207.253ZM215.036 260.17C214.183 260.17 213.445 259.983 212.82 259.608C212.195 259.233 211.71 258.708 211.365 258.034C211.024 257.36 210.854 256.572 210.854 255.67C210.854 254.769 211.024 253.979 211.365 253.301C211.71 252.623 212.195 252.097 212.82 251.722C213.445 251.347 214.183 251.159 215.036 251.159C215.888 251.159 216.626 251.347 217.251 251.722C217.876 252.097 218.359 252.623 218.7 253.301C219.045 253.979 219.217 254.769 219.217 255.67C219.217 256.572 219.045 257.36 218.7 258.034C218.359 258.708 217.876 259.233 217.251 259.608C216.626 259.983 215.888 260.17 215.036 260.17ZM215.047 258.523C215.509 258.523 215.895 258.396 216.206 258.142C216.517 257.884 216.748 257.54 216.899 257.108C217.054 256.676 217.132 256.195 217.132 255.665C217.132 255.131 217.054 254.648 216.899 254.216C216.748 253.78 216.517 253.434 216.206 253.176C215.895 252.919 215.509 252.79 215.047 252.79C214.573 252.79 214.179 252.919 213.865 253.176C213.554 253.434 213.321 253.78 213.166 254.216C213.015 254.648 212.939 255.131 212.939 255.665C212.939 256.195 213.015 256.676 213.166 257.108C213.321 257.54 213.554 257.884 213.865 258.142C214.179 258.396 214.573 258.523 215.047 258.523ZM224.77 260.17C223.899 260.17 223.151 259.979 222.526 259.597C221.904 259.214 221.425 258.686 221.088 258.011C220.755 257.333 220.588 256.553 220.588 255.67C220.588 254.784 220.759 254.002 221.099 253.324C221.44 252.642 221.921 252.112 222.543 251.733C223.168 251.35 223.906 251.159 224.759 251.159C225.467 251.159 226.094 251.29 226.639 251.551C227.188 251.809 227.626 252.174 227.952 252.648C228.277 253.117 228.463 253.667 228.509 254.295H226.543C226.463 253.875 226.274 253.525 225.974 253.244C225.679 252.96 225.283 252.818 224.787 252.818C224.366 252.818 223.997 252.932 223.679 253.159C223.361 253.383 223.113 253.705 222.935 254.125C222.76 254.545 222.673 255.049 222.673 255.636C222.673 256.231 222.76 256.742 222.935 257.17C223.109 257.595 223.353 257.922 223.668 258.153C223.986 258.381 224.359 258.494 224.787 258.494C225.09 258.494 225.361 258.437 225.599 258.324C225.842 258.206 226.045 258.038 226.207 257.818C226.37 257.598 226.482 257.331 226.543 257.017H228.509C228.459 257.634 228.277 258.182 227.963 258.659C227.649 259.133 227.221 259.504 226.679 259.773C226.137 260.038 225.501 260.17 224.77 260.17ZM230.197 260V251.273H232.254V260H230.197ZM231.232 250.034C230.906 250.034 230.625 249.926 230.391 249.71C230.156 249.491 230.038 249.227 230.038 248.92C230.038 248.61 230.156 248.347 230.391 248.131C230.625 247.911 230.906 247.801 231.232 247.801C231.561 247.801 231.841 247.911 232.072 248.131C232.307 248.347 232.425 248.61 232.425 248.92C232.425 249.227 232.307 249.491 232.072 249.71C231.841 249.926 231.561 250.034 231.232 250.034ZM236.881 260.176C236.328 260.176 235.83 260.078 235.386 259.881C234.947 259.68 234.598 259.384 234.341 258.994C234.087 258.604 233.96 258.123 233.96 257.551C233.96 257.059 234.051 256.652 234.233 256.33C234.415 256.008 234.663 255.75 234.977 255.557C235.292 255.364 235.646 255.218 236.04 255.119C236.438 255.017 236.848 254.943 237.273 254.898C237.784 254.845 238.199 254.797 238.517 254.756C238.835 254.71 239.066 254.642 239.21 254.551C239.358 254.456 239.432 254.311 239.432 254.114V254.08C239.432 253.652 239.305 253.32 239.051 253.085C238.797 252.85 238.432 252.733 237.955 252.733C237.451 252.733 237.051 252.843 236.756 253.062C236.464 253.282 236.267 253.542 236.165 253.841L234.244 253.568C234.396 253.038 234.646 252.595 234.994 252.239C235.343 251.879 235.769 251.61 236.273 251.432C236.777 251.25 237.333 251.159 237.943 251.159C238.364 251.159 238.782 251.208 239.199 251.307C239.616 251.405 239.996 251.568 240.341 251.795C240.686 252.019 240.962 252.324 241.17 252.71C241.383 253.097 241.489 253.58 241.489 254.159V260H239.511V258.801H239.443C239.318 259.044 239.142 259.271 238.915 259.483C238.691 259.691 238.409 259.86 238.068 259.989C237.731 260.114 237.335 260.176 236.881 260.176ZM237.415 258.665C237.828 258.665 238.186 258.583 238.489 258.42C238.792 258.254 239.025 258.034 239.188 257.761C239.354 257.489 239.438 257.191 239.438 256.869V255.841C239.373 255.894 239.263 255.943 239.108 255.989C238.956 256.034 238.786 256.074 238.597 256.108C238.407 256.142 238.22 256.172 238.034 256.199C237.848 256.225 237.688 256.248 237.551 256.267C237.244 256.309 236.97 256.377 236.727 256.472C236.485 256.566 236.294 256.699 236.153 256.869C236.013 257.036 235.943 257.252 235.943 257.517C235.943 257.896 236.081 258.182 236.358 258.375C236.634 258.568 236.987 258.665 237.415 258.665ZM245.614 248.364V260H243.557V248.364H245.614ZM254.626 253.58L252.751 253.784C252.698 253.595 252.606 253.417 252.473 253.25C252.344 253.083 252.17 252.949 251.95 252.847C251.731 252.744 251.462 252.693 251.143 252.693C250.715 252.693 250.356 252.786 250.064 252.972C249.776 253.157 249.634 253.398 249.638 253.693C249.634 253.947 249.727 254.153 249.916 254.312C250.109 254.472 250.428 254.602 250.871 254.705L252.359 255.023C253.185 255.201 253.799 255.483 254.2 255.869C254.606 256.256 254.81 256.761 254.814 257.386C254.81 257.936 254.649 258.42 254.331 258.841C254.017 259.258 253.579 259.583 253.018 259.818C252.458 260.053 251.814 260.17 251.087 260.17C250.018 260.17 249.159 259.947 248.507 259.5C247.856 259.049 247.467 258.422 247.342 257.619L249.348 257.426C249.439 257.82 249.632 258.117 249.928 258.318C250.223 258.519 250.607 258.619 251.081 258.619C251.57 258.619 251.962 258.519 252.257 258.318C252.556 258.117 252.706 257.869 252.706 257.574C252.706 257.324 252.609 257.117 252.416 256.955C252.227 256.792 251.931 256.667 251.53 256.58L250.041 256.267C249.204 256.093 248.585 255.799 248.183 255.386C247.782 254.97 247.583 254.443 247.587 253.807C247.583 253.269 247.729 252.803 248.024 252.409C248.323 252.011 248.738 251.705 249.268 251.489C249.803 251.269 250.418 251.159 251.115 251.159C252.138 251.159 252.943 251.377 253.53 251.812C254.121 252.248 254.486 252.837 254.626 253.58Z" fill="#344054"/>
</g>
</g>
</g>
<defs>
<filter id="filter0_dd_8598_8746" x="0" y="0" width="383" height="332" filterUnits="userSpaceOnUse" color-interpolation-filters="sRGB">
<feFlood flood-opacity="0" result="BackgroundImageFix"/>
<feColorMatrix in="SourceAlpha" type="matrix" values="0 0 0 0 0 0 0 0 0 0 0 0 0 0 0 0 0 0 127 0" result="hardAlpha"/>
<feMorphology radius="4" operator="erode" in="SourceAlpha" result="effect1_dropShadow_8598_8746"/>
<feOffset dy="8"/>
<feGaussianBlur stdDeviation="4"/>
<feComposite in2="hardAlpha" operator="out"/>
<feColorMatrix type="matrix" values="0 0 0 0 0.0627451 0 0 0 0 0.0941176 0 0 0 0 0.156863 0 0 0 0.03 0"/>
<feBlend mode="normal" in2="BackgroundImageFix" result="effect1_dropShadow_8598_8746"/>
<feColorMatrix in="SourceAlpha" type="matrix" values="0 0 0 0 0 0 0 0 0 0 0 0 0 0 0 0 0 0 127 0" result="hardAlpha"/>
<feMorphology radius="4" operator="erode" in="SourceAlpha" result="effect2_dropShadow_8598_8746"/>
<feOffset dy="20"/>
<feGaussianBlur stdDeviation="12"/>
<feComposite in2="hardAlpha" operator="out"/>
<feColorMatrix type="matrix" values="0 0 0 0 0.0627451 0 0 0 0 0.0941176 0 0 0 0 0.156863 0 0 0 0.08 0"/>
<feBlend mode="normal" in2="effect1_dropShadow_8598_8746" result="effect2_dropShadow_8598_8746"/>
<feBlend mode="normal" in="SourceGraphic" in2="effect2_dropShadow_8598_8746" result="shape"/>
</filter>
<filter id="filter1_d_8598_8746" x="34" y="175" width="315" height="48" filterUnits="userSpaceOnUse" color-interpolation-filters="sRGB">
<feFlood flood-opacity="0" result="BackgroundImageFix"/>
<feColorMatrix in="SourceAlpha" type="matrix" values="0 0 0 0 0 0 0 0 0 0 0 0 0 0 0 0 0 0 127 0" result="hardAlpha"/>
<feOffset dy="1"/>
<feGaussianBlur stdDeviation="1"/>
<feComposite in2="hardAlpha" operator="out"/>
<feColorMatrix type="matrix" values="0 0 0 0 0.0627451 0 0 0 0 0.0941176 0 0 0 0 0.156863 0 0 0 0.05 0"/>
<feBlend mode="normal" in2="BackgroundImageFix" result="effect1_dropShadow_8598_8746"/>
<feBlend mode="normal" in="SourceGraphic" in2="effect1_dropShadow_8598_8746" result="shape"/>
</filter>
<filter id="filter2_d_8598_8746" x="34" y="231" width="315" height="48" filterUnits="userSpaceOnUse" color-interpolation-filters="sRGB">
<feFlood flood-opacity="0" result="BackgroundImageFix"/>
<feColorMatrix in="SourceAlpha" type="matrix" values="0 0 0 0 0 0 0 0 0 0 0 0 0 0 0 0 0 0 127 0" result="hardAlpha"/>
<feOffset dy="1"/>
<feGaussianBlur stdDeviation="1"/>
<feComposite in2="hardAlpha" operator="out"/>
<feColorMatrix type="matrix" values="0 0 0 0 0.0627451 0 0 0 0 0.0941176 0 0 0 0 0.156863 0 0 0 0.05 0"/>
<feBlend mode="normal" in2="BackgroundImageFix" result="effect1_dropShadow_8598_8746"/>
<feBlend mode="normal" in="SourceGraphic" in2="effect1_dropShadow_8598_8746" result="shape"/>
</filter>
<radialGradient id="paint0_radial_8598_8746" cx="0" cy="0" r="1" gradientUnits="userSpaceOnUse" gradientTransform="translate(168 168) rotate(90) scale(168 168)">
<stop/>
<stop offset="1" stop-opacity="0"/>
</radialGradient>
<clipPath id="clip0_8598_8746">
<path d="M20 12C20 5.37259 25.3726 0 32 0H351C357.627 0 363 5.37258 363 12V280C363 286.627 357.627 292 351 292H32C25.3726 292 20 286.627 20 280V12Z" fill="white"/>
</clipPath>
</defs>
</svg>
