<svg width="48" height="48" viewBox="0 0 48 48" fill="none" xmlns="http://www.w3.org/2000/svg">
<circle cx="24" cy="24" r="24" fill="#3B8249"/>
<path d="M10.666 14.6667V33.3334H37.3327V14.6667H10.666ZM17.3327 30.6667C17.3327 29.6058 16.9113 28.5884 16.1611 27.8383C15.411 27.0881 14.3935 26.6667 13.3327 26.6667V21.3334C14.3935 21.3334 15.411 20.9119 16.1611 20.1618C16.9113 19.4116 17.3327 18.3942 17.3327 17.3334H30.666C30.666 18.3942 31.0874 19.4116 31.8376 20.1618C32.5877 20.9119 33.6051 21.3334 34.666 21.3334V26.6667C33.6051 26.6667 32.5877 27.0881 31.8376 27.8383C31.0874 28.5884 30.666 29.6058 30.666 30.6667H17.3327ZM23.9993 20C25.466 20 26.666 21.7334 26.666 24C26.666 26.2667 25.466 28 23.9993 28C22.5327 28 21.3327 26.2667 21.3327 24C21.3327 21.7334 22.5327 20 23.9993 20Z" fill="#F9F9F9"/>
</svg>
