<svg width="383" height="312" viewBox="0 0 383 312" fill="none" xmlns="http://www.w3.org/2000/svg">
<g filter="url(#filter0_dd_8515_18586)">
<g clip-path="url(#clip0_8515_18586)">
<path d="M20 12C20 5.37258 25.3726 0 32 0H351C357.627 0 363 5.37258 363 12V260C363 266.627 357.627 272 351 272H32C25.3726 272 20 266.627 20 260V12Z" fill="white"/>
<mask id="mask0_8515_18586" style="mask-type:alpha" maskUnits="userSpaceOnUse" x="-108" y="-124" width="336" height="336">
<rect width="336" height="336" transform="translate(-108 -124)" fill="url(#paint0_radial_8515_18586)"/>
</mask>
<g mask="url(#mask0_8515_18586)">
<circle cx="60" cy="44" r="47.5" stroke="#EAECF0"/>
<circle cx="60" cy="44" r="47.5" stroke="#EAECF0"/>
<circle cx="60" cy="44" r="71.5" stroke="#EAECF0"/>
<circle cx="60" cy="44" r="95.5" stroke="#EAECF0"/>
<circle cx="60" cy="44" r="119.5" stroke="#EAECF0"/>
<circle cx="60" cy="44" r="143.5" stroke="#EAECF0"/>
<circle cx="60" cy="44" r="167.5" stroke="#EAECF0"/>
</g>
<path d="M36 44C36 30.7452 46.7452 20 60 20C73.2548 20 84 30.7452 84 44C84 57.2548 73.2548 68 60 68C46.7452 68 36 57.2548 36 44Z" fill="#DCFAE6"/>
<path d="M55.5 44L58.5 47L64.5 41M70 44C70 49.5228 65.5228 54 60 54C54.4772 54 50 49.5228 50 44C50 38.4772 54.4772 34 60 34C65.5228 34 70 38.4772 70 44Z" stroke="#079455" stroke-width="2" stroke-linecap="round" stroke-linejoin="round"/>
<path d="M35.856 89.328H38.448L41.364 94.26C41.49 94.476 41.526 94.728 41.544 95.052C41.544 95.16 41.58 95.304 41.76 95.304C41.94 95.304 41.976 95.16 41.976 95.052C41.994 94.728 42.03 94.476 42.156 94.26L45.072 89.328H47.664L42.984 97.032V102H40.536V97.032L35.856 89.328ZM51.5375 92.352C54.5075 92.352 56.2895 94.548 56.2895 97.248C56.2895 99.948 54.5075 102.144 51.5375 102.144C48.5675 102.144 46.7855 99.948 46.7855 97.248C46.7855 94.548 48.5675 92.352 51.5375 92.352ZM51.5375 100.056C53.1035 100.056 53.9855 98.796 53.9855 97.248C53.9855 95.7 53.1035 94.44 51.5375 94.44C49.9715 94.44 49.0895 95.7 49.0895 97.248C49.0895 98.796 49.9715 100.056 51.5375 100.056ZM60.8646 102.144C58.8126 102.144 57.4446 100.812 57.4446 98.112V92.496H59.7486V97.32C59.7486 99.462 60.3066 100.056 61.5126 100.056C62.8446 100.056 64.0686 98.562 64.0686 96.366V92.496H66.3726V102H64.0686V101.406C64.0686 100.83 64.1946 100.488 64.3566 100.11C64.4286 99.948 64.5366 99.696 64.3026 99.642C64.1586 99.606 64.1046 99.714 64.0326 99.858C63.5646 100.794 62.5206 102.144 60.8646 102.144ZM75.9758 94.53C76.0838 94.548 76.1738 94.404 76.1918 94.35C76.7678 93.036 77.2898 92.352 79.6118 92.352V94.692C76.9298 94.512 76.1558 95.466 76.1558 97.878V102H73.8518V92.496H76.1558V93.018C76.1558 93.432 76.0478 93.792 75.8858 94.116C75.8138 94.278 75.7598 94.494 75.9758 94.53ZM89.1187 97.122C89.1187 97.374 89.1007 97.554 89.0647 97.824H82.1527C82.3147 99.264 83.2507 100.128 84.6907 100.128C85.7887 100.128 86.3467 99.534 86.6167 98.688H88.9567C88.5427 100.65 87.2107 102.144 84.6727 102.144C81.5947 102.144 79.9027 100.074 79.9027 97.248C79.9027 94.278 81.7387 92.352 84.6367 92.352C86.8327 92.352 89.1187 93.666 89.1187 97.122ZM82.2427 96.24H86.8147C86.7247 95.088 86.0407 94.224 84.7087 94.224C83.1427 94.224 82.4767 95.106 82.2427 96.24ZM89.975 99.39C89.975 97.284 91.523 96.51 93.431 96.402C95.123 96.312 96.617 96.474 96.599 95.592C96.581 94.944 96.329 94.224 94.691 94.224C93.071 94.224 92.657 94.89 92.531 95.664H90.263C90.587 93.27 92.639 92.352 94.763 92.352C96.941 92.352 98.903 93.072 98.903 96.744V102H96.599V101.334C96.599 100.902 96.707 100.596 96.869 100.29C96.941 100.128 97.013 99.948 96.851 99.876C96.671 99.804 96.599 99.984 96.563 100.074C96.023 101.388 94.979 102.144 93.287 102.144C91.505 102.144 89.975 100.992 89.975 99.39ZM96.599 97.104C96.059 97.698 95.195 97.788 93.827 97.932C92.837 98.04 92.279 98.418 92.279 99.264C92.279 100.056 93.035 100.56 94.097 100.416C95.321 100.254 96.581 99.462 96.599 97.104ZM100.205 97.248C100.205 94.422 102.059 92.352 105.011 92.352C107.675 92.352 109.259 94.152 109.421 96.096H107.153C107.009 95.196 106.307 94.44 105.011 94.44C103.427 94.44 102.509 95.592 102.509 97.248C102.509 98.904 103.427 100.056 105.011 100.056C106.307 100.056 107.009 99.3 107.153 98.4H109.421C109.259 100.344 107.693 102.144 105.011 102.144C102.113 102.144 100.205 100.074 100.205 97.248ZM116.08 92.352C118.132 92.352 119.5 93.684 119.5 96.384V102H117.196V97.176C117.196 95.034 116.638 94.44 115.432 94.44C114.1 94.44 112.876 95.934 112.876 98.13V102H110.572V89.04H112.876V93.09C112.876 93.666 112.768 94.008 112.588 94.386C112.516 94.548 112.408 94.8 112.642 94.854C112.786 94.89 112.84 94.782 112.912 94.638C113.344 93.684 114.424 92.352 116.08 92.352ZM129.865 97.122C129.865 97.374 129.847 97.554 129.811 97.824H122.899C123.061 99.264 123.997 100.128 125.437 100.128C126.535 100.128 127.093 99.534 127.363 98.688H129.703C129.289 100.65 127.957 102.144 125.419 102.144C122.341 102.144 120.649 100.074 120.649 97.248C120.649 94.278 122.485 92.352 125.383 92.352C127.579 92.352 129.865 93.666 129.865 97.122ZM122.989 96.24H127.561C127.471 95.088 126.787 94.224 125.455 94.224C123.889 94.224 123.223 95.106 122.989 96.24ZM138.062 89.04H140.366V102H138.062V101.586C138.062 101.226 138.152 100.938 138.314 100.614C138.404 100.434 138.476 100.254 138.278 100.182C138.116 100.128 138.044 100.308 138.008 100.362C137.342 101.352 136.442 102.144 135.002 102.144C132.536 102.144 130.862 99.984 130.862 97.248C130.862 94.512 132.536 92.352 135.002 92.352C136.478 92.352 137.486 93.072 138.008 94.116C138.044 94.188 138.152 94.422 138.332 94.332C138.512 94.242 138.404 94.026 138.314 93.846C138.152 93.522 138.062 93.234 138.062 92.856V89.04ZM135.542 100.056C137.054 100.056 138.062 98.76 138.062 97.248C138.062 95.736 137.054 94.44 135.542 94.44C133.922 94.44 133.166 95.736 133.166 97.248C133.166 98.76 133.922 100.056 135.542 100.056ZM146.704 92.496H149.152L151.276 98.634C151.402 99.012 151.42 99.354 151.42 99.714C151.42 99.84 151.438 100.02 151.636 100.02C151.834 100.02 151.852 99.858 151.852 99.714C151.852 99.372 151.888 99.012 152.014 98.634L154.048 92.496H156.496L152.464 103.098C151.816 104.79 150.916 105.456 149.26 105.456H147.532V103.44H148.324C149.692 103.44 149.962 103.44 150.214 102.702L150.412 102.126L146.704 92.496ZM161.26 92.352C164.23 92.352 166.012 94.548 166.012 97.248C166.012 99.948 164.23 102.144 161.26 102.144C158.29 102.144 156.508 99.948 156.508 97.248C156.508 94.548 158.29 92.352 161.26 92.352ZM161.26 100.056C162.826 100.056 163.708 98.796 163.708 97.248C163.708 95.7 162.826 94.44 161.26 94.44C159.694 94.44 158.812 95.7 158.812 97.248C158.812 98.796 159.694 100.056 161.26 100.056ZM170.587 102.144C168.535 102.144 167.167 100.812 167.167 98.112V92.496H169.471V97.32C169.471 99.462 170.029 100.056 171.235 100.056C172.567 100.056 173.791 98.562 173.791 96.366V92.496H176.095V102H173.791V101.406C173.791 100.83 173.917 100.488 174.079 100.11C174.151 99.948 174.259 99.696 174.025 99.642C173.881 99.606 173.827 99.714 173.755 99.858C173.287 100.794 172.243 102.144 170.587 102.144ZM180.091 94.53C180.199 94.548 180.289 94.404 180.307 94.35C180.883 93.036 181.405 92.352 183.727 92.352V94.692C181.045 94.512 180.271 95.466 180.271 97.878V102H177.967V92.496H180.271V93.018C180.271 93.432 180.163 93.792 180.001 94.116C179.929 94.278 179.875 94.494 180.091 94.53ZM190.065 97.032C190.065 94.476 191.739 92.352 194.205 92.352C195.681 92.352 196.599 93.09 197.211 94.08C197.229 94.116 197.337 94.35 197.499 94.278C197.679 94.206 197.553 93.972 197.463 93.792C197.319 93.522 197.265 93.27 197.265 92.928V92.496H199.569V100.992C199.569 104.034 197.787 105.6 194.871 105.6C191.883 105.6 190.515 103.998 190.353 102.216H192.621C192.729 103.08 193.305 103.728 194.835 103.728C196.455 103.728 197.265 102.828 197.265 101.082C197.265 100.758 197.319 100.506 197.463 100.236C197.553 100.056 197.679 99.876 197.499 99.786C197.337 99.714 197.247 99.876 197.211 99.948C196.599 100.992 195.645 101.712 194.205 101.712C191.739 101.712 190.065 99.588 190.065 97.032ZM194.745 99.624C196.257 99.624 197.265 98.436 197.265 97.032C197.265 95.628 196.257 94.44 194.745 94.44C193.125 94.44 192.369 95.628 192.369 97.032C192.369 98.436 193.125 99.624 194.745 99.624ZM205.487 92.352C208.457 92.352 210.239 94.548 210.239 97.248C210.239 99.948 208.457 102.144 205.487 102.144C202.517 102.144 200.735 99.948 200.735 97.248C200.735 94.548 202.517 92.352 205.487 92.352ZM205.487 100.056C207.053 100.056 207.935 98.796 207.935 97.248C207.935 95.7 207.053 94.44 205.487 94.44C203.921 94.44 203.039 95.7 203.039 97.248C203.039 98.796 203.921 100.056 205.487 100.056ZM211.106 99.39C211.106 97.284 212.654 96.51 214.562 96.402C216.254 96.312 217.748 96.474 217.73 95.592C217.712 94.944 217.46 94.224 215.822 94.224C214.202 94.224 213.788 94.89 213.662 95.664H211.394C211.718 93.27 213.77 92.352 215.894 92.352C218.072 92.352 220.034 93.072 220.034 96.744V102H217.73V101.334C217.73 100.902 217.838 100.596 218 100.29C218.072 100.128 218.144 99.948 217.982 99.876C217.802 99.804 217.73 99.984 217.694 100.074C217.154 101.388 216.11 102.144 214.418 102.144C212.636 102.144 211.106 100.992 211.106 99.39ZM217.73 97.104C217.19 97.698 216.326 97.788 214.958 97.932C213.968 98.04 213.41 98.418 213.41 99.264C213.41 100.056 214.166 100.56 215.228 100.416C216.452 100.254 217.712 99.462 217.73 97.104ZM221.912 89.04H224.216V102H221.912V89.04ZM226.381 89.328H228.685C228.685 95.34 228.685 95.538 228.253 98.256H226.813C226.381 95.538 226.381 95.34 226.381 89.328ZM226.237 102V99.408H228.829V102H226.237Z" fill="#101828"/>
<path d="M40.494 122.19C42.664 122.484 44.288 122.988 44.288 125.06C44.288 126.656 42.958 128.112 40.368 128.112C37.638 128.112 36.448 126.348 36.448 124.528H37.848C37.876 125.508 38.394 126.88 40.368 126.88C42.3 126.88 42.832 125.886 42.832 125.144C42.832 124.276 42.286 123.8 40.354 123.562C38.058 123.282 36.784 122.484 36.784 120.804C36.784 119.264 38.1 118.032 40.382 118.032C42.804 118.032 43.868 119.572 43.91 121.168H42.552C42.552 120.3 41.964 119.264 40.354 119.264C38.702 119.264 38.226 120.076 38.226 120.72C38.226 121.322 38.492 121.924 40.494 122.19ZM51.9043 124.318C51.9043 124.514 51.8903 124.654 51.8623 124.808H46.5143C46.6123 125.956 47.3963 126.88 48.6983 126.88C49.6643 126.88 50.1403 126.404 50.3923 125.578H51.7783C51.4843 126.908 50.5043 128.112 48.6703 128.112C46.4163 128.112 45.1843 126.446 45.1843 124.416C45.1843 122.26 46.5843 120.72 48.6423 120.72C50.2383 120.72 51.9043 121.77 51.9043 124.318ZM46.5843 123.688H50.5603C50.4763 122.638 49.8043 121.896 48.7123 121.896C47.3683 121.896 46.7803 122.722 46.5843 123.688ZM56.8648 120.72C58.5168 120.72 59.5248 121.644 59.5248 123.744V128H58.1808V124.024C58.1808 122.358 57.4668 121.896 56.5288 121.896C55.4928 121.896 54.3728 122.946 54.3728 124.654V128H53.0288V120.832H54.3728V121.308C54.3728 121.602 54.3448 121.896 54.2188 122.26C54.1768 122.386 54.1208 122.526 54.2328 122.554C54.3168 122.582 54.3588 122.484 54.3868 122.428C54.6668 121.728 55.5768 120.72 56.8648 120.72ZM66.2472 117.92H67.5912V128H66.2472V127.398C66.2472 127.146 66.2752 126.95 66.3872 126.642C66.4292 126.53 66.4992 126.404 66.3592 126.362C66.2752 126.334 66.2332 126.446 66.2192 126.488C65.8832 127.496 64.9312 128.112 63.8112 128.112C61.9492 128.112 60.6472 126.544 60.6472 124.416C60.6472 122.288 61.9492 120.72 63.8112 120.72C64.9592 120.72 65.8972 121.35 66.2192 122.316C66.2332 122.358 66.2752 122.498 66.3872 122.456C66.5132 122.414 66.4292 122.274 66.3872 122.162C66.2752 121.868 66.2472 121.658 66.2472 121.392V117.92ZM64.0912 126.88C65.3652 126.88 66.2472 125.746 66.2472 124.416C66.2472 123.086 65.3652 121.952 64.0912 121.952C62.6912 121.952 61.9912 123.086 61.9912 124.416C61.9912 125.746 62.6912 126.88 64.0912 126.88ZM73.4168 125.998C73.4168 124.36 74.6208 123.856 75.9928 123.758C77.2808 123.66 78.5828 123.814 78.5688 123.072C78.5548 122.484 78.2188 121.896 76.7488 121.896C75.4888 121.896 75.0548 122.372 74.9568 123.072H73.6408C73.8927 121.434 75.1528 120.72 76.8048 120.72C78.4148 120.72 79.9128 121.28 79.9128 123.912V128H78.5688V127.314C78.5688 127.048 78.5968 126.838 78.7228 126.474C78.7508 126.348 78.8068 126.236 78.7088 126.194C78.5968 126.152 78.5688 126.264 78.5408 126.334C78.1348 127.398 77.1828 128.112 75.8808 128.112C74.5228 128.112 73.4168 127.216 73.4168 125.998ZM78.5688 124.136C78.1348 124.668 77.1688 124.682 76.0768 124.836C75.2088 124.962 74.7608 125.27 74.7608 125.928C74.7608 126.502 75.2368 127.034 76.3988 126.88C77.4908 126.74 78.5548 125.942 78.5688 124.136ZM90.2151 122.008H88.1991V125.76C88.1991 126.572 88.3671 126.824 89.1511 126.824H90.2151V128H89.0391C87.5551 128 86.8551 127.454 86.8551 125.9V122.008H85.5111V120.832H86.8551V118.816H88.1991V120.832H90.2151V122.008ZM95.5152 120.72C97.1672 120.72 98.1752 121.644 98.1752 123.744V128H96.8312V124.024C96.8312 122.358 96.1172 121.896 95.1792 121.896C94.1432 121.896 93.0232 122.946 93.0232 124.654V128H91.6792V117.92H93.0232V121.308C93.0232 121.602 92.9952 121.896 92.8692 122.26C92.8272 122.386 92.7712 122.526 92.8832 122.554C92.9672 122.582 93.0092 122.484 93.0372 122.428C93.3172 121.728 94.2272 120.72 95.5152 120.72ZM99.2976 125.998C99.2976 124.36 100.502 123.856 101.874 123.758C103.162 123.66 104.464 123.814 104.45 123.072C104.436 122.484 104.1 121.896 102.63 121.896C101.37 121.896 100.936 122.372 100.838 123.072H99.5216C99.7736 121.434 101.034 120.72 102.686 120.72C104.296 120.72 105.794 121.28 105.794 123.912V128H104.45V127.314C104.45 127.048 104.478 126.838 104.604 126.474C104.632 126.348 104.688 126.236 104.59 126.194C104.478 126.152 104.45 126.264 104.422 126.334C104.016 127.398 103.064 128.112 101.762 128.112C100.404 128.112 99.2976 127.216 99.2976 125.998ZM104.45 124.136C104.016 124.668 103.05 124.682 101.958 124.836C101.09 124.962 100.642 125.27 100.642 125.928C100.642 126.502 101.118 127.034 102.28 126.88C103.372 126.74 104.436 125.942 104.45 124.136ZM111.197 120.72C112.849 120.72 113.857 121.644 113.857 123.744V128H112.513V124.024C112.513 122.358 111.799 121.896 110.861 121.896C109.825 121.896 108.705 122.946 108.705 124.654V128H107.361V120.832H108.705V121.308C108.705 121.602 108.677 121.896 108.551 122.26C108.509 122.386 108.453 122.526 108.565 122.554C108.649 122.582 108.691 122.484 108.719 122.428C108.999 121.728 109.909 120.72 111.197 120.72ZM121.59 128H119.966L117.418 124.752L116.662 125.508V128H115.318V117.92H116.662V123.044C116.662 123.534 116.578 123.772 116.368 124.066C116.326 124.136 116.242 124.234 116.326 124.29C116.41 124.346 116.466 124.248 116.522 124.192L119.658 120.832H121.366L118.258 123.926L121.59 128ZM126.07 120.832H127.526L129.458 126.124C129.556 126.376 129.57 126.642 129.57 126.88C129.57 126.964 129.57 127.062 129.682 127.062C129.794 127.062 129.794 126.964 129.794 126.88C129.794 126.642 129.836 126.376 129.92 126.124L131.782 120.832H133.238L130.13 128.854C129.626 130.17 128.926 130.688 127.638 130.688H126.714V129.512H127.358C128.422 129.512 128.604 129.274 128.814 128.756L129.01 128.28L126.07 120.832ZM136.936 120.72C139.106 120.72 140.408 122.386 140.408 124.416C140.408 126.446 139.106 128.112 136.936 128.112C134.766 128.112 133.464 126.446 133.464 124.416C133.464 122.386 134.766 120.72 136.936 120.72ZM136.936 126.88C138.28 126.88 139.064 125.774 139.064 124.416C139.064 123.058 138.28 121.952 136.936 121.952C135.592 121.952 134.808 123.058 134.808 124.416C134.808 125.774 135.592 126.88 136.936 126.88ZM144.182 128.112C142.53 128.112 141.522 127.188 141.522 125.088V120.832H142.866V124.808C142.866 126.474 143.58 126.936 144.518 126.936C145.554 126.936 146.674 125.886 146.674 124.178V120.832H148.018V128H146.674V127.524C146.674 127.23 146.702 126.936 146.828 126.572C146.87 126.446 146.926 126.32 146.814 126.278C146.73 126.25 146.688 126.348 146.66 126.404C146.324 127.076 145.47 128.112 144.182 128.112ZM161.94 120.72C163.284 120.72 164.376 121.42 164.376 123.632V128H163.032V123.464C163.032 122.344 162.486 121.896 161.618 121.896C160.834 121.896 160.008 122.624 160.008 123.94V128H158.664V123.632C158.664 122.512 158.286 121.896 157.376 121.896C156.508 121.896 155.64 122.82 155.64 124.248V128H154.296V120.832H155.64V121.308C155.64 121.574 155.612 121.812 155.486 122.218C155.458 122.33 155.416 122.428 155.514 122.456C155.612 122.484 155.654 122.4 155.668 122.344C156.018 121.364 156.844 120.72 157.824 120.72C158.734 120.72 159.448 121.364 159.658 122.246C159.672 122.316 159.714 122.358 159.798 122.358C159.896 122.358 159.924 122.316 159.952 122.246C160.33 121.266 161.058 120.72 161.94 120.72ZM172.217 124.318C172.217 124.514 172.203 124.654 172.175 124.808H166.827C166.925 125.956 167.709 126.88 169.011 126.88C169.977 126.88 170.453 126.404 170.705 125.578H172.091C171.797 126.908 170.817 128.112 168.983 128.112C166.729 128.112 165.497 126.446 165.497 124.416C165.497 122.26 166.897 120.72 168.955 120.72C170.551 120.72 172.217 121.77 172.217 124.318ZM166.897 123.688H170.873C170.789 122.638 170.117 121.896 169.025 121.896C167.681 121.896 167.093 122.722 166.897 123.688ZM173.112 125.508H174.428C174.442 126.054 174.89 126.936 176.29 126.936C177.662 126.936 178.04 126.39 178.04 125.928C178.04 125.284 177.438 125.088 175.8 124.92C173.924 124.724 173.336 123.87 173.336 122.932C173.336 121.854 174.316 120.72 176.276 120.72C178.082 120.72 179.062 121.756 179.16 123.1H177.844C177.802 122.638 177.494 121.896 176.234 121.896C175.1 121.896 174.68 122.358 174.68 122.834C174.68 123.296 174.946 123.604 176.5 123.772C178.432 123.982 179.384 124.542 179.384 125.718C179.384 127.174 178.194 128.112 176.234 128.112C174.288 128.112 173.182 127.09 173.112 125.508ZM180.276 125.508H181.592C181.606 126.054 182.054 126.936 183.454 126.936C184.826 126.936 185.204 126.39 185.204 125.928C185.204 125.284 184.602 125.088 182.964 124.92C181.088 124.724 180.5 123.87 180.5 122.932C180.5 121.854 181.48 120.72 183.44 120.72C185.246 120.72 186.226 121.756 186.324 123.1H185.008C184.966 122.638 184.658 121.896 183.398 121.896C182.264 121.896 181.844 122.358 181.844 122.834C181.844 123.296 182.11 123.604 183.664 123.772C185.596 123.982 186.548 124.542 186.548 125.718C186.548 127.174 185.358 128.112 183.398 128.112C181.452 128.112 180.346 127.09 180.276 125.508ZM187.44 125.998C187.44 124.36 188.644 123.856 190.016 123.758C191.304 123.66 192.606 123.814 192.592 123.072C192.578 122.484 192.242 121.896 190.772 121.896C189.512 121.896 189.078 122.372 188.98 123.072H187.664C187.916 121.434 189.176 120.72 190.828 120.72C192.438 120.72 193.936 121.28 193.936 123.912V128H192.592V127.314C192.592 127.048 192.62 126.838 192.746 126.474C192.774 126.348 192.83 126.236 192.732 126.194C192.62 126.152 192.592 126.264 192.564 126.334C192.158 127.398 191.206 128.112 189.904 128.112C188.546 128.112 187.44 127.216 187.44 125.998ZM192.592 124.136C192.158 124.668 191.192 124.682 190.1 124.836C189.232 124.962 188.784 125.27 188.784 125.928C188.784 126.502 189.26 127.034 190.422 126.88C191.514 126.74 192.578 125.942 192.592 124.136ZM195.165 124.36C195.165 122.218 196.467 120.72 198.329 120.72C199.477 120.72 200.289 121.336 200.737 122.246C200.751 122.288 200.807 122.428 200.891 122.4C201.031 122.358 200.933 122.204 200.891 122.078C200.793 121.826 200.765 121.644 200.765 121.308V120.832H202.109V127.356C202.109 129.68 200.695 130.8 198.679 130.8C196.565 130.8 195.515 129.722 195.389 128.448H196.733C196.817 129.022 197.125 129.736 198.665 129.736C200.023 129.736 200.765 128.938 200.765 127.356C200.765 127.048 200.793 126.852 200.891 126.614C200.947 126.488 201.017 126.362 200.891 126.32C200.793 126.292 200.751 126.404 200.737 126.446C200.275 127.412 199.449 128 198.329 128C196.467 128 195.165 126.502 195.165 124.36ZM198.637 126.768C199.911 126.768 200.765 125.718 200.765 124.36C200.765 123.002 199.911 121.952 198.637 121.952C197.251 121.952 196.509 123.002 196.509 124.36C196.509 125.718 197.251 126.768 198.637 126.768ZM209.951 124.318C209.951 124.514 209.937 124.654 209.909 124.808H204.561C204.659 125.956 205.443 126.88 206.745 126.88C207.711 126.88 208.187 126.404 208.439 125.578H209.825C209.531 126.908 208.551 128.112 206.717 128.112C204.463 128.112 203.231 126.446 203.231 124.416C203.231 122.26 204.631 120.72 206.689 120.72C208.285 120.72 209.951 121.77 209.951 124.318ZM204.631 123.688H208.607C208.523 122.638 207.851 121.896 206.759 121.896C205.415 121.896 204.827 122.722 204.631 123.688ZM219.811 122.008H217.795V125.76C217.795 126.572 217.963 126.824 218.747 126.824H219.811V128H218.635C217.151 128 216.451 127.454 216.451 125.9V122.008H215.107V120.832H216.451V118.816H217.795V120.832H219.811V122.008ZM223.957 120.72C226.127 120.72 227.429 122.386 227.429 124.416C227.429 126.446 226.127 128.112 223.957 128.112C221.787 128.112 220.485 126.446 220.485 124.416C220.485 122.386 221.787 120.72 223.957 120.72ZM223.957 126.88C225.301 126.88 226.085 125.774 226.085 124.416C226.085 123.058 225.301 121.952 223.957 121.952C222.613 121.952 221.829 123.058 221.829 124.416C221.829 125.774 222.613 126.88 223.957 126.88ZM232.355 120.832H233.811L235.743 126.124C235.841 126.376 235.855 126.642 235.855 126.88C235.855 126.964 235.855 127.062 235.967 127.062C236.079 127.062 236.079 126.964 236.079 126.88C236.079 126.642 236.121 126.376 236.205 126.124L238.067 120.832H239.523L236.415 128.854C235.911 130.17 235.211 130.688 233.923 130.688H232.999V129.512H233.643C234.707 129.512 234.889 129.274 235.099 128.756L235.295 128.28L232.355 120.832ZM243.221 120.72C245.391 120.72 246.693 122.386 246.693 124.416C246.693 126.446 245.391 128.112 243.221 128.112C241.051 128.112 239.749 126.446 239.749 124.416C239.749 122.386 241.051 120.72 243.221 120.72ZM243.221 126.88C244.565 126.88 245.349 125.774 245.349 124.416C245.349 123.058 244.565 121.952 243.221 121.952C241.877 121.952 241.093 123.058 241.093 124.416C241.093 125.774 241.877 126.88 243.221 126.88ZM250.467 128.112C248.815 128.112 247.807 127.188 247.807 125.088V120.832H249.151V124.808C249.151 126.474 249.865 126.936 250.803 126.936C251.839 126.936 252.959 125.886 252.959 124.178V120.832H254.303V128H252.959V127.524C252.959 127.23 252.987 126.936 253.113 126.572C253.155 126.446 253.211 126.32 253.099 126.278C253.015 126.25 252.973 126.348 252.945 126.404C252.609 127.076 251.755 128.112 250.467 128.112ZM257.22 122.498C257.29 122.512 257.332 122.442 257.36 122.372C257.808 121.224 258.214 120.72 260.02 120.72V122.092C257.934 121.952 257.332 122.694 257.332 124.57V128H255.988V120.832H257.332V121.308C257.332 121.602 257.304 121.826 257.178 122.246C257.15 122.358 257.108 122.47 257.22 122.498ZM270.997 117.92H272.341V128H270.997V127.398C270.997 127.146 271.025 126.95 271.137 126.642C271.179 126.53 271.249 126.404 271.109 126.362C271.025 126.334 270.983 126.446 270.969 126.488C270.633 127.496 269.681 128.112 268.561 128.112C266.699 128.112 265.397 126.544 265.397 124.416C265.397 122.288 266.699 120.72 268.561 120.72C269.709 120.72 270.647 121.35 270.969 122.316C270.983 122.358 271.025 122.498 271.137 122.456C271.263 122.414 271.179 122.274 271.137 122.162C271.025 121.868 270.997 121.658 270.997 121.392V117.92ZM268.841 126.88C270.115 126.88 270.997 125.746 270.997 124.416C270.997 123.086 270.115 121.952 268.841 121.952C267.441 121.952 266.741 123.086 266.741 124.416C266.741 125.746 267.441 126.88 268.841 126.88ZM276.936 120.72C279.106 120.72 280.408 122.386 280.408 124.416C280.408 126.446 279.106 128.112 276.936 128.112C274.766 128.112 273.464 126.446 273.464 124.416C273.464 122.386 274.766 120.72 276.936 120.72ZM276.936 126.88C278.28 126.88 279.064 125.774 279.064 124.416C279.064 123.058 278.28 121.952 276.936 121.952C275.592 121.952 274.808 123.058 274.808 124.416C274.808 125.774 275.592 126.88 276.936 126.88ZM285.363 120.72C287.015 120.72 288.023 121.644 288.023 123.744V128H286.679V124.024C286.679 122.358 285.965 121.896 285.027 121.896C283.991 121.896 282.871 122.946 282.871 124.654V128H281.527V120.832H282.871V121.308C282.871 121.602 282.843 121.896 282.717 122.26C282.675 122.386 282.619 122.526 282.731 122.554C282.815 122.582 282.857 122.484 282.885 122.428C283.165 121.728 284.075 120.72 285.363 120.72ZM292.617 120.72C294.787 120.72 296.089 122.386 296.089 124.416C296.089 126.446 294.787 128.112 292.617 128.112C290.447 128.112 289.145 126.446 289.145 124.416C289.145 122.386 290.447 120.72 292.617 120.72ZM292.617 126.88C293.961 126.88 294.745 125.774 294.745 124.416C294.745 123.058 293.961 121.952 292.617 121.952C291.273 121.952 290.489 123.058 290.489 124.416C290.489 125.774 291.273 126.88 292.617 126.88ZM298.441 122.498C298.511 122.512 298.553 122.442 298.581 122.372C299.029 121.224 299.435 120.72 301.241 120.72V122.092C299.155 121.952 298.553 122.694 298.553 124.57V128H297.209V120.832H298.553V121.308C298.553 121.602 298.525 121.826 298.399 122.246C298.37 122.358 298.329 122.47 298.441 122.498ZM301.682 125.508H302.998C303.012 126.054 303.46 126.936 304.86 126.936C306.232 126.936 306.61 126.39 306.61 125.928C306.61 125.284 306.008 125.088 304.37 124.92C302.494 124.724 301.906 123.87 301.906 122.932C301.906 121.854 302.886 120.72 304.846 120.72C306.652 120.72 307.632 121.756 307.73 123.1H306.414C306.372 122.638 306.064 121.896 304.804 121.896C303.67 121.896 303.25 122.358 303.25 122.834C303.25 123.296 303.516 123.604 305.07 123.772C307.002 123.982 307.954 124.542 307.954 125.718C307.954 127.174 306.764 128.112 304.804 128.112C302.858 128.112 301.752 127.09 301.682 125.508ZM309.07 126.208H310.862V128H309.07V126.208Z" fill="#475467"/>
<path d="M335 28L323 40M323 28L335 40" stroke="#98A2B3" stroke-width="2" stroke-linecap="round" stroke-linejoin="round"/>
<g filter="url(#filter1_d_8515_18586)">
<path d="M36 164C36 159.582 39.5817 156 44 156H339C343.418 156 347 159.582 347 164V192C347 196.418 343.418 200 339 200H44C39.5817 200 36 196.418 36 192V164Z" fill="#00B964"/>
<path d="M137.636 174.131V172.364H146.92V174.131H143.324V184H141.233V174.131H137.636ZM150.676 178.886V184H148.619V172.364H150.631V176.756H150.733C150.938 176.263 151.254 175.875 151.682 175.591C152.114 175.303 152.663 175.159 153.33 175.159C153.936 175.159 154.464 175.286 154.915 175.54C155.366 175.794 155.714 176.165 155.96 176.653C156.21 177.142 156.335 177.739 156.335 178.443V184H154.278V178.761C154.278 178.174 154.127 177.718 153.824 177.392C153.525 177.062 153.104 176.898 152.562 176.898C152.199 176.898 151.873 176.977 151.585 177.136C151.301 177.292 151.078 177.517 150.915 177.812C150.756 178.108 150.676 178.466 150.676 178.886ZM160.943 184.176C160.39 184.176 159.892 184.078 159.449 183.881C159.009 183.68 158.661 183.384 158.403 182.994C158.15 182.604 158.023 182.123 158.023 181.551C158.023 181.059 158.114 180.652 158.295 180.33C158.477 180.008 158.725 179.75 159.04 179.557C159.354 179.364 159.708 179.218 160.102 179.119C160.5 179.017 160.911 178.943 161.335 178.898C161.847 178.845 162.261 178.797 162.58 178.756C162.898 178.71 163.129 178.642 163.273 178.551C163.42 178.456 163.494 178.311 163.494 178.114V178.08C163.494 177.652 163.367 177.32 163.114 177.085C162.86 176.85 162.494 176.733 162.017 176.733C161.513 176.733 161.114 176.843 160.818 177.062C160.527 177.282 160.33 177.542 160.227 177.841L158.307 177.568C158.458 177.038 158.708 176.595 159.057 176.239C159.405 175.879 159.831 175.61 160.335 175.432C160.839 175.25 161.396 175.159 162.006 175.159C162.426 175.159 162.845 175.208 163.261 175.307C163.678 175.405 164.059 175.568 164.403 175.795C164.748 176.019 165.025 176.324 165.233 176.71C165.445 177.097 165.551 177.58 165.551 178.159V184H163.574V182.801H163.506C163.381 183.044 163.205 183.271 162.977 183.483C162.754 183.691 162.472 183.86 162.131 183.989C161.794 184.114 161.398 184.176 160.943 184.176ZM161.477 182.665C161.89 182.665 162.248 182.583 162.551 182.42C162.854 182.254 163.087 182.034 163.25 181.761C163.417 181.489 163.5 181.191 163.5 180.869V179.841C163.436 179.894 163.326 179.943 163.17 179.989C163.019 180.034 162.848 180.074 162.659 180.108C162.47 180.142 162.282 180.172 162.097 180.199C161.911 180.225 161.75 180.248 161.614 180.267C161.307 180.309 161.032 180.377 160.79 180.472C160.547 180.566 160.356 180.699 160.216 180.869C160.076 181.036 160.006 181.252 160.006 181.517C160.006 181.896 160.144 182.182 160.42 182.375C160.697 182.568 161.049 182.665 161.477 182.665ZM169.676 178.886V184H167.619V175.273H169.585V176.756H169.688C169.888 176.267 170.208 175.879 170.648 175.591C171.091 175.303 171.638 175.159 172.29 175.159C172.892 175.159 173.417 175.288 173.864 175.545C174.314 175.803 174.663 176.176 174.909 176.665C175.159 177.153 175.282 177.746 175.278 178.443V184H173.222V178.761C173.222 178.178 173.07 177.722 172.767 177.392C172.468 177.062 172.053 176.898 171.523 176.898C171.163 176.898 170.843 176.977 170.562 177.136C170.286 177.292 170.068 177.517 169.909 177.812C169.754 178.108 169.676 178.466 169.676 178.886ZM179.244 181.261L179.239 178.778H179.568L182.705 175.273H185.108L181.25 179.568H180.824L179.244 181.261ZM177.369 184V172.364H179.426V184H177.369ZM182.847 184L180.006 180.028L181.392 178.58L185.307 184H182.847ZM194.482 184H190.538V172.364H194.561C195.716 172.364 196.709 172.597 197.538 173.062C198.372 173.525 199.012 174.189 199.459 175.057C199.906 175.924 200.129 176.962 200.129 178.17C200.129 179.383 199.904 180.424 199.453 181.295C199.006 182.167 198.36 182.835 197.516 183.301C196.675 183.767 195.663 184 194.482 184ZM192.646 182.176H194.379C195.19 182.176 195.866 182.028 196.408 181.733C196.949 181.434 197.357 180.989 197.629 180.398C197.902 179.803 198.038 179.061 198.038 178.17C198.038 177.28 197.902 176.542 197.629 175.955C197.357 175.364 196.953 174.922 196.419 174.631C195.889 174.335 195.23 174.188 194.442 174.188H192.646V182.176ZM205.848 184.17C204.996 184.17 204.257 183.983 203.632 183.608C203.007 183.233 202.522 182.708 202.178 182.034C201.837 181.36 201.666 180.572 201.666 179.67C201.666 178.769 201.837 177.979 202.178 177.301C202.522 176.623 203.007 176.097 203.632 175.722C204.257 175.347 204.996 175.159 205.848 175.159C206.7 175.159 207.439 175.347 208.064 175.722C208.689 176.097 209.172 176.623 209.513 177.301C209.857 177.979 210.03 178.769 210.03 179.67C210.03 180.572 209.857 181.36 209.513 182.034C209.172 182.708 208.689 183.233 208.064 183.608C207.439 183.983 206.7 184.17 205.848 184.17ZM205.859 182.523C206.321 182.523 206.708 182.396 207.018 182.142C207.329 181.884 207.56 181.54 207.712 181.108C207.867 180.676 207.945 180.195 207.945 179.665C207.945 179.131 207.867 178.648 207.712 178.216C207.56 177.78 207.329 177.434 207.018 177.176C206.708 176.919 206.321 176.79 205.859 176.79C205.386 176.79 204.992 176.919 204.678 177.176C204.367 177.434 204.134 177.78 203.979 178.216C203.827 178.648 203.751 179.131 203.751 179.665C203.751 180.195 203.827 180.676 203.979 181.108C204.134 181.54 204.367 181.884 204.678 182.142C204.992 182.396 205.386 182.523 205.859 182.523ZM213.832 178.886V184H211.776V175.273H213.741V176.756H213.844C214.045 176.267 214.365 175.879 214.804 175.591C215.247 175.303 215.795 175.159 216.446 175.159C217.048 175.159 217.573 175.288 218.02 175.545C218.471 175.803 218.819 176.176 219.065 176.665C219.315 177.153 219.438 177.746 219.435 178.443V184H217.378V178.761C217.378 178.178 217.226 177.722 216.923 177.392C216.624 177.062 216.209 176.898 215.679 176.898C215.319 176.898 214.999 176.977 214.719 177.136C214.442 177.292 214.224 177.517 214.065 177.812C213.91 178.108 213.832 178.466 213.832 178.886ZM225.332 184.17C224.48 184.17 223.741 183.983 223.116 183.608C222.491 183.233 222.007 182.708 221.662 182.034C221.321 181.36 221.151 180.572 221.151 179.67C221.151 178.769 221.321 177.979 221.662 177.301C222.007 176.623 222.491 176.097 223.116 175.722C223.741 175.347 224.48 175.159 225.332 175.159C226.185 175.159 226.923 175.347 227.548 175.722C228.173 176.097 228.656 176.623 228.997 177.301C229.342 177.979 229.514 178.769 229.514 179.67C229.514 180.572 229.342 181.36 228.997 182.034C228.656 182.708 228.173 183.233 227.548 183.608C226.923 183.983 226.185 184.17 225.332 184.17ZM225.344 182.523C225.806 182.523 226.192 182.396 226.503 182.142C226.813 181.884 227.045 181.54 227.196 181.108C227.351 180.676 227.429 180.195 227.429 179.665C227.429 179.131 227.351 178.648 227.196 178.216C227.045 177.78 226.813 177.434 226.503 177.176C226.192 176.919 225.806 176.79 225.344 176.79C224.87 176.79 224.476 176.919 224.162 177.176C223.851 177.434 223.618 177.78 223.463 178.216C223.312 178.648 223.236 179.131 223.236 179.665C223.236 180.195 223.312 180.676 223.463 181.108C223.618 181.54 223.851 181.884 224.162 182.142C224.476 182.396 224.87 182.523 225.344 182.523ZM231.26 184V175.273H233.254V176.727H233.345C233.504 176.223 233.777 175.835 234.163 175.562C234.554 175.286 234.999 175.148 235.499 175.148C235.612 175.148 235.739 175.153 235.879 175.165C236.023 175.172 236.143 175.186 236.237 175.205V177.097C236.15 177.066 236.012 177.04 235.822 177.017C235.637 176.991 235.457 176.977 235.283 176.977C234.908 176.977 234.571 177.059 234.271 177.222C233.976 177.381 233.743 177.602 233.572 177.886C233.402 178.17 233.317 178.498 233.317 178.869V184H231.26ZM244.501 177.58L242.626 177.784C242.573 177.595 242.481 177.417 242.348 177.25C242.219 177.083 242.045 176.949 241.825 176.847C241.606 176.744 241.337 176.693 241.018 176.693C240.59 176.693 240.231 176.786 239.939 176.972C239.651 177.157 239.509 177.398 239.513 177.693C239.509 177.947 239.602 178.153 239.791 178.312C239.984 178.472 240.303 178.602 240.746 178.705L242.234 179.023C243.06 179.201 243.674 179.483 244.075 179.869C244.481 180.256 244.685 180.761 244.689 181.386C244.685 181.936 244.524 182.42 244.206 182.841C243.892 183.258 243.454 183.583 242.893 183.818C242.333 184.053 241.689 184.17 240.962 184.17C239.893 184.17 239.034 183.947 238.382 183.5C237.731 183.049 237.342 182.422 237.217 181.619L239.223 181.426C239.314 181.82 239.507 182.117 239.803 182.318C240.098 182.519 240.482 182.619 240.956 182.619C241.445 182.619 241.837 182.519 242.132 182.318C242.431 182.117 242.581 181.869 242.581 181.574C242.581 181.324 242.484 181.117 242.291 180.955C242.102 180.792 241.806 180.667 241.405 180.58L239.916 180.267C239.079 180.093 238.46 179.799 238.058 179.386C237.657 178.97 237.458 178.443 237.462 177.807C237.458 177.269 237.604 176.803 237.899 176.409C238.198 176.011 238.613 175.705 239.143 175.489C239.678 175.269 240.293 175.159 240.99 175.159C242.013 175.159 242.818 175.377 243.405 175.812C243.996 176.248 244.361 176.837 244.501 177.58Z" fill="white"/>
</g>
<g filter="url(#filter2_d_8515_18586)">
<path d="M36 220C36 215.582 39.5817 212 44 212H339C343.418 212 347 215.582 347 220V248C347 252.418 343.418 256 339 256H44C39.5817 256 36 252.418 36 248V220Z" fill="white"/>
<path d="M36.5 220C36.5 215.858 39.8579 212.5 44 212.5H339C343.142 212.5 346.5 215.858 346.5 220V248C346.5 252.142 343.142 255.5 339 255.5H44C39.8579 255.5 36.5 252.142 36.5 248V220Z" stroke="#D0D5DD"/>
<path d="M134.972 231.562C134.919 231.066 134.695 230.68 134.301 230.403C133.911 230.127 133.403 229.989 132.778 229.989C132.339 229.989 131.962 230.055 131.648 230.188C131.333 230.32 131.093 230.5 130.926 230.727C130.759 230.955 130.674 231.214 130.67 231.506C130.67 231.748 130.725 231.958 130.835 232.136C130.949 232.314 131.102 232.466 131.295 232.591C131.489 232.712 131.703 232.814 131.938 232.898C132.172 232.981 132.409 233.051 132.648 233.108L133.739 233.381C134.178 233.483 134.6 233.621 135.006 233.795C135.415 233.97 135.78 234.189 136.102 234.455C136.428 234.72 136.686 235.04 136.875 235.415C137.064 235.79 137.159 236.229 137.159 236.733C137.159 237.415 136.985 238.015 136.636 238.534C136.288 239.049 135.784 239.453 135.125 239.744C134.47 240.032 133.676 240.176 132.744 240.176C131.839 240.176 131.053 240.036 130.386 239.756C129.723 239.475 129.205 239.066 128.83 238.528C128.458 237.991 128.258 237.335 128.227 236.562H130.301C130.331 236.968 130.456 237.305 130.676 237.574C130.896 237.843 131.182 238.044 131.534 238.176C131.89 238.309 132.288 238.375 132.727 238.375C133.186 238.375 133.587 238.307 133.932 238.17C134.28 238.03 134.553 237.837 134.75 237.591C134.947 237.341 135.047 237.049 135.051 236.716C135.047 236.413 134.958 236.163 134.784 235.966C134.61 235.765 134.366 235.598 134.051 235.466C133.741 235.33 133.377 235.208 132.96 235.102L131.636 234.761C130.678 234.515 129.92 234.142 129.364 233.642C128.811 233.138 128.534 232.47 128.534 231.636C128.534 230.951 128.72 230.35 129.091 229.835C129.466 229.32 129.975 228.92 130.619 228.636C131.263 228.348 131.992 228.205 132.807 228.205C133.633 228.205 134.356 228.348 134.977 228.636C135.602 228.92 136.093 229.316 136.449 229.824C136.805 230.328 136.989 230.907 137 231.562H134.972ZM141.004 234.886V240H138.947V228.364H140.959V232.756H141.061C141.266 232.263 141.582 231.875 142.01 231.591C142.442 231.303 142.991 231.159 143.658 231.159C144.264 231.159 144.792 231.286 145.243 231.54C145.694 231.794 146.042 232.165 146.288 232.653C146.538 233.142 146.663 233.739 146.663 234.443V240H144.607V234.761C144.607 234.174 144.455 233.718 144.152 233.392C143.853 233.062 143.432 232.898 142.891 232.898C142.527 232.898 142.201 232.977 141.913 233.136C141.629 233.292 141.406 233.517 141.243 233.812C141.084 234.108 141.004 234.466 141.004 234.886ZM151.271 240.176C150.718 240.176 150.22 240.078 149.777 239.881C149.338 239.68 148.989 239.384 148.732 238.994C148.478 238.604 148.351 238.123 148.351 237.551C148.351 237.059 148.442 236.652 148.624 236.33C148.805 236.008 149.054 235.75 149.368 235.557C149.682 235.364 150.036 235.218 150.43 235.119C150.828 235.017 151.239 234.943 151.663 234.898C152.175 234.845 152.589 234.797 152.908 234.756C153.226 234.71 153.457 234.642 153.601 234.551C153.749 234.456 153.822 234.311 153.822 234.114V234.08C153.822 233.652 153.696 233.32 153.442 233.085C153.188 232.85 152.822 232.733 152.345 232.733C151.841 232.733 151.442 232.843 151.146 233.062C150.855 233.282 150.658 233.542 150.555 233.841L148.635 233.568C148.786 233.038 149.036 232.595 149.385 232.239C149.733 231.879 150.16 231.61 150.663 231.432C151.167 231.25 151.724 231.159 152.334 231.159C152.754 231.159 153.173 231.208 153.589 231.307C154.006 231.405 154.387 231.568 154.732 231.795C155.076 232.019 155.353 232.324 155.561 232.71C155.773 233.097 155.879 233.58 155.879 234.159V240H153.902V238.801H153.834C153.709 239.044 153.533 239.271 153.305 239.483C153.082 239.691 152.8 239.86 152.459 239.989C152.122 240.114 151.726 240.176 151.271 240.176ZM151.805 238.665C152.218 238.665 152.576 238.583 152.879 238.42C153.182 238.254 153.415 238.034 153.578 237.761C153.745 237.489 153.828 237.191 153.828 236.869V235.841C153.764 235.894 153.654 235.943 153.499 235.989C153.347 236.034 153.177 236.074 152.987 236.108C152.798 236.142 152.61 236.172 152.425 236.199C152.239 236.225 152.078 236.248 151.942 236.267C151.635 236.309 151.36 236.377 151.118 236.472C150.875 236.566 150.684 236.699 150.544 236.869C150.404 237.036 150.334 237.252 150.334 237.517C150.334 237.896 150.472 238.182 150.749 238.375C151.025 238.568 151.377 238.665 151.805 238.665ZM157.947 240V231.273H159.942V232.727H160.033C160.192 232.223 160.464 231.835 160.851 231.562C161.241 231.286 161.686 231.148 162.186 231.148C162.3 231.148 162.427 231.153 162.567 231.165C162.711 231.172 162.83 231.186 162.925 231.205V233.097C162.838 233.066 162.699 233.04 162.51 233.017C162.324 232.991 162.144 232.977 161.97 232.977C161.595 232.977 161.258 233.059 160.959 233.222C160.663 233.381 160.43 233.602 160.26 233.886C160.089 234.17 160.004 234.498 160.004 234.869V240H157.947ZM167.795 240.17C166.92 240.17 166.165 239.989 165.528 239.625C164.896 239.258 164.409 238.739 164.068 238.068C163.727 237.394 163.557 236.6 163.557 235.688C163.557 234.79 163.727 234.002 164.068 233.324C164.413 232.642 164.894 232.112 165.511 231.733C166.129 231.35 166.854 231.159 167.688 231.159C168.225 231.159 168.733 231.246 169.21 231.42C169.691 231.591 170.116 231.856 170.483 232.216C170.854 232.576 171.146 233.034 171.358 233.591C171.57 234.144 171.676 234.803 171.676 235.568V236.199H164.523V234.812H169.705C169.701 234.419 169.616 234.068 169.449 233.761C169.282 233.451 169.049 233.206 168.75 233.028C168.455 232.85 168.11 232.761 167.716 232.761C167.295 232.761 166.926 232.864 166.608 233.068C166.29 233.269 166.042 233.534 165.864 233.864C165.689 234.189 165.6 234.547 165.597 234.938V236.148C165.597 236.655 165.689 237.091 165.875 237.455C166.061 237.814 166.32 238.091 166.653 238.284C166.987 238.473 167.377 238.568 167.824 238.568C168.123 238.568 168.394 238.527 168.636 238.443C168.879 238.356 169.089 238.229 169.267 238.062C169.445 237.896 169.58 237.689 169.67 237.443L171.591 237.659C171.47 238.167 171.239 238.61 170.898 238.989C170.561 239.364 170.129 239.655 169.602 239.864C169.076 240.068 168.473 240.17 167.795 240.17ZM181.192 240.17C180.339 240.17 179.601 239.983 178.976 239.608C178.351 239.233 177.866 238.708 177.521 238.034C177.18 237.36 177.01 236.572 177.01 235.67C177.01 234.769 177.18 233.979 177.521 233.301C177.866 232.623 178.351 232.097 178.976 231.722C179.601 231.347 180.339 231.159 181.192 231.159C182.044 231.159 182.783 231.347 183.408 231.722C184.033 232.097 184.516 232.623 184.857 233.301C185.201 233.979 185.374 234.769 185.374 235.67C185.374 236.572 185.201 237.36 184.857 238.034C184.516 238.708 184.033 239.233 183.408 239.608C182.783 239.983 182.044 240.17 181.192 240.17ZM181.203 238.523C181.665 238.523 182.052 238.396 182.362 238.142C182.673 237.884 182.904 237.54 183.055 237.108C183.211 236.676 183.288 236.195 183.288 235.665C183.288 235.131 183.211 234.648 183.055 234.216C182.904 233.78 182.673 233.434 182.362 233.176C182.052 232.919 181.665 232.79 181.203 232.79C180.73 232.79 180.336 232.919 180.021 233.176C179.711 233.434 179.478 233.78 179.322 234.216C179.171 234.648 179.095 235.131 179.095 235.665C179.095 236.195 179.171 236.676 179.322 237.108C179.478 237.54 179.711 237.884 180.021 238.142C180.336 238.396 180.73 238.523 181.203 238.523ZM189.176 234.886V240H187.119V231.273H189.085V232.756H189.188C189.388 232.267 189.708 231.879 190.148 231.591C190.591 231.303 191.138 231.159 191.79 231.159C192.392 231.159 192.917 231.288 193.364 231.545C193.814 231.803 194.163 232.176 194.409 232.665C194.659 233.153 194.782 233.746 194.778 234.443V240H192.722V234.761C192.722 234.178 192.57 233.722 192.267 233.392C191.968 233.062 191.553 232.898 191.023 232.898C190.663 232.898 190.343 232.977 190.062 233.136C189.786 233.292 189.568 233.517 189.409 233.812C189.254 234.108 189.176 234.466 189.176 234.886ZM207.253 231.562C207.2 231.066 206.976 230.68 206.582 230.403C206.192 230.127 205.685 229.989 205.06 229.989C204.62 229.989 204.243 230.055 203.929 230.188C203.615 230.32 203.374 230.5 203.207 230.727C203.041 230.955 202.955 231.214 202.952 231.506C202.952 231.748 203.007 231.958 203.116 232.136C203.23 232.314 203.384 232.466 203.577 232.591C203.77 232.712 203.984 232.814 204.219 232.898C204.454 232.981 204.69 233.051 204.929 233.108L206.02 233.381C206.459 233.483 206.882 233.621 207.287 233.795C207.696 233.97 208.062 234.189 208.384 234.455C208.709 234.72 208.967 235.04 209.156 235.415C209.346 235.79 209.44 236.229 209.44 236.733C209.44 237.415 209.266 238.015 208.918 238.534C208.569 239.049 208.065 239.453 207.406 239.744C206.751 240.032 205.957 240.176 205.026 240.176C204.12 240.176 203.334 240.036 202.668 239.756C202.005 239.475 201.486 239.066 201.111 238.528C200.74 237.991 200.539 237.335 200.509 236.562H202.582C202.613 236.968 202.738 237.305 202.957 237.574C203.177 237.843 203.463 238.044 203.815 238.176C204.171 238.309 204.569 238.375 205.009 238.375C205.467 238.375 205.868 238.307 206.213 238.17C206.562 238.03 206.834 237.837 207.031 237.591C207.228 237.341 207.329 237.049 207.332 236.716C207.329 236.413 207.24 236.163 207.065 235.966C206.891 235.765 206.647 235.598 206.332 235.466C206.022 235.33 205.658 235.208 205.241 235.102L203.918 234.761C202.959 234.515 202.202 234.142 201.645 233.642C201.092 233.138 200.815 232.47 200.815 231.636C200.815 230.951 201.001 230.35 201.372 229.835C201.747 229.32 202.257 228.92 202.901 228.636C203.545 228.348 204.274 228.205 205.088 228.205C205.914 228.205 206.637 228.348 207.259 228.636C207.884 228.92 208.374 229.316 208.73 229.824C209.086 230.328 209.27 230.907 209.281 231.562H207.253ZM215.036 240.17C214.183 240.17 213.445 239.983 212.82 239.608C212.195 239.233 211.71 238.708 211.365 238.034C211.024 237.36 210.854 236.572 210.854 235.67C210.854 234.769 211.024 233.979 211.365 233.301C211.71 232.623 212.195 232.097 212.82 231.722C213.445 231.347 214.183 231.159 215.036 231.159C215.888 231.159 216.626 231.347 217.251 231.722C217.876 232.097 218.359 232.623 218.7 233.301C219.045 233.979 219.217 234.769 219.217 235.67C219.217 236.572 219.045 237.36 218.7 238.034C218.359 238.708 217.876 239.233 217.251 239.608C216.626 239.983 215.888 240.17 215.036 240.17ZM215.047 238.523C215.509 238.523 215.895 238.396 216.206 238.142C216.517 237.884 216.748 237.54 216.899 237.108C217.054 236.676 217.132 236.195 217.132 235.665C217.132 235.131 217.054 234.648 216.899 234.216C216.748 233.78 216.517 233.434 216.206 233.176C215.895 232.919 215.509 232.79 215.047 232.79C214.573 232.79 214.179 232.919 213.865 233.176C213.554 233.434 213.321 233.78 213.166 234.216C213.015 234.648 212.939 235.131 212.939 235.665C212.939 236.195 213.015 236.676 213.166 237.108C213.321 237.54 213.554 237.884 213.865 238.142C214.179 238.396 214.573 238.523 215.047 238.523ZM224.77 240.17C223.899 240.17 223.151 239.979 222.526 239.597C221.904 239.214 221.425 238.686 221.088 238.011C220.755 237.333 220.588 236.553 220.588 235.67C220.588 234.784 220.759 234.002 221.099 233.324C221.44 232.642 221.921 232.112 222.543 231.733C223.168 231.35 223.906 231.159 224.759 231.159C225.467 231.159 226.094 231.29 226.639 231.551C227.188 231.809 227.626 232.174 227.952 232.648C228.277 233.117 228.463 233.667 228.509 234.295H226.543C226.463 233.875 226.274 233.525 225.974 233.244C225.679 232.96 225.283 232.818 224.787 232.818C224.366 232.818 223.997 232.932 223.679 233.159C223.361 233.383 223.113 233.705 222.935 234.125C222.76 234.545 222.673 235.049 222.673 235.636C222.673 236.231 222.76 236.742 222.935 237.17C223.109 237.595 223.353 237.922 223.668 238.153C223.986 238.381 224.359 238.494 224.787 238.494C225.09 238.494 225.361 238.437 225.599 238.324C225.842 238.206 226.045 238.038 226.207 237.818C226.37 237.598 226.482 237.331 226.543 237.017H228.509C228.459 237.634 228.277 238.182 227.963 238.659C227.649 239.133 227.221 239.504 226.679 239.773C226.137 240.038 225.501 240.17 224.77 240.17ZM230.197 240V231.273H232.254V240H230.197ZM231.232 230.034C230.906 230.034 230.625 229.926 230.391 229.71C230.156 229.491 230.038 229.227 230.038 228.92C230.038 228.61 230.156 228.347 230.391 228.131C230.625 227.911 230.906 227.801 231.232 227.801C231.561 227.801 231.841 227.911 232.072 228.131C232.307 228.347 232.425 228.61 232.425 228.92C232.425 229.227 232.307 229.491 232.072 229.71C231.841 229.926 231.561 230.034 231.232 230.034ZM236.881 240.176C236.328 240.176 235.83 240.078 235.386 239.881C234.947 239.68 234.598 239.384 234.341 238.994C234.087 238.604 233.96 238.123 233.96 237.551C233.96 237.059 234.051 236.652 234.233 236.33C234.415 236.008 234.663 235.75 234.977 235.557C235.292 235.364 235.646 235.218 236.04 235.119C236.438 235.017 236.848 234.943 237.273 234.898C237.784 234.845 238.199 234.797 238.517 234.756C238.835 234.71 239.066 234.642 239.21 234.551C239.358 234.456 239.432 234.311 239.432 234.114V234.08C239.432 233.652 239.305 233.32 239.051 233.085C238.797 232.85 238.432 232.733 237.955 232.733C237.451 232.733 237.051 232.843 236.756 233.062C236.464 233.282 236.267 233.542 236.165 233.841L234.244 233.568C234.396 233.038 234.646 232.595 234.994 232.239C235.343 231.879 235.769 231.61 236.273 231.432C236.777 231.25 237.333 231.159 237.943 231.159C238.364 231.159 238.782 231.208 239.199 231.307C239.616 231.405 239.996 231.568 240.341 231.795C240.686 232.019 240.962 232.324 241.17 232.71C241.383 233.097 241.489 233.58 241.489 234.159V240H239.511V238.801H239.443C239.318 239.044 239.142 239.271 238.915 239.483C238.691 239.691 238.409 239.86 238.068 239.989C237.731 240.114 237.335 240.176 236.881 240.176ZM237.415 238.665C237.828 238.665 238.186 238.583 238.489 238.42C238.792 238.254 239.025 238.034 239.188 237.761C239.354 237.489 239.438 237.191 239.438 236.869V235.841C239.373 235.894 239.263 235.943 239.108 235.989C238.956 236.034 238.786 236.074 238.597 236.108C238.407 236.142 238.22 236.172 238.034 236.199C237.848 236.225 237.688 236.248 237.551 236.267C237.244 236.309 236.97 236.377 236.727 236.472C236.485 236.566 236.294 236.699 236.153 236.869C236.013 237.036 235.943 237.252 235.943 237.517C235.943 237.896 236.081 238.182 236.358 238.375C236.634 238.568 236.987 238.665 237.415 238.665ZM245.614 228.364V240H243.557V228.364H245.614ZM254.626 233.58L252.751 233.784C252.698 233.595 252.606 233.417 252.473 233.25C252.344 233.083 252.17 232.949 251.95 232.847C251.731 232.744 251.462 232.693 251.143 232.693C250.715 232.693 250.356 232.786 250.064 232.972C249.776 233.157 249.634 233.398 249.638 233.693C249.634 233.947 249.727 234.153 249.916 234.312C250.109 234.472 250.428 234.602 250.871 234.705L252.359 235.023C253.185 235.201 253.799 235.483 254.2 235.869C254.606 236.256 254.81 236.761 254.814 237.386C254.81 237.936 254.649 238.42 254.331 238.841C254.017 239.258 253.579 239.583 253.018 239.818C252.458 240.053 251.814 240.17 251.087 240.17C250.018 240.17 249.159 239.947 248.507 239.5C247.856 239.049 247.467 238.422 247.342 237.619L249.348 237.426C249.439 237.82 249.632 238.117 249.928 238.318C250.223 238.519 250.607 238.619 251.081 238.619C251.57 238.619 251.962 238.519 252.257 238.318C252.556 238.117 252.706 237.869 252.706 237.574C252.706 237.324 252.609 237.117 252.416 236.955C252.227 236.792 251.931 236.667 251.53 236.58L250.041 236.267C249.204 236.093 248.585 235.799 248.183 235.386C247.782 234.97 247.583 234.443 247.587 233.807C247.583 233.269 247.729 232.803 248.024 232.409C248.323 232.011 248.738 231.705 249.268 231.489C249.803 231.269 250.418 231.159 251.115 231.159C252.138 231.159 252.943 231.377 253.53 231.812C254.121 232.248 254.486 232.837 254.626 233.58Z" fill="#344054"/>
</g>
</g>
</g>
<defs>
<filter id="filter0_dd_8515_18586" x="0" y="0" width="383" height="312" filterUnits="userSpaceOnUse" color-interpolation-filters="sRGB">
<feFlood flood-opacity="0" result="BackgroundImageFix"/>
<feColorMatrix in="SourceAlpha" type="matrix" values="0 0 0 0 0 0 0 0 0 0 0 0 0 0 0 0 0 0 127 0" result="hardAlpha"/>
<feMorphology radius="4" operator="erode" in="SourceAlpha" result="effect1_dropShadow_8515_18586"/>
<feOffset dy="8"/>
<feGaussianBlur stdDeviation="4"/>
<feComposite in2="hardAlpha" operator="out"/>
<feColorMatrix type="matrix" values="0 0 0 0 0.0627451 0 0 0 0 0.0941176 0 0 0 0 0.156863 0 0 0 0.03 0"/>
<feBlend mode="normal" in2="BackgroundImageFix" result="effect1_dropShadow_8515_18586"/>
<feColorMatrix in="SourceAlpha" type="matrix" values="0 0 0 0 0 0 0 0 0 0 0 0 0 0 0 0 0 0 127 0" result="hardAlpha"/>
<feMorphology radius="4" operator="erode" in="SourceAlpha" result="effect2_dropShadow_8515_18586"/>
<feOffset dy="20"/>
<feGaussianBlur stdDeviation="12"/>
<feComposite in2="hardAlpha" operator="out"/>
<feColorMatrix type="matrix" values="0 0 0 0 0.0627451 0 0 0 0 0.0941176 0 0 0 0 0.156863 0 0 0 0.08 0"/>
<feBlend mode="normal" in2="effect1_dropShadow_8515_18586" result="effect2_dropShadow_8515_18586"/>
<feBlend mode="normal" in="SourceGraphic" in2="effect2_dropShadow_8515_18586" result="shape"/>
</filter>
<filter id="filter1_d_8515_18586" x="34" y="155" width="315" height="48" filterUnits="userSpaceOnUse" color-interpolation-filters="sRGB">
<feFlood flood-opacity="0" result="BackgroundImageFix"/>
<feColorMatrix in="SourceAlpha" type="matrix" values="0 0 0 0 0 0 0 0 0 0 0 0 0 0 0 0 0 0 127 0" result="hardAlpha"/>
<feOffset dy="1"/>
<feGaussianBlur stdDeviation="1"/>
<feComposite in2="hardAlpha" operator="out"/>
<feColorMatrix type="matrix" values="0 0 0 0 0.0627451 0 0 0 0 0.0941176 0 0 0 0 0.156863 0 0 0 0.05 0"/>
<feBlend mode="normal" in2="BackgroundImageFix" result="effect1_dropShadow_8515_18586"/>
<feBlend mode="normal" in="SourceGraphic" in2="effect1_dropShadow_8515_18586" result="shape"/>
</filter>
<filter id="filter2_d_8515_18586" x="34" y="211" width="315" height="48" filterUnits="userSpaceOnUse" color-interpolation-filters="sRGB">
<feFlood flood-opacity="0" result="BackgroundImageFix"/>
<feColorMatrix in="SourceAlpha" type="matrix" values="0 0 0 0 0 0 0 0 0 0 0 0 0 0 0 0 0 0 127 0" result="hardAlpha"/>
<feOffset dy="1"/>
<feGaussianBlur stdDeviation="1"/>
<feComposite in2="hardAlpha" operator="out"/>
<feColorMatrix type="matrix" values="0 0 0 0 0.0627451 0 0 0 0 0.0941176 0 0 0 0 0.156863 0 0 0 0.05 0"/>
<feBlend mode="normal" in2="BackgroundImageFix" result="effect1_dropShadow_8515_18586"/>
<feBlend mode="normal" in="SourceGraphic" in2="effect1_dropShadow_8515_18586" result="shape"/>
</filter>
<radialGradient id="paint0_radial_8515_18586" cx="0" cy="0" r="1" gradientUnits="userSpaceOnUse" gradientTransform="translate(168 168) rotate(90) scale(168 168)">
<stop/>
<stop offset="1" stop-opacity="0"/>
</radialGradient>
<clipPath id="clip0_8515_18586">
<path d="M20 12C20 5.37258 25.3726 0 32 0H351C357.627 0 363 5.37258 363 12V260C363 266.627 357.627 272 351 272H32C25.3726 272 20 266.627 20 260V12Z" fill="white"/>
</clipPath>
</defs>
</svg>
