<svg width="127" height="50" viewBox="0 0 127 50" fill="none" xmlns="http://www.w3.org/2000/svg">
<path d="M38.4423 23.068C38.44 26.9268 37.0863 30.0161 34.5576 32.6111C32.3312 34.8958 29.5928 36.1064 26.4418 36.4458C24.0826 36.6999 21.7807 36.4828 19.608 35.4981C15.5279 33.6486 12.8687 30.5856 11.8724 26.1722C11.7145 25.4731 11.6201 24.7472 11.6043 24.0314C11.5668 22.3055 12.8164 20.9032 14.5307 20.6541C15.5752 20.5023 16.5516 20.631 17.4043 21.3097C18.2145 21.9546 18.5881 22.8263 18.6997 23.8282C18.9067 25.6893 19.7942 27.1481 21.3067 28.2296C24.846 30.7601 29.8122 29.0574 31.0673 24.8916C31.3432 23.9759 31.3303 23.0481 31.2511 22.1087C31.0997 20.3148 32.3682 18.7495 34.1622 18.4847C35.1562 18.3379 36.0997 18.4286 36.9381 19.0425C37.8645 19.7212 38.271 20.6745 38.365 21.7847C38.4067 22.281 38.4256 22.7791 38.4423 23.0671V23.068Z" fill="#3B8249"/>
<path d="M26.1685 15.0377C26.1648 16.3086 25.1194 17.3451 23.8435 17.3433C22.5486 17.3414 21.5162 16.291 21.5255 14.9845C21.5342 13.7308 22.5852 12.6988 23.8505 12.7007C25.1338 12.7025 26.1722 13.7493 26.1685 15.0377Z" fill="#3B8249"/>
<path d="M16.1312 18.2777C15.0937 18.2713 14.265 17.4356 14.2705 16.4018C14.2761 15.3838 15.1178 14.5495 16.1349 14.5527C17.1682 14.5564 18.0062 15.4023 17.9955 16.4305C17.9844 17.4546 17.1479 18.2838 16.1312 18.2773V18.2777Z" fill="#3B8249"/>
<path d="M35.5857 13.4054C35.5838 15.0434 34.25 16.3688 32.606 16.367C30.969 16.3651 29.6352 15.0244 29.6426 13.3883C29.65 11.7462 30.9801 10.4244 32.6232 10.4258C34.2588 10.4272 35.5875 11.7637 35.5857 13.4054Z" fill="#3B8249"/>
<path d="M58.034 21.958C57.1673 21.958 56.4307 22.27 55.824 22.894C55.2173 23.5007 54.914 24.2373 54.914 25.104C54.914 25.9707 55.2173 26.7073 55.824 27.314C56.4307 27.9207 57.1673 28.224 58.034 28.224C58.554 28.224 58.9787 28.3887 59.308 28.718C59.6373 29.0473 59.802 29.472 59.802 29.992C59.802 30.512 59.6373 30.9367 59.308 31.266C58.9787 31.578 58.554 31.734 58.034 31.734C56.1793 31.734 54.6107 31.0927 53.328 29.81C52.0453 28.5273 51.404 26.9587 51.404 25.104C51.404 23.232 52.0367 21.6547 53.302 20.372C54.5847 19.0893 56.162 18.448 58.034 18.448C58.554 18.448 58.9787 18.6127 59.308 18.942C59.6373 19.2713 59.802 19.696 59.802 20.216C59.802 20.736 59.6373 21.1607 59.308 21.49C58.9787 21.802 58.554 21.958 58.034 21.958ZM64.7148 24.09V29.992C64.7148 30.512 64.5501 30.9367 64.2208 31.266C63.8914 31.578 63.4668 31.734 62.9468 31.734C62.4268 31.734 62.0021 31.578 61.6728 31.266C61.3608 30.9367 61.2048 30.512 61.2048 29.992V24.09C61.2048 22.5127 61.7421 21.1867 62.8168 20.112C63.9088 19.0373 65.2434 18.5 66.8208 18.5C67.3234 18.5 67.7394 18.6647 68.0688 18.994C68.3981 19.3233 68.5628 19.7393 68.5628 20.242C68.5628 21.3167 67.9648 21.906 66.7688 22.01C66.1794 22.062 65.6854 22.2787 65.2868 22.66C64.9054 23.024 64.7148 23.5007 64.7148 24.09ZM76.5945 18.5C78.4665 18.5 80.0439 19.1413 81.3265 20.424C82.6092 21.6893 83.2505 23.258 83.2505 25.13C83.2505 27.002 82.6092 28.5793 81.3265 29.862C80.0439 31.1447 78.4665 31.786 76.5945 31.786C74.7225 31.786 73.1452 31.1447 71.8625 29.862C70.5972 28.5793 69.9645 27.002 69.9645 25.13C69.9645 23.258 70.5972 21.6893 71.8625 20.424C73.1452 19.1413 74.7225 18.5 76.5945 18.5ZM76.5945 22.01C75.7279 22.01 74.9912 22.3133 74.3845 22.92C73.7779 23.5267 73.4745 24.2633 73.4745 25.13C73.4745 25.9967 73.7779 26.742 74.3845 27.366C74.9912 27.9727 75.7279 28.276 76.5945 28.276C77.4612 28.276 78.1979 27.9727 78.8045 27.366C79.4285 26.742 79.7405 25.9967 79.7405 25.13C79.7405 24.2633 79.4285 23.5267 78.8045 22.92C78.1979 22.3133 77.4612 22.01 76.5945 22.01ZM95.9231 27.366C96.3391 27.9033 96.8938 28.172 97.5871 28.172C98.1764 28.172 98.6704 27.9727 99.0691 27.574C99.4678 27.158 99.6671 26.6553 99.6671 26.066V20.19C99.6671 19.67 99.8318 19.254 100.161 18.942C100.49 18.6127 100.915 18.448 101.435 18.448C101.955 18.448 102.371 18.6127 102.683 18.942C103.012 19.254 103.177 19.67 103.177 20.19V26.066C103.177 27.6433 102.64 28.978 101.565 30.07C100.49 31.1447 99.1644 31.682 97.5871 31.682C96.2004 31.682 94.9871 31.24 93.9471 30.356C92.8898 31.24 91.6764 31.682 90.3071 31.682C88.7124 31.682 87.3778 31.1447 86.3031 30.07C85.2284 28.9953 84.6911 27.6607 84.6911 26.066V20.19C84.6911 19.0287 85.2804 18.448 86.4591 18.448C86.9791 18.448 87.3951 18.6127 87.7071 18.942C88.0364 19.254 88.2011 19.67 88.2011 20.19V26.066C88.2011 26.6553 88.4004 27.158 88.7991 27.574C89.2151 27.9727 89.7178 28.172 90.3071 28.172C90.8964 28.172 91.3904 27.9727 91.7891 27.574C92.2051 27.158 92.4131 26.6553 92.4131 26.066V20.19C92.4131 19.67 92.5691 19.254 92.8811 18.942C93.2104 18.6127 93.6351 18.448 94.1551 18.448C95.3338 18.448 95.9231 19.0287 95.9231 20.19V27.366ZM111.227 21.958C110.361 21.958 109.624 22.27 109.017 22.894C108.411 23.5007 108.107 24.2373 108.107 25.104C108.107 25.9707 108.411 26.7073 109.017 27.314C109.624 27.9207 110.361 28.224 111.227 28.224C112.094 28.224 112.831 27.9207 113.437 27.314C114.061 26.7073 114.373 25.9707 114.373 25.104V14.912C114.373 14.4093 114.538 13.9933 114.867 13.664C115.197 13.3347 115.613 13.17 116.115 13.17C116.635 13.17 117.06 13.3347 117.389 13.664C117.719 13.976 117.883 14.392 117.883 14.912V25.104C117.883 26.9587 117.233 28.5273 115.933 29.81C114.651 31.0927 113.082 31.734 111.227 31.734C109.373 31.734 107.804 31.0927 106.521 29.81C105.239 28.5273 104.597 26.9587 104.597 25.104C104.597 23.232 105.23 21.6547 106.495 20.372C107.778 19.0893 109.355 18.448 111.227 18.448C111.747 18.448 112.172 18.6127 112.501 18.942C112.831 19.2713 112.995 19.696 112.995 20.216C112.995 20.736 112.831 21.1607 112.501 21.49C112.172 21.802 111.747 21.958 111.227 21.958ZM122.809 24.09V29.992C122.809 30.512 122.644 30.9367 122.315 31.266C121.985 31.578 121.561 31.734 121.041 31.734C120.521 31.734 120.096 31.578 119.767 31.266C119.455 30.9367 119.299 30.512 119.299 29.992V24.09C119.299 22.5127 119.836 21.1867 120.911 20.112C122.003 19.0373 123.337 18.5 124.915 18.5C125.417 18.5 125.833 18.6647 126.163 18.994C126.492 19.3233 126.657 19.7393 126.657 20.242C126.657 21.3167 126.059 21.906 124.863 22.01C124.273 22.062 123.779 22.2787 123.381 22.66C122.999 23.024 122.809 23.5007 122.809 24.09Z" fill="#008347"/>
</svg>
