<svg width="273" height="64" viewBox="0 0 273 64" fill="none" xmlns="http://www.w3.org/2000/svg">
<g filter="url(#filter0_dd_9505_14721)">
<path d="M10 9.69001C10 4.33837 14.3384 0 19.69 0H323.31C328.662 0 333 4.33836 333 9.69V34.765C333 40.1166 328.662 44.455 323.31 44.455H19.69C14.3384 44.455 10 40.1166 10 34.765V9.69001Z" fill="white"/>
<path d="M10.4038 9.69001C10.4038 4.56135 14.5613 0.40375 19.69 0.40375H323.31C328.439 0.40375 332.596 4.56135 332.596 9.69V34.765C332.596 39.8937 328.439 44.0513 323.31 44.0513H19.69C14.5614 44.0513 10.4038 39.8937 10.4038 34.765V9.69001Z" stroke="#D0D5DD" stroke-width="0.8075"/>
<g opacity="0.3">
<path d="M20.497 20.9949C20.497 15.1973 25.1968 10.4974 30.9945 10.4974C36.7921 10.4974 41.492 15.1973 41.492 20.9949C41.492 26.7925 36.7921 31.4924 30.9945 31.4924C25.1968 31.4924 20.497 26.7925 20.497 20.9949Z" stroke="#00B964" stroke-width="1.615"/>
</g>
<g opacity="0.1">
<path d="M16.4598 20.9948C16.4598 12.9674 22.9674 6.45984 30.9948 6.45984C39.0223 6.45984 45.5298 12.9674 45.5298 20.9948C45.5298 29.0223 39.0223 35.5298 30.9948 35.5298C22.9674 35.5298 16.4598 29.0223 16.4598 20.9948Z" stroke="#00B964" stroke-width="1.615"/>
</g>
<path d="M27.9667 20.9948L29.9854 23.0135L34.0229 18.976M37.724 20.9948C37.724 24.7112 34.7112 27.724 30.9948 27.724C27.2784 27.724 24.2656 24.7112 24.2656 20.9948C24.2656 17.2784 27.2784 14.2656 30.9948 14.2656C34.7112 14.2656 37.724 17.2784 37.724 20.9948Z" stroke="#00B964" stroke-width="1.34583" stroke-linecap="round" stroke-linejoin="round"/>
<path d="M53.279 26.5352H52.1259L55.1104 18.3616H56.3427L59.3385 26.5352H58.1741L57.4392 24.5003H54.0025L53.279 26.5352ZM55.5852 20.1252L54.3417 23.5393H57.1114L55.8565 20.1252C55.8 19.967 55.7435 19.7748 55.7209 19.6504C55.6983 19.7635 55.6417 19.9556 55.5852 20.1252ZM59.4257 29.011V28.1405H60.138C60.6467 28.1405 61.0537 28.0613 61.3137 27.3604L61.5059 26.8291L59.2788 21.007H60.398L62.0033 25.4612L63.6425 21.007H64.7391L62.1276 27.7787C61.7546 28.7283 61.2006 29.124 60.3528 29.124C60.0023 29.124 59.7084 29.0788 59.4257 29.011ZM65.016 23.7654C65.016 22.0584 66.2369 20.86 67.8988 20.86C69.5493 20.86 70.7702 22.0584 70.7702 23.7654C70.7702 25.4725 69.5493 26.6708 67.8988 26.6708C66.2369 26.6708 65.016 25.4725 65.016 23.7654ZM66.09 23.7654C66.09 24.9185 66.8248 25.7212 67.8988 25.7212C68.9614 25.7212 69.7076 24.9185 69.7076 23.7654C69.7076 22.6123 68.9614 21.8097 67.8988 21.8097C66.8248 21.8097 66.09 22.6123 66.09 23.7654ZM73.0092 26.5352H71.9466V21.007H72.8962L72.9979 21.7305C73.2806 21.2105 73.8684 20.8487 74.6485 20.8487C75.5076 20.8487 76.1181 21.2783 76.4007 21.9679C76.6607 21.2783 77.3277 20.8487 78.1869 20.8487C79.4531 20.8487 80.2218 21.6401 80.2218 22.9176V26.5352H79.1818V23.1776C79.1818 22.3071 78.6956 21.8097 77.9495 21.8097C77.1469 21.8097 76.6155 22.3749 76.6155 23.2567V26.5352H75.5642V23.1663C75.5642 22.2958 75.0894 21.821 74.3432 21.821C73.5406 21.821 73.0092 22.3749 73.0092 23.2567V26.5352ZM82.2149 19.6956C81.8306 19.6956 81.514 19.3791 81.514 18.9947C81.514 18.599 81.8306 18.2938 82.2149 18.2938C82.5993 18.2938 82.9159 18.599 82.9159 18.9947C82.9159 19.3791 82.5993 19.6956 82.2149 19.6956ZM81.6949 26.5352V21.007H82.7576V26.5352H81.6949ZM86.5161 26.6708C84.9108 26.6708 83.9386 25.4725 83.9386 23.788C83.9386 22.0923 84.9221 20.8487 86.5614 20.8487C87.4092 20.8487 88.1215 21.2218 88.4945 21.9001V18.2147H89.5459V26.5352H88.5963L88.5058 25.529C88.1441 26.2864 87.3979 26.6708 86.5161 26.6708ZM86.7309 25.7099C87.8162 25.7099 88.4832 24.9072 88.4832 23.7541C88.4832 22.6236 87.8162 21.8097 86.7309 21.8097C85.6457 21.8097 85.0126 22.6236 85.0126 23.7541C85.0126 24.8959 85.6457 25.7099 86.7309 25.7099ZM93.4643 26.6708C91.8364 26.6708 90.7172 25.4951 90.7172 23.7767C90.7172 22.0471 91.8138 20.8487 93.4191 20.8487C94.9905 20.8487 96.0192 21.934 96.0192 23.5732V23.9689L91.7459 23.9802C91.8251 25.1446 92.4356 25.789 93.4869 25.789C94.3122 25.789 94.8548 25.4499 95.0357 24.8168H96.0305C95.7592 26.0038 94.8322 26.6708 93.4643 26.6708ZM93.4191 21.7418C92.4921 21.7418 91.9042 22.2958 91.7686 23.268H94.9566C94.9566 22.3523 94.3574 21.7418 93.4191 21.7418ZM103.18 26.5352H100.478V18.3616H103.135C105.577 18.3616 107.227 20.0122 107.227 22.4541C107.227 24.8846 105.599 26.5352 103.18 26.5352ZM103.056 19.3791H101.586V25.5064H103.101C104.921 25.5064 106.074 24.3307 106.074 22.4541C106.074 20.5548 104.921 19.3791 103.056 19.3791ZM108.094 23.7654C108.094 22.0584 109.315 20.86 110.977 20.86C112.628 20.86 113.848 22.0584 113.848 23.7654C113.848 25.4725 112.628 26.6708 110.977 26.6708C109.315 26.6708 108.094 25.4725 108.094 23.7654ZM109.168 23.7654C109.168 24.9185 109.903 25.7212 110.977 25.7212C112.04 25.7212 112.786 24.9185 112.786 23.7654C112.786 22.6123 112.04 21.8097 110.977 21.8097C109.903 21.8097 109.168 22.6123 109.168 23.7654ZM116.087 26.5352H115.025V21.007H115.986L116.099 21.8549C116.449 21.2218 117.15 20.8487 117.93 20.8487C119.389 20.8487 120.056 21.7418 120.056 23.155V26.5352H118.993V23.3924C118.993 22.2732 118.473 21.821 117.659 21.821C116.664 21.821 116.087 22.5332 116.087 23.6072V26.5352ZM123.144 26.6708C121.957 26.6708 121.256 26.0038 121.256 24.9977C121.256 23.9802 122.013 23.3471 123.314 23.2454L125.055 23.1097V22.9515C125.055 22.0245 124.501 21.6966 123.754 21.6966C122.861 21.6966 122.353 22.0923 122.353 22.7593H121.426C121.426 21.6062 122.375 20.8487 123.8 20.8487C125.168 20.8487 126.095 21.5723 126.095 23.0645V26.5352H125.19L125.077 25.6421C124.795 26.2751 124.037 26.6708 123.144 26.6708ZM123.449 25.8456C124.455 25.8456 125.066 25.1899 125.066 24.1498V23.8559L123.653 23.9689C122.714 24.0594 122.33 24.4211 122.33 24.9638C122.33 25.5516 122.76 25.8456 123.449 25.8456ZM129.038 26.5352H127.975V21.9001H126.89V21.007H127.975V19.2773H129.038V21.007H130.123V21.9001H129.038V26.5352ZM133.407 26.6708C131.779 26.6708 130.66 25.4951 130.66 23.7767C130.66 22.0471 131.757 20.8487 133.362 20.8487C134.933 20.8487 135.962 21.934 135.962 23.5732V23.9689L131.689 23.9802C131.768 25.1446 132.378 25.789 133.43 25.789C134.255 25.789 134.798 25.4499 134.979 24.8168H135.973C135.702 26.0038 134.775 26.6708 133.407 26.6708ZM133.362 21.7418C132.435 21.7418 131.847 22.2958 131.711 23.268H134.899C134.899 22.3523 134.3 21.7418 133.362 21.7418ZM139.365 26.6708C137.76 26.6708 136.787 25.4725 136.787 23.788C136.787 22.0923 137.771 20.8487 139.41 20.8487C140.258 20.8487 140.97 21.2218 141.343 21.9001V18.2147H142.395V26.5352H141.445L141.354 25.529C140.993 26.2864 140.247 26.6708 139.365 26.6708ZM139.58 25.7099C140.665 25.7099 141.332 24.9072 141.332 23.7541C141.332 22.6236 140.665 21.8097 139.58 21.8097C138.494 21.8097 137.861 22.6236 137.861 23.7541C137.861 24.8959 138.494 25.7099 139.58 25.7099ZM149.155 27.6317V26.6595C147.663 26.5691 146.68 25.7212 146.612 24.3985H147.742C147.765 25.122 148.296 25.5968 149.155 25.6873V22.8723L148.748 22.7819C147.415 22.4767 146.725 21.7305 146.725 20.5661C146.725 19.2773 147.686 18.3616 149.155 18.2373V17.2538H149.879V18.226C151.247 18.3503 152.117 19.1869 152.197 20.4983H151.1C151.055 19.7748 150.614 19.3113 149.879 19.2095V22.0132L150.32 22.1149C151.676 22.4201 152.332 23.1324 152.332 24.2629C152.332 25.6081 151.371 26.5125 149.879 26.6482V27.6317H149.155ZM148.975 21.7984L149.155 21.8436V19.2095C148.319 19.3226 147.81 19.8087 147.81 20.5322C147.81 21.1879 148.183 21.6062 148.975 21.7984ZM150.094 23.0984L149.879 23.0532V25.6647C150.727 25.5516 151.247 25.0655 151.247 24.3533C151.247 23.6976 150.874 23.2793 150.094 23.0984ZM156.076 26.6708C154.403 26.6708 153.317 25.6081 153.317 23.9802H154.414C154.414 25.0316 155.058 25.676 156.098 25.676C157.206 25.676 157.919 24.9412 157.919 23.8333C157.919 22.7819 157.252 22.0019 156.11 22.0019C155.42 22.0019 154.787 22.3297 154.414 22.7932L153.476 22.5558L154.471 18.3616H158.563V19.3791H155.273L154.731 21.5497C155.16 21.2218 155.703 21.0522 156.313 21.0522C157.975 21.0522 159.049 22.2166 159.049 23.788C159.049 25.4838 157.839 26.6708 156.076 26.6708ZM160.008 22.4541C160.008 19.9217 161.319 18.2034 163.377 18.2034C165.423 18.2034 166.734 19.9217 166.734 22.4541C166.734 24.9977 165.48 26.6821 163.377 26.6821C161.263 26.6821 160.008 24.9977 160.008 22.4541ZM161.105 22.4541C161.105 24.4663 161.941 25.6873 163.377 25.6873C164.813 25.6873 165.638 24.4663 165.638 22.4541C165.638 20.4192 164.813 19.1982 163.377 19.1982C161.941 19.1982 161.105 20.4192 161.105 22.4541ZM167.846 22.4541C167.846 19.9217 169.158 18.2034 171.215 18.2034C173.261 18.2034 174.573 19.9217 174.573 22.4541C174.573 24.9977 173.318 26.6821 171.215 26.6821C169.101 26.6821 167.846 24.9977 167.846 22.4541ZM168.943 22.4541C168.943 24.4663 169.78 25.6873 171.215 25.6873C172.651 25.6873 173.476 24.4663 173.476 22.4541C173.476 20.4192 172.651 19.1982 171.215 19.1982C169.78 19.1982 168.943 20.4192 168.943 22.4541ZM180.551 26.5352H179.488V21.9001H178.403V21.007H179.488V19.2773H180.551V21.007H181.636V21.9001H180.551V26.5352ZM182.173 23.7654C182.173 22.0584 183.394 20.86 185.056 20.86C186.706 20.86 187.927 22.0584 187.927 23.7654C187.927 25.4725 186.706 26.6708 185.056 26.6708C183.394 26.6708 182.173 25.4725 182.173 23.7654ZM183.247 23.7654C183.247 24.9185 183.982 25.7212 185.056 25.7212C186.118 25.7212 186.864 24.9185 186.864 23.7654C186.864 22.6123 186.118 21.8097 185.056 21.8097C183.982 21.8097 183.247 22.6123 183.247 23.7654ZM191.663 29.011V28.1405H192.376C192.884 28.1405 193.291 28.0613 193.551 27.3604L193.743 26.8291L191.516 21.007H192.636L194.241 25.4612L195.88 21.007H196.977L194.365 27.7787C193.992 28.7283 193.438 29.124 192.59 29.124C192.24 29.124 191.946 29.0788 191.663 29.011ZM197.254 23.7654C197.254 22.0584 198.475 20.86 200.136 20.86C201.787 20.86 203.008 22.0584 203.008 23.7654C203.008 25.4725 201.787 26.6708 200.136 26.6708C198.475 26.6708 197.254 25.4725 197.254 23.7654ZM198.328 23.7654C198.328 24.9185 199.062 25.7212 200.136 25.7212C201.199 25.7212 201.945 24.9185 201.945 23.7654C201.945 22.6123 201.199 21.8097 200.136 21.8097C199.062 21.8097 198.328 22.6123 198.328 23.7654ZM207.873 21.007H208.924V26.5352H207.975L207.861 25.6986C207.545 26.2751 206.81 26.6708 205.996 26.6708C204.707 26.6708 203.984 25.8003 203.984 24.4437V21.007H205.047V24.0933C205.047 25.2803 205.555 25.7325 206.369 25.7325C207.341 25.7325 207.873 25.1107 207.873 23.9237V21.007ZM213.631 20.9618V21.934H213.157C212.15 21.934 211.529 22.5445 211.529 23.6072V26.5352H210.466V21.0183H211.461L211.529 21.8549C211.755 21.2783 212.309 20.894 213.066 20.894C213.258 20.894 213.417 20.9166 213.631 20.9618ZM217.357 23.7767C217.357 22.0471 218.454 20.8487 220.071 20.8487C221.461 20.8487 222.433 21.6401 222.626 22.8723H221.563C221.382 22.1714 220.817 21.7984 220.105 21.7984C219.098 21.7984 218.409 22.5671 218.409 23.7654C218.409 24.9525 219.053 25.7212 220.059 25.7212C220.817 25.7212 221.382 25.3255 221.574 24.6698H222.637C222.422 25.8682 221.393 26.6708 220.059 26.6708C218.431 26.6708 217.357 25.5177 217.357 23.7767ZM225.375 26.6708C224.188 26.6708 223.487 26.0038 223.487 24.9977C223.487 23.9802 224.244 23.3471 225.544 23.2454L227.285 23.1097V22.9515C227.285 22.0245 226.731 21.6966 225.985 21.6966C225.092 21.6966 224.583 22.0923 224.583 22.7593H223.656C223.656 21.6062 224.606 20.8487 226.03 20.8487C227.398 20.8487 228.325 21.5723 228.325 23.0645V26.5352H227.421L227.308 25.6421C227.025 26.2751 226.268 26.6708 225.375 26.6708ZM225.68 25.8456C226.686 25.8456 227.297 25.1899 227.297 24.1498V23.8559L225.883 23.9689C224.945 24.0594 224.561 24.4211 224.561 24.9638C224.561 25.5516 224.99 25.8456 225.68 25.8456ZM230.86 26.5352H229.797V21.007H230.747L230.848 21.7305C231.131 21.2105 231.719 20.8487 232.499 20.8487C233.358 20.8487 233.969 21.2783 234.251 21.9679C234.511 21.2783 235.178 20.8487 236.037 20.8487C237.304 20.8487 238.072 21.6401 238.072 22.9176V26.5352H237.032V23.1776C237.032 22.3071 236.546 21.8097 235.8 21.8097C234.997 21.8097 234.466 22.3749 234.466 23.2567V26.5352H233.415V23.1663C233.415 22.2958 232.94 21.821 232.194 21.821C231.391 21.821 230.86 22.3749 230.86 23.2567V26.5352ZM239.545 29.011V21.007H240.506L240.585 22.0019C240.959 21.2444 241.705 20.8487 242.586 20.8487C244.169 20.8487 245.153 22.0358 245.153 23.7315C245.153 25.416 244.226 26.6821 242.586 26.6821C241.705 26.6821 240.97 26.3091 240.608 25.6308V29.011H239.545ZM240.619 23.7767C240.619 24.9072 241.275 25.7212 242.36 25.7212C243.446 25.7212 244.09 24.9072 244.09 23.7767C244.09 22.6349 243.446 21.821 242.36 21.821C241.275 21.821 240.619 22.6236 240.619 23.7767ZM247.941 26.6708C246.754 26.6708 246.053 26.0038 246.053 24.9977C246.053 23.9802 246.81 23.3471 248.11 23.2454L249.851 23.1097V22.9515C249.851 22.0245 249.297 21.6966 248.551 21.6966C247.658 21.6966 247.149 22.0923 247.149 22.7593H246.222C246.222 21.6062 247.172 20.8487 248.596 20.8487C249.964 20.8487 250.891 21.5723 250.891 23.0645V26.5352H249.987L249.874 25.6421C249.591 26.2751 248.834 26.6708 247.941 26.6708ZM248.246 25.8456C249.252 25.8456 249.862 25.1899 249.862 24.1498V23.8559L248.449 23.9689C247.511 24.0594 247.127 24.4211 247.127 24.9638C247.127 25.5516 247.556 25.8456 248.246 25.8456ZM252.883 19.6956C252.499 19.6956 252.182 19.3791 252.182 18.9947C252.182 18.599 252.499 18.2938 252.883 18.2938C253.267 18.2938 253.584 18.599 253.584 18.9947C253.584 19.3791 253.267 19.6956 252.883 19.6956ZM252.363 26.5352V21.007H253.426V26.5352H252.363ZM254.618 23.6298C254.618 22.0697 255.624 20.8487 257.229 20.8487C258.122 20.8487 258.812 21.2557 259.162 21.9453L259.242 21.007H260.191V26.3091C260.191 28.05 259.117 29.1579 257.422 29.1579C255.918 29.1579 254.889 28.31 254.686 26.9082H255.748C255.884 27.7222 256.495 28.197 257.422 28.197C258.462 28.197 259.14 27.5187 259.14 26.4673V25.3594C258.778 26.0038 258.055 26.3882 257.184 26.3882C255.613 26.3882 254.618 25.1786 254.618 23.6298ZM255.681 23.6072C255.681 24.6472 256.325 25.4612 257.365 25.4612C258.439 25.4612 259.095 24.6924 259.095 23.6072C259.095 22.5445 258.462 21.7758 257.376 21.7758C256.314 21.7758 255.681 22.5897 255.681 23.6072ZM262.788 26.5352H261.725V21.007H262.686L262.799 21.8549C263.149 21.2218 263.85 20.8487 264.63 20.8487C266.089 20.8487 266.756 21.7418 266.756 23.155V26.5352H265.693V23.3924C265.693 22.2732 265.173 21.821 264.359 21.821C263.364 21.821 262.788 22.5332 262.788 23.6072V26.5352Z" fill="#101828"/>
</g>
<defs>
<filter id="filter0_dd_9505_14721" x="0.31" y="-2.38419e-07" width="342.38" height="63.8351" filterUnits="userSpaceOnUse" color-interpolation-filters="sRGB">
<feFlood flood-opacity="0" result="BackgroundImageFix"/>
<feColorMatrix in="SourceAlpha" type="matrix" values="0 0 0 0 0 0 0 0 0 0 0 0 0 0 0 0 0 0 127 0" result="hardAlpha"/>
<feMorphology radius="1.615" operator="erode" in="SourceAlpha" result="effect1_dropShadow_9505_14721"/>
<feOffset dy="3.23"/>
<feGaussianBlur stdDeviation="2.4225"/>
<feComposite in2="hardAlpha" operator="out"/>
<feColorMatrix type="matrix" values="0 0 0 0 0.0627451 0 0 0 0 0.0941176 0 0 0 0 0.156863 0 0 0 0.03 0"/>
<feBlend mode="normal" in2="BackgroundImageFix" result="effect1_dropShadow_9505_14721"/>
<feColorMatrix in="SourceAlpha" type="matrix" values="0 0 0 0 0 0 0 0 0 0 0 0 0 0 0 0 0 0 127 0" result="hardAlpha"/>
<feMorphology radius="3.23" operator="erode" in="SourceAlpha" result="effect2_dropShadow_9505_14721"/>
<feOffset dy="9.69"/>
<feGaussianBlur stdDeviation="6.46"/>
<feComposite in2="hardAlpha" operator="out"/>
<feColorMatrix type="matrix" values="0 0 0 0 0.0627451 0 0 0 0 0.0941176 0 0 0 0 0.156863 0 0 0 0.08 0"/>
<feBlend mode="normal" in2="effect1_dropShadow_9505_14721" result="effect2_dropShadow_9505_14721"/>
<feBlend mode="normal" in="SourceGraphic" in2="effect2_dropShadow_9505_14721" result="shape"/>
</filter>
</defs>
</svg>
