<svg width="48" height="48" viewBox="0 0 48 48" fill="none" xmlns="http://www.w3.org/2000/svg">
<circle cx="24" cy="24" r="24" fill="#0A8643"/>
<path d="M14.6673 37.3333V30.6667L13.334 29.3333V24C13.334 23.6464 13.4745 23.3072 13.7245 23.0572C13.9746 22.8071 14.3137 22.6667 14.6673 22.6667H20.0007C20.3543 22.6667 20.6934 22.8071 20.9435 23.0572C21.1935 23.3072 21.334 23.6464 21.334 24V29.3333L20.0007 30.6667V37.3333M28.0007 37.3333V32H25.334L28.0007 24C28.0007 23.6464 28.1411 23.3072 28.3912 23.0572C28.6412 22.8071 28.9804 22.6667 29.334 22.6667H32.0006C32.3543 22.6667 32.6934 22.8071 32.9435 23.0572C33.1935 23.3072 33.334 23.6464 33.334 24L36.0006 32H33.334V37.3333M14.6673 14.6667C14.6673 15.3739 14.9483 16.0522 15.4484 16.5523C15.9485 17.0524 16.6267 17.3333 17.334 17.3333C18.0412 17.3333 18.7195 17.0524 19.2196 16.5523C19.7197 16.0522 20.0007 15.3739 20.0007 14.6667C20.0007 13.9594 19.7197 13.2811 19.2196 12.781C18.7195 12.281 18.0412 12 17.334 12C16.6267 12 15.9485 12.281 15.4484 12.781C14.9483 13.2811 14.6673 13.9594 14.6673 14.6667ZM28.0007 14.6667C28.0007 15.3739 28.2816 16.0522 28.7817 16.5523C29.2818 17.0524 29.9601 17.3333 30.6673 17.3333C31.3746 17.3333 32.0528 17.0524 32.5529 16.5523C33.053 16.0522 33.334 15.3739 33.334 14.6667C33.334 13.9594 33.053 13.2811 32.5529 12.781C32.0528 12.281 31.3746 12 30.6673 12C29.9601 12 29.2818 12.281 28.7817 12.781C28.2816 13.2811 28.0007 13.9594 28.0007 14.6667Z" stroke="#F9F9F9" stroke-width="3" stroke-linecap="round" stroke-linejoin="round"/>
</svg>
