<svg width="20" height="20" viewBox="0 0 20 20" fill="none" xmlns="http://www.w3.org/2000/svg">
<path d="M5.74849 15.135C6.90255 16.0917 8.38441 16.6668 10.0006 16.6668C13.6825 16.6668 16.6673 13.6821 16.6673 10.0002C16.6673 9.52596 16.6178 9.06332 16.5236 8.61713M5.74849 15.135C4.27346 13.9121 3.33394 12.0659 3.33394 10.0002C3.33394 6.31826 6.3187 3.3335 10.0006 3.3335C13.2083 3.3335 15.8869 5.59894 16.5236 8.61713M5.74849 15.135C7.3781 14.7624 9.3168 13.9858 11.2722 12.8569C13.5475 11.5433 15.3982 10.0106 16.5236 8.61713M5.74849 15.135C3.72418 15.5978 2.17682 15.4371 1.66686 14.5538C1.1416 13.644 1.83075 12.1643 3.33382 10.591M16.5236 8.61713C17.5668 7.3255 17.9868 6.15354 17.544 5.38661C17.095 4.60892 15.8418 4.39132 14.1669 4.66623" stroke="#181A1D" stroke-width="2" stroke-linecap="round" stroke-linejoin="round"/>
</svg>
