<svg width="16" height="16" viewBox="0 0 16 16" fill="none" xmlns="http://www.w3.org/2000/svg">
<g id="fi-rr-settings" clip-path="url(#clip0_6903_1161)">
<path id="Vector" d="M7.99968 5.33374C7.47226 5.33374 6.95669 5.49014 6.51816 5.78315C6.07962 6.07617 5.73783 6.49265 5.536 6.97992C5.33416 7.46719 5.28135 8.00337 5.38425 8.52065C5.48714 9.03793 5.74112 9.51309 6.11406 9.88603C6.487 10.259 6.96215 10.5129 7.47943 10.6158C7.99672 10.7187 8.5329 10.6659 9.02017 10.4641C9.50743 10.2623 9.92391 9.92046 10.2169 9.48193C10.5099 9.0434 10.6663 8.52782 10.6663 8.00041C10.6663 7.29316 10.3854 6.61489 9.88529 6.11479C9.3852 5.61469 8.70692 5.33374 7.99968 5.33374ZM7.99968 9.33374C7.73597 9.33374 7.47818 9.25554 7.25892 9.10903C7.03965 8.96252 6.86875 8.75429 6.76784 8.51065C6.66692 8.26702 6.64052 7.99893 6.69196 7.74029C6.74341 7.48165 6.8704 7.24407 7.05687 7.0576C7.24334 6.87113 7.48091 6.74414 7.73956 6.69269C7.9982 6.64125 8.26629 6.66765 8.50992 6.76857C8.75356 6.86948 8.96179 7.04038 9.1083 7.25965C9.25481 7.47891 9.33301 7.7367 9.33301 8.00041C9.33301 8.35403 9.19253 8.69317 8.94248 8.94322C8.69244 9.19326 8.3533 9.33374 7.99968 9.33374Z" fill="#393E46"/>
<path id="Vector_2" d="M14.1965 9.26667L13.9005 9.096C14.0338 8.37096 14.0338 7.62771 13.9005 6.90267L14.1965 6.732C14.4241 6.60068 14.6237 6.42581 14.7837 6.21737C14.9438 6.00894 15.0612 5.77103 15.1293 5.51721C15.1974 5.2634 15.2148 4.99866 15.1806 4.73811C15.1464 4.47755 15.0612 4.22629 14.9299 3.99867C14.7985 3.77104 14.6237 3.57151 14.4152 3.41147C14.2068 3.25143 13.9689 3.134 13.7151 3.06591C13.4612 2.99781 13.1965 2.98037 12.936 3.01459C12.6754 3.04881 12.4241 3.13401 12.1965 3.26533L11.8999 3.43667C11.3395 2.95795 10.6956 2.58683 10.0005 2.342V2C10.0005 1.46957 9.7898 0.960859 9.41473 0.585786C9.03966 0.210714 8.53095 0 8.00052 0C7.47008 0 6.96138 0.210714 6.5863 0.585786C6.21123 0.960859 6.00052 1.46957 6.00052 2V2.342C5.30544 2.58771 4.66175 2.95973 4.10185 3.43933L3.80385 3.26667C3.34414 3.00145 2.7979 2.92971 2.28531 3.06724C1.77271 3.20477 1.33573 3.54029 1.07052 4C0.8053 4.45971 0.733565 5.00595 0.871092 5.51855C1.00862 6.03114 1.34414 6.46812 1.80385 6.73333L2.09985 6.904C1.96659 7.62904 1.96659 8.37229 2.09985 9.09733L1.80385 9.268C1.34414 9.53322 1.00862 9.97019 0.871092 10.4828C0.733565 10.9954 0.8053 11.5416 1.07052 12.0013C1.33573 12.461 1.77271 12.7966 2.28531 12.9341C2.7979 13.0716 3.34414 12.9999 3.80385 12.7347L4.10052 12.5633C4.66103 13.0421 5.30517 13.4132 6.00052 13.658V14C6.00052 14.5304 6.21123 15.0391 6.5863 15.4142C6.96138 15.7893 7.47008 16 8.00052 16C8.53095 16 9.03966 15.7893 9.41473 15.4142C9.7898 15.0391 10.0005 14.5304 10.0005 14V13.658C10.6956 13.4123 11.3393 13.0403 11.8992 12.5607L12.1972 12.7327C12.6569 12.9979 13.2031 13.0696 13.7157 12.9321C14.2283 12.7946 14.6653 12.459 14.9305 11.9993C15.1957 11.5396 15.2675 10.9934 15.1299 10.4808C14.9924 9.96819 14.6569 9.53122 14.1972 9.266L14.1965 9.26667ZM12.4979 6.74933C12.7236 7.56738 12.7236 8.43129 12.4979 9.24933C12.4584 9.39171 12.4674 9.54316 12.5234 9.67987C12.5794 9.81659 12.6792 9.93084 12.8072 10.0047L13.5299 10.422C13.6831 10.5104 13.7949 10.6561 13.8407 10.8269C13.8865 10.9977 13.8626 11.1798 13.7742 11.333C13.6858 11.4862 13.5401 11.598 13.3693 11.6438C13.1984 11.6897 13.0164 11.6657 12.8632 11.5773L12.1392 11.1587C12.0111 11.0845 11.862 11.055 11.7153 11.075C11.5687 11.0949 11.4328 11.163 11.3292 11.2687C10.7358 11.8744 9.98823 12.3067 9.16718 12.5187C9.02387 12.5555 8.89689 12.639 8.80625 12.7559C8.7156 12.8729 8.66644 13.0167 8.66652 13.1647V14C8.66652 14.1768 8.59628 14.3464 8.47126 14.4714C8.34623 14.5964 8.17666 14.6667 7.99985 14.6667C7.82304 14.6667 7.65347 14.5964 7.52845 14.4714C7.40342 14.3464 7.33318 14.1768 7.33318 14V13.1653C7.33326 13.0174 7.2841 12.8736 7.19345 12.7566C7.10281 12.6397 6.97583 12.5562 6.83252 12.5193C6.01142 12.3065 5.26407 11.8733 4.67118 11.2667C4.56753 11.161 4.43168 11.0929 4.28502 11.073C4.13837 11.053 3.98925 11.0825 3.86118 11.1567L3.13852 11.5747C3.06267 11.6191 2.97878 11.6482 2.89167 11.6601C2.80456 11.672 2.71595 11.6665 2.63095 11.6441C2.54595 11.6216 2.46624 11.5825 2.3964 11.5291C2.32656 11.4757 2.26797 11.409 2.22401 11.3329C2.18005 11.2567 2.15158 11.1727 2.14025 11.0855C2.12892 10.9983 2.13494 10.9097 2.15798 10.8249C2.18101 10.74 2.2206 10.6606 2.27447 10.5911C2.32834 10.5216 2.39542 10.4635 2.47185 10.42L3.19452 10.0027C3.32248 9.92884 3.4223 9.81459 3.47829 9.67787C3.53428 9.54116 3.54327 9.38972 3.50385 9.24733C3.27809 8.42929 3.27809 7.56538 3.50385 6.74733C3.54256 6.60525 3.53314 6.45436 3.47706 6.31819C3.42098 6.18203 3.32139 6.06827 3.19385 5.99467L2.47118 5.57733C2.31798 5.48893 2.20616 5.34328 2.16034 5.17244C2.11452 5.00159 2.13844 4.81954 2.22685 4.66633C2.31526 4.51313 2.4609 4.40131 2.63175 4.35549C2.80259 4.30967 2.98464 4.33359 3.13785 4.422L3.86185 4.84067C3.98957 4.91501 4.13837 4.94481 4.28487 4.92538C4.43137 4.90595 4.56726 4.8384 4.67118 4.73333C5.26458 4.12756 6.01213 3.69535 6.83318 3.48333C6.97694 3.44638 7.10425 3.3625 7.19494 3.245C7.28563 3.1275 7.33452 2.98309 7.33385 2.83467V2C7.33385 1.82319 7.40409 1.65362 7.52911 1.5286C7.65414 1.40357 7.82371 1.33333 8.00052 1.33333C8.17733 1.33333 8.3469 1.40357 8.47192 1.5286C8.59695 1.65362 8.66718 1.82319 8.66718 2V2.83467C8.66711 2.98264 8.71627 3.12643 8.80691 3.24339C8.89756 3.36035 9.02454 3.44382 9.16785 3.48067C9.98919 3.69343 10.7368 4.12659 11.3299 4.73333C11.4335 4.83898 11.5694 4.90713 11.716 4.92704C11.8627 4.94696 12.0118 4.91751 12.1399 4.84333L12.8625 4.42533C12.9384 4.38087 13.0223 4.35185 13.1094 4.33993C13.1965 4.32802 13.2851 4.33346 13.3701 4.35593C13.4551 4.37841 13.5348 4.41747 13.6046 4.47088C13.6745 4.52428 13.7331 4.59097 13.777 4.66712C13.821 4.74326 13.8495 4.82734 13.8608 4.91453C13.8721 5.00171 13.8661 5.09028 13.8431 5.17513C13.82 5.25998 13.7804 5.33943 13.7266 5.40892C13.6727 5.4784 13.6056 5.53655 13.5292 5.58L12.8065 5.99733C12.6792 6.07114 12.5799 6.18498 12.5241 6.32113C12.4682 6.45727 12.459 6.60807 12.4979 6.75V6.74933Z" fill="#393E46"/>
</g>
<defs>
<clipPath id="clip0_6903_1161">
<rect width="16" height="16" fill="white"/>
</clipPath>
</defs>
</svg>
