<svg width="32" height="32" viewBox="0 0 32 32" fill="none" xmlns="http://www.w3.org/2000/svg">
<g clip-path="url(#clip0_611_519)">
<rect opacity="0.18" width="32" height="32" rx="16" fill="#4D4D4D"/>
<path d="M21.5876 12.6934C21.1819 12.8673 20.7529 12.9823 20.3139 13.0347C20.7771 12.7613 21.1242 12.3311 21.2908 11.8241C20.8555 12.0801 20.3791 12.2605 19.8822 12.3574C19.5501 12.0014 19.1077 11.7645 18.6246 11.6837C18.1415 11.6029 17.645 11.6829 17.2128 11.9111C16.7807 12.1393 16.4374 12.5027 16.2368 12.9445C16.0362 13.3863 15.9896 13.8813 16.1044 14.3521C15.2244 14.3081 14.3636 14.0816 13.578 13.6875C12.7923 13.2933 12.0994 12.7402 11.5441 12.0641C11.3494 12.4002 11.247 12.7808 11.2473 13.1681C11.2466 13.5277 11.3359 13.882 11.5073 14.1993C11.6786 14.5166 11.9267 14.7871 12.2295 14.9867C11.8776 14.9773 11.5332 14.884 11.2257 14.7147V14.7414C11.2283 15.2453 11.407 15.7329 11.7315 16.1216C12.0561 16.5104 12.5065 16.7764 13.0066 16.8747C12.8141 16.9326 12.6142 16.9632 12.413 16.9654C12.2737 16.9638 12.1347 16.9513 11.9974 16.9281C12.1399 17.3616 12.4155 17.7404 12.786 18.0119C13.1564 18.2834 13.6033 18.434 14.0644 18.4427C13.2858 19.0482 12.3244 19.3787 11.3336 19.3814C11.1532 19.382 10.973 19.3713 10.7939 19.3494C11.8055 19.9949 12.9844 20.3375 14.1885 20.3361C15.0195 20.3446 15.8438 20.1894 16.6134 19.8796C17.383 19.5697 18.0824 19.1115 18.6707 18.5315C19.2591 17.9516 19.7246 17.2616 20.0401 16.5019C20.3556 15.7422 20.5147 14.9279 20.5082 14.1067C20.5082 14.0161 20.5082 13.9201 20.5082 13.8241C20.9317 13.512 21.297 13.1294 21.5876 12.6934V12.6934Z" fill="#062B29"/>
</g>
<defs>
<clipPath id="clip0_611_519">
<rect width="32" height="32" fill="white"/>
</clipPath>
</defs>
</svg>
