<svg width="21" height="20" viewBox="0 0 21 20" fill="none" xmlns="http://www.w3.org/2000/svg">
<g clip-path="url(#clip0_2204_15134)">
<path d="M13.8335 13.3352L10.5002 10.0019M10.5002 10.0019L7.16688 13.3352M10.5002 10.0019V17.5019M17.4919 15.3269C18.3047 14.8838 18.9467 14.1826 19.3168 13.334C19.6868 12.4855 19.7637 11.5379 19.5354 10.6408C19.307 9.74365 18.7865 8.94812 18.0558 8.37973C17.3251 7.81134 16.4259 7.50247 15.5002 7.50186H14.4502C14.198 6.52623 13.7278 5.62047 13.0752 4.85269C12.4225 4.0849 11.6042 3.47507 10.682 3.06903C9.75967 2.663 8.75734 2.47132 7.75031 2.50843C6.74328 2.54553 5.75777 2.81044 4.86786 3.28325C3.97795 3.75605 3.2068 4.42444 2.6124 5.23818C2.01799 6.05191 1.61579 6.98981 1.43603 7.98135C1.25627 8.9729 1.30363 9.9923 1.57456 10.9629C1.84548 11.9335 2.33291 12.8301 3.00021 13.5852" stroke="#475467" stroke-width="1.66667" stroke-linecap="round" stroke-linejoin="round"/>
</g>
<defs>
<clipPath id="clip0_2204_15134">
<rect width="20" height="20" fill="white" transform="translate(0.5)"/>
</clipPath>
</defs>
</svg>
