<svg width="48" height="48" viewBox="0 0 48 48" fill="none" xmlns="http://www.w3.org/2000/svg">
<circle cx="24" cy="24" r="24" fill="#3B8249"/>
<path d="M22.6667 24C21.2 24 19.9444 23.4778 18.9 22.4333C17.8556 21.3889 17.3333 20.1333 17.3333 18.6666C17.3333 17.2 17.8556 15.9444 18.9 14.9C19.9444 13.8555 21.2 13.3333 22.6667 13.3333C24.1333 13.3333 25.3889 13.8555 26.4333 14.9C27.4778 15.9444 28 17.2 28 18.6666C28 20.1333 27.4778 21.3889 26.4333 22.4333C25.3889 23.4778 24.1333 24 22.6667 24ZM22.6667 21.3333C23.4 21.3333 24.028 21.072 24.5507 20.5493C25.0724 20.0275 25.3333 19.4 25.3333 18.6666C25.3333 17.9333 25.0724 17.3058 24.5507 16.784C24.028 16.2613 23.4 16 22.6667 16C21.9333 16 21.3058 16.2613 20.784 16.784C20.2613 17.3058 20 17.9333 20 18.6666C20 19.4 20.2613 20.0275 20.784 20.5493C21.3058 21.072 21.9333 21.3333 22.6667 21.3333ZM37.4667 39.3333L33.2 35.0666C32.7333 35.3333 32.2333 35.5555 31.7 35.7333C31.1667 35.9111 30.6 36 30 36C28.3333 36 26.9164 35.4169 25.7493 34.2506C24.5831 33.0835 24 31.6666 24 30C24 28.3333 24.5831 26.9164 25.7493 25.7493C26.9164 24.5831 28.3333 24 30 24C31.6667 24 33.0836 24.5831 34.2507 25.7493C35.4169 26.9164 36 28.3333 36 30C36 30.6 35.9111 31.1666 35.7333 31.7C35.5556 32.2333 35.3333 32.7333 35.0667 33.2L39.3333 37.4666L37.4667 39.3333ZM30 33.3333C30.9333 33.3333 31.7222 33.0111 32.3667 32.3666C33.0111 31.7222 33.3333 30.9333 33.3333 30C33.3333 29.0666 33.0111 28.2778 32.3667 27.6333C31.7222 26.9889 30.9333 26.6666 30 26.6666C29.0667 26.6666 28.2778 26.9889 27.6333 27.6333C26.9889 28.2778 26.6667 29.0666 26.6667 30C26.6667 30.9333 26.9889 31.7222 27.6333 32.3666C28.2778 33.0111 29.0667 33.3333 30 33.3333ZM12 34.6666V30.9666C12 30.2111 12.1889 29.5111 12.5667 28.8666C12.9444 28.2222 13.4667 27.7333 14.1333 27.4C15.2667 26.8222 16.5444 26.3333 17.9667 25.9333C19.3889 25.5333 20.9667 25.3333 22.7 25.3333C22.4333 25.7333 22.2058 26.1609 22.0173 26.616C21.828 27.072 21.6778 27.5444 21.5667 28.0333C20.2333 28.1444 19.0444 28.372 18 28.716C16.9556 29.0609 16.0778 29.4222 15.3667 29.8C15.1444 29.9111 14.9724 30.072 14.8507 30.2826C14.728 30.4942 14.6667 30.7222 14.6667 30.9666V32H21.5667C21.6778 32.4889 21.828 32.9555 22.0173 33.4C22.2058 33.8444 22.4333 34.2666 22.7 34.6666H12Z" fill="#F9F9F9"/>
</svg>
