<svg width="50" height="48" viewBox="0 0 50 48" fill="none" xmlns="http://www.w3.org/2000/svg">
<path d="M11.3017 51.9986C11.3017 51.9986 -3.62827 40.9087 0.83173 28.9687C2.96173 23.2587 13.8017 27.9187 13.8017 27.9187C13.8017 27.9187 -5.75828 6.16866 7.51172 2.96866C12.8417 1.67866 23.8217 14.9286 23.8217 14.9286C23.8217 14.9286 29.7517 -0.611349 38.5617 0.0186505C51.2717 0.928651 39.9417 17.8786 39.9417 17.8786C39.9417 17.8786 53.5817 12.6487 49.5717 26.4087C45.5617 40.1687 35.2817 51.9687 35.2817 51.9687L11.3217 51.9986H11.3017Z" fill="#FFCD2A"/>
<path d="M29.562 45.4385C28.732 45.4385 28.062 44.7685 28.062 43.9385C28.062 38.5885 22.4221 15.5185 22.3621 15.2785C22.1621 14.4785 22.652 13.6585 23.462 13.4685C24.262 13.2685 25.082 13.7585 25.272 14.5685C25.512 15.5285 31.052 38.2285 31.052 43.9385C31.052 44.7685 30.382 45.4385 29.552 45.4385H29.562Z" fill="black"/>
</svg>
