<svg width="76" height="20" viewBox="0 0 76 20" fill="none" xmlns="http://www.w3.org/2000/svg">
<path d="M7.034 9.458C6.16733 9.458 5.43067 9.77 4.824 10.394C4.21733 11.0007 3.914 11.7373 3.914 12.604C3.914 13.4707 4.21733 14.2073 4.824 14.814C5.43067 15.4207 6.16733 15.724 7.034 15.724C7.554 15.724 7.97867 15.8887 8.308 16.218C8.63733 16.5473 8.802 16.972 8.802 17.492C8.802 18.012 8.63733 18.4367 8.308 18.766C7.97867 19.078 7.554 19.234 7.034 19.234C5.17933 19.234 3.61067 18.5927 2.328 17.31C1.04533 16.0273 0.404 14.4587 0.404 12.604C0.404 10.732 1.03667 9.15467 2.302 7.872C3.58467 6.58933 5.162 5.948 7.034 5.948C7.554 5.948 7.97867 6.11267 8.308 6.442C8.63733 6.77133 8.802 7.196 8.802 7.716C8.802 8.236 8.63733 8.66067 8.308 8.99C7.97867 9.302 7.554 9.458 7.034 9.458ZM13.7148 11.59V17.492C13.7148 18.012 13.5501 18.4367 13.2208 18.766C12.8914 19.078 12.4668 19.234 11.9468 19.234C11.4268 19.234 11.0021 19.078 10.6728 18.766C10.3608 18.4367 10.2048 18.012 10.2048 17.492V11.59C10.2048 10.0127 10.7421 8.68667 11.8168 7.612C12.9088 6.53733 14.2434 6 15.8208 6C16.3234 6 16.7394 6.16467 17.0688 6.494C17.3981 6.82333 17.5628 7.23933 17.5628 7.742C17.5628 8.81667 16.9648 9.406 15.7688 9.51C15.1794 9.562 14.6854 9.77867 14.2868 10.16C13.9054 10.524 13.7148 11.0007 13.7148 11.59ZM25.5945 6C27.4665 6 29.0439 6.64133 30.3265 7.924C31.6092 9.18933 32.2505 10.758 32.2505 12.63C32.2505 14.502 31.6092 16.0793 30.3265 17.362C29.0439 18.6447 27.4665 19.286 25.5945 19.286C23.7225 19.286 22.1452 18.6447 20.8625 17.362C19.5972 16.0793 18.9645 14.502 18.9645 12.63C18.9645 10.758 19.5972 9.18933 20.8625 7.924C22.1452 6.64133 23.7225 6 25.5945 6ZM25.5945 9.51C24.7279 9.51 23.9912 9.81333 23.3845 10.42C22.7779 11.0267 22.4745 11.7633 22.4745 12.63C22.4745 13.4967 22.7779 14.242 23.3845 14.866C23.9912 15.4727 24.7279 15.776 25.5945 15.776C26.4612 15.776 27.1979 15.4727 27.8045 14.866C28.4285 14.242 28.7405 13.4967 28.7405 12.63C28.7405 11.7633 28.4285 11.0267 27.8045 10.42C27.1979 9.81333 26.4612 9.51 25.5945 9.51ZM44.9231 14.866C45.3391 15.4033 45.8938 15.672 46.5871 15.672C47.1764 15.672 47.6704 15.4727 48.0691 15.074C48.4678 14.658 48.6671 14.1553 48.6671 13.566V7.69C48.6671 7.17 48.8318 6.754 49.1611 6.442C49.4904 6.11267 49.9151 5.948 50.4351 5.948C50.9551 5.948 51.3711 6.11267 51.6831 6.442C52.0124 6.754 52.1771 7.17 52.1771 7.69V13.566C52.1771 15.1433 51.6398 16.478 50.5651 17.57C49.4904 18.6447 48.1644 19.182 46.5871 19.182C45.2004 19.182 43.9871 18.74 42.9471 17.856C41.8898 18.74 40.6764 19.182 39.3071 19.182C37.7124 19.182 36.3778 18.6447 35.3031 17.57C34.2284 16.4953 33.6911 15.1607 33.6911 13.566V7.69C33.6911 6.52867 34.2804 5.948 35.4591 5.948C35.9791 5.948 36.3951 6.11267 36.7071 6.442C37.0364 6.754 37.2011 7.17 37.2011 7.69V13.566C37.2011 14.1553 37.4004 14.658 37.7991 15.074C38.2151 15.4727 38.7178 15.672 39.3071 15.672C39.8964 15.672 40.3904 15.4727 40.7891 15.074C41.2051 14.658 41.4131 14.1553 41.4131 13.566V7.69C41.4131 7.17 41.5691 6.754 41.8811 6.442C42.2104 6.11267 42.6351 5.948 43.1551 5.948C44.3338 5.948 44.9231 6.52867 44.9231 7.69V14.866ZM60.2274 9.458C59.3607 9.458 58.624 9.77 58.0174 10.394C57.4107 11.0007 57.1074 11.7373 57.1074 12.604C57.1074 13.4707 57.4107 14.2073 58.0174 14.814C58.624 15.4207 59.3607 15.724 60.2274 15.724C61.094 15.724 61.8307 15.4207 62.4374 14.814C63.0614 14.2073 63.3734 13.4707 63.3734 12.604V2.412C63.3734 1.90933 63.538 1.49333 63.8674 1.164C64.1967 0.834665 64.6127 0.669999 65.1154 0.669999C65.6354 0.669999 66.06 0.834665 66.3894 1.164C66.7187 1.476 66.8834 1.892 66.8834 2.412V12.604C66.8834 14.4587 66.2334 16.0273 64.9334 17.31C63.6507 18.5927 62.082 19.234 60.2274 19.234C58.3727 19.234 56.804 18.5927 55.5214 17.31C54.2387 16.0273 53.5974 14.4587 53.5974 12.604C53.5974 10.732 54.23 9.15467 55.4954 7.872C56.778 6.58933 58.3554 5.948 60.2274 5.948C60.7474 5.948 61.172 6.11267 61.5014 6.442C61.8307 6.77133 61.9954 7.196 61.9954 7.716C61.9954 8.236 61.8307 8.66067 61.5014 8.99C61.172 9.302 60.7474 9.458 60.2274 9.458ZM71.8085 11.59V17.492C71.8085 18.012 71.6439 18.4367 71.3145 18.766C70.9852 19.078 70.5605 19.234 70.0405 19.234C69.5205 19.234 69.0959 19.078 68.7665 18.766C68.4545 18.4367 68.2985 18.012 68.2985 17.492V11.59C68.2985 10.0127 68.8359 8.68667 69.9105 7.612C71.0025 6.53733 72.3372 6 73.9145 6C74.4172 6 74.8332 6.16467 75.1625 6.494C75.4919 6.82333 75.6565 7.23933 75.6565 7.742C75.6565 8.81667 75.0585 9.406 73.8625 9.51C73.2732 9.562 72.7792 9.77867 72.3805 10.16C71.9992 10.524 71.8085 11.0007 71.8085 11.59Z" fill="#0B5351"/>
</svg>
