<svg width="32" height="32" viewBox="0 0 32 32" fill="none" xmlns="http://www.w3.org/2000/svg">
<g clip-path="url(#clip0_611_524)">
<rect opacity="0.18" width="32" height="32" rx="16" fill="#4D4D4D"/>
<path d="M20.7617 10.6668H11.6195C11.5167 10.6654 11.4147 10.684 11.3192 10.7216C11.2237 10.7592 11.1367 10.8149 11.063 10.8858C10.9893 10.9566 10.9305 11.0411 10.8899 11.1343C10.8492 11.2276 10.8276 11.3279 10.8262 11.4295V20.5708C10.8276 20.6724 10.8492 20.7727 10.8899 20.866C10.9305 20.9593 10.9893 21.0437 11.063 21.1145C11.1367 21.1854 11.2237 21.2412 11.3192 21.2787C11.4147 21.3163 11.5167 21.3349 11.6195 21.3335H20.7617C20.8645 21.3349 20.9665 21.3163 21.062 21.2787C21.1575 21.2412 21.2446 21.1854 21.3183 21.1145C21.3919 21.0437 21.4508 20.9593 21.4914 20.866C21.532 20.7727 21.5537 20.6724 21.5551 20.5708V11.4295C21.5537 11.3279 21.532 11.2276 21.4914 11.1343C21.4508 11.0411 21.3919 10.9566 21.3183 10.8858C21.2446 10.8149 21.1575 10.7592 21.062 10.7216C20.9665 10.684 20.8645 10.6654 20.7617 10.6668ZM14.0805 19.5948H12.4614V14.7948H14.0805V19.5948ZM13.2709 14.1228C13.0476 14.1228 12.8335 14.0352 12.6756 13.8791C12.5177 13.7231 12.429 13.5115 12.429 13.2908C12.429 13.0702 12.5177 12.8585 12.6756 12.7025C12.8335 12.5465 13.0476 12.4588 13.2709 12.4588C13.3895 12.4455 13.5096 12.4571 13.6233 12.4929C13.737 12.5286 13.8418 12.5877 13.9308 12.6663C14.0198 12.7448 14.091 12.8411 14.1398 12.9487C14.1885 13.0563 14.2137 13.1729 14.2137 13.2908C14.2137 13.4087 14.1885 13.5253 14.1398 13.633C14.091 13.7406 14.0198 13.8368 13.9308 13.9154C13.8418 13.9939 13.737 14.053 13.6233 14.0888C13.5096 14.1245 13.3895 14.1361 13.2709 14.1228ZM19.9198 19.5948H18.3008V17.0188C18.3008 16.3735 18.0687 15.9522 17.4805 15.9522C17.2984 15.9535 17.1211 16.0099 16.9725 16.1138C16.8239 16.2178 16.7111 16.3642 16.6493 16.5335C16.6071 16.6588 16.5888 16.7909 16.5954 16.9228V19.5895H14.9763C14.9763 19.5895 14.9763 15.2268 14.9763 14.7895H16.5954V15.4668C16.7425 15.2146 16.9564 15.0068 17.2141 14.8659C17.4718 14.7249 17.7636 14.6561 18.0579 14.6668C19.1373 14.6668 19.9198 15.3548 19.9198 16.8322V19.5948Z" fill="#062B29"/>
</g>
<defs>
<clipPath id="clip0_611_524">
<rect width="32" height="32" fill="white"/>
</clipPath>
</defs>
</svg>
