<svg width="48" height="48" viewBox="0 0 48 48" fill="none" xmlns="http://www.w3.org/2000/svg">
<circle cx="24" cy="24" r="24" fill="#167C79"/>
<path d="M10.6665 14.6667V33.3334H37.3332V14.6667H10.6665ZM17.3332 30.6667C17.3332 29.6058 16.9117 28.5884 16.1616 27.8383C15.4115 27.0881 14.394 26.6667 13.3332 26.6667V21.3334C14.394 21.3334 15.4115 20.9119 16.1616 20.1618C16.9117 19.4116 17.3332 18.3942 17.3332 17.3334H30.6665C30.6665 18.3942 31.0879 19.4116 31.8381 20.1618C32.5882 20.9119 33.6056 21.3334 34.6665 21.3334V26.6667C33.6056 26.6667 32.5882 27.0881 31.8381 27.8383C31.0879 28.5884 30.6665 29.6058 30.6665 30.6667H17.3332ZM23.9998 20C25.4665 20 26.6665 21.7334 26.6665 24C26.6665 26.2667 25.4665 28 23.9998 28C22.5332 28 21.3332 26.2667 21.3332 24C21.3332 21.7334 22.5332 20 23.9998 20Z" fill="#F9F9F9"/>
</svg>
