<svg width="48" height="48" viewBox="0 0 48 48" fill="none" xmlns="http://www.w3.org/2000/svg">
<circle cx="24" cy="24" r="24" fill="#167C79"/>
<path d="M14.6668 37.3333V30.6667L13.3335 29.3333V24C13.3335 23.6464 13.474 23.3072 13.724 23.0572C13.9741 22.8071 14.3132 22.6667 14.6668 22.6667H20.0002C20.3538 22.6667 20.6929 22.8071 20.943 23.0572C21.193 23.3072 21.3335 23.6464 21.3335 24V29.3333L20.0002 30.6667V37.3333M28.0002 37.3333V32H25.3335L28.0002 24C28.0002 23.6464 28.1406 23.3072 28.3907 23.0572C28.6407 22.8071 28.9799 22.6667 29.3335 22.6667H32.0002C32.3538 22.6667 32.6929 22.8071 32.943 23.0572C33.193 23.3072 33.3335 23.6464 33.3335 24L36.0002 32H33.3335V37.3333M14.6668 14.6667C14.6668 15.3739 14.9478 16.0522 15.4479 16.5523C15.948 17.0524 16.6263 17.3333 17.3335 17.3333C18.0407 17.3333 18.719 17.0524 19.2191 16.5523C19.7192 16.0522 20.0002 15.3739 20.0002 14.6667C20.0002 13.9594 19.7192 13.2811 19.2191 12.781C18.719 12.281 18.0407 12 17.3335 12C16.6263 12 15.948 12.281 15.4479 12.781C14.9478 13.2811 14.6668 13.9594 14.6668 14.6667ZM28.0002 14.6667C28.0002 15.3739 28.2811 16.0522 28.7812 16.5523C29.2813 17.0524 29.9596 17.3333 30.6668 17.3333C31.3741 17.3333 32.0523 17.0524 32.5524 16.5523C33.0525 16.0522 33.3335 15.3739 33.3335 14.6667C33.3335 13.9594 33.0525 13.2811 32.5524 12.781C32.0523 12.281 31.3741 12 30.6668 12C29.9596 12 29.2813 12.281 28.7812 12.781C28.2811 13.2811 28.0002 13.9594 28.0002 14.6667Z" stroke="#F9F9F9" stroke-width="3" stroke-linecap="round" stroke-linejoin="round"/>
</svg>
