<svg width="1414" height="701" viewBox="0 0 1414 701" fill="none" xmlns="http://www.w3.org/2000/svg">
<path d="M1075.71 42.2284C1085.08 44.1314 1094.1 44.9591 1095.59 58.3654C1096.36 65.1936 1105.57 65.8921 1112.37 66.0764C1124.57 66.4091 1127.76 68.3809 1127.03 79.2571C1126.45 88.0406 1129.28 90.6394 1137.5 91.3626C1148.31 92.3141 1158.44 95.3969 1169.82 91.0216C1180.06 87.0864 1185.92 92.2811 1190.78 104.615C1191.81 107.227 1193.29 110.712 1196.34 108.828C1210.26 100.242 1226.87 106.93 1241.78 99.3541C1251.68 94.3216 1265.79 96.6014 1275.73 106.149C1280.53 110.767 1286.23 112.986 1292.19 108.927C1298.52 104.623 1303.75 108.583 1307.01 111.93C1317.34 122.559 1329.01 119.399 1340.87 117.138C1342.45 116.836 1343.99 116.264 1345.55 115.818C1351.99 113.973 1345.95 128.754 1353.17 122.454C1357 119.116 1359.67 118.417 1364 117.892C1383.71 115.497 1398.24 126.675 1413.36 136.584L1406.13 153.565C1405.6 153.432 1405.08 153.31 1404.55 153.199C1400.26 152.305 1396.35 144.803 1395.06 146.855C1392.39 151.09 1387.01 154.712 1387.71 160.635C1388.6 168.236 1384.84 170.032 1378.11 170.354C1372.12 170.64 1365.99 171.701 1361.35 176.439C1357.57 180.303 1353.09 180.38 1347.73 180.174C1333.87 179.64 1326.42 186.218 1324.68 200.263C1322.9 214.667 1309.45 219.837 1302.34 229.982C1300.04 233.26 1297.98 229.011 1296.74 226.825C1291.1 216.82 1294.6 207.52 1299.63 198.742C1302.07 194.496 1305.98 191.119 1309.07 187.222C1310.95 184.86 1315.83 183.342 1313.61 179.668C1311.64 176.417 1307.12 175.535 1303.21 175.636C1298.31 175.766 1295 179.121 1292.75 182.929C1288.82 189.568 1284.19 188.592 1277.38 187.371C1259.63 184.189 1241.25 182.327 1228.88 200.142C1225.61 204.858 1215.48 205.545 1218.57 213.204C1221.48 220.412 1230.43 215.643 1236.49 217.511C1240.97 218.888 1247.01 217.343 1247.21 223.374C1247.43 229.875 1254.04 237.151 1246.66 242.943C1244.37 244.741 1242.3 245.836 1241.99 248.896C1241.84 250.439 1241.89 252.774 1240 252.768C1238.22 252.763 1238.41 250.458 1238.23 248.976C1238.09 247.882 1238.19 246.762 1238.06 245.665C1237.71 242.588 1239.06 239.249 1236.67 236.48C1235.84 239.596 1235.56 243.006 1234.08 245.781C1227.05 259.027 1219.55 271.54 1203.11 275.527C1188.06 279.179 1186.56 282.262 1190.18 297.47C1191.5 303.014 1191.53 307.735 1185.59 309.696C1179.84 311.591 1178.05 306.253 1176.06 302.557C1174.54 299.708 1173.68 296.359 1173.18 293.133C1172.45 288.408 1169.83 287.982 1166.15 289.335C1163.28 290.388 1160.24 293.958 1157.62 289.728C1155.82 286.811 1154.67 284.88 1152.07 288.54C1150.51 290.732 1148.05 293.433 1148.36 295.567C1149.02 300.209 1152.46 296.452 1154.7 296.669C1161.1 297.296 1167.13 298.058 1158.72 305.601C1154.91 309.022 1156.05 313.499 1156.92 317.965C1161.39 340.774 1151.61 357.623 1129.96 365.356C1124.55 367.289 1117.8 366.959 1115.46 374.585C1113.98 379.444 1111.75 379.032 1109.59 374.167C1106.98 368.285 1103.07 372.05 1100.14 374.101C1096.16 376.89 1096.09 380.382 1099.79 383.729C1101.42 385.214 1103.18 386.583 1104.71 388.17C1115.16 398.991 1111.48 414.141 1097.26 419.792C1093.34 421.352 1092.74 418.673 1091.17 416.446C1086.9 410.387 1079.53 403.237 1074.04 408.198C1066.97 414.6 1074.45 422.204 1080.08 427.591C1084.22 431.554 1089.1 436.325 1088.05 441.473C1085.64 453.249 1096.07 460.41 1096.73 470.841C1097.03 475.543 1101.56 476.247 1105.33 477.292C1116.39 480.358 1126.69 486.694 1138.91 484.789C1141.01 484.461 1144.1 485.306 1144.25 487.566C1144.47 490.773 1141.14 489.849 1139.19 490.025C1125.25 491.276 1110.98 488.927 1098.45 484.921C1088.78 481.832 1080.6 470.714 1074.32 461.436C1069.1 453.708 1063.38 446.333 1057.2 439.356C1055.39 437.318 1052.01 436.031 1054.19 432.948C1056.66 429.472 1060.26 430.839 1062.82 433.091C1066.53 436.361 1069.77 440.167 1073.25 443.701C1074.41 444.872 1076.06 446.154 1077.46 444.974C1079.1 443.594 1077.34 442.092 1076.48 440.893C1067.41 428.199 1064.01 414.116 1065.26 398.598C1065.72 392.812 1064.78 387.021 1056.19 388.874C1048.8 390.469 1049 383.421 1046.43 379.791C1035.67 364.556 1031.67 364.165 1017.84 376.516C1014.66 379.351 1011.18 381.845 1007.71 384.309C995.761 392.787 992.612 405.347 998.75 419.289C1000.01 422.146 1003.09 425.309 999.685 428.202C996.551 430.869 993.908 427.495 990.921 426.475C977.138 421.764 971.946 410.28 970.052 397.924C967.227 379.519 953.373 368.879 943.47 355.396C940.929 351.933 937.134 351.202 933.152 351.133C928.177 351.045 923.161 350.605 918.236 351.086C915.17 351.386 912.252 350.941 909.375 350.311C904.469 349.238 901.56 355.541 905.561 358.575C907.47 360.021 909.541 361.338 911.306 362.906C914.485 365.727 911.212 367.438 910.288 369.83C904.447 384.969 889.881 388.866 877.365 394.616C869.539 398.21 862.128 403.644 852.973 404.183C851.274 404.282 849.582 405.176 849.582 407.118C849.582 409.738 851.656 411.003 853.861 411.201C859.469 411.707 864.407 408.649 869.77 407.794C877.239 406.606 880.841 411.672 877.511 418.461C870.942 431.862 862.493 444.223 850.393 453.645C831.864 468.074 830.098 473.967 837.048 495.58C842.493 512.517 841.855 515.072 827.084 526.275C821.45 530.551 816.621 534.47 819.423 542.563C820.531 545.764 820.803 550.14 818.152 551.968C807.557 559.286 804.089 571.458 797.437 581.358C786.742 597.272 770.352 596.507 754.583 597.706C749.642 598.083 745.915 593.183 745.415 589.352C743.611 575.566 736.774 563.018 732.036 550.86C724.746 532.152 719.276 516.023 726.58 496.297C728.676 490.635 725.915 481.282 722.188 475.782C715.946 466.567 712.979 457.283 713.267 446.443C713.358 442.989 711.48 438.688 707.999 439.194C698.506 440.574 690.805 431.829 682.852 433.619C673.929 435.63 664.158 433.872 655.958 438.974C650.449 442.4 645.576 441.022 640.56 437.725C627.965 429.448 620.829 415.907 609.84 406.084C608.688 405.052 607.992 403.028 608.267 401.508C612.046 380.586 604.819 356.526 624.561 340.111C634.158 332.131 637.948 319.901 647.182 311.723C651.06 308.288 651.239 303.638 645.345 301.339C641.416 299.804 637.318 297.596 638.597 293.353C640.728 286.283 636.625 278.83 640.208 272.359C643.426 266.554 649.674 267.607 655.146 267.899C671.456 268.768 672.947 267.517 670.049 250.885C668.822 243.839 670.5 240.553 676.519 236.197C683.502 231.142 690.173 225.266 697.271 220.252C708.689 212.184 709.979 209.049 701.825 196.795C699.273 192.961 697.617 189.21 696.611 184.893C693.811 172.864 695.698 167.689 707.052 162.354C714.975 158.633 720.915 153.763 724.399 145.626C730.452 131.488 742.112 123.474 755.914 118.161C761.579 115.981 767.497 114.46 773.201 112.367C783.362 108.638 792.041 106.914 801.254 116.663C807.317 123.078 818.887 122.091 826.914 127.294C829.642 129.065 833.882 129.37 835.59 131.697C842.273 140.791 847.17 145.499 850.965 129.766C851.837 126.156 857.609 124.951 860.722 128.658C865.452 134.293 869.712 132.973 875.08 129.874C884.084 124.676 894.528 127.311 904.225 125.421C914.515 123.417 907.764 118.981 906.438 115.156L906.623 114.927C914.719 116.586 922.776 118.475 930.924 119.806C935.236 120.51 938.275 120.614 939.614 113.863C942.521 99.2084 949.102 96.4446 965.192 97.9599C970.951 98.5016 976.517 97.5089 982.349 100.086C985.718 101.573 991.76 100.919 992.695 94.9349C993.998 86.5886 998.264 87.6639 1004.55 89.5064C1010.36 91.2086 1018.3 94.1209 1018.21 82.3866C1018.19 79.3121 1021.99 78.7511 1024.66 78.1681C1036.39 75.6106 1047.33 70.2261 1059.98 70.7899C1071.59 71.3069 1074.72 63.5986 1068.48 52.5299C1071.9 49.8184 1073.87 46.0701 1075.71 42.2284ZM703.643 270.773C691.402 272.934 683.097 280.318 678.112 290.958C675.675 296.158 673.552 300.822 668.165 303.382C666.369 304.235 662.728 303.745 663.168 306.088C663.512 307.914 667.186 307.532 669.155 306.844C679.022 303.404 688.842 300.184 699.419 299.265C705.196 298.762 710.383 299.593 715.418 301.897C720.368 304.163 719.733 308.844 720.005 313.288C720.219 316.742 722.923 319.621 726.38 319.8C737.456 320.369 748.011 329.76 759.745 321.576C761.555 320.314 765.49 320.575 767.695 321.656C779.9 327.648 792.954 323.49 805.497 325.214C811.64 326.059 813.824 320.044 815.001 315.584C816.439 310.128 812.012 310.018 807.763 309.724C804.083 309.468 800.266 306.388 796.922 306.96C785.405 308.929 780.334 304.147 779.606 293.092C779.46 290.859 778.104 288.73 775.329 289.112C773.462 289.371 773.624 291.42 772.918 292.778C768.839 300.627 758.282 301.974 753.233 295.297C751.701 293.273 751.567 287.902 749.342 289.019C737.877 294.772 732.806 284.127 725.167 280.431C720.151 278.002 717.032 277.111 716.529 284.393C716.262 288.268 714.095 293.16 709.726 291.873C703.447 290.025 709.019 285.672 709.288 282.386C709.703 277.461 713.268 270.905 703.643 270.773ZM747.389 210.443C755.032 210.842 754.399 210.44 757.504 205.548C764.794 194.056 761.904 182.696 758.098 171.25C757.028 168.03 757.454 162.082 751.553 164.185C747.059 165.789 744.246 171.019 747.159 174.976C757.001 188.363 744.051 194.826 738.755 202.922C735.443 207.985 728.789 213.119 723.167 203.557C722.345 202.157 720.45 201.024 719.119 202.344C718.165 203.29 717.786 205.444 718.052 206.893C719.807 216.391 727.29 214.367 733.686 214.384C738.62 214.398 741.746 208.04 747.389 210.443ZM838.318 277.271C835.986 268.182 823.094 268.969 821.188 258.541C820.754 256.162 817.503 262.193 815.191 263.942C811.528 266.711 807.829 267.539 805.56 262.985C803.704 259.258 801.707 257.02 798.479 260.422C794.788 264.31 790.419 268.325 791.128 274.603C791.579 278.594 794.648 280.871 798.02 280.136C808.602 277.832 818.403 279.311 828.393 283.244C832.579 284.888 837.163 282.914 838.318 277.271ZM827.887 363.541C824.425 364.289 824.29 366.805 824.109 369.558C823.576 377.583 829.345 382.249 833.588 387.714C835.513 390.191 837.49 394.622 840.672 393.266C845.265 391.308 842.372 386.798 841.503 383.393C839.855 376.925 835.087 372.195 831.746 366.673C830.981 365.403 829.326 364.671 827.887 363.541ZM2.22712e-06 221.68C13.8298 213.199 27.8328 205.089 43.3125 199.864C45.287 199.198 48.0315 197.975 47.817 195.588C47.5695 192.824 44.2338 194.026 42.4848 192.997C35.3595 188.806 27.973 184.981 21.219 180.254C12.8755 174.413 13.2633 169.578 21.8543 164.345C23.7078 163.215 25.8885 162.629 27.907 161.76C30.2198 160.762 34.9278 161.449 34.0038 158.036C33.1925 155.039 29.1693 157.871 26.5815 157.726C24.4063 157.605 22.0688 157.728 20.108 156.961C16.3268 155.482 12.991 152.663 13.6675 148.362C14.5283 142.887 19.3903 142.463 23.947 142.411C25.9765 142.386 28.886 144.765 29.788 142.224C30.6268 139.864 27.1508 139.488 25.399 138.352C12.3118 129.854 12.3612 127.775 25.5447 120.122C28.8805 118.186 32.0045 115.807 35.5053 114.259C45.4575 109.859 54.8103 107.194 66.5555 111.325C79.2852 115.802 93.6017 115.541 107.03 118.31C123.69 121.745 139.508 121.824 156.497 117.507C172.816 113.36 190.308 116.445 206.676 122.201C208.643 122.891 211.164 124.629 212.693 122.347C214.077 120.282 212.388 118.04 210.537 116.795C207.774 114.938 205.246 113.379 204.545 109.529C203.75 105.168 201.171 104.194 197.807 107.81C193.82 112.098 189.021 112.021 184.126 109.889C179.116 107.709 175.285 104.508 178.753 98.4631C180.694 95.0779 182.82 91.9869 182.586 87.8096C182.256 81.9494 187.38 80.6596 190.3 82.5351C199.697 88.5631 211.478 85.2219 221.023 92.5974C228.872 98.6639 239.709 100.443 250.063 94.1319C256.039 90.4909 262.345 89.6851 261.038 100.429C260.532 104.601 261.932 109.155 265.023 110.791C273.509 115.282 280.629 118.744 268.549 127.531C266.016 129.373 267.9 132.844 271.051 133.737C274.807 134.802 280.195 135.541 280.627 130.751C281.133 125.138 283.08 122.091 287.46 118.854C294.608 113.574 293.406 110.351 284.226 110.255C276.768 110.175 274.214 102.448 268.601 99.3707C275.138 98.1937 277.706 90.3534 284.754 89.8694C288.591 89.6054 292.391 88.7749 296.2 88.1479C301.634 87.2541 305.354 84.5481 306.155 78.7126C306.562 75.7536 306.347 73.0256 302.852 72.3299C297.866 71.3399 293.483 68.3754 288.984 75.5941C282.631 85.7829 270.044 77.2551 261.247 81.9219L258.968 75.8856C260.345 74.4226 260.499 72.9624 258.962 71.5021C260.092 65.6336 255.833 60.3426 258.679 53.7619C263.453 42.7234 264.652 41.5959 274.277 47.6954C277.148 49.5159 280.822 51.5674 279.7 55.1011C278.195 59.8256 274.194 55.8216 271.334 56.0141C267.784 56.2534 264.366 56.5724 264.327 61.0274C264.289 65.4109 267.526 66.1891 271.189 66.1671C275.047 66.1451 278.916 66.5246 282.761 66.3184C289.853 65.9389 293.997 63.5326 288.296 56.1874C285.816 52.9891 282.631 49.4581 286.72 46.2296C290.978 42.8664 293.931 47.7531 295.994 50.3546C298.053 52.9534 305.277 52.9506 301.001 60.0924C299.706 62.2566 306.562 63.7334 310.063 64.5969C311.737 65.0094 313.384 63.9864 313.802 62.1191C314.65 58.3269 312.843 55.7996 309.603 54.0809C309.092 53.8183 308.6 53.5187 308.132 53.1844C287.672 38.1474 287.917 33.4311 309.887 20.5006C313.687 18.2576 317.806 16.6035 322.102 15.5946C344.592 10.2321 367.639 8.6839 390.464 6.01365C400.004 4.89715 410.11 8.16413 419.895 9.82788C423.613 10.4604 430.111 11.9949 430.202 13.4441C430.468 17.6571 424.617 17.5031 422.001 20.1926C420.516 21.7216 417.747 22.8106 419.224 25.3791C420.91 28.3079 424.641 28.4481 426.253 26.2866C435.853 13.4249 449.243 16.6781 462.413 15.8586C473.129 15.1931 483.953 13.7824 494.967 9.99287C507.095 5.81837 521.56 4.60838 535.186 3.51663C537.917 3.29938 541.428 4.85038 543.337 3.63488C559.82 -6.84812 573.603 8.75264 588.992 8.01014C590.826 7.92214 592.24 9.47311 591.651 11.3129C591.211 12.6879 589.787 14.6624 588.668 14.7531C580.979 15.3829 573.251 15.5479 565.54 15.9631C563.951 16.0484 562.383 16.5709 560.805 16.8926C561.74 19.5904 564.138 18.6691 565.878 18.6664C582.348 18.6279 598.788 20.9544 615.31 18.9744C619.322 18.4931 625.138 17.9211 625.927 23.9574C626.549 28.7066 621.5 29.6059 618.216 31.4071C606.414 37.8861 593.252 43.5841 602.294 61.2666C603.424 63.4749 600.49 65.5154 600.539 67.2314C600.985 82.4801 587.656 94.3986 590.502 110.296C591.302 114.768 588.495 119.432 583.949 120.834C574.018 123.898 566.294 132.651 554.953 131.944C553.88 131.878 552.552 131.953 551.721 132.522C535.486 143.626 513.865 148.895 508.428 171.8C506.363 180.498 501.27 181.585 493.501 179.363C481.195 175.843 475.109 166.479 468.927 156.37C462.522 145.895 459.745 136.413 469.554 126.576C471.086 125.042 470.979 123.117 468.837 121.112C463.944 116.536 455.298 101.543 454 96.5574C450.021 81.2619 434.792 68.7741 419.702 72.8056C403.029 77.2606 397.029 66.1616 388.655 57.3781C385.25 53.8086 388.234 51.3116 391.311 49.7744C395.714 47.5716 400.901 47.5854 405.166 44.5411C408.623 42.0744 408.856 39.9679 407.094 36.3379C405.234 32.5071 402.957 33.8546 400.439 34.8639C385.454 40.8644 372.155 48.2151 367.235 65.6474C365.588 71.4911 360.973 76.2596 359.461 82.9531C358.16 88.7117 350.273 87.3999 344.954 88.2634C343.016 88.5796 339.658 86.7454 339.488 89.4294C339.361 91.4204 343.39 90.4689 345.117 91.4616C357.068 98.3201 371.891 94.1456 383.82 102.783C393.319 109.661 404.511 113.266 409.134 126.197C411.389 132.508 420.131 134.791 426.715 137.557C429.792 138.85 434.255 139.848 430.895 143.827C428.263 146.943 427.014 154.415 419.975 150.702C417.604 149.451 415.839 147.072 413.746 145.268C412.53 144.22 410.883 142.821 409.533 144.003C408.042 145.307 409.494 146.929 410.531 148.109C411.988 149.77 413.771 151.175 415.063 152.943C417.423 156.172 423.605 159.191 418.767 163.638C415.118 166.996 410.523 172.4 404.344 169.501C392.169 163.795 381.263 154.604 366.35 157.255C364.936 157.506 363.547 155.633 363.523 153.832C363.492 151.816 364.928 150.991 366.724 150.848C369.471 150.628 372.378 151.029 374.946 150.265C381.997 148.164 386.328 139.449 383.818 133.168C380.9 125.872 363.223 117.389 354.854 118.348C348.923 119.03 352.795 121.365 352.393 123.887C351.263 130.993 356.925 142.254 341.8 142.862C336.43 143.079 340.681 147.504 342.845 149.509C346.778 153.152 355.977 153.727 354.899 159.035C353.873 164.095 344.905 156.738 340.359 161.892C338.467 164.037 334.939 164.26 332.679 162.414C323.807 155.176 318.45 162.689 312.785 167.177C295.933 180.531 296.629 187.912 316.192 197.339C320.617 199.471 324.695 202.677 329.431 203.829C341.767 206.835 352.278 211.433 355.377 225.546C355.924 228.032 358.993 232.537 362.703 229.055C364.744 227.138 364.757 223.943 363.182 221.63C358.35 214.535 359.263 209.827 367.551 206.2C371.25 204.583 370.125 200.323 368.577 197.367C365.824 192.114 366.88 186.573 366.627 181.12C365.984 167.136 373.838 162.018 386.43 168.662C391.218 171.19 396.726 174.154 399.407 178.469C403.906 185.71 407.443 189.463 416.149 184.065C421.809 180.556 425.835 185.943 427.664 190.327C431.665 199.916 438.982 206.093 446.43 212.712C452.1 217.753 461.073 222.279 455.733 233.067C454.006 236.552 457.905 237.322 460.042 238.763C463.755 241.268 467.228 244.043 468.053 248.822C468.432 251.019 467.011 254.894 466.741 254.685C460.663 249.98 453.406 254.46 447.428 252.062C443.396 250.445 443.171 246.171 444.68 242.002C446.999 235.597 443.641 235.762 438.867 236.945C435.693 237.731 432.196 238.235 429.008 237.753C417.519 236.024 418.165 239.929 421.658 249.092C424.757 257.223 427.93 256.588 433.711 253.324C436.414 251.798 439.26 252.141 440.525 255.312C441.727 258.323 439.852 261.846 437.555 262.217C428.94 263.614 421.905 273.996 411.669 266.697C408.59 264.503 403.414 266.169 402.886 268.619C400.796 278.343 392.601 280.904 385.841 285.367C384.565 286.208 383.633 287.933 383.075 289.445C378.1 302.86 370.991 314.341 359.205 323.358C353.215 327.94 352.828 335.906 358.974 342.493C361.991 345.724 362.843 350.184 358.779 352.511C354.753 354.813 354.186 349.035 351.769 347.247C349.192 345.342 347.014 342.575 345.381 339.767C340.566 331.495 333.171 330.604 325.295 333.129C320.474 334.674 315.818 335.843 310.794 335.846C300.905 335.851 292.078 335.362 294.371 350.839C295.226 356.611 286.971 363.096 294.522 370.466C300.022 375.831 304.992 378.377 311.93 374.046C314.27 372.586 316.459 370.873 318.827 369.456C322.275 367.391 326.565 365.807 329.854 367.845C334.901 370.974 329.959 374.91 328.625 377.624C324.335 386.372 325.179 390.904 336.16 390.813C342.018 390.766 345.287 394.682 345.422 400.441C345.548 405.836 343.261 412.62 350.16 414.705C357.357 416.877 366.492 417.614 372.108 413.126C384.197 403.466 396.107 405.512 409.104 409.584C412.599 410.679 416.229 411.196 419.884 411.435C440.965 412.827 452.568 432.737 471.922 437.439C478.522 460.281 502.109 456.75 517.294 466.234C521.23 468.693 526.284 469.955 530.541 472.581C538.75 477.652 541.013 484.162 534.784 491.804C528.556 499.443 526.944 508.397 524.293 517.448C519.934 532.322 517.25 549.504 495.866 550.857C490.102 551.223 487.108 556.646 485.403 562.435C478.561 585.667 476.088 588.117 450.989 597.814C449.042 598.567 448.478 599.337 449.116 601.125C453.06 612.163 445.5 615.169 437.5 615.917C430.023 616.618 429.641 622.836 426.674 626.884C421.339 634.163 420.096 644.077 412.143 649.857C411.648 650.218 412.203 653.416 413.152 654.145C418.294 658.091 416.015 660.635 412.745 664.743C401.899 678.383 402.094 679.131 411.835 693.321C413.391 695.587 416.4 697.276 411.513 698.92C398.302 703.364 385.899 697.221 380.894 684.067C376.989 673.81 376.758 662.601 379.486 653.012C385.182 632.986 384.351 612.177 389.191 591.871C392.895 576.325 395.885 559.03 396.132 542.107C396.289 531.517 392.065 523.363 383.677 518.405C374.393 512.916 369.19 505.205 365.692 495.596C364.763 493.044 363.093 490.767 361.919 488.292C358.82 481.761 346.506 479.602 353.573 468.038C357.396 461.785 355.715 452.685 362.758 447.515C367.293 444.188 367.524 439.348 367.785 434.202C368.066 428.705 366.74 426.439 360.693 425.851C349.756 424.789 338.291 423.609 335.596 409.32C335.011 406.216 331.293 405.875 328.831 405.377C316.126 402.795 306.105 394.36 291.42 393.824C279.026 393.373 262.323 387.084 256.033 370.576C253.256 363.285 250.148 357.986 238.656 360.313C229.257 362.216 223.157 350.393 219.967 341.827C214.992 328.476 207.9 318.224 196.413 309.031C183.997 299.095 180.587 282.771 180.901 266.906C181.115 256.066 181.937 245.805 170.277 239.907C167.794 238.65 166.777 236.629 166.433 233.384C165.066 220.514 164.01 219.793 150.343 218.707C145.945 218.358 146.119 214.623 144.501 211.901C134.56 195.175 121.935 182.792 100.84 180.512C93.1947 179.684 88.5005 183.628 82.3982 184.808C75.922 186.059 68.2137 183.039 72.4708 195.076C73.7275 198.635 68.1533 204.022 63.5938 202.548C55.2585 199.85 51.2875 204.316 47.014 209.613C45.9965 210.875 44.6985 212.819 43.4692 212.866C28.3662 213.441 15.8813 223.456 0.968002 224.548L2.22712e-06 221.68ZM313.965 98.2157C311.256 98.6722 308.55 99.2056 306.672 101.458C304.53 104.026 305.335 106.721 307.126 108.872C312.923 115.832 317.232 124.456 327.487 126.53C329.478 126.931 326.97 132.989 331.262 131.931C333.358 131.416 335.517 128.309 336.276 125.936C337.255 122.875 334.469 120.741 331.873 120.1C322.977 117.906 319.836 111.605 318.882 103.366C318.555 100.553 317.697 97.9352 313.965 98.2157Z" fill="#3B8249" fill-opacity="0.22"/>
<path d="M1238.11 507.512C1237.96 499.4 1238.27 492.453 1229.56 490.349C1228.5 490.094 1226.56 489.516 1226.59 489.269C1228.52 472.491 1213.73 475.197 1205.15 470.651C1203.25 469.645 1201.66 467.934 1200.16 466.325C1197.49 463.446 1194.39 459.91 1197.47 456.208C1201.08 451.868 1206.85 453.315 1208.79 457.217C1212.83 465.385 1217.85 462.959 1224.79 462.346C1240.16 460.985 1252.49 469.216 1260.86 481.343C1264.12 486.054 1273.26 491.331 1270.42 494.455C1265.91 499.433 1260.11 491.826 1254.98 489.241C1250.85 487.162 1247.26 488.196 1244.54 491.353C1241.5 494.878 1243.52 498.371 1245.24 502.037C1253.63 519.895 1265.98 535.059 1277.77 550.613C1288.74 565.089 1289.36 573.083 1280.56 588.857C1278.93 591.769 1277.27 594.665 1275.88 597.698C1265.26 621.01 1247.65 623.884 1229.59 606.779C1221.05 598.686 1210.76 592.347 1200.86 585.813C1194.69 581.737 1188.37 583.693 1182.14 587.158C1172.01 592.795 1161.4 596.799 1149.54 597.973C1136.58 599.255 1136.43 599.989 1134.6 586.874C1133.04 575.597 1126.29 565.754 1127.85 553.324C1129.1 543.4 1132.84 538.471 1142.01 535.865C1149.6 533.711 1156.71 532.331 1160.38 522.029C1162.42 516.317 1173.17 510.587 1182.11 511.007C1187.32 511.252 1190.24 510.446 1192.85 506.013C1196.93 499.058 1203.97 499.834 1210.63 500.335C1214.96 500.659 1218.6 502.639 1217.53 507.553C1215.12 518.633 1222.25 522.332 1230.39 521.886C1239.75 521.372 1237.23 512.319 1238.11 507.512ZM735.017 36.998C729.691 38.3125 722.439 32.6255 719.056 40.7958C715.583 49.186 725.247 51.375 727.595 57.1143C728.904 60.3098 731.717 62.111 734.316 64.1763C739.002 67.8998 743.969 68.4718 746.996 63.1368C751.66 54.9143 756.723 54.7713 763.535 60.0705C765.3 61.4428 767.767 61.1458 769.634 59.603C771.029 58.4508 771.793 56.336 770.402 55.2965C755.736 44.3515 768.856 46.2078 775.156 44.4945C777.708 43.7988 780.032 42.0745 782.298 40.573C783.574 39.7288 785.353 38.4198 785.411 37.251C785.496 35.4965 783.31 35.249 781.781 35.1473C774.103 34.6413 766.895 30.893 758.197 32.1415C750.335 30.4915 742.968 35.0345 735.017 36.998ZM247.541 66.1095C244.97 63.233 241.005 62.551 239.423 66.4258C233.258 81.5288 225.75 70.0833 221.07 66.5C208.588 56.9493 203.214 56.435 192.618 66.6925C188.026 71.1393 187.737 73.9278 194.612 75.3028C203.775 77.1343 212.388 79.7688 220.677 84.6968C230.717 90.6671 250.924 85.156 258.965 75.8858C260.343 74.4228 260.497 72.9625 258.959 71.5023C254.111 71.9038 250.671 69.6103 247.541 66.1095ZM1109.07 448.929C1108.48 449.352 1108.37 451.066 1108.64 452.011C1110.77 459.497 1113.02 467.007 1121.96 469.166C1129.68 471.033 1135.33 468.938 1140.25 461.966C1146.4 453.232 1143.6 442.865 1147.12 433.705C1148.42 430.322 1144.09 428.529 1138.38 428.491C1129.51 434.634 1119.24 441.707 1109.07 448.929ZM872.341 504.341C865.458 509.179 855.916 512.962 852.379 520.321C848.306 528.8 846.838 539.057 847.426 548.982C847.633 552.466 849.47 555.249 853.245 555.92C857.816 556.734 863.244 556.435 864.551 551.749C868.172 538.769 875.19 526.861 876.978 514.151C875.441 509.833 876.879 501.151 872.341 504.341ZM906.631 114.955C895.249 102.316 895.263 99.6513 908.174 88.9345C915.791 82.6123 924.102 77.3515 934.007 75.014C938.237 74.0158 942.367 72.4043 946.333 70.6058C947.389 70.1273 948.244 67.9025 948.175 66.533C948.041 63.9398 945.887 62.595 943.544 63.1698C922.213 68.3865 900.867 73.6308 887.048 93.098C881.524 100.881 883.424 109.342 891.877 113.553C896.511 115.86 901.535 115.123 906.447 115.181L906.631 114.955ZM1355.84 648.056C1359.81 638.456 1367.06 632.439 1375.12 626.455C1384.9 619.192 1384.2 613.945 1374.11 605.951C1371.98 604.263 1369.84 601.493 1367.08 602.753C1363.75 604.273 1365.87 607.461 1366.31 609.994C1367.58 617.314 1366.6 622.319 1358.56 626.568C1351.73 630.179 1346.87 637.865 1341.75 644.231C1337.71 649.247 1339.89 654.554 1346.17 654.917C1350.48 654.975 1354.19 652.03 1355.84 648.056ZM1238 283.478C1235.78 282.202 1233.45 282.65 1232.29 284.737C1225.26 297.404 1213.53 303.591 1200.75 308.805C1195.53 310.937 1191.89 315.331 1192.16 321.662C1192.27 324.109 1193.63 326.268 1196.19 325.129C1207.87 319.943 1219.91 315.282 1230.79 308.717C1237.34 304.768 1239.55 296.452 1241.07 290.001C1241.25 286.349 1240 284.63 1238 283.478ZM1059.99 28.0825C1052.08 22.9153 1047.2 27.835 1044.24 33.9538C1041.16 40.3173 1043.41 45.9328 1050.87 48.0723C1056.69 49.7415 1062.61 51.078 1068.49 52.563C1071.9 49.8213 1073.87 46.073 1075.71 42.2313C1072.08 35.7275 1065.97 31.9848 1059.99 28.0825ZM1222.25 74.8903C1219 80.6075 1225.96 81.4793 1228.42 84.5043C1229.45 85.7748 1230.62 86.9573 1231.5 88.324C1233.98 92.1603 1236.96 96.1808 1241.9 94.5638C1248.01 92.5645 1240.46 88.027 1242.84 84.9195C1244.15 83.209 1245.26 81.328 1246.65 79.6918C1249.95 75.817 1247.77 73.6968 1244.14 72.6985C1241.03 71.8405 1237.67 71.8295 1235.5 71.5738C1230.11 72.0358 1224.64 70.6965 1222.25 74.8903ZM1160.16 409.956C1165.51 414.576 1170.37 410.902 1173.08 407.635C1176 404.101 1172.77 399.998 1168.49 399.148C1160.74 397.611 1160.27 393.822 1162.96 387.334C1164.11 384.582 1160.84 382.219 1158.23 381.513C1154.75 380.567 1153.5 383.715 1152.63 386.254C1151.93 388.294 1152.01 390.604 1151.74 392.793C1151.2 400.185 1154.88 405.391 1160.16 409.956ZM1147.14 463.27C1147.54 468.176 1148.24 475.2 1153.57 476.421C1156.45 477.081 1163.81 474.485 1163.32 468.017C1162.97 463.281 1161.85 458.042 1155.23 457.347C1151.28 457.539 1146.78 458.884 1147.14 463.27Z" fill="#3B8249" fill-opacity="0.22"/>
</svg>
